<svg xmlns="http://www.w3.org/2000/svg" viewBox="0 0 27.78 84.13"><defs><style>.cls-1{fill:#75af9a;}.cls-2{fill:#639e8a;}.cls-3{fill:#0e2735;opacity:0.15;}.cls-4{fill:#528978;}.cls-5{fill:#fff;}</style></defs><title>Ativo 101</title><g id="Camada_2" data-name="Camada 2"><g id="Camada_1-2" data-name="Camada 1"><path class="cls-1" d="M12.92,50.05S20,43.61,16,40.23s6.77-4.35,5.8-10.48-6.28-4.18-1.93-11.11S16.78,14,18.23,10.1,19.68-2,17,.44s-1.78,11-3.87,10.79-6,2.09-2.9,8.22S2,23.47,5.67,31.53s2.58,6.12,1.93,8S7.6,44.57,12.92,50.05Z"/><path class="cls-2" d="M13.89,62.13s-1.29-14,.64-14,1.45.32,2.25-5.64,3.07-11.92,4.84-9.66,3.22-8.22,5.64-5.64-4.35,8.7-2.42,10.63,1,4.35-3.06,8.7,4.19,4.83,1.13,8.7S13.89,62.13,13.89,62.13Z"/><path class="cls-3" d="M21.59,82.26c0,1-3.82,1.87-8.53,1.87s-8.53-.84-8.53-1.87,3.82-1.88,8.53-1.88S21.59,81.22,21.59,82.26Z"/><path class="cls-4" d="M17,5.16c-.78,5.84-1.38,11.7-1.9,17.56s-.92,11.73-1.24,17.6S13.32,52.07,13.27,58s-.06,11.76.08,17.64l-1.28.13A28.83,28.83,0,0,1,12,70.39c.13-1.75.33-3.49.62-5.21A83.75,83.75,0,0,1,15,55c1-3.34,2.13-6.61,3.38-9.84l2-4.8,2.17-4.72-1.9,4.83-1.77,4.87c-1.08,3.29-2.17,6.56-3,9.9a83.42,83.42,0,0,0-2.09,10.1c-.24,1.7-.44,3.4-.54,5.11a28,28,0,0,0,.08,5l-1.28.13c-.17-5.9-.34-11.8-.18-17.7s.38-11.79.75-17.68,1-11.76,1.67-17.61S15.86,11,17,5.16Z"/><path class="cls-2" d="M11.54,65s0-8.34-1.11-8.24S9.59,57,8.8,53.52s-2.43-6.88-3.36-5.45-2.33-4.68-3.62-3,3,4.9,2,6.14-.34,2.62,2.26,5-2.22,3.07-.21,5.19A19.17,19.17,0,0,0,11.54,65Z"/><path class="cls-4" d="M12.94,72.86a32.46,32.46,0,0,0-1.24-6c-.56-2-1.21-3.88-1.95-5.78s-1.51-3.78-2.28-5.67L6.24,52.63c-.4-.94-.84-1.87-1.22-2.83.59.84,1.12,1.73,1.68,2.59s1,1.79,1.51,2.7a55,55,0,0,1,2.53,5.65,38.35,38.35,0,0,1,1.76,5.95A19.73,19.73,0,0,1,12.94,72.86Z"/><path class="cls-2" d="M11.63,49.08s2.63-17.39.43-16.64c-3.76,1.29,1.23-3.87-1.5-9.67s-2.64.93-4.62-1c-9.77-9.35-4.87-.29-3.44,1.93,2.36,3.65-4.51.05,1,7.3S-5,30.56,11.63,49.08Z"/><path class="cls-1" d="M11.66,54.45s.1-10.65-2.37-12.05c-2.79-1.58-1.72,0-5.63-2.58-2.58-1.69-2.85,2.79.16,3.87S.6,46.56,5.11,48.92A18.37,18.37,0,0,1,11.66,54.45Z"/><path class="cls-4" d="M2.72,21.06a7.24,7.24,0,0,1,2.61,2.37A16.14,16.14,0,0,1,7,26.57a48.36,48.36,0,0,1,2.15,6.77,105.05,105.05,0,0,1,2.75,13.94c.6,4.7,1,9.43,1.18,14.15s.22,9.46.25,14.18l-1.31,0q.19-4.32,0-8.67c-.1-2.88-.24-5.79-.54-8.66a37.81,37.81,0,0,0-1.75-8.44,19.83,19.83,0,0,0-1.83-3.9,17.28,17.28,0,0,0-2.75-3.35,15.89,15.89,0,0,1,3,3.17,20.44,20.44,0,0,1,2.09,3.88,34.91,34.91,0,0,1,2.14,8.52c.4,2.91.64,5.81.83,8.73s.19,5.85.09,8.78l-1.3,0c0-4.71-.18-9.42-.33-14.12s-.46-9.4-1-14.06A118.34,118.34,0,0,0,8.41,33.54a59.77,59.77,0,0,0-1.8-6.81,16,16,0,0,0-1.49-3.16A7.3,7.3,0,0,0,2.72,21.06Z"/><path class="cls-5" d="M6.25,72.07c0,4.13,1.21,7.77,3.06,9.94h7.93c1.85-2.17,3.06-5.81,3.06-9.94a20.72,20.72,0,0,0-.24-3.1H6.49A19.47,19.47,0,0,0,6.25,72.07Z"/></g></g></svg>