<svg xmlns="http://www.w3.org/2000/svg" viewBox="0 0 32.72 71.41"><defs><style>.cls-1{fill:#e5beb5;}.cls-2{fill:#fff;}.cls-11,.cls-3{fill:#172d3a;}.cls-4{fill:#2d4856;}.cls-5{fill:#e2c3bc;}.cls-6{fill:#ffded4;}.cls-7{fill:#8c734d;}.cls-8{fill:#4c493f;}.cls-9{fill:#0c181e;}.cls-10{fill:#edb0b0;}.cls-11{opacity:0.2;}</style></defs><title>Ativo 80</title><g id="Camada_2" data-name="Camada 2"><g id="Personagens"><path class="cls-1" d="M3.16,33A16.07,16.07,0,0,0,.72,34.27c-.23.29-1.56,5.1.12,1.16,0,0-.64,3.88.69.17,0,0,.12,3.31.7-.06,0,0,.52,3.54.75,0a5.76,5.76,0,0,0,1.1-.11c.47-.12.89-1.23.89-1.23Z"/><polygon class="cls-2" points="18.48 66.07 18.22 69.65 16.78 69.84 16.87 65.97 18.48 66.07"/><path class="cls-3" d="M16.41,67.91a4.69,4.69,0,0,1-2,1.46c-1.24.41-2.35.91-2.23,1.62a7.22,7.22,0,0,0,4.88-.3V71l2-.16-.1-2.5-1.64.18.11-.26Z"/><path class="cls-4" d="M15.73,70.78c-2.68.77-3.4.06-3.56,0a.4.4,0,0,0,0,.19,7.22,7.22,0,0,0,4.88-.3V71l2-.16,0-.5A10.34,10.34,0,0,0,15.73,70.78Z"/><polygon class="cls-2" points="26.7 66.14 26.23 69.7 27.6 70.18 28.3 66.37 26.7 66.14"/><path class="cls-3" d="M28.41,68.1a4.65,4.65,0,0,0,2.05,1.42c1.24.38,2.36.86,2.26,1.57a7.16,7.16,0,0,1-4.89-.2v.31l-2-.13.05-2.5,1.65.14-.12-.25Z"/><path class="cls-4" d="M29.15,71c2.69.71,3.39,0,3.55-.06a.43.43,0,0,1,0,.19,7.16,7.16,0,0,1-4.89-.2v.31l-2-.13v-.5A10.66,10.66,0,0,1,29.15,71Z"/><polygon class="cls-1" points="21.13 10.43 21.3 15.77 21.68 18.48 19.68 19.09 17.37 19.84 17.55 15.89 17.58 11.85 21.13 10.43"/><polygon class="cls-5" points="21.13 10.43 21.3 15.77 21.68 18.48 19.68 19.09 17.37 19.84 17.55 15.89 17.58 11.85 21.13 10.43"/><path class="cls-6" d="M20,3c-2.74.35-2.85,2.2-2.85,2.2a15.93,15.93,0,0,0-.39,2.76.89.89,0,0,0-1.07-.41c-.95.3-.56,3.24.85,3.13a7.07,7.07,0,0,0,.3,2c.3.86,1.82,1.93,3.32,2.28a3.74,3.74,0,0,0,4.1-2.64,77.94,77.94,0,0,0,.58-8.22S24.54,2.39,20,3Z"/><path class="cls-7" d="M18.87,4.36c-.73-.07-1.84-.44-2.56-.52l-.06.53a28.4,28.4,0,0,1-.2,3.08.69.69,0,0,1,.64.77l0,1.31h.73l.31-2.75a1.41,1.41,0,0,0,.72-.64S18.71,4.84,18.87,4.36Z"/><path class="cls-8" d="M18.77,6.45a1.18,1.18,0,0,1,.49-.83,1.42,1.42,0,0,1,.9-.28,1.25,1.25,0,0,1,1.26,1.28l-.83.12a3.13,3.13,0,0,1-.49,0A5.69,5.69,0,0,1,18.77,6.45Z"/><path class="cls-8" d="M22.47,6.93a1,1,0,0,1,.31-.84,1.1,1.1,0,0,1,.87-.28,1.07,1.07,0,0,1,.81.49,1,1,0,0,1,.07.9c-.36,0-.58,0-.74,0s-.24,0-.3,0A10.33,10.33,0,0,0,22.47,6.93Z"/><path class="cls-2" d="M19.3,11.64l3.43.51S21.47,13.91,19.3,11.64Z"/><polygon class="cls-5" points="21.29 10.78 22 7.76 22.59 10.73 21.29 10.78"/><path class="cls-3" d="M13.7,31.54s-3.1,17.77,2.21,35.58a2.92,2.92,0,0,0,3.39,0s-1.52-17-.54-27l1.26.23s2.87,8.78,3.13,11.16,1.94,15.3,2.41,16.38c0,0,2.57.77,3.35-.59,0,0-.33-9.92-.44-14.12-.07-3.12-3.76-20.53-3.76-20.53Z"/><path class="cls-9" d="M23.31,8.46c0,.29,0,.55.2.58s.34-.18.4-.47,0-.56-.2-.59S23.37,8.16,23.31,8.46Z"/><path class="cls-9" d="M20,8c-.05.3,0,.56.2.59s.34-.18.4-.48,0-.55-.2-.58S20,7.67,20,8Z"/><path class="cls-10" d="M17.11,16.32S16.45,19.21,19,19.2s2.88-3,2.88-3,4.09.29,5.36.87,5.15,10.37,4.9,12.27-8.22,3-8.22,3l-.9-2.11,4.69-2.64L26.3,25.08l-.84,10s-3.65,2.46-12.56.16L12.63,25,5.05,34.8,2.66,33s7.72-13.72,9.25-15S17.11,16.32,17.11,16.32Z"/><path class="cls-11" d="M26.77,30.76a2.22,2.22,0,0,1,.09-.37,29.38,29.38,0,0,1-5-1.09,70.75,70.75,0,0,1-9.22-3.5l.25,9.48c8.91,2.3,12.56-.16,12.56-.16l.26-3,1.17-.23A2.08,2.08,0,0,1,26.77,30.76Z"/><path class="cls-6" d="M28,31.15s-7.09,1.75-7,1.1-.44-1,.73-1.39l6.33-2Z"/><path class="cls-6" d="M22.32,32.35s.21-1.07-.2-1.54A1.89,1.89,0,0,0,20.79,30c-.6,0-1.09-.57-1.2-.44s-.45.49.58.86c0,0,.47.08.3.26s-.76.06-1.58.08c-1.13,0-.93.17-.78.3s1.38.22,1.72.35-1.89.08-1.91.35c0,.45,2.24.17,2,.33s-1.61.32-1.69.49c-.23.53,2,0,2.06.11s-1,.38-1.05.62.53.09.85,0,.54-.2.91-.29A2,2,0,0,0,22.32,32.35Z"/><path class="cls-10" d="M30.22,22.62c-1.25.92-2.52,1.82-3.73,2.79l1.26,2.2-4.86,2.26L24,32.36s8-1.08,8.22-3c.13-1-.81-4-1.94-6.77Z"/><polygon class="cls-10" points="16.46 16.67 16.59 14.61 22.13 15.34 22.13 16.5 21.49 19.76 17.28 21.14 16.46 16.67"/><path class="cls-7" d="M18.87,4.36a6.08,6.08,0,0,0,4.47.41l-1-.22s4.31.62,4.61-2.74a5.45,5.45,0,0,1-3.37-.05,3.74,3.74,0,0,0,1.64-.08A10.9,10.9,0,0,1,22.05.47c-1.68-.94-4.51-.51-4.6,1.64a1.51,1.51,0,0,0-1.8,1.37,14.16,14.16,0,0,0,.4,4Z"/></g></g></svg>