<svg xmlns="http://www.w3.org/2000/svg" xmlns:xlink="http://www.w3.org/1999/xlink" viewBox="0 0 38.68 48.54"><defs><style>.cls-1{fill:#2b3336;}.cls-2{fill:#e0b29d;}.cls-3{fill:#212020;}.cls-4{isolation:isolate;}.cls-5{clip-path:url(#clip-path);}.cls-6{clip-path:url(#clip-path-2);}.cls-7{fill:#353f43;}.cls-8{clip-path:url(#clip-path-3);}.cls-9{clip-path:url(#clip-path-4);}.cls-10{clip-path:url(#clip-path-5);}.cls-11{clip-path:url(#clip-path-6);}.cls-12{clip-path:url(#clip-path-7);}.cls-13{clip-path:url(#clip-path-8);}.cls-14{fill:#2b2e31;}.cls-15{fill:#1e2022;}.cls-16{fill:#303437;}.cls-17{fill:#455257;}.cls-18{fill:#242629;}.cls-19{fill:#224e5d;}.cls-20{fill:#638a28;}.cls-21{fill:#a1b400;}.cls-22{fill:#293033;}.cls-23{fill:#022540;}.cls-24{fill:#fc649a;}.cls-25{fill:#260905;}.cls-26{fill:#358683;}.cls-27{fill:#b3d246;}</style><clipPath id="clip-path"><path id="SVGID" class="cls-1" d="M23.42,45.52l.75.2a.61.61,0,0,0-.43.09L23,45.62A.57.57,0,0,1,23.42,45.52Z"/></clipPath><clipPath id="clip-path-2"><path id="SVGID-2" data-name="SVGID" class="cls-1" d="M23.4,46.9l-.75-.2a.26.26,0,0,1-.2-.25,1,1,0,0,1,.54-.83l.75.19a1.07,1.07,0,0,0-.54.84A.27.27,0,0,0,23.4,46.9Z"/></clipPath><clipPath id="clip-path-3"><path id="SVGID-3" data-name="SVGID" class="cls-1" d="M12.4,42.88l.75.19a.64.64,0,0,0-.43.1L12,43A.61.61,0,0,1,12.4,42.88Z"/></clipPath><clipPath id="clip-path-4"><path id="SVGID-4" data-name="SVGID" class="cls-1" d="M12.38,44.25l-.75-.19a.28.28,0,0,1-.2-.25A1.07,1.07,0,0,1,12,43l.75.2a1.1,1.1,0,0,0-.54.83A.27.27,0,0,0,12.38,44.25Z"/></clipPath><clipPath id="clip-path-5"><path id="SVGID-5" data-name="SVGID" class="cls-1" d="M12.58,47.14l-.71.42a.56.56,0,0,1,.43,0l.71-.42A.56.56,0,0,0,12.58,47.14Z"/></clipPath><clipPath id="clip-path-6"><path id="SVGID-6" data-name="SVGID" class="cls-1" d="M12.79,48.48l.71-.41a.33.33,0,0,0,.15-.31.86.86,0,0,0-.64-.65l-.71.42a.82.82,0,0,1,.64.65A.3.3,0,0,1,12.79,48.48Z"/></clipPath><clipPath id="clip-path-7"><path id="SVGID-7" data-name="SVGID" class="cls-1" d="M23.07,41.21l-.71.42a.56.56,0,0,1,.43,0l.7-.42A.58.58,0,0,0,23.07,41.21Z"/></clipPath><clipPath id="clip-path-8"><path id="SVGID-8" data-name="SVGID" class="cls-1" d="M23.28,42.55l.71-.41a.33.33,0,0,0,.15-.31.86.86,0,0,0-.65-.65l-.7.42a.86.86,0,0,1,.64.65A.3.3,0,0,1,23.28,42.55Z"/></clipPath></defs><title>Ativo 84</title><g id="Camada_2" data-name="Camada 2"><g id="Personagens"><path d="M24.09,34.08a5.11,5.11,0,0,0,.07,1.09L25.31,35c0-.44,0,.18,0-.81Z"/><path class="cls-2" d="M26.84,34.16l2.79-.42c-.18-.12-.52-.44-.63-.45A4,4,0,0,1,27.56,32a7.94,7.94,0,0,1-1.18-1.86c-.14-.41-1.16-4.39-1.82-6.89l-4.23.65.3.51c.15.26.42.45.52.74a5.37,5.37,0,0,1,0,1.66,7.93,7.93,0,0,0,.1,1.57A4,4,0,0,0,23.13,31a2.55,2.55,0,0,1,.84,1,2.4,2.4,0,0,1,.24.91c0,.11-.1.45-.12.61s.08.2.06.32c0,.28-.08.2.22.19s.41-.06.6-.08a2.8,2.8,0,0,1,.72.07,3.47,3.47,0,0,1,1.1.19S26.82,34.15,26.84,34.16Z"/><path class="cls-3" d="M26.48,34.39a1.76,1.76,0,0,0,1.65.29,17.41,17.41,0,0,0,2-.8,1.44,1.44,0,0,0,.44-.38c.28-.5-.74-.34-1-.33a2.64,2.64,0,0,1-.62,0,.09.09,0,0,0-.09,0c-.08.05-.12.18-.19.25a.76.76,0,0,1-.19.12,1.81,1.81,0,0,1-.53.22,1.89,1.89,0,0,1-.95,0,9.46,9.46,0,0,0-2.32-.39c-.27,0-.61-.2-.64-.13a2.88,2.88,0,0,0-.2.73c0,.38.07.79.39.9a1.55,1.55,0,0,0,1.16-.18A2.09,2.09,0,0,1,26.48,34.39Z"/><g class="cls-4"><path id="SVGID-9" data-name="SVGID" class="cls-1" d="M23.42,45.52l.75.2a.61.61,0,0,0-.43.09L23,45.62A.57.57,0,0,1,23.42,45.52Z"/><g class="cls-5"><g class="cls-4"><path class="cls-1" d="M23.74,45.81,23,45.62l.18-.08.75.19-.18.08Z"/><path class="cls-1" d="M23.92,45.73l-.75-.19a.48.48,0,0,1,.23,0l.76.2a.5.5,0,0,0-.24,0Z"/><path class="cls-1" d="M24.16,45.72l-.76-.2h0l.75.2Z"/></g></g><path id="SVGID-10" data-name="SVGID" class="cls-1" d="M23.4,46.9l-.75-.2a.26.26,0,0,1-.2-.25,1,1,0,0,1,.54-.83l.75.19a1.07,1.07,0,0,0-.54.84A.27.27,0,0,0,23.4,46.9Z"/><g class="cls-6"><g class="cls-4"><path class="cls-1" d="M23.4,46.9l-.75-.2a.26.26,0,0,1-.2-.25.79.79,0,0,1,.09-.34l.75.2a.72.72,0,0,0-.09.34.27.27,0,0,0,.2.25Z"/><path class="cls-1" d="M23.29,46.31l-.75-.2a1.06,1.06,0,0,1,.18-.27l.75.2a.8.8,0,0,0-.18.27Z"/><path class="cls-1" d="M23.47,46l-.75-.2a1.44,1.44,0,0,1,.27-.22l.75.19a1.18,1.18,0,0,0-.27.23Z"/></g></g><path class="cls-7" d="M23.74,45.81c.33-.18.6-.11.62.16a1,1,0,0,1-.54.83c-.32.19-.6.12-.62-.15A1.07,1.07,0,0,1,23.74,45.81Z"/></g><g class="cls-4"><path id="SVGID-11" data-name="SVGID" class="cls-1" d="M12.4,42.88l.75.19a.64.64,0,0,0-.43.1L12,43A.61.61,0,0,1,12.4,42.88Z"/><g class="cls-8"><g class="cls-4"><path class="cls-1" d="M12.72,43.17,12,43l.18-.08.76.2a1,1,0,0,0-.19.08Z"/><path class="cls-1" d="M12.91,43.09l-.76-.2a.5.5,0,0,1,.24,0l.75.19a.46.46,0,0,0-.23,0Z"/><path class="cls-1" d="M13.14,43.07l-.75-.19h0l.75.19Z"/></g></g><path id="SVGID-12" data-name="SVGID" class="cls-1" d="M12.38,44.25l-.75-.19a.28.28,0,0,1-.2-.25A1.07,1.07,0,0,1,12,43l.75.2a1.1,1.1,0,0,0-.54.83A.27.27,0,0,0,12.38,44.25Z"/><g class="cls-9"><g class="cls-4"><path class="cls-1" d="M12.38,44.25l-.75-.19a.28.28,0,0,1-.2-.25.79.79,0,0,1,.09-.35l.75.2a.79.79,0,0,0-.09.34.27.27,0,0,0,.2.25Z"/><path class="cls-1" d="M12.27,43.66l-.75-.2a.87.87,0,0,1,.18-.26l.75.2a1.1,1.1,0,0,0-.18.26Z"/><path class="cls-1" d="M12.45,43.4l-.75-.2A1.18,1.18,0,0,1,12,43l.75.2a1.18,1.18,0,0,0-.27.23Z"/></g></g><path class="cls-7" d="M12.72,43.17c.33-.19.6-.12.62.16a1,1,0,0,1-.54.83c-.32.19-.59.12-.62-.16A1.1,1.1,0,0,1,12.72,43.17Z"/></g><g class="cls-4"><path id="SVGID-13" data-name="SVGID" class="cls-1" d="M12.58,47.14l-.71.42a.56.56,0,0,1,.43,0l.71-.42A.56.56,0,0,0,12.58,47.14Z"/><g class="cls-10"><g class="cls-4"><path class="cls-1" d="M12.3,47.53l.71-.42-.19,0-.71.42.19,0Z"/><path class="cls-1" d="M12.11,47.5l.71-.42a.41.41,0,0,0-.23.06l-.71.42a.46.46,0,0,1,.23-.06Z"/><path class="cls-1" d="M11.88,47.56l.71-.42h0l-.71.42Z"/></g></g><path id="SVGID-14" data-name="SVGID" class="cls-1" d="M12.79,48.48l.71-.41a.33.33,0,0,0,.15-.31.86.86,0,0,0-.64-.65l-.71.42a.82.82,0,0,1,.64.65A.3.3,0,0,1,12.79,48.48Z"/><g class="cls-11"><g class="cls-4"><path class="cls-1" d="M12.79,48.48l.71-.41a.33.33,0,0,0,.15-.31.59.59,0,0,0-.13-.31l-.7.42a.57.57,0,0,1,.12.31.3.3,0,0,1-.15.3Z"/><path class="cls-1" d="M12.82,47.87l.7-.42a1,1,0,0,0-.21-.2l-.71.42a1.07,1.07,0,0,1,.22.2Z"/><path class="cls-1" d="M12.6,47.67l.71-.42a1.17,1.17,0,0,0-.3-.14l-.71.42a.83.83,0,0,1,.3.14Z"/></g></g><path class="cls-7" d="M12.3,47.53c-.34-.09-.6.06-.58.33a.84.84,0,0,0,.64.66c.34.08.6-.07.58-.34A.82.82,0,0,0,12.3,47.53Z"/></g><g class="cls-4"><path id="SVGID-15" data-name="SVGID" class="cls-1" d="M23.07,41.21l-.71.42a.56.56,0,0,1,.43,0l.7-.42A.58.58,0,0,0,23.07,41.21Z"/><g class="cls-12"><g class="cls-4"><path class="cls-1" d="M22.79,41.6l.7-.42a1.13,1.13,0,0,0-.18,0l-.71.42.19,0Z"/><path class="cls-1" d="M22.6,41.57l.71-.42a.41.41,0,0,0-.23.06l-.71.42a.44.44,0,0,1,.23-.06Z"/><path class="cls-1" d="M22.37,41.63l.71-.42h0l-.71.42Z"/></g></g><path id="SVGID-16" data-name="SVGID" class="cls-1" d="M23.28,42.55l.71-.41a.33.33,0,0,0,.15-.31.86.86,0,0,0-.65-.65l-.7.42a.86.86,0,0,1,.64.65A.3.3,0,0,1,23.28,42.55Z"/><g class="cls-13"><g class="cls-4"><path class="cls-1" d="M23.28,42.55l.71-.41a.33.33,0,0,0,.15-.31.59.59,0,0,0-.13-.31l-.7.42a.67.67,0,0,1,.12.31.3.3,0,0,1-.15.3Z"/><path class="cls-1" d="M23.31,41.94l.7-.42a1,1,0,0,0-.21-.2l-.71.42a.85.85,0,0,1,.22.2Z"/><path class="cls-1" d="M23.09,41.74l.71-.42a1.23,1.23,0,0,0-.31-.14l-.7.42a.83.83,0,0,1,.3.14Z"/></g></g><path class="cls-7" d="M22.79,41.6c-.34-.09-.6.06-.58.34a.85.85,0,0,0,.64.65c.34.09.6-.07.58-.34A.86.86,0,0,0,22.79,41.6Z"/></g><g class="cls-4"><polygon class="cls-14" points="11.36 42.33 11.45 43.51 16.23 44.76 16.14 43.58 11.36 42.33"/><polygon class="cls-15" points="16.14 43.58 16.23 44.76 17.86 43.8 17.78 42.62 16.14 43.58"/><polygon class="cls-16" points="13 41.37 11.36 42.33 16.14 43.58 17.78 42.62 13 41.37"/></g><g class="cls-4"><polygon class="cls-15" points="19.5 43.07 19.59 44.25 24.12 41.59 24.04 40.41 19.5 43.07"/><polygon class="cls-15" points="17.86 44.03 17.95 45.21 19.59 44.25 19.5 43.07 17.86 44.03"/><polygon class="cls-15" points="13.33 46.7 13.41 47.88 17.95 45.21 17.86 44.03 13.33 46.7"/><polygon class="cls-14" points="17.86 44.03 17.95 45.21 22.73 46.46 22.65 45.28 17.86 44.03"/><polygon class="cls-16" points="11.61 46.25 13.33 46.7 17.86 44.03 19.5 43.07 24.04 40.41 22.31 39.96 17.78 42.62 16.14 43.58 11.61 46.25"/><polygon class="cls-14" points="11.61 46.25 11.7 47.43 13.41 47.88 13.33 46.7 11.61 46.25"/><polygon class="cls-15" points="22.65 45.28 22.73 46.46 24.37 45.5 24.28 44.32 22.65 45.28"/><polygon class="cls-16" points="24.28 44.32 19.5 43.07 17.86 44.03 22.65 45.28 24.28 44.32"/></g><g class="cls-4"><polygon class="cls-17" points="16.91 30.39 17.9 44.03 15.95 43.52 15.03 30.68 16.91 30.39"/><polygon class="cls-18" points="18.53 30.15 19.47 43.11 17.9 44.03 16.91 30.39 18.53 30.15"/></g><g class="cls-4"><path class="cls-19" d="M6.55,29.7c-2.84,1.67-2.72,3.66.28,4.44l4.79,1.25a16.07,16.07,0,0,0,10.56-1.6l4.55-2.68c2.84-1.67,2.71-3.65-.28-4.43l-4.79-1.26A16,16,0,0,0,11.1,27Z"/></g><g class="cls-4"><path class="cls-20" d="M4.69,31.86A3.57,3.57,0,0,0,6.75,33l4.79,1.25a14,14,0,0,0,5.47.09,15.12,15.12,0,0,0,5.09-1.7L26.65,30c1.43-.84,2.11-1.76,2.05-2.57l.1,1.35c.06.81-.62,1.73-2.05,2.57L22.2,34a14.91,14.91,0,0,1-5.09,1.71,14,14,0,0,1-5.47-.1L6.85,34.38a3.57,3.57,0,0,1-2.06-1.16,1.29,1.29,0,0,1-.26-.71l-.11-1.35A1.39,1.39,0,0,0,4.69,31.86Z"/><path class="cls-21" d="M6.47,28.59c-2.84,1.67-2.72,3.65.28,4.44l4.79,1.25A16,16,0,0,0,22.1,32.67L26.65,30c2.84-1.67,2.72-3.66-.28-4.44l-4.79-1.25A16,16,0,0,0,11,25.92Z"/></g><path class="cls-22" d="M4.77,33a3.62,3.62,0,0,0,2.06,1.16l4.79,1.25a14,14,0,0,0,5.47.1,15.19,15.19,0,0,0,5.09-1.7l4.55-2.68c1.43-.84,2.1-1.76,2.05-2.57l.1,1.36c.05.81-.62,1.73-2.05,2.57l-4.55,2.67a15,15,0,0,1-5.09,1.7,13.82,13.82,0,0,1-5.47-.09L6.93,35.5a3.57,3.57,0,0,1-2.06-1.17,1.39,1.39,0,0,1-.27-.7l-.1-1.36A1.38,1.38,0,0,0,4.77,33Z"/><path d="M32.13,35.11a5.11,5.11,0,0,0,.07,1.09L33.35,36c0-.44,0,.18,0-.81Z"/><path class="cls-2" d="M34.88,35.19l2.79-.42c-.18-.12-.52-.45-.63-.45A4,4,0,0,1,35.6,33a7.94,7.94,0,0,1-1.18-1.86c-.13-.41-1.16-4.39-1.82-6.89l-4.23.65.3.51c.15.26.42.45.52.74a5.37,5.37,0,0,1,0,1.66,7.93,7.93,0,0,0,.1,1.57A4,4,0,0,0,31.17,32a2.46,2.46,0,0,1,1.08,1.88c0,.11-.1.45-.11.6s.07.21,0,.33c0,.28-.08.2.22.19s.41-.06.6-.08a2.75,2.75,0,0,1,.72.07,3.78,3.78,0,0,1,1.1.18Z"/><path class="cls-3" d="M34.53,35.42a1.7,1.7,0,0,0,1.64.28,15.46,15.46,0,0,0,2-.79,1.44,1.44,0,0,0,.44-.38c.28-.51-.74-.34-1-.33a2.14,2.14,0,0,1-.61,0,.18.18,0,0,0-.1,0c-.07,0-.12.18-.19.25a.76.76,0,0,1-.19.12,1.71,1.71,0,0,1-.53.22,1.68,1.68,0,0,1-1,0,9.38,9.38,0,0,0-2.32-.38c-.27,0-.61-.21-.64-.13a2.88,2.88,0,0,0-.2.73c0,.38.07.79.39.9a1.55,1.55,0,0,0,1.16-.18A2.09,2.09,0,0,1,34.53,35.42Z"/><path class="cls-23" d="M31.52,23.59c-1.2-.31-4.58-.8-5.58-1.06a8.73,8.73,0,0,0-5.81.91L8,29.56a48.62,48.62,0,0,1,7.1,2l.74-.44c1.7.45,3.53,1.06,4.84,1.5L31.7,26C33.26,25.11,33.17,24,31.52,23.59Z"/><path class="cls-2" d="M22.68,11.86l3.67-1c.17,0,1-.16,1.29.1s1,1.27.41,1.48c-.39.13-3.82.92-3.82.92a6.71,6.71,0,0,1-1,.44l-1.17-.06Z"/><path class="cls-2" d="M23.27,11.72c1-.28,2.35,1.14,1.48,1.41L16.62,16.6a2.42,2.42,0,0,1-3-.64h0c-.44-.82.16-1.86,1.35-2.33Z"/><path class="cls-2" d="M15.42,12.33h0a3.86,3.86,0,0,0,.57-.6l-.09-2.08L10.72,9l.18,2.57C10.94,12.08,13.51,12.47,15.42,12.33Z"/><path class="cls-2" d="M17.09,11.86c-1.77-.36-2.18-.36-2.42-.17-.93.71-3.45-.38-4.68-.08S9,14.06,12.59,14a7.38,7.38,0,0,0,3.25-.75C16.66,12.86,17.91,12.31,17.09,11.86Z"/><path class="cls-24" d="M22.35,28.44A10,10,0,0,1,21.08,19c1.84-5.18-2.49-6.93-4-7.17,0,0-1.46,1.49-4.77,1.47S10,11.61,10,11.61c-4.34.7-3.94,4.86-4,6.35,0,1.92.33,5.65.51,9.07C6.61,28.45,22.35,28.44,22.35,28.44Z"/><path class="cls-23" d="M6.53,27c.06.86,0,3.46,0,4.26A4.73,4.73,0,0,0,9.6,34.12,15.69,15.69,0,0,0,21.76,32a9.5,9.5,0,0,0,2-1.89,29.88,29.88,0,0,1-3-4.92A10.22,10.22,0,0,1,17,27.23,21.23,21.23,0,0,1,6.53,27Z"/><path class="cls-2" d="M30.6,15.61l1.2-1.56L33.13,13c.14-.09.78-.59,1.24-.52.3,0,2,.43,1.6.85s-2.45,2.16-2.45,2.16a4,4,0,0,0-1.47.8l-.36.71Z"/><path class="cls-2" d="M27.62,19.52c.78.62.63,1.67-.32,2.36h0a2.81,2.81,0,0,1-3.15.1l-8.43-5.77c-1-.77-.8-2.09.4-2.94h0a3.49,3.49,0,0,1,3.93-.14Z"/><path class="cls-24" d="M16.12,13.27a3.49,3.49,0,0,1,3.93-.14l3.75,3.16a12,12,0,0,1-3.88,2.8l-4.2-2.88C14.74,15.44,14.92,14.12,16.12,13.27Z"/><path class="cls-2" d="M31.15,14.79c.84-.66,3.18,0,2.51.6l-5.72,6.17a3.22,3.22,0,0,1-3.45.65h0a1.47,1.47,0,0,1-.32-2.51Z"/><path class="cls-25" d="M9.47,8.58C12,10,12.94,9.86,15.25,8.28c1.5-1-.23-2.76.27-4.22.27-.78,3.34-1.17,3.08-2C17.79-.6,12.21-.46,9.44,1.23,4.14,4.46,6.33,6.79,9.47,8.58Z"/><path class="cls-2" d="M17.83,7.7c.18,0,.2.14.16.27s-.12.27-.15.4a1.36,1.36,0,0,0,0,.35,1.45,1.45,0,0,1-.57.83,2.77,2.77,0,0,1-.86.4,3.65,3.65,0,0,1-2.8,0,2.89,2.89,0,0,1-1-2,3.83,3.83,0,0,1-.09-1.6,4.21,4.21,0,0,1,.16-.55A5.71,5.71,0,0,1,16.4,2.65a1.53,1.53,0,0,1,2.06,1.87c0,.16-.1.34-.11.5,0,.34.19.51.36.68s.46.42.17.73-.34.19-.48.41a.91.91,0,0,0-.16.54.49.49,0,0,1,0,.12C18.21,7.68,17.9,7.66,17.83,7.7Z"/><path class="cls-25" d="M6.33,4.78C6.62,3.68,10,3,10,3c.25-.18,1.53-4.53,7.7-2.09,1.29.51,1.06,3,1.06,3s-4.34,2.6-5.22,4c-.11.19.5,3.12-3.78,2C7.42,9.19,5.45,8.15,6.33,4.78Z"/><path class="cls-2" d="M13.1,7.38A1.19,1.19,0,0,0,14.49,8a.86.86,0,0,0,.32-1.3,1.18,1.18,0,0,0-1.39-.63A.88.88,0,0,0,13.1,7.38Z"/><g class="cls-4"><polygon class="cls-22" points="9.4 36.74 10.18 36.27 9.26 22.35 8.48 22.82 9.4 36.74"/><polygon class="cls-16" points="8.48 22.82 9.26 22.35 7.12 21.8 6.34 22.27 8.48 22.82"/><polygon class="cls-17" points="6.34 22.27 7.26 36.19 9.4 36.74 8.48 22.82 6.34 22.27"/></g><g class="cls-4"><path class="cls-26" d="M2,13.76,3.38,13,3.27,13l-1.36.8.1-.06Z"/><path class="cls-20" d="M3.38,13A5.53,5.53,0,0,1,6,12.37a8.84,8.84,0,0,1,2.21.29,11.67,11.67,0,0,1,3.61,1.67,9.82,9.82,0,0,1,2.24,2.09,5,5,0,0,1,1,2.06l1.32,7.28a2.21,2.21,0,0,1-1.06,2.44L14,29A2.18,2.18,0,0,0,15,26.57l-1.33-7.28a5,5,0,0,0-1-2.06,9.87,9.87,0,0,0-2.25-2.09,11.44,11.44,0,0,0-3.61-1.67,8.84,8.84,0,0,0-2.21-.29A5.44,5.44,0,0,0,2,13.76Z"/><path class="cls-27" d="M6.85,13.47C3.52,12.61.69,13.7.56,15.9L.17,22.73c-.13,2.2,2.54,4.71,5.92,5.59l3.55.92c3.39.87,5.8-.33,5.38-2.67l-1.33-7.28C13.26,17,10.19,14.33,6.85,13.47Z"/></g><path class="cls-25" d="M8.34,3.22A2.57,2.57,0,0,0,8,4.51c-.5.28-.92,0-1.35.21a.9.9,0,0,0-.34.21c-1.22,1.14,2,4.76,1,8.3S-.86,16.8.09,16.31c1.46-.76,1-4.51,1-5.71,0-8,4.58-8.15,6.12-7.87A2.13,2.13,0,0,1,8.34,3.22Z"/><path class="cls-24" d="M8.34,3.22A2.57,2.57,0,0,0,8,4.51c-.5.28-.92,0-1.35.21a3.62,3.62,0,0,1,.52-2A2.13,2.13,0,0,1,8.34,3.22Z"/></g></g></svg>