<svg xmlns="http://www.w3.org/2000/svg" viewBox="0 0 86.09 71.18"><defs><style>.cls-1{fill:#c99775;}.cls-12,.cls-2,.cls-3{fill:#0e2735;}.cls-2{opacity:0.15;}.cls-3,.cls-5{opacity:0.5;}.cls-4{fill:#525557;}.cls-5{fill:#1c1e1f;}.cls-6{fill:none;stroke:#d2d8db;stroke-miterlimit:10;stroke-width:0.52px;}.cls-7{fill:#ccd6db;}.cls-8{fill:#e7eef3;}.cls-9{fill:#3f3e3d;}.cls-10{fill:#adb8bc;}.cls-11,.cls-35,.cls-48{opacity:0.1;}.cls-12,.cls-34,.cls-46{opacity:0.2;}.cls-13{fill:#ffdb8a;}.cls-14{fill:#fcc;}.cls-15{fill:#3d3d3d;}.cls-16{fill:#f4d7a3;}.cls-17{fill:#4c5975;}.cls-18{fill:#b24d44;}.cls-19{fill:#fff;}.cls-20{fill:#3a2d7a;}.cls-21{fill:#2c2366;}.cls-22{fill:#e58383;}.cls-23{fill:#232323;}.cls-24{fill:#f0c75a;}.cls-25{fill:#639e8a;}.cls-26{fill:#594847;}.cls-27{fill:#ffded4;}.cls-28{fill:#c19891;}.cls-28,.cls-31,.cls-45{opacity:0.4;}.cls-29{fill:#d88f4e;}.cls-30{fill:#bc7942;}.cls-31{fill:#b57f74;}.cls-32{fill:#c7dde2;}.cls-33{fill:#0c181e;}.cls-34,.cls-35,.cls-39{fill:#172d3a;}.cls-36{fill:#e2afa6;}.cls-37{fill:#825248;}.cls-38{fill:#a07d70;}.cls-40{fill:#393a3a;}.cls-41{fill:#222323;}.cls-42{fill:#686868;}.cls-43{fill:#4f5051;}.cls-44{fill:#edc156;}.cls-45,.cls-46,.cls-50{fill:#755950;}.cls-47{fill:#25383f;}.cls-48{fill:#263d49;}.cls-49{fill:#4b616b;}.cls-50{opacity:0.8;}.cls-51{fill:#172428;}</style></defs><title>Ativo 110</title><g id="Camada_2" data-name="Camada 2"><g id="Camada_1-2" data-name="Camada 1"><rect class="cls-1" x="24.88" y="41.2" width="30.7" height="21.15"/><path class="cls-2" d="M86.09,65.17c0,1.19-14.75,2.16-32.94,2.16s-32.94-1-32.94-2.16S35,63,53.15,63,86.09,64,86.09,65.17Z"/><rect class="cls-3" x="24.88" y="41.2" width="30.7" height="21.15"/><polygon class="cls-1" points="22.56 40.83 22.56 65.45 24.88 65.45 24.88 41.2 55.58 41.2 55.58 65.45 83.4 65.45 83.4 40.83 22.56 40.83"/><rect class="cls-1" x="55.94" y="42.71" width="27.41" height="21.98"/><rect class="cls-4" x="57.36" y="44.12" width="24.23" height="19.02"/><rect class="cls-1" x="57.65" y="51.78" width="23.66" height="10.98"/><rect class="cls-1" x="57.65" y="44.4" width="23.66" height="7"/><rect class="cls-4" x="65.38" y="47.43" width="8.2" height="1.03"/><rect class="cls-5" x="65.38" y="48.16" width="8.2" height="0.76"/><rect class="cls-4" x="65.38" y="56.45" width="8.2" height="1.03"/><rect class="cls-5" x="65.38" y="57.18" width="8.2" height="0.76"/><path class="cls-6" d="M69.56,35.45s-1.06,1.7,1.17,1.69,1.17,3.33,5.15,1.74"/><rect class="cls-7" x="58.96" y="35.17" width="8.78" height="3.22"/><rect class="cls-8" x="51.7" y="17.67" width="23.3" height="18.71" rx="0.88"/><rect class="cls-9" x="52.53" y="18.35" width="21.64" height="14.61" rx="0.85"/><rect class="cls-10" x="57.57" y="37.81" width="11.48" height="0.59"/><rect class="cls-8" x="53.49" y="38.39" width="19.89" height="0.98"/><rect class="cls-8" x="75.41" y="38.54" width="2.66" height="0.72"/><path class="cls-8" d="M78.08,38.57c0-.4-.6-.73-1.33-.73s-1.34.33-1.34.73.6.73,1.34.73S78.08,39,78.08,38.57Z"/><polygon class="cls-12" points="22.56 40.75 22.56 42.02 24.88 42.02 24.88 41.2 55.58 41.2 55.58 42.02 83.4 42.02 83.4 40.75 22.56 40.75"/><rect class="cls-1" x="20.05" y="39.26" width="65.9" height="2.04"/><rect class="cls-13" x="67.67" y="32.46" width="3.35" height="2.9"/><rect class="cls-14" x="63.65" y="32.46" width="3.35" height="2.9"/><path class="cls-15" d="M37.33,29.87a.37.37,0,0,0-.12.07l0-.31Z"/><path class="cls-16" d="M37.63,30.58c-.05-.07-.12,0-.11.1-.09-.17-.2-.15-.22.05,0-.18-.13-.11-.14-.07l.05-.72a.37.37,0,0,1,.12-.07Z"/><path class="cls-17" d="M37.52,30.63v.05c-.09-.17-.2-.15-.22.05,0-.18-.13-.11-.14-.07l1,6,.13,0,.22,0,.13,0-1-6C37.59,30.52,37.53,30.52,37.52,30.63Z"/><polygon class="cls-18" points="38.65 36.67 38.63 36.53 38.15 36.62 38.17 36.76 38.65 36.67"/><polygon class="cls-18" points="38.65 36.67 38.63 36.53 38.38 36.58 38.41 36.72 38.65 36.67"/><path class="cls-17" d="M37.38,30.57s-.07.06-.08.16c0-.18-.13-.11-.14-.07l1,6,.13,0,.11,0Z"/><polygon class="cls-18" points="38.17 36.76 38.28 37.47 38.42 37.45 38.64 37.41 38.76 37.38 38.64 36.67 38.17 36.76"/><polygon class="cls-18" points="38.17 36.76 38.28 37.47 38.42 37.45 38.52 37.43 38.4 36.71 38.17 36.76"/><path class="cls-15" d="M38.56,29.06a.37.37,0,0,0-.12.07l0-.31Z"/><path class="cls-16" d="M38.8,29.79c0-.07-.11-.06-.12.1-.07-.18-.18-.17-.22,0,0-.18-.12-.11-.14-.07l.12-.71a.37.37,0,0,1,.12-.07Z"/><path class="cls-15" d="M38.69,29.83s0,0,0,.06c-.07-.18-.18-.17-.22,0,0-.18-.12-.11-.14-.07l.49,6h.13l.22,0h.13l-.49-6C38.76,29.73,38.71,29.73,38.69,29.83Z"/><polygon class="cls-18" points="39.3 35.96 39.29 35.81 38.81 35.86 38.82 36 39.3 35.96"/><polygon class="cls-18" points="39.3 35.96 39.29 35.81 39.04 35.84 39.05 35.98 39.3 35.96"/><path class="cls-15" d="M38.55,29.76s-.07.06-.09.15c0-.18-.12-.11-.14-.07l.49,6h.24Z"/><polygon class="cls-18" points="38.81 35.99 38.87 36.72 39 36.7 39.23 36.68 39.35 36.67 39.3 35.95 38.81 35.99"/><polygon class="cls-18" points="38.81 35.99 38.87 36.72 39 36.7 39.11 36.69 39.05 35.97 38.81 35.99"/><path class="cls-19" d="M39.6,30.86l.08,6.31s.1.06.2.06h.21L40,30.85Z"/><path class="cls-20" d="M39.7,37.14v-.21h.35v.21S39.7,37.19,39.7,37.14Z"/><path class="cls-21" d="M39.87,36.93h.18v.21s-.09,0-.18,0Z"/><path class="cls-22" d="M39.4,30.85h0a10.22,10.22,0,0,1,.19-1.78V29h.25a8.3,8.3,0,0,1,.16,1.82h0a0,0,0,0,1,0,.05,0,0,0,0,1,0,0h-.44c0,.41-.1.78-.14,1a3.22,3.22,0,0,1,0-1h0a0,0,0,0,1,0,0A0,0,0,0,1,39.4,30.85Z"/><path class="cls-19" d="M41,31.41l-1.12,6.22s.09.07.19.09h.22l1.11-6.21Z"/><path class="cls-20" d="M39.91,37.6l0-.2.34.06,0,.2C40.24,37.71,39.9,37.65,39.91,37.6Z"/><path class="cls-21" d="M40.11,37.43l.17,0,0,.2s-.1,0-.19,0Z"/><path class="cls-23" d="M40.81,31.46h0a0,0,0,0,1,0-.06s0,0,0,0h0a9.44,9.44,0,0,1,.53-1.7v-.06h0l.1,0h0l.08,0a8.52,8.52,0,0,1-.19,1.82h0a.05.05,0,0,1,0,.05s0,0-.05,0h0l-.21,0h0l-.22,0c-.12.4-.24.75-.32,1A3,3,0,0,1,40.81,31.46Z"/><path class="cls-24" d="M41.36,34.55h-4v3.94a1,1,0,0,0,.92,1h2.23a.93.93,0,0,0,.89-.76Z"/><path class="cls-22" d="M41.36,34.55h-4v3.94a1,1,0,0,0,.92,1h2.23a.93.93,0,0,0,.89-.76Z"/><g class="cls-11"><path d="M40.42,34.55v4.93h0a.93.93,0,0,0,.89-.76V34.55Z"/></g><path class="cls-2" d="M23.41,69.27c0,1.06-4.5,1.91-10.06,1.91S3.28,70.33,3.28,69.27s4.51-1.91,10.07-1.91S23.41,68.22,23.41,69.27Z"/><polygon class="cls-25" points="14.71 60.52 17.65 63.55 19.08 62.63 16.08 59.22 14.71 60.52"/><path class="cls-1" d="M16.24,63.67a5.5,5.5,0,0,1,.65,2.85c-.13,1.52-.1,3,.73,3.15a8.41,8.41,0,0,0,1.91-5.41l.34.13.73-2.22-2.75-1L17.29,63l-.22-.23Z"/><path class="cls-26" d="M19,65.72c-.4,3.25-1.49,3.7-1.61,3.86a.61.61,0,0,0,.2.09,8.41,8.41,0,0,0,1.91-5.41l.34.13.73-2.22-.55-.2A12.1,12.1,0,0,0,19,65.72Z"/><polygon class="cls-27" points="12.85 9.74 12.52 14.97 12.06 17.61 14 18.27 16.25 19.08 16.2 15.2 16.29 11.24 12.85 9.74"/><polygon class="cls-28" points="15.52 18.82 15.61 15.17 12.59 13.86 12.85 9.74 16.29 11.24 16.2 15.2 16.25 19.08 15.52 18.82"/><path class="cls-27" d="M14.84,2.34c-2.68.42-2.73,2.24-2.73,2.24a15.54,15.54,0,0,0-.29,2.72.89.89,0,0,0-1.07-.37c-.92.33-.44,3.2.94,3.05A7.39,7.39,0,0,0,12,12c.33.83,1.86,1.83,3.34,2.12a3.65,3.65,0,0,0,3.93-2.72,71,71,0,0,0,.31-7.68S19.27,1.63,14.84,2.34Z"/><path class="cls-29" d="M13.77,3.75c-.71,0-1.81-.37-2.52-.44,0-.07-.05.53-.05.53a28.93,28.93,0,0,1-.1,3.1c.71.08.66.66.66.66V8.88l.71,0,.22-2.72a1.42,1.42,0,0,0,.69-.64S13.63,4.22,13.77,3.75Z"/><path class="cls-30" d="M13.87,5.92a1.19,1.19,0,0,1,.23-1.07,1.24,1.24,0,0,1,1-.42,1.23,1.23,0,0,1,1,.46A1.09,1.09,0,0,1,16.17,6a4.94,4.94,0,0,0-.87.29c-.16.08-.21.15-.26.15a1.44,1.44,0,0,1-.31-.15C14.54,6.19,14.3,6.09,13.87,5.92Z"/><path class="cls-30" d="M17.59,6.27a1,1,0,0,1,.12-1,1.1,1.1,0,0,1,1-.39,1.12,1.12,0,0,1,.89.59,1,1,0,0,1-.11,1,3.46,3.46,0,0,0-.86.21c-.15.06-.15.17-.12.16s0-.08-.11-.18A3,3,0,0,0,17.59,6.27Z"/><polygon class="cls-31" points="16.5 9.81 17.1 6.82 17.84 9.35 16.5 9.81"/><polygon class="cls-25" points="11.82 63.88 11.27 68.06 12.88 68.61 13.7 64.14 11.82 63.88"/><path class="cls-1" d="M13.83,66.18a5.41,5.41,0,0,0,2.4,1.66c1.46.45,2.78,1,2.65,1.85a8.41,8.41,0,0,1-5.73-.23v.35l-2.33-.14.06-2.94,1.94.17-.14-.29Z"/><path class="cls-26" d="M14.69,69.53c3.17.84,4,0,4.18-.06a.55.55,0,0,1,0,.22,8.41,8.41,0,0,1-5.73-.23v.35l-2.33-.14v-.59A12.41,12.41,0,0,1,14.69,69.53Z"/><path class="cls-32" d="M19.46,30.67l-10.83.75S5.23,43.79,4.17,49.48a5,5,0,0,1,2.07-.16A5.22,5.22,0,0,1,9,50.62v-.08C9.39,48.22,13,39.12,13,39.12l1.16.35C13.41,49.43,11,65.08,11,65.08a3.71,3.71,0,0,0,3.57.45C20.37,48.25,19.46,30.67,19.46,30.67Z"/><path class="cls-32" d="M6,47.39c-.85.92-.38.75-1.6.71-1.09,2.77.7,3.77,1.26,4.35,2.87,3,9.57,10,9.57,10,1.48.39,2.71-1.94,2.71-1.94-.43-1.07-8.3-11.13-9.78-12.95a16.89,16.89,0,0,1-1.11-1.65A7.63,7.63,0,0,1,6,47.39Z"/><path class="cls-33" d="M18.26,7.62c-.05.29,0,.54.21.57s.33-.19.37-.48-.05-.55-.21-.57S18.3,7.33,18.26,7.62Z"/><path class="cls-33" d="M15,7.24c-.05.29,0,.55.21.57s.33-.19.37-.48-.05-.54-.21-.57S15,7,15,7.24Z"/><path class="cls-34" d="M19.51,28.55A22.7,22.7,0,0,1,7,22.7c.17.74.3,1.23.3,1.23l.5,9.86s3.5,2.53,12.3.57l.34-5.71Z"/><path class="cls-27" d="M24.75,32.06l1.67,5.73s1.54,0,1.77.29,1.67,5-.08,1.14c0,0,.72,3.8-.68.19,0,0,0,3.25-.68,0,0,0-.43,3.49-.75,0a5.34,5.34,0,0,1-1.08-.08c-.46-.11-2.44-7.68-2.44-7.68Z"/><path class="cls-25" d="M6.44,16.2s-3.95,5-5.87,7.85a9.07,9.07,0,0,0,3.29,2.57L7.48,21.8Z"/><path class="cls-25" d="M21.65,17.37a5.22,5.22,0,0,0-1.36-.91l-.05,0a4.37,4.37,0,0,0-.56-.22l-.13,0-.1,0-.1,0c-1.16-.35-2.57-.62-2.57-.62V14.36l-5-.61v1.67l-.79.06a17.38,17.38,0,0,0-4.34.61c-1.27.53.7,7.84.7,7.84l.5,9.86s3.5,2.53,12.3.57l.4-9.22s.87,7.35,2.94,11.65c1.45.73,2.93-.84,2.93-.84S23.11,18.73,21.65,17.37Z"/><path class="cls-35" d="M15.31,28c-3-1.52-6.56-3.54-8.54-6.39.28,1.3.55,2.31.55,2.31l.5,9.86s3.5,2.53,12.3.57l.27-4.55A22.75,22.75,0,0,1,15.31,28Z"/><path class="cls-27" d="M5.22,28.42l2.7,3.79s1.54-.46,1.86-.25S13,36.41,10,33.12c0,0,1.88,3.57-.62.4,0,0,1,3.25-.69.17,0,0,.64,3.6-.73.24,0,0,.1.35-.39.38S3,29.58,3,29.58Z"/><path class="cls-25" d="M7.25,30.7a3.3,3.3,0,0,1-1.89,1.9S1.48,28.19,0,26.09c0,0-.32-1.43,1.55-3.32C2.29,22,5.86,28.86,7.25,30.7Z"/><path class="cls-29" d="M13.53,3.61a7.28,7.28,0,0,0,4.06,1l-.92-.83s1.76.58,3.56,1.34a3.11,3.11,0,0,0-2-3.69,6.45,6.45,0,0,1,2.39,1.34A5.09,5.09,0,0,0,15.08.13C12,.8,12.65,2.6,12.65,2.6l.71-1s-1-.76-2.14.75c-.45.6-.06,4,0,4.44s2.43-2.72,2.43-2.72l.54-1.43L13,2.68"/><path class="cls-29" d="M16.58,9.81s-1.87-.51-2.2.07-.54,1.47-1.35,1-.19-5-.19-5l-.79,1.54s-1.88,6.35,2.86,7.06c4.19.62,4.71-1.26,4.48-3.4,0,0-.54.44-.72-.14S18.71,9.64,16.58,9.81Z"/><path class="cls-36" d="M14.92,10.49l3.2.46s-.61,1.16-1.64,1.12A1.69,1.69,0,0,1,14.92,10.49Z"/><path class="cls-37" d="M16.23,11.08a1.7,1.7,0,0,1,1,.78,2.56,2.56,0,0,0,.86-.91l-3.2-.46a2.1,2.1,0,0,0,.14.55A2.14,2.14,0,0,1,16.23,11.08Z"/><path class="cls-38" d="M34.7,38l-2.33-.54-1,.4-.1.36a6.91,6.91,0,0,0-1.36.47c-.23.19.11.65.11.65l5,.08Z"/><path class="cls-39" d="M47,20.92a5.21,5.21,0,0,0-1.48,4.45l2.91-3.92Z"/><path class="cls-2" d="M58.4,69.19c0,1-6.42,1.87-14.34,1.87s-14.34-.84-14.34-1.87,6.42-1.88,14.34-1.88S58.4,68.15,58.4,69.19Z"/><rect class="cls-40" x="48.82" y="53.14" width="2.23" height="11.38"/><rect class="cls-41" x="48.47" y="60.57" width="2.93" height="5.58"/><path class="cls-41" d="M54.25,64.93H45.57a.93.93,0,0,0,0,1.84h8.68a.93.93,0,0,0,0-1.84Z"/><rect class="cls-41" x="48.82" y="53.14" width="2.23" height="3.13"/><rect class="cls-40" x="53.2" y="43.61" width="2.45" height="8.84"/><rect class="cls-42" x="42.59" y="51.1" width="17.42" height="3.27" rx="1.02"/><rect class="cls-22" x="42.59" y="51.1" width="17.42" height="3.27" rx="1.02"/><rect class="cls-22" x="48.58" y="37.49" width="11.43" height="8.84" rx="1.02"/><path class="cls-22" d="M59,37.49H56.81a1,1,0,0,1,1,1v6.8a1,1,0,0,1-1,1H59a1,1,0,0,0,1-1v-6.8A1,1,0,0,0,59,37.49Z"/><rect class="cls-34" x="42.59" y="51.1" width="17.42" height="3.27" rx="1.02"/><path class="cls-34" d="M59,37.49H56.81a1,1,0,0,1,1,1v6.8a1,1,0,0,1-1,1H59a1,1,0,0,0,1-1v-6.8A1,1,0,0,0,59,37.49Z"/><ellipse class="cls-43" cx="44.78" cy="67.31" rx="1.23" ry="1.43"/><rect class="cls-43" x="44.67" y="65.88" width="0.9" height="2.86"/><ellipse class="cls-42" cx="45.57" cy="67.31" rx="1.23" ry="1.43"/><ellipse class="cls-41" cx="45.57" cy="67.31" rx="0.56" ry="0.65"/><path class="cls-43" d="M48.25,67.31a1.24,1.24,0,1,0,1.23-1.43A1.34,1.34,0,0,0,48.25,67.31Z"/><rect class="cls-43" x="49.37" y="65.88" width="0.9" height="2.86"/><ellipse class="cls-42" cx="50.27" cy="67.31" rx="1.23" ry="1.43"/><ellipse class="cls-41" cx="50.27" cy="67.31" rx="0.56" ry="0.65"/><ellipse class="cls-43" cx="53.73" cy="67.31" rx="1.23" ry="1.43"/><rect class="cls-43" x="53.62" y="65.88" width="0.9" height="2.86"/><path class="cls-42" d="M53.29,67.31a1.24,1.24,0,1,0,1.23-1.43A1.34,1.34,0,0,0,53.29,67.31Z"/><path class="cls-41" d="M54,67.31a.57.57,0,1,0,.56-.65A.61.61,0,0,0,54,67.31Z"/><rect class="cls-22" x="40.38" y="51.1" width="14.02" height="3.27" rx="1.02"/><path class="cls-39" d="M38.83,64.07a4,4,0,0,1-.5,0c-.21,1.47-.44,2.77-.44,2.77l-1.37,2.52,1.26-.06,1.67-2.42S39.7,65.51,40,64A7.85,7.85,0,0,1,38.83,64.07Z"/><path class="cls-39" d="M39.43,66.7a1.38,1.38,0,0,1,.42,1.24c-.14.77-.38,2-.38,2h-.24l0-1.41s-.52,1.26-.79,1.38-2.47.6-2.69.13.94-1,.94-1a1.07,1.07,0,0,0,1.16-.15A13.3,13.3,0,0,0,39.43,66.7Z"/><path class="cls-39" d="M45.63,60.55A5.13,5.13,0,0,1,47.42,64a5.17,5.17,0,0,0,.53,2.6l-.73,2.85-1.16.5.41-2.84s-2.49-4.3-3.16-5.71S44.67,58.62,45.63,60.55Z"/><path class="cls-39" d="M47.88,66.43a1.37,1.37,0,0,1,.82,1c.14.76.32,2,.32,2l-.22.07-.52-1.31s-.05,1.36-.27,1.56-2.1,1.43-2.47,1.07.54-1.26.54-1.26a1.08,1.08,0,0,0,1-.55A13.48,13.48,0,0,0,47.88,66.43Z"/><path class="cls-44" d="M45.92,26.77a.87.87,0,1,1-1.69-.45.88.88,0,0,1,1.07-.62A.86.86,0,0,1,45.92,26.77Z"/><path class="cls-27" d="M51.94,27.56a1.07,1.07,0,1,0,1.33-.86A1.11,1.11,0,0,0,51.94,27.56Z"/><path class="cls-38" d="M51.54,27.8l-.39,3.94,2.77,1.17a11.62,11.62,0,0,1-5.75,1.16c-2.8-.33-3.18-1.83-3.18-1.83l3.21-.63.16-2Z"/><path class="cls-45" d="M48.22,31.3l.15-2L51.67,27l-.47,4.09A28,28,0,0,0,48.22,31.3Z"/><path class="cls-38" d="M50.7,21.18s-3.14-.67-4.34,1.41-2.33,4.85-.84,6.73,4.5,1.67,6.27.13S55.39,23.4,50.7,21.18Z"/><path class="cls-46" d="M48.16,25.48a4.12,4.12,0,0,1-1,.81l.43.69"/><path class="cls-47" d="M48.29,23.4c-.51,0-.68.08-.86.06a1.4,1.4,0,0,1-.33-.08,4.45,4.45,0,0,1-.54-.23.87.87,0,0,1,1-.72A.81.81,0,0,1,48.29,23.4Z"/><path class="cls-33" d="M46.77,24.46c-.06.29,0,.55.18.58s.34-.17.4-.46,0-.54-.18-.58S46.83,24.17,46.77,24.46Z"/><path class="cls-33" d="M49.67,25.4c-.06.29,0,.55.18.58s.34-.17.4-.46,0-.54-.18-.58S49.73,25.11,49.67,25.4Z"/><path class="cls-48" d="M44.33,68.64h0Z"/><path class="cls-19" d="M50.6,45a32.89,32.89,0,0,1-4.25,1.22l.2-1.33-.93.91A4.82,4.82,0,0,1,44.32,43C44.4,41.69,50.6,45,50.6,45Z"/><path class="cls-39" d="M45.57,39.52A14,14,0,0,0,44.32,43c2.69,2.4,5.64,1.46,9.37.79l.12-4.55Z"/><path class="cls-47" d="M51.58,24.58a8.28,8.28,0,0,1-.9-.12,1.32,1.32,0,0,1-.33-.15,3.42,3.42,0,0,1-.51-.33A.93.93,0,0,1,51,23.47.85.85,0,0,1,51.58,24.58Z"/><path class="cls-27" d="M45.87,46.21c.27-.17,2.06-.54,2.38-.73.14.65-.14,1.14.23,1.62a11,11,0,0,1-2.31.21,1.72,1.72,0,0,0-.2-.8C46.19,46.35,45.53,46.43,45.87,46.21Z"/><path class="cls-27" d="M46.94,47.27s-2,.65-2.15.44.84-.45.84-.45-1.37.35-1.34.15.85-.44.85-.44-1.11.11-1.07,0,1.11-.31,1.11-.31-2.44.1.38-.52c0,0-1.54-.89.45-.23C48.16,46.61,46.94,47.27,46.94,47.27Z"/><path class="cls-19" d="M48.09,45.05l-.77.26a3.83,3.83,0,0,0,.34,1.91l1.12-.1Z"/><path class="cls-36" d="M49.64,28l-3.21-.41s.28,1.29,1.29,1.51A1.69,1.69,0,0,0,49.64,28Z"/><path class="cls-37" d="M48.22,28.23a1.7,1.7,0,0,0-1.2.48,2.55,2.55,0,0,1-.59-1.11l3.21.41a2.23,2.23,0,0,1-.28.48A2.09,2.09,0,0,0,48.22,28.23Z"/><path class="cls-39" d="M38.25,64.54c-.18,1.25-.36,2.26-.36,2.26l-1.37,2.52,1.26-.06,1.67-2.42s.13-.71.33-1.69A4.07,4.07,0,0,1,38.25,64.54Z"/><path class="cls-39" d="M39.43,66.7a1.38,1.38,0,0,1,.42,1.24c-.14.77-.38,2-.38,2h-.24l0-1.41s-.52,1.26-.79,1.38-2.47.6-2.69.13.94-1,.94-1a1.07,1.07,0,0,0,1.16-.15A13.3,13.3,0,0,0,39.43,66.7Z"/><path class="cls-39" d="M45.63,60.55A5.13,5.13,0,0,1,47.42,64a5.17,5.17,0,0,0,.53,2.6l-.73,2.85-1.16.5.41-2.84s-2.49-4.3-3.16-5.71S44.67,58.62,45.63,60.55Z"/><path class="cls-39" d="M47.88,66.43a1.37,1.37,0,0,1,.82,1c.14.76.32,2,.32,2l-.22.07-.52-1.31s-.05,1.36-.27,1.56-2.1,1.43-2.47,1.07.54-1.26.54-1.26a1.08,1.08,0,0,0,1-.55A13.48,13.48,0,0,0,47.88,66.43Z"/><path class="cls-49" d="M50.19,43.66c-2.22-.13-4.5-.16-6,.54-4.26.68-10.22,2.59-9.45,8a73,73,0,0,0,1.64,15.16,4.33,4.33,0,0,0,4.06.51l.06-10.56,4.68,10.81c3.34.67,4.41-1.76,4.41-1.76s-2-7.29-4.71-14.83c2.7,0,5.24-.13,5.91-.09,3.69.22,4.8-.6,5-3.88S53.87,43.88,50.19,43.66Z"/><path class="cls-38" d="M52.27,27.56a1.07,1.07,0,1,0,1.33-.86A1.11,1.11,0,0,0,52.27,27.56Z"/><path class="cls-50" d="M48.16,25.48a4.12,4.12,0,0,1-1,.81l.43.69"/><path class="cls-44" d="M53.68,29.26A.87.87,0,0,1,52,28.81a.87.87,0,1,1,1.69.45Z"/><path class="cls-33" d="M46.77,24.46c-.06.29,0,.55.18.58s.34-.17.4-.46,0-.54-.18-.58S46.83,24.17,46.77,24.46Z"/><path class="cls-33" d="M49.67,25.4c-.06.29,0,.55.18.58s.34-.17.4-.46,0-.54-.18-.58S49.73,25.11,49.67,25.4Z"/><path class="cls-48" d="M44.33,68.64h0Z"/><path class="cls-19" d="M56.32,39s.13-5.71-2.68-6.42a4.16,4.16,0,0,1-.5-.16,6.34,6.34,0,0,1-4.2,1.42,4.32,4.32,0,0,1-3.45-1.95c-1.88.61-3.05,3-3.05,3l1.94,1.59c-1.37,3,.7,4,.7,4h.06A28.45,28.45,0,0,0,44,44.25c2.69,2.4,6,1.6,9.72.92l.1-5.93h-.18c.06-.36.11-.64.11-.64Z"/><path class="cls-38" d="M46.65,46c.33-.15,2.37-.31,2.75-.47.06.74-.32,1.24,0,1.83a13.21,13.21,0,0,1-2.6-.09,1.82,1.82,0,0,0-.11-.92C47,46.19,46.25,46.19,46.65,46Z"/><path class="cls-38" d="M47.69,47.32s-2.27.45-2.45.18,1-.37,1-.37-1.56.19-1.5,0,1-.37,1-.37-1.25,0-1.18-.18,1.28-.18,1.28-.18-2.73-.23.49-.52c0,0-1.59-1.22.53-.19C49.14,46.76,47.69,47.32,47.69,47.32Z"/><path class="cls-19" d="M56.45,35.89a5,5,0,0,0-3.15-3.54,6.61,6.61,0,0,1-.74.53l1,5.52L53,43l-5.34,2A6.83,6.83,0,0,0,48,47.68s5.7-.42,7.37-1.25S57.43,39.39,56.45,35.89Z"/><path class="cls-36" d="M49.64,28l-3.21-.41s.28,1.29,1.29,1.51A1.69,1.69,0,0,0,49.64,28Z"/><path class="cls-37" d="M48.22,28.23a1.7,1.7,0,0,0-1.2.48,2.55,2.55,0,0,1-.59-1.11l3.21.41a2.23,2.23,0,0,1-.28.48A2.09,2.09,0,0,0,48.22,28.23Z"/><path class="cls-39" d="M47.7,21.54a3.82,3.82,0,0,0,1.45,2.82A7,7,0,0,1,49,21.45C49.29,19.61,47.7,21.54,47.7,21.54Z"/><path class="cls-39" d="M47.81,21.62A3.06,3.06,0,0,0,48.34,24s-2.2-1.12-2-3,3.21-2.8,5.14-1.76a5.73,5.73,0,0,1,2.71,2.65C54.38,22.6,47.81,21.62,47.81,21.62Z"/><path class="cls-39" d="M55.27,23.8c-.2-3.4-4.23-4.62-5.57-4.16a1.53,1.53,0,0,0-1.13,1.62,3.54,3.54,0,0,0,2.19,3.57A3.12,3.12,0,0,1,50.47,23a3.72,3.72,0,0,0,1.2,2.15,13.22,13.22,0,0,1,0-1.87,5.47,5.47,0,0,0,.7,2.79L53,24.81a12.43,12.43,0,0,0-.26,2.87S55.41,26.2,55.27,23.8Z"/><path class="cls-39" d="M53.26,26.85a.7.7,0,0,1,.86.19,5.34,5.34,0,0,0,1.09-3c-.08-1.42-1.17,0-1.17,0Z"/><path class="cls-51" d="M48.29,23.4c-.51,0-.68.08-.86.06a1.4,1.4,0,0,1-.33-.08,4.45,4.45,0,0,1-.54-.23.87.87,0,0,1,1-.72A.81.81,0,0,1,48.29,23.4Z"/><path class="cls-51" d="M51.37,24.58a8.28,8.28,0,0,1-.9-.12,1.32,1.32,0,0,1-.33-.15,3,3,0,0,1-.5-.33.92.92,0,0,1,1.13-.51A.85.85,0,0,1,51.37,24.58Z"/><path class="cls-19" d="M45.38,31.73s-2.79,1-5.47,5.2l-6.37.28a6.62,6.62,0,0,0-.28,2.07l9.1,0a26.14,26.14,0,0,0,3.58-3.74C47.49,33.51,45.38,31.73,45.38,31.73Z"/><path class="cls-15" d="M30.57,39.11h.13l-.19.25Z"/><path class="cls-16" d="M30.72,38.35c0,.09.07.11.15,0,0,.19.07.24.21.09-.07.17.05.16.08.13l-.46.56h-.13Z"/><path class="cls-39" d="M30.84,38.38l0-.05c0,.19.07.24.21.09-.07.17.05.16.08.13l2.56-5.47-.12,0-.2-.09-.12-.06-2.56,5.47C30.72,38.43,30.77,38.45,30.84,38.38Z"/><polygon class="cls-39" points="33.34 32.75 33.28 32.88 33.72 33.08 33.78 32.95 33.34 32.75"/><polygon class="cls-39" points="33.34 32.75 33.28 32.88 33.51 32.99 33.57 32.86 33.34 32.75"/><path class="cls-39" d="M30.92,38.5s.09,0,.16-.08c-.07.17.05.16.08.13l2.56-5.47-.12,0-.09,0Z"/><polygon class="cls-39" points="33.79 32.96 34.09 32.31 33.97 32.25 33.77 32.16 33.65 32.11 33.34 32.76 33.79 32.96"/><polygon class="cls-39" points="33.79 32.96 34.09 32.31 33.97 32.25 33.88 32.21 33.57 32.87 33.79 32.96"/><path class="cls-38" d="M32.37,37.44c-.65-.11-2,.52-1.64.66a2,2,0,0,0,1.3.07C32.8,38.06,33,37.55,32.37,37.44Z"/><path class="cls-35" d="M38.12,48.94c.24-1.77,4.46-3.23,6.72-3.89a5.54,5.54,0,0,1-.86-.82c-4.25.71-10,2.64-9.26,8a73,73,0,0,0,1.64,15.16,4.33,4.33,0,0,0,4.06.51l.06-10.56S37.86,50.8,38.12,48.94Z"/></g></g></svg>