<svg xmlns="http://www.w3.org/2000/svg" viewBox="0 0 21.54 61.77"><defs><style>.cls-1{fill:#172d3a;}.cls-2{fill:#e8bcaf;}.cls-3{fill:#0e1e26;}.cls-4{fill:#a07d70;}.cls-5,.cls-9{fill:#353030;}.cls-5{opacity:0.3;}.cls-6{fill:#fff;}.cls-7{fill:#0c181e;}.cls-8{fill:#263d49;opacity:0.1;}.cls-9{opacity:0.4;}</style></defs><title>Ativo 91</title><g id="Camada_2" data-name="Camada 2"><g id="Personagens"><path class="cls-1" d="M14.65,1.41A2.24,2.24,0,0,0,11.46.85c-1.38.76-3.92,3.69-1.78,6.06S14.65,1.41,14.65,1.41Z"/><path class="cls-2" d="M5.43,31.31a36.4,36.4,0,0,1,1.26,8.06C5.81,39.15,5.26,39,5.26,39l-3.79-5.6Z"/><path class="cls-1" d="M16.76,23.59l-.5,4.4s5.1,2.9,3.9,8.64C19,42,5.26,39,5.26,39l-.2-5.8S-.25,34.4,1.2,33C3.23,31,8,30,8,30s-2.3-5.1,0-8.9S16.76,23.59,16.76,23.59Z"/><path class="cls-3" d="M7.17,27.34A8.87,8.87,0,0,1,8,21.09c2.3-3.8,8.8,2.5,8.8,2.5l-.35,2.82A12.35,12.35,0,0,1,7.17,27.34Z"/><path class="cls-4" d="M8,17.86a3,3,0,0,1-1.82.46,32.75,32.75,0,0,1-2.57,6.11S2.51,26,3.8,26.57c4,1.94,4.68,3,7.17,3.58.46.29,1.36-1,1.37-1.81s-5.22-2.55-5.65-3.81c-.9-2.64,3.14-4.31,3.63-5.5a5.8,5.8,0,0,0,.42-2.17A14.11,14.11,0,0,0,8,17.86Z"/><path class="cls-4" d="M15.4,13.65l.49-2L12.24,12l-.41,1.69-2.24.51S7.52,18.73,12.86,19s6.45-4,6.45-4Z"/><path class="cls-5" d="M11.83,13.69a31.37,31.37,0,0,1,3.57,0l.45-1.9,1-3.93L12.75,9.93Z"/><path class="cls-4" d="M18.2,3.58s-4.28-4.95-7.8.06c-4.1,5.85.44,11.34,6.45,7.61C18.79,10,21.51,4.8,18.2,3.58Z"/><path class="cls-6" d="M10.17,8.73,13,9.7S10.26,12,10.17,8.73Z"/><path class="cls-7" d="M13,5a1,1,0,0,1,.63-.55,1.19,1.19,0,0,1,.9.09,1.21,1.21,0,0,1,.54,1.5,7,7,0,0,1-.58-.42,3.25,3.25,0,0,0-.41-.26A3.35,3.35,0,0,0,13,5Z"/><path class="cls-7" d="M10.42,3.91a1,1,0,0,1,.52-.52,1.11,1.11,0,0,1,.77-.07,1,1,0,0,1,.64.61.8.8,0,0,1-.13.75,3.39,3.39,0,0,0-.49-.36,1,1,0,0,0-.28-.1C11.25,4.15,10.92,4.1,10.42,3.91Z"/><path class="cls-1" d="M13.85.57a2.82,2.82,0,0,0-.2,1.05c0,1.06.41,2.76,3,4.25C19.75,7.65,17,1.66,13.85.57Z"/><path class="cls-6" d="M9.88,13.92s-.47,3,2.51,3,4.25-3,4.25-3l2.42,1a3.23,3.23,0,0,0-.56,1.72,7.61,7.61,0,0,0,.36,3,29.09,29.09,0,0,1-1.3,6.8c-.3.62-6,1.76-11.4-1.59,0,0-2.06-3.93,2.88-10.51Z"/><path class="cls-8" d="M6.17,22.81h0c3.92,1.38,8.84-.35,11.68-3.6a3.81,3.81,0,0,0,.56-.31,1.37,1.37,0,0,0,.2-.13,8.86,8.86,0,0,0,.23.88,29.09,29.09,0,0,1-1.3,6.8c-.3.62-6,1.76-11.4-1.59a6.07,6.07,0,0,1-.49-2.16A1.82,1.82,0,0,0,6.17,22.81Z"/><path class="cls-4" d="M9.66,23.63c.58.41,5.8,5.12,7.64,4.25,1-.47,3.06-6.29,3.62-8.59a3.75,3.75,0,0,0-2.17-4.52A13.41,13.41,0,0,0,17.56,17a33.16,33.16,0,0,0-1.75,7.14c-1.89-1-4.15-1.34-4.62-1.62A3,3,0,0,1,9.66,23.63Zm6.3.55,0,0C16.05,24.19,16.24,24.24,16,24.18Z"/><path class="cls-6" d="M18.75,14.77s3.23,1,2.46,5.39c0,0-2.95.45-4.75-.45S18.75,14.77,18.75,14.77Z"/><path class="cls-4" d="M18.44,59.52s1.17-1.52-.79-4.37c-1-1.45-2.75-6.82-4.75-12.66-1.6-4.66-4-8-6.2-8.87-5.57-2.2-3.69,4.6-1.39,8.7S17.89,59.13,18.44,59.52Z"/><path class="cls-4" d="M17.3,55.19s3,1.78,2.67,3.59-1.49,1.6-4.07-2.4S17.3,55.19,17.3,55.19Z"/><path class="cls-6" d="M18.57,56.62c-.33-.74-.93-1.35-.92-1.47C19,56,20.13,57.84,20,58.78c-.26,1.58-1.21,1.62-3.18-1.11C17.55,58.21,18.89,57.37,18.57,56.62Z"/><path class="cls-6" d="M19.58,58.55a2.58,2.58,0,0,0-.35-1.86A2.87,2.87,0,0,1,20,58.78c-.17,1-.62,1.39-1.44.81C19,59.66,19.36,59.28,19.58,58.55Z"/><path class="cls-4" d="M11.11,54.05c-.94.4-1.9.74-2.87,1.05,2.19,3.35,4.06,6.06,4.29,6.25,0,0,1.3-1.41-.4-4.42A16.17,16.17,0,0,1,11.11,54.05Z"/><path class="cls-4" d="M11.79,56.94s2.8,2,2.33,3.81S12.5,62.21,10.28,58,11.79,56.94,11.79,56.94Z"/><path class="cls-6" d="M12.92,58.48c-.27-.77-.81-1.43-.79-1.55,1.29,1,2.23,2.9,2,3.82-.4,1.56-1.35,1.5-3.07-1.38C11.76,60,13.18,59.25,12.92,58.48Z"/><path class="cls-6" d="M13.76,60.49a2.61,2.61,0,0,0-.19-1.88,2.85,2.85,0,0,1,.55,2.14c-.26,1-.74,1.33-1.51.68C13.09,61.54,13.47,61.19,13.76,60.49Z"/><path class="cls-6" d="M9.88,13.92a6.67,6.67,0,0,0-4.57,4.71l2,.65,2.05-3.51"/><path class="cls-7" d="M11.08,5.67c-.06.06-.72-.19-.65-.25.27-.2.78.08.65.25"/><path class="cls-7" d="M13.75,6.86c-.05.07-.72-.19-.65-.24C13.37,6.41,13.88,6.7,13.75,6.86Z"/><path class="cls-4" d="M11.14,24.77s-.47-.27-1.39-.87l-1.32-.82s-3.51-1.06,0-.55a.13.13,0,0,0,0-.21c-.12-.11-2.09-1.34-2-1.5s2,.95,2.13.88-1.92-1.64-1.71-1.81,2.05,1.41,2.17,1.27-1.13-1.81-1-2,1.62,1.68,2,1.91.54.08.54.08.27-.12,0-.63-.28-.76.06-.87a7,7,0,0,1,.43.66c.06.12.84,1.55.5,2.35l.78,1Z"/><path class="cls-1" d="M13.44,1.32c-.28,4,4.66,6.46,4.66,6.46a18.64,18.64,0,0,1-1.25,3.47c-.4.37,3.21-1.31,3.95-5.13S17.64.23,15.6,0,13.48.65,13.44,1.32Z"/><polygon class="cls-9" points="11.65 6.13 10.36 7.14 11.17 7.77 11.65 6.13"/><path class="cls-1" d="M18.8,9.58s1.46-1.51,2.38,0c1.6,2.66-2.6,5-3.48,2.24A1.62,1.62,0,0,1,18.8,9.58Z"/><path class="cls-4" d="M17.64,7.79s1-.26,1.05.36S18.37,9.94,17.35,10,17.64,7.79,17.64,7.79Z"/><polygon class="cls-1" points="17.22 6.5 16.66 9.3 18.18 7.41 17.22 6.5"/><path class="cls-1" d="M11.67,54.54C9.07,46.65,9,35.33,5,33c-5-2.83-6,3.72-3.52,8.9C2.68,44.52,5.5,51.44,8.27,56A3.46,3.46,0,0,0,11.67,54.54Z"/><path class="cls-3" d="M11.67,54.54c-2.6-7.89-3.14-18.74-7.18-21-5-2.83-5.54,3.25-3.06,8.43C2.68,44.52,5.5,51.44,8.27,56A3.46,3.46,0,0,0,11.67,54.54Z"/><path class="cls-1" d="M16.5,52.4c-1.26-3-2.64-7.86-3.62-10.74C11.28,37,8.55,33.82,6.37,33,.79,30.76,3,38.22,5.31,42.32a112.64,112.64,0,0,0,8.11,12A2.66,2.66,0,0,0,16.5,52.4Z"/><path class="cls-3" d="M8,30S3.23,31,1.2,33c-.83.8.54.75,1.87.56C3.47,32.66,4.65,31.35,8,30Z"/><path class="cls-4" d="M10.32,30a4.71,4.71,0,0,1,1.71.64c.8.52,3.26.44,2.49.13a8.94,8.94,0,0,0-1.15-.38s2,0,1.52-.41-1.68-.23-1.68-.23,2.17-.3,1.53-.65a1.94,1.94,0,0,0-1.48,0s1.65-.87,1.21-1.05-1.65.49-1.65.49l-.94-.75Z"/></g></g></svg>