<svg xmlns="http://www.w3.org/2000/svg" xmlns:xlink="http://www.w3.org/1999/xlink" viewBox="0 0 43.89 16.32"><defs><style>.cls-1{isolation:isolate;}.cls-2{fill:#e2e7e8;}.cls-2,.cls-5{mix-blend-mode:multiply;}.cls-3{fill:url(#linear-gradient);}.cls-4{fill:url(#linear-gradient-2);}.cls-5{fill:#dde4e8;}.cls-6{fill:#e2ecf2;}.cls-7{fill:#fff;}</style><linearGradient id="linear-gradient" x1="1059.27" y1="143.94" x2="1065.28" y2="154.03" gradientTransform="matrix(1.11, 0.27, 0, 0.9, -1154.64, -416.54)" gradientUnits="userSpaceOnUse"><stop offset="0" stop-color="#eef0f3"/><stop offset="0.6" stop-color="#eceff2"/><stop offset="0.81" stop-color="#e5eaee"/><stop offset="0.97" stop-color="#dae1e7"/><stop offset="1" stop-color="#d6dee5"/></linearGradient><linearGradient id="linear-gradient-2" x1="1043.2" y1="157.04" x2="1053.6" y2="157.04" gradientTransform="matrix(1.11, 0.27, 0, 0.9, -1154.64, -416.54)" gradientUnits="userSpaceOnUse"><stop offset="0" stop-color="#d3d7dd"/><stop offset="0.6" stop-color="#d1d6dc"/><stop offset="0.82" stop-color="#cad1d8"/><stop offset="0.98" stop-color="#bfc8d1"/><stop offset="1" stop-color="#bcc6cf"/></linearGradient></defs><title>Ativo 129</title><g class="cls-1"><g id="Camada_2" data-name="Camada 2"><g id="Camada_1-2" data-name="Camada 1"><path class="cls-2" d="M13.42,16.32,43.78,9.51,32.05,1.12,0,8.29s6.8,4.84,9,6.48A8.84,8.84,0,0,0,13.42,16.32Z"/><path class="cls-3" d="M42.84,7.72,32.16,0l0,0h0L1.82,7l11.55,9.32L43.89,9.46A2.52,2.52,0,0,0,42.84,7.72Z"/><path class="cls-4" d="M12.32,14.58,1.82,7V8l11.55,8.33A2.56,2.56,0,0,0,12.32,14.58Z"/><polygon class="cls-5" points="6.42 8.32 5.41 8.56 4.38 7.83 5.4 7.59 6.42 8.32"/><polygon class="cls-5" points="8.73 7.79 7.71 8.03 6.68 7.3 7.71 7.06 8.73 7.79"/><polygon class="cls-5" points="9.9 7.52 8.88 7.76 7.86 7.03 8.88 6.79 9.9 7.52"/><polygon class="cls-5" points="11.08 7.26 10.05 7.49 9.03 6.76 10.04 6.53 11.08 7.26"/><polygon class="cls-5" points="13.64 13.41 12.61 13.64 11.59 12.91 12.61 12.67 13.64 13.41"/><polygon class="cls-5" points="14.8 13.13 13.78 13.37 12.75 12.64 13.77 12.4 14.8 13.13"/><polygon class="cls-5" points="15.98 12.87 14.96 13.1 13.93 12.37 14.95 12.13 15.98 12.87"/><polygon class="cls-5" points="12.24 6.99 11.23 7.22 10.2 6.49 11.22 6.26 12.24 6.99"/><polygon class="cls-5" points="8.17 9.55 7.15 9.79 6.13 9.05 7.14 8.82 8.17 9.55"/><polygon class="cls-5" points="9.35 9.28 8.32 9.52 7.29 8.78 8.31 8.55 9.35 9.28"/><polygon class="cls-5" points="10.51 9.01 9.49 9.24 8.46 8.52 9.49 8.28 10.51 9.01"/><polygon class="cls-5" points="11.67 8.74 10.66 8.98 9.63 8.24 10.65 8.01 11.67 8.74"/><polygon class="cls-5" points="12.88 8.47 11.86 8.7 10.83 7.98 11.85 7.74 12.88 8.47"/><polygon class="cls-5" points="14.04 8.2 13.03 8.43 12 7.71 13.02 7.47 14.04 8.2"/><polygon class="cls-5" points="15.21 7.93 14.2 8.17 13.17 7.43 14.19 7.2 15.21 7.93"/><polygon class="cls-5" points="16.39 7.66 15.37 7.9 14.34 7.17 15.36 6.93 16.39 7.66"/><polygon class="cls-5" points="17.54 7.39 16.52 7.63 15.49 6.9 16.51 6.67 17.54 7.39"/><polygon class="cls-5" points="18.71 7.13 17.69 7.36 16.66 6.63 17.68 6.4 18.71 7.13"/><polygon class="cls-5" points="19.88 6.86 18.86 7.09 17.83 6.37 18.85 6.13 19.88 6.86"/><polygon class="cls-5" points="21.05 6.59 20.03 6.83 19 6.09 20.02 5.86 21.05 6.59"/><polygon class="cls-5" points="22.25 6.32 21.23 6.55 20.19 5.82 21.21 5.59 22.25 6.32"/><polygon class="cls-5" points="23.41 6.05 22.39 6.28 21.37 5.55 22.38 5.32 23.41 6.05"/><polygon class="cls-5" points="24.58 5.78 23.57 6.01 22.53 5.28 23.56 5.05 24.58 5.78"/><polygon class="cls-5" points="25.75 5.51 24.74 5.75 23.7 5.01 24.72 4.78 25.75 5.51"/><polygon class="cls-5" points="14.57 6.45 13.56 6.68 12.54 5.96 13.55 5.72 14.57 6.45"/><polygon class="cls-5" points="15.75 6.18 14.73 6.42 13.7 5.69 14.72 5.45 15.75 6.18"/><polygon class="cls-5" points="16.92 5.91 15.9 6.14 14.88 5.41 15.89 5.18 16.92 5.91"/><polygon class="cls-5" points="18.09 5.64 17.07 5.88 16.04 5.15 17.06 4.91 18.09 5.64"/><polygon class="cls-5" points="20.45 5.1 19.43 5.34 18.41 4.6 19.43 4.37 20.45 5.1"/><polygon class="cls-5" points="21.63 4.83 20.6 5.06 19.57 4.33 20.59 4.11 21.63 4.83"/><polygon class="cls-5" points="22.79 4.56 21.77 4.8 20.74 4.07 21.76 3.83 22.79 4.56"/><polygon class="cls-5" points="23.96 4.29 22.94 4.53 21.91 3.79 22.93 3.56 23.96 4.29"/><polygon class="cls-5" points="27.68 10.18 26.66 10.41 25.63 9.68 26.65 9.45 27.68 10.18"/><polygon class="cls-5" points="28.85 9.91 27.82 10.14 26.8 9.41 27.82 9.18 28.85 9.91"/><polygon class="cls-5" points="30.02 9.64 29 9.87 27.97 9.14 28.99 8.91 30.02 9.64"/><polygon class="cls-5" points="31.18 9.37 30.17 9.6 29.14 8.87 30.16 8.64 31.18 9.37"/><polygon class="cls-5" points="26.03 3.81 25.01 4.05 23.98 3.32 25 3.08 26.03 3.81"/><polygon class="cls-5" points="27.2 3.54 26.18 3.78 25.15 3.05 26.17 2.81 27.2 3.54"/><polygon class="cls-5" points="28.37 3.27 27.35 3.51 26.32 2.78 27.34 2.54 28.37 3.27"/><polygon class="cls-5" points="35.18 5.03 34.16 5.27 33.13 4.54 34.15 4.31 35.18 5.03"/><polygon class="cls-5" points="36.35 4.77 35.33 5 34.31 4.27 35.32 4.04 36.35 4.77"/><polygon class="cls-5" points="37.52 4.5 36.5 4.74 35.47 4.01 36.49 3.77 37.52 4.5"/><polygon class="cls-5" points="36.4 5.9 35.39 6.14 34.36 5.41 35.38 5.18 36.4 5.9"/><polygon class="cls-5" points="37.57 5.63 36.56 5.87 35.53 5.14 36.55 4.91 37.57 5.63"/><polygon class="cls-5" points="38.75 5.37 37.72 5.6 36.7 4.88 37.71 4.64 38.75 5.37"/><polygon class="cls-5" points="27.75 5.04 26.73 5.28 25.71 4.54 26.73 4.32 27.75 5.04"/><polygon class="cls-5" points="28.92 4.77 27.91 5 26.88 4.28 27.9 4.05 28.92 4.77"/><polygon class="cls-5" points="30.1 4.5 29.07 4.74 28.05 4.01 29.07 3.78 30.1 4.5"/><polygon class="cls-5" points="28.98 5.91 27.96 6.15 26.94 5.42 27.95 5.18 28.98 5.91"/><polygon class="cls-5" points="30.15 5.64 29.13 5.87 28.11 5.15 29.12 4.91 30.15 5.64"/><polygon class="cls-5" points="31.32 5.38 30.3 5.61 29.27 4.88 30.29 4.64 31.32 5.38"/><polygon class="cls-5" points="37.62 6.78 36.61 7.01 35.58 6.28 36.6 6.05 37.62 6.78"/><polygon class="cls-5" points="38.8 6.5 37.78 6.74 36.75 6.01 37.77 5.77 38.8 6.5"/><polygon class="cls-5" points="41.19 7.11 40.17 7.34 37.92 5.74 38.94 5.51 41.19 7.11"/><polygon class="cls-5" points="38.85 7.64 37.83 7.88 36.8 7.14 37.82 6.91 38.85 7.64"/><polygon class="cls-5" points="40.02 7.38 39 7.61 37.98 6.88 39 6.65 40.02 7.38"/><polygon class="cls-5" points="31.69 2.56 30.66 2.79 29.64 2.06 30.66 1.82 31.69 2.56"/><polygon class="cls-5" points="32.86 2.29 31.84 2.52 30.81 1.79 31.83 1.56 32.86 2.29"/><polygon class="cls-5" points="34.02 2.02 33.01 2.25 31.98 1.52 33 1.29 34.02 2.02"/><polygon class="cls-5" points="32.71 7.83 31.69 8.06 30.66 7.33 31.68 7.1 32.71 7.83"/><polygon class="cls-5" points="32.77 8.97 31.75 9.2 30.72 8.47 31.74 8.24 32.77 8.97"/><polygon class="cls-5" points="33.94 8.7 32.92 8.93 31.89 8.2 32.91 7.97 33.94 8.7"/><polygon class="cls-5" points="35.1 8.43 34.08 8.66 33.05 7.93 34.08 7.7 35.1 8.43"/><polygon class="cls-5" points="9.86 10.31 8.37 10.65 7.35 9.92 8.84 9.58 9.86 10.31"/><polygon class="cls-5" points="11.04 10.04 10.02 10.28 8.99 9.55 10.01 9.31 11.04 10.04"/><polygon class="cls-5" points="12.2 9.77 11.19 10.01 10.16 9.28 11.18 9.05 12.2 9.77"/><polygon class="cls-5" points="13.38 9.5 12.36 9.74 11.33 9.01 12.35 8.78 13.38 9.5"/><polygon class="cls-5" points="14.57 9.23 13.55 9.46 12.53 8.73 13.54 8.5 14.57 9.23"/><polygon class="cls-5" points="15.74 8.96 14.72 9.2 13.7 8.47 14.72 8.23 15.74 8.96"/><polygon class="cls-5" points="16.91 8.7 15.9 8.92 14.86 8.2 15.89 7.96 16.91 8.7"/><polygon class="cls-5" points="18.08 8.42 17.07 8.66 16.04 7.93 17.06 7.69 18.08 8.42"/><polygon class="cls-5" points="19.23 8.16 18.21 8.39 17.19 7.66 18.2 7.43 19.23 8.16"/><polygon class="cls-5" points="20.41 7.89 19.38 8.12 18.35 7.39 19.37 7.16 20.41 7.89"/><polygon class="cls-5" points="21.57 7.62 20.55 7.86 19.53 7.12 20.54 6.89 21.57 7.62"/><polygon class="cls-5" points="22.74 7.35 21.72 7.59 20.69 6.86 21.71 6.62 22.74 7.35"/><polygon class="cls-5" points="23.94 7.08 22.92 7.31 21.89 6.58 22.91 6.34 23.94 7.08"/><polygon class="cls-5" points="25.1 6.81 24.09 7.04 23.06 6.31 24.08 6.08 25.1 6.81"/><polygon class="cls-5" points="26.98 6.38 25.26 6.77 24.23 6.04 25.95 5.65 26.98 6.38"/><polygon class="cls-5" points="11.63 11.05 9.6 11.52 8.57 10.79 10.61 10.32 11.63 11.05"/><polygon class="cls-5" points="12.82 10.78 11.8 11.01 10.78 10.28 11.79 10.05 12.82 10.78"/><polygon class="cls-5" points="13.99 10.51 12.98 10.75 11.95 10.02 12.97 9.78 13.99 10.51"/><polygon class="cls-5" points="15.16 10.24 14.14 10.48 13.12 9.75 14.13 9.51 15.16 10.24"/><polygon class="cls-5" points="16.36 9.97 15.34 10.2 14.31 9.47 15.33 9.23 16.36 9.97"/><polygon class="cls-5" points="17.53 9.7 16.51 9.93 15.49 9.2 16.5 8.97 17.53 9.7"/><polygon class="cls-5" points="18.7 9.43 17.68 9.66 16.65 8.94 17.67 8.7 18.7 9.43"/><polygon class="cls-5" points="19.87 9.16 18.85 9.39 17.82 8.66 18.84 8.43 19.87 9.16"/><polygon class="cls-5" points="21.02 8.9 20 9.13 18.97 8.4 19.99 8.17 21.02 8.9"/><polygon class="cls-5" points="22.19 8.63 21.17 8.86 20.14 8.13 21.16 7.9 22.19 8.63"/><polygon class="cls-5" points="23.36 8.36 22.34 8.59 21.32 7.86 22.33 7.63 23.36 8.36"/><polygon class="cls-5" points="24.53 8.09 23.51 8.32 22.48 7.59 23.5 7.36 24.53 8.09"/><polygon class="cls-5" points="25.72 7.81 24.7 8.05 23.68 7.32 24.69 7.08 25.72 7.81"/><polygon class="cls-5" points="28.2 7.25 25.91 7.77 24.88 7.04 27.17 6.51 28.2 7.25"/><polygon class="cls-5" points="13.48 11.78 10.84 12.39 9.81 11.66 12.45 11.05 13.48 11.78"/><polygon class="cls-5" points="26.27 10.5 16.38 12.77 15.35 12.04 25.23 9.77 26.27 10.5"/><polygon class="cls-5" points="14.64 11.52 13.61 11.75 12.59 11.02 13.6 10.79 14.64 11.52"/><polygon class="cls-5" points="15.8 11.25 14.78 11.48 13.76 10.75 14.77 10.52 15.8 11.25"/><polygon class="cls-5" points="17 10.97 15.98 11.2 14.95 10.48 15.97 10.24 17 10.97"/><polygon class="cls-5" points="18.17 10.7 17.15 10.94 16.12 10.21 17.14 9.97 18.17 10.7"/><polygon class="cls-5" points="19.34 10.44 18.32 10.67 17.29 9.94 18.31 9.7 19.34 10.44"/><polygon class="cls-5" points="20.5 10.16 19.48 10.4 18.47 9.67 19.48 9.44 20.5 10.16"/><polygon class="cls-5" points="21.66 9.9 20.64 10.13 19.62 9.41 20.63 9.17 21.66 9.9"/><polygon class="cls-5" points="22.82 9.63 21.81 9.87 20.78 9.14 21.8 8.9 22.82 9.63"/><polygon class="cls-5" points="24 9.37 22.98 9.6 21.96 8.87 22.97 8.63 24 9.37"/><polygon class="cls-5" points="25.17 9.09 24.15 9.33 23.12 8.6 24.14 8.37 25.17 9.09"/><polygon class="cls-5" points="26.37 8.82 25.35 9.05 24.32 8.32 25.34 8.09 26.37 8.82"/><polygon class="cls-5" points="29.44 8.11 26.54 8.78 25.5 8.05 28.41 7.38 29.44 8.11"/><polygon class="cls-6" points="6.44 8.28 5.42 8.51 4.39 7.78 5.41 7.55 6.44 8.28"/><polygon class="cls-7" points="6.31 8.19 5.42 8.39 4.53 7.75 5.41 7.55 6.31 8.19"/><polygon class="cls-6" points="8.74 7.75 7.72 7.98 6.7 7.25 7.71 7.01 8.74 7.75"/><polygon class="cls-7" points="8.61 7.66 7.73 7.86 6.83 7.22 7.72 7.02 8.61 7.66"/><polygon class="cls-6" points="9.91 7.48 8.89 7.71 7.87 6.98 8.89 6.75 9.91 7.48"/><polygon class="cls-7" points="9.78 7.38 8.9 7.59 8 6.95 8.89 6.75 9.78 7.38"/><polygon class="cls-6" points="11.09 7.21 10.06 7.45 9.04 6.72 10.05 6.48 11.09 7.21"/><polygon class="cls-7" points="10.96 7.12 10.06 7.32 9.18 6.69 10.06 6.48 10.96 7.12"/><polygon class="cls-6" points="13.64 13.36 12.63 13.59 11.6 12.86 12.62 12.63 13.64 13.36"/><polygon class="cls-7" points="13.52 13.27 12.63 13.47 11.73 12.84 12.62 12.63 13.52 13.27"/><polygon class="cls-6" points="14.81 13.09 13.79 13.32 12.77 12.59 13.78 12.36 14.81 13.09"/><polygon class="cls-7" points="14.68 13 13.79 13.2 12.9 12.56 13.79 12.36 14.68 13"/><polygon class="cls-6" points="15.99 12.82 14.96 13.05 13.94 12.32 14.95 12.09 15.99 12.82"/><polygon class="cls-7" points="15.86 12.73 14.96 12.93 14.08 12.3 14.96 12.09 15.86 12.73"/><polygon class="cls-6" points="12.26 6.94 11.24 7.18 10.21 6.45 11.23 6.21 12.26 6.94"/><polygon class="cls-7" points="12.13 6.85 11.24 7.05 10.35 6.42 11.23 6.21 12.13 6.85"/><polygon class="cls-6" points="8.18 9.5 7.16 9.74 6.13 9.01 7.15 8.78 8.18 9.5"/><polygon class="cls-7" points="8.05 9.41 7.16 9.62 6.27 8.98 7.16 8.78 8.05 9.41"/><polygon class="cls-6" points="9.35 9.23 8.33 9.47 7.3 8.74 8.33 8.51 9.35 9.23"/><polygon class="cls-7" points="9.22 9.14 8.34 9.35 7.44 8.71 8.33 8.51 9.22 9.14"/><polygon class="cls-6" points="10.52 8.96 9.5 9.2 8.47 8.47 9.5 8.24 10.52 8.96"/><polygon class="cls-7" points="10.39 8.87 9.51 9.08 8.61 8.44 9.5 8.24 10.39 8.87"/><polygon class="cls-6" points="11.69 8.7 10.67 8.93 9.64 8.2 10.66 7.97 11.69 8.7"/><polygon class="cls-7" points="11.55 8.6 10.68 8.81 9.78 8.17 10.66 7.97 11.55 8.6"/><polygon class="cls-6" points="12.89 8.43 11.87 8.66 10.84 7.93 11.86 7.7 12.89 8.43"/><polygon class="cls-7" points="12.76 8.33 11.87 8.53 10.97 7.9 11.86 7.7 12.76 8.33"/><polygon class="cls-6" points="14.05 8.15 13.04 8.39 12.01 7.66 13.03 7.42 14.05 8.15"/><polygon class="cls-7" points="13.92 8.06 13.04 8.27 12.15 7.63 13.03 7.43 13.92 8.06"/><polygon class="cls-6" points="15.22 7.88 14.21 8.12 13.18 7.39 14.2 7.16 15.22 7.88"/><polygon class="cls-7" points="15.1 7.79 14.21 8 13.31 7.36 14.2 7.16 15.1 7.79"/><polygon class="cls-6" points="16.39 7.62 15.37 7.85 14.35 7.12 15.37 6.88 16.39 7.62"/><polygon class="cls-7" points="16.27 7.52 15.38 7.73 14.49 7.09 15.37 6.89 16.27 7.52"/><polygon class="cls-6" points="17.55 7.35 16.53 7.58 15.5 6.85 16.52 6.62 17.55 7.35"/><polygon class="cls-7" points="17.42 7.26 16.53 7.46 15.64 6.82 16.52 6.63 17.42 7.26"/><polygon class="cls-6" points="18.72 7.08 17.69 7.32 16.67 6.58 17.69 6.35 18.72 7.08"/><polygon class="cls-7" points="18.59 6.99 17.7 7.19 16.81 6.56 17.69 6.36 18.59 6.99"/><polygon class="cls-6" points="19.89 6.82 18.87 7.05 17.84 6.32 18.86 6.08 19.89 6.82"/><polygon class="cls-7" points="19.76 6.72 18.87 6.93 17.98 6.29 18.87 6.09 19.76 6.72"/><polygon class="cls-6" points="21.06 6.54 20.04 6.78 19.01 6.05 20.03 5.82 21.06 6.54"/><polygon class="cls-7" points="20.93 6.45 20.04 6.66 19.14 6.02 20.04 5.82 20.93 6.45"/><polygon class="cls-6" points="22.25 6.27 21.24 6.5 20.2 5.78 21.23 5.54 22.25 6.27"/><polygon class="cls-7" points="22.13 6.18 21.24 6.38 20.34 5.75 21.23 5.54 22.13 6.18"/><polygon class="cls-6" points="23.42 6 22.4 6.23 21.38 5.51 22.39 5.27 23.42 6"/><polygon class="cls-7" points="23.29 5.91 22.4 6.11 21.51 5.48 22.4 5.27 23.29 5.91"/><polygon class="cls-6" points="24.59 5.74 23.58 5.97 22.54 5.24 23.57 5 24.59 5.74"/><polygon class="cls-7" points="24.46 5.64 23.58 5.84 22.68 5.21 23.57 5 24.46 5.64"/><polygon class="cls-6" points="25.76 5.46 24.74 5.7 23.72 4.97 24.73 4.73 25.76 5.46"/><polygon class="cls-7" points="25.63 5.37 24.75 5.58 23.85 4.94 24.74 4.74 25.63 5.37"/><polygon class="cls-6" points="14.59 6.41 13.57 6.64 12.55 5.91 13.56 5.67 14.59 6.41"/><polygon class="cls-7" points="14.46 6.31 13.57 6.52 12.68 5.88 13.57 5.67 14.46 6.31"/><polygon class="cls-6" points="15.76 6.14 14.74 6.37 13.71 5.64 14.73 5.4 15.76 6.14"/><polygon class="cls-7" points="15.63 6.04 14.74 6.25 13.85 5.61 14.74 5.41 15.63 6.04"/><polygon class="cls-6" points="16.93 5.86 15.91 6.1 14.89 5.37 15.9 5.14 16.93 5.86"/><polygon class="cls-7" points="16.8 5.77 15.91 5.97 15.02 5.34 15.9 5.14 16.8 5.77"/><polygon class="cls-6" points="18.1 5.6 17.08 5.83 16.05 5.1 17.07 4.87 18.1 5.6"/><polygon class="cls-7" points="17.97 5.51 17.08 5.71 16.19 5.07 17.07 4.87 17.97 5.51"/><polygon class="cls-6" points="20.46 5.05 19.45 5.29 18.42 4.56 19.44 4.33 20.46 5.05"/><polygon class="cls-7" points="20.33 4.96 19.45 5.17 18.55 4.53 19.44 4.33 20.33 4.96"/><polygon class="cls-6" points="21.64 4.79 20.61 5.02 19.59 4.29 20.61 4.06 21.64 4.79"/><polygon class="cls-7" points="21.51 4.69 20.62 4.89 19.72 4.26 20.61 4.06 21.51 4.69"/><polygon class="cls-6" points="22.8 4.52 21.78 4.75 20.75 4.02 21.77 3.79 22.8 4.52"/><polygon class="cls-7" points="22.67 4.42 21.78 4.63 20.89 3.99 21.77 3.79 22.67 4.42"/><polygon class="cls-6" points="23.97 4.24 22.95 4.48 21.92 3.75 22.94 3.51 23.97 4.24"/><polygon class="cls-7" points="23.84 4.15 22.95 4.36 22.06 3.72 22.95 3.52 23.84 4.15"/><polygon class="cls-6" points="27.69 10.13 26.67 10.36 25.64 9.63 26.66 9.4 27.69 10.13"/><polygon class="cls-7" points="27.56 10.04 26.68 10.24 25.78 9.61 26.67 9.4 27.56 10.04"/><polygon class="cls-6" points="28.86 9.86 27.83 10.09 26.81 9.37 27.82 9.13 28.86 9.86"/><polygon class="cls-7" points="28.73 9.77 27.84 9.97 26.95 9.34 27.83 9.13 28.73 9.77"/><polygon class="cls-6" points="30.03 9.59 29.01 9.83 27.98 9.1 29 8.86 30.03 9.59"/><polygon class="cls-7" points="29.9 9.5 29.01 9.7 28.11 9.07 29 8.86 29.9 9.5"/><polygon class="cls-6" points="31.2 9.32 30.18 9.55 29.15 8.83 30.17 8.59 31.2 9.32"/><polygon class="cls-7" points="31.07 9.23 30.18 9.43 29.28 8.8 30.17 8.59 31.07 9.23"/><polygon class="cls-6" points="26.04 3.77 25.02 4 23.99 3.27 25.02 3.04 26.04 3.77"/><polygon class="cls-7" points="25.91 3.67 25.02 3.88 24.13 3.24 25.02 3.04 25.91 3.67"/><polygon class="cls-6" points="27.21 3.5 26.19 3.73 25.16 3 26.18 2.77 27.21 3.5"/><polygon class="cls-7" points="27.08 3.41 26.19 3.61 25.3 2.97 26.18 2.77 27.08 3.41"/><polygon class="cls-6" points="28.38 3.23 27.36 3.46 26.33 2.73 27.35 2.5 28.38 3.23"/><polygon class="cls-7" points="28.25 3.14 27.36 3.34 26.46 2.71 27.35 2.5 28.25 3.14"/><polygon class="cls-6" points="35.19 4.99 34.17 5.23 33.15 4.49 34.16 4.26 35.19 4.99"/><polygon class="cls-7" points="35.06 4.9 34.18 5.1 33.28 4.46 34.17 4.26 35.06 4.9"/><polygon class="cls-6" points="36.36 4.72 35.34 4.96 34.32 4.22 35.33 3.99 36.36 4.72"/><polygon class="cls-7" points="36.23 4.63 35.34 4.83 34.45 4.2 35.33 3.99 36.23 4.63"/><polygon class="cls-6" points="37.53 4.46 36.51 4.69 35.48 3.96 36.5 3.72 37.53 4.46"/><polygon class="cls-7" points="37.4 4.37 36.51 4.57 35.62 3.93 36.5 3.72 37.4 4.37"/><polygon class="cls-6" points="36.41 5.86 35.4 6.1 34.37 5.36 35.39 5.13 36.41 5.86"/><polygon class="cls-7" points="36.28 5.77 35.4 5.97 34.5 5.33 35.39 5.13 36.28 5.77"/><polygon class="cls-6" points="37.59 5.59 36.57 5.83 35.54 5.09 36.56 4.86 37.59 5.59"/><polygon class="cls-7" points="37.46 5.5 36.57 5.71 35.67 5.07 36.56 4.87 37.46 5.5"/><polygon class="cls-6" points="38.76 5.33 37.73 5.55 36.7 4.83 37.72 4.59 38.76 5.33"/><polygon class="cls-7" points="38.63 5.23 37.74 5.43 36.84 4.8 37.73 4.59 38.63 5.23"/><polygon class="cls-6" points="27.76 5 26.75 5.23 25.72 4.5 26.74 4.27 27.76 5"/><polygon class="cls-7" points="27.63 4.9 26.75 5.11 25.86 4.47 26.74 4.27 27.63 4.9"/><polygon class="cls-6" points="28.93 4.72 27.92 4.96 26.89 4.23 27.91 4 28.93 4.72"/><polygon class="cls-7" points="28.8 4.63 27.92 4.83 27.02 4.2 27.91 4 28.8 4.63"/><polygon class="cls-6" points="30.11 4.46 29.08 4.69 28.06 3.96 29.07 3.73 30.11 4.46"/><polygon class="cls-7" points="29.98 4.37 29.09 4.57 28.2 3.93 29.08 3.73 29.98 4.37"/><polygon class="cls-6" points="28.99 5.87 27.97 6.1 26.95 5.37 27.96 5.13 28.99 5.87"/><polygon class="cls-7" points="28.86 5.77 27.98 5.98 27.08 5.34 27.97 5.13 28.86 5.77"/><polygon class="cls-6" points="30.16 5.6 29.14 5.83 28.12 5.1 29.13 4.87 30.16 5.6"/><polygon class="cls-7" points="30.03 5.51 29.14 5.71 28.25 5.07 29.13 4.87 30.03 5.51"/><polygon class="cls-6" points="31.33 5.33 30.31 5.56 29.29 4.84 30.3 4.6 31.33 5.33"/><polygon class="cls-7" points="31.2 5.24 30.31 5.44 29.42 4.81 30.3 4.6 31.2 5.24"/><polygon class="cls-6" points="37.63 6.73 36.62 6.96 35.59 6.24 36.61 6 37.63 6.73"/><polygon class="cls-7" points="37.51 6.64 36.62 6.84 35.72 6.21 36.61 6 37.51 6.64"/><polygon class="cls-6" points="38.81 6.46 37.78 6.7 36.76 5.96 37.78 5.73 38.81 6.46"/><polygon class="cls-7" points="38.68 6.37 37.79 6.57 36.9 5.93 37.78 5.73 38.68 6.37"/><polygon class="cls-6" points="41.2 7.06 40.18 7.29 37.93 5.7 38.95 5.46 41.2 7.06"/><polygon class="cls-7" points="41.07 6.97 40.18 7.17 38.06 5.67 38.95 5.46 41.07 6.97"/><polygon class="cls-6" points="38.86 7.6 37.84 7.83 36.81 7.1 37.83 6.87 38.86 7.6"/><polygon class="cls-7" points="38.73 7.5 37.84 7.71 36.95 7.07 37.84 6.87 38.73 7.5"/><polygon class="cls-5" points="34.01 5.3 32.99 5.53 31.96 4.8 32.98 4.57 34.01 5.3"/><polygon class="cls-5" points="35.23 6.17 34.22 6.4 33.19 5.67 34.21 5.44 35.23 6.17"/><polygon class="cls-5" points="36.46 7.04 35.44 7.27 34.41 6.54 35.43 6.31 36.46 7.04"/><polygon class="cls-5" points="37.68 7.9 36.66 8.14 35.63 7.41 36.65 7.17 37.68 7.9"/><polygon class="cls-6" points="34.02 5.25 33.01 5.49 31.98 4.76 32.99 4.52 34.02 5.25"/><polygon class="cls-7" points="33.89 5.16 33.01 5.37 32.11 4.73 33 4.53 33.89 5.16"/><polygon class="cls-5" points="34.01 4.2 32.98 4.43 31.96 3.7 32.98 3.47 34.01 4.2"/><polygon class="cls-5" points="35.17 3.93 34.15 4.17 33.13 3.44 34.15 3.2 35.17 3.93"/><polygon class="cls-5" points="36.34 3.67 35.32 3.9 34.3 3.17 35.31 2.93 36.34 3.67"/><polygon class="cls-6" points="34.02 4.15 33 4.39 31.97 3.66 32.99 3.43 34.02 4.15"/><polygon class="cls-7" points="33.88 4.06 33 4.27 32.1 3.63 32.99 3.43 33.88 4.06"/><polygon class="cls-6" points="35.18 3.88 34.16 4.12 33.14 3.39 34.15 3.16 35.18 3.88"/><polygon class="cls-7" points="35.05 3.79 34.17 4 33.28 3.36 34.16 3.16 35.05 3.79"/><polygon class="cls-6" points="36.35 3.62 35.33 3.85 34.31 3.13 35.32 2.89 36.35 3.62"/><polygon class="cls-7" points="36.22 3.53 35.33 3.73 34.44 3.1 35.32 2.89 36.22 3.53"/><polygon class="cls-5" points="32.84 4.46 31.82 4.7 30.79 3.96 31.81 3.73 32.84 4.46"/><polygon class="cls-6" points="32.85 4.41 31.83 4.65 30.8 3.92 31.82 3.69 32.85 4.41"/><polygon class="cls-7" points="32.72 4.32 31.83 4.53 30.94 3.89 31.82 3.69 32.72 4.32"/><polygon class="cls-6" points="35.25 6.12 34.23 6.36 33.2 5.63 34.22 5.39 35.25 6.12"/><polygon class="cls-7" points="35.12 6.03 34.23 6.23 33.34 5.6 34.23 5.4 35.12 6.03"/><polygon class="cls-6" points="36.46 6.99 35.45 7.22 34.42 6.5 35.44 6.26 36.46 6.99"/><polygon class="cls-7" points="36.34 6.9 35.45 7.1 34.55 6.47 35.44 6.26 36.34 6.9"/><polygon class="cls-6" points="37.69 7.86 36.67 8.1 35.64 7.36 36.66 7.13 37.69 7.86"/><polygon class="cls-7" points="37.56 7.77 36.67 7.97 35.78 7.33 36.67 7.13 37.56 7.77"/><polygon class="cls-6" points="40.03 7.33 39.02 7.56 37.99 6.84 39.01 6.6 40.03 7.33"/><polygon class="cls-7" points="39.9 7.24 39.02 7.44 38.12 6.81 39.01 6.6 39.9 7.24"/><polygon class="cls-6" points="31.7 2.51 30.68 2.74 29.65 2.02 30.67 1.78 31.7 2.51"/><polygon class="cls-7" points="31.57 2.42 30.68 2.62 29.79 1.99 30.67 1.78 31.57 2.42"/><polygon class="cls-6" points="32.87 2.24 31.85 2.47 30.82 1.75 31.84 1.51 32.87 2.24"/><polygon class="cls-7" points="32.74 2.15 31.85 2.35 30.95 1.72 31.84 1.51 32.74 2.15"/><polygon class="cls-6" points="34.03 1.97 33.02 2.21 31.99 1.48 33.01 1.24 34.03 1.97"/><polygon class="cls-6" points="32.72 7.78 31.7 8.02 30.67 7.29 31.69 7.05 32.72 7.78"/><polygon class="cls-7" points="32.59 7.69 31.7 7.89 30.81 7.26 31.7 7.05 32.59 7.69"/><polygon class="cls-6" points="32.78 8.92 31.76 9.16 30.73 8.42 31.75 8.19 32.78 8.92"/><polygon class="cls-7" points="32.65 8.83 31.76 9.03 30.86 8.4 31.75 8.19 32.65 8.83"/><polygon class="cls-6" points="33.95 8.65 32.93 8.89 31.89 8.16 32.92 7.93 33.95 8.65"/><polygon class="cls-7" points="33.82 8.56 32.93 8.76 32.03 8.13 32.92 7.93 33.82 8.56"/><polygon class="cls-6" points="35.12 8.38 34.09 8.62 33.07 7.88 34.09 7.65 35.12 8.38"/><polygon class="cls-7" points="34.99 8.29 34.1 8.49 33.2 7.86 34.09 7.65 34.99 8.29"/><polygon class="cls-6" points="9.87 10.26 8.38 10.61 7.36 9.88 8.85 9.54 9.87 10.26"/><polygon class="cls-7" points="9.74 10.17 8.38 10.48 7.5 9.85 8.85 9.54 9.74 10.17"/><polygon class="cls-6" points="11.05 10 10.03 10.23 9 9.5 10.02 9.27 11.05 10"/><polygon class="cls-7" points="10.92 9.91 10.03 10.11 9.13 9.47 10.02 9.27 10.92 9.91"/><polygon class="cls-6" points="12.21 9.73 11.2 9.96 10.17 9.23 11.19 9 12.21 9.73"/><polygon class="cls-7" points="12.08 9.63 11.2 9.84 10.31 9.2 11.19 9 12.08 9.63"/><polygon class="cls-6" points="13.39 9.46 12.37 9.7 11.34 8.96 12.36 8.73 13.39 9.46"/><polygon class="cls-7" points="13.26 9.37 12.37 9.57 11.47 8.94 12.37 8.73 13.26 9.37"/><polygon class="cls-6" points="14.58 9.19 13.56 9.42 12.54 8.69 13.55 8.46 14.58 9.19"/><polygon class="cls-7" points="14.45 9.09 13.57 9.29 12.67 8.66 13.56 8.46 14.45 9.09"/><polygon class="cls-6" points="15.75 8.92 14.73 9.16 13.71 8.42 14.73 8.19 15.75 8.92"/><polygon class="cls-7" points="15.62 8.82 14.74 9.03 13.84 8.39 14.73 8.19 15.62 8.82"/><polygon class="cls-6" points="16.93 8.65 15.9 8.88 14.88 8.15 15.9 7.92 16.93 8.65"/><polygon class="cls-7" points="16.8 8.56 15.91 8.76 15.01 8.12 15.9 7.92 16.8 8.56"/><polygon class="cls-6" points="18.09 8.38 17.08 8.61 16.05 7.88 17.07 7.65 18.09 8.38"/><polygon class="cls-7" points="17.96 8.29 17.08 8.49 16.18 7.86 17.07 7.65 17.96 8.29"/><polygon class="cls-6" points="19.24 8.11 18.22 8.35 17.2 7.62 18.21 7.38 19.24 8.11"/><polygon class="cls-7" points="19.11 8.02 18.22 8.23 17.33 7.59 18.22 7.38 19.11 8.02"/><polygon class="cls-6" points="20.41 7.84 19.39 8.08 18.36 7.35 19.38 7.12 20.41 7.84"/><polygon class="cls-7" points="20.29 7.75 19.39 7.96 18.5 7.32 19.39 7.12 20.29 7.75"/><polygon class="cls-6" points="21.58 7.57 20.56 7.81 19.54 7.08 20.55 6.85 21.58 7.57"/><polygon class="cls-7" points="21.45 7.48 20.56 7.69 19.67 7.05 20.56 6.85 21.45 7.48"/><polygon class="cls-6" points="22.75 7.31 21.73 7.54 20.7 6.81 21.72 6.58 22.75 7.31"/><polygon class="cls-7" points="22.62 7.22 21.73 7.42 20.84 6.78 21.73 6.58 22.62 7.22"/><polygon class="cls-6" points="23.95 7.03 22.93 7.27 21.9 6.54 22.92 6.3 23.95 7.03"/><polygon class="cls-7" points="23.82 6.94 22.93 7.14 22.03 6.51 22.92 6.3 23.82 6.94"/><polygon class="cls-6" points="25.11 6.76 24.1 7 23.07 6.27 24.09 6.03 25.11 6.76"/><polygon class="cls-7" points="24.98 6.67 24.11 6.88 23.21 6.24 24.1 6.03 24.98 6.67"/><polygon class="cls-6" points="26.99 6.33 25.27 6.73 24.24 6 25.96 5.6 26.99 6.33"/><polygon class="cls-7" points="26.86 6.24 25.27 6.6 24.38 5.97 25.97 5.6 26.86 6.24"/><polygon class="cls-6" points="11.64 11.01 9.61 11.47 8.58 10.74 10.62 10.28 11.64 11.01"/><polygon class="cls-7" points="11.52 10.91 9.61 11.35 8.71 10.71 10.63 10.28 11.52 10.91"/><polygon class="cls-6" points="12.83 10.73 11.81 10.97 10.79 10.24 11.8 10.01 12.83 10.73"/><polygon class="cls-7" points="12.7 10.64 11.81 10.85 10.93 10.21 11.81 10.01 12.7 10.64"/><polygon class="cls-6" points="14 10.46 12.99 10.7 11.96 9.97 12.98 9.74 14 10.46"/><polygon class="cls-7" points="13.88 10.37 12.99 10.58 12.09 9.94 12.98 9.74 13.88 10.37"/><polygon class="cls-6" points="15.17 10.19 14.15 10.43 13.13 9.7 14.14 9.47 15.17 10.19"/><polygon class="cls-7" points="15.04 10.1 14.15 10.31 13.26 9.67 14.14 9.47 15.04 10.1"/><polygon class="cls-6" points="16.37 9.92 15.35 10.15 14.32 9.43 15.34 9.19 16.37 9.92"/><polygon class="cls-7" points="16.24 9.83 15.35 10.03 14.46 9.4 15.35 9.19 16.24 9.83"/><polygon class="cls-6" points="17.54 9.65 16.52 9.89 15.5 9.16 16.51 8.93 17.54 9.65"/><polygon class="cls-7" points="17.41 9.56 16.53 9.77 15.63 9.13 16.52 8.93 17.41 9.56"/><polygon class="cls-6" points="18.71 9.38 17.69 9.62 16.66 8.89 17.68 8.65 18.71 9.38"/><polygon class="cls-7" points="18.58 9.29 17.69 9.49 16.8 8.86 17.69 8.65 18.58 9.29"/><polygon class="cls-6" points="19.88 9.12 18.86 9.35 17.83 8.62 18.85 8.38 19.88 9.12"/><polygon class="cls-7" points="19.75 9.03 18.86 9.23 17.97 8.59 18.86 8.39 19.75 9.03"/><polygon class="cls-6" points="21.03 8.85 20.01 9.08 18.98 8.36 20 8.12 21.03 8.85"/><polygon class="cls-7" points="20.9 8.76 20.01 8.96 19.12 8.33 20 8.12 20.9 8.76"/><polygon class="cls-6" points="22.2 8.58 21.18 8.81 20.15 8.08 21.17 7.85 22.2 8.58"/><polygon class="cls-7" points="22.07 8.49 21.18 8.69 20.29 8.06 21.17 7.85 22.07 8.49"/><polygon class="cls-6" points="23.37 8.31 22.35 8.55 21.32 7.82 22.34 7.58 23.37 8.31"/><polygon class="cls-7" points="23.25 8.22 22.35 8.43 21.46 7.79 22.35 7.59 23.25 8.22"/><polygon class="cls-6" points="24.54 8.04 23.52 8.28 22.5 7.55 23.51 7.31 24.54 8.04"/><polygon class="cls-7" points="24.41 7.95 23.52 8.15 22.63 7.52 23.51 7.31 24.41 7.95"/><polygon class="cls-6" points="25.74 7.77 24.71 8 23.69 7.28 24.7 7.04 25.74 7.77"/><polygon class="cls-7" points="25.61 7.68 24.72 7.88 23.82 7.25 24.71 7.04 25.61 7.68"/><polygon class="cls-6" points="28.21 7.2 25.92 7.73 24.89 7 27.18 6.47 28.21 7.2"/><polygon class="cls-7" points="28.08 7.11 25.93 7.6 25.02 6.97 27.18 6.47 28.08 7.11"/><polygon class="cls-6" points="13.49 11.73 10.85 12.34 9.82 11.61 12.46 11.01 13.49 11.73"/><polygon class="cls-7" points="13.36 11.64 10.85 12.22 9.96 11.59 12.47 11.01 13.36 11.64"/><polygon class="cls-6" points="26.27 10.46 16.39 12.73 15.36 12 25.24 9.73 26.27 10.46"/><polygon class="cls-7" points="26.14 10.37 16.39 12.61 15.49 11.97 25.25 9.73 26.14 10.37"/><polygon class="cls-6" points="14.65 11.47 13.62 11.71 12.6 10.97 13.61 10.74 14.65 11.47"/><polygon class="cls-7" points="14.51 11.38 13.63 11.58 12.73 10.95 13.62 10.74 14.51 11.38"/><polygon class="cls-6" points="15.81 11.2 14.79 11.44 13.77 10.71 14.78 10.47 15.81 11.2"/><polygon class="cls-7" points="15.68 11.11 14.79 11.31 13.9 10.68 14.78 10.47 15.68 11.11"/><polygon class="cls-6" points="17.01 10.93 15.99 11.16 14.96 10.43 15.98 10.2 17.01 10.93"/><polygon class="cls-7" points="16.88 10.84 15.99 11.04 15.1 10.4 15.98 10.2 16.88 10.84"/><polygon class="cls-6" points="18.18 10.66 17.16 10.89 16.13 10.16 17.15 9.93 18.18 10.66"/><polygon class="cls-7" points="18.05 10.56 17.16 10.77 16.27 10.13 17.16 9.93 18.05 10.56"/><polygon class="cls-6" points="19.35 10.39 18.33 10.62 17.3 9.89 18.32 9.66 19.35 10.39"/><polygon class="cls-7" points="19.22 10.3 18.33 10.5 17.44 9.87 18.33 9.66 19.22 10.3"/><polygon class="cls-6" points="20.52 10.12 19.5 10.35 18.48 9.63 19.49 9.39 20.52 10.12"/><polygon class="cls-7" points="20.39 10.03 19.5 10.23 18.61 9.6 19.49 9.39 20.39 10.03"/><polygon class="cls-6" points="21.67 9.85 20.65 10.09 19.63 9.36 20.64 9.12 21.67 9.85"/><polygon class="cls-7" points="21.54 9.76 20.65 9.97 19.76 9.33 20.64 9.13 21.54 9.76"/><polygon class="cls-6" points="22.83 9.59 21.82 9.82 20.8 9.09 21.81 8.85 22.83 9.59"/><polygon class="cls-7" points="22.71 9.49 21.82 9.7 20.93 9.06 21.82 8.85 22.71 9.49"/><polygon class="cls-6" points="24.01 9.32 22.98 9.55 21.96 8.82 22.98 8.58 24.01 9.32"/><polygon class="cls-7" points="23.88 9.23 22.99 9.43 22.1 8.79 22.98 8.59 23.88 9.23"/><polygon class="cls-6" points="25.18 9.05 24.16 9.28 23.13 8.55 24.15 8.32 25.18 9.05"/><polygon class="cls-7" points="25.05 8.96 24.16 9.16 23.27 8.52 24.15 8.32 25.05 8.96"/><polygon class="cls-6" points="26.38 8.77 25.36 9.01 24.33 8.28 25.35 8.04 26.38 8.77"/><polygon class="cls-7" points="26.25 8.68 25.36 8.88 24.46 8.25 25.35 8.05 26.25 8.68"/><polygon class="cls-6" points="29.45 8.07 26.55 8.73 25.51 8.01 28.42 7.33 29.45 8.07"/><polygon class="cls-7" points="29.32 7.97 26.55 8.61 25.65 7.98 28.42 7.33 29.32 7.97"/><polygon class="cls-7" points="33.9 1.88 33.02 2.09 32.13 1.45 33.02 1.25 33.9 1.88"/></g></g></g></svg>