<svg xmlns="http://www.w3.org/2000/svg" viewBox="0 0 67.09 41.56"><defs><style>.cls-1{isolation:isolate;}.cls-2,.cls-3,.cls-6{fill:#724424;}.cls-3{opacity:0.4;}.cls-3,.cls-6{mix-blend-mode:multiply;}.cls-4{fill:#895936;}.cls-5{fill:#a97850;}.cls-6{opacity:0.2;}</style></defs><title>Ativo 98</title><g class="cls-1"><g id="Camada_2" data-name="Camada 2"><g id="Objetos"><path class="cls-2" d="M52.69,12.54h4.15L59.41,32.1a.83.83,0,0,1-.66,1.12h0a.7.7,0,0,1-.64-.52Z"/><path class="cls-2" d="M14.54,12.54H10.39L7.81,32.1a.84.84,0,0,0,.66,1.12h0a.71.71,0,0,0,.65-.52Z"/><path class="cls-3" d="M52.69,12.54h4.15L59.41,32.1a.83.83,0,0,1-.66,1.12h0a.7.7,0,0,1-.64-.52Z"/><path class="cls-3" d="M14.54,12.54H10.39L7.81,32.1a.84.84,0,0,0,.66,1.12h0a.71.71,0,0,0,.65-.52Z"/><rect class="cls-4" x="0.86" y="7.36" width="65.55" height="1.64"/><polygon class="cls-5" points="53.14 0 14.13 0 0.86 7.36 66.41 7.36 53.14 0"/><rect class="cls-2" x="55.49" y="9" width="5.24" height="3.53"/><rect class="cls-2" x="6.39" y="9" width="5.24" height="3.53"/><rect class="cls-2" x="11.57" y="9" width="44.13" height="3.53"/><rect class="cls-6" x="11.57" y="9" width="44.13" height="3.53"/><path class="cls-4" d="M55.94,12.54h4.15l7,27.9a.84.84,0,0,1-.66,1.12h0a.7.7,0,0,1-.65-.52Z"/><path class="cls-4" d="M11.16,12.54H7L0,40.44A.83.83,0,0,0,.7,41.56h0A.7.7,0,0,0,1.34,41Z"/></g></g></g></svg>