<svg xmlns="http://www.w3.org/2000/svg" viewBox="0 0 65.16 27.5"><defs><style>.cls-1,.cls-3,.cls-6{fill:#0e2735;}.cls-1{opacity:0.15;}.cls-2{fill:#c99775;}.cls-3,.cls-5{opacity:0.5;}.cls-4{fill:#525557;}.cls-5{fill:#1c1e1f;}.cls-6{opacity:0.1;}</style></defs><title>Ativo 96</title><g id="Camada_2" data-name="Camada 2"><g id="Objetos"><path class="cls-1" d="M65.14,25.74c0,1-14.58,1.76-32.57,1.76S0,26.72,0,25.74,14.59,24,32.57,24,65.14,24.77,65.14,25.74Z"/><rect class="cls-2" x="30.03" y="1.91" width="30.35" height="21.1"/><rect class="cls-3" x="30.03" y="1.91" width="30.35" height="21.1"/><polygon class="cls-2" points="2.53 1.55 2.53 25.89 30.03 25.89 30.03 1.91 60.39 1.91 60.39 25.89 62.68 25.89 62.68 1.55 2.53 1.55"/><rect class="cls-2" x="2.58" y="3.41" width="27.1" height="21.73"/><rect class="cls-4" x="4.31" y="4.8" width="23.96" height="18.81"/><rect class="cls-2" x="4.6" y="12.38" width="23.39" height="10.85"/><rect class="cls-2" x="4.6" y="5.08" width="23.39" height="6.92"/><rect class="cls-4" x="12.24" y="8.08" width="8.11" height="1.01"/><rect class="cls-5" x="12.24" y="8.8" width="8.11" height="0.75"/><rect class="cls-4" x="12.24" y="17" width="8.11" height="1.01"/><rect class="cls-5" x="12.24" y="17.72" width="8.11" height="0.75"/><polygon class="cls-6" points="62.68 1.48 62.68 2.73 60.39 2.73 60.39 1.91 30.03 1.91 30.03 2.73 2.53 2.73 2.53 1.48 62.68 1.48"/><rect class="cls-2" width="65.16" height="2.02"/></g></g></svg>