<svg xmlns="http://www.w3.org/2000/svg" viewBox="0 0 65.16 75.82"><defs><style>.cls-1{fill:#fff5bb;}.cls-2{fill:#ffc6b5;}.cls-3,.cls-4{fill:#99665e;}.cls-3,.cls-32{opacity:0.3;}.cls-28,.cls-4{opacity:0.4;}.cls-5{fill:#0c181e;}.cls-32,.cls-36,.cls-6{fill:#172d3a;}.cls-15,.cls-23,.cls-26,.cls-7{fill:#0e2735;}.cls-8{fill:#4b616b;}.cls-9{fill:#ffebde;}.cls-10{fill:#141d1f;}.cls-10,.cls-22,.cls-26{opacity:0.1;}.cls-11{fill:#9ec1d8;}.cls-12{fill:#aed4f4;}.cls-13{fill:#e5beb5;}.cls-14{fill:#fff;}.cls-15{opacity:0.15;}.cls-16{fill:#c99775;}.cls-17,.cls-31{fill:none;}.cls-17{stroke:#d2d8db;stroke-miterlimit:10;stroke-width:0.52px;}.cls-18{fill:#ccd6db;}.cls-19{fill:#e7eef3;}.cls-20{fill:#3f3e3d;}.cls-21{fill:#adb8bc;}.cls-23,.cls-25{opacity:0.5;}.cls-24{fill:#525557;}.cls-25{fill:#1c1e1f;}.cls-27{fill:#ffdb8a;}.cls-28{fill:#b57f74;}.cls-29{fill:#33594b;}.cls-30{fill:#c7dde2;}.cls-31{stroke:#172d3a;stroke-linecap:round;stroke-linejoin:round;stroke-width:0.73px;}.cls-33{fill:#393a3a;}.cls-34{fill:#222323;}.cls-35{fill:#e58383;}.cls-36{opacity:0.2;}.cls-37{fill:#4f5051;}.cls-38{fill:#686868;}.cls-39{fill:#353030;}</style></defs><title>Ativo 104</title><g id="Camada_2" data-name="Camada 2"><g id="Camada_1-2" data-name="Camada 1"><path class="cls-1" d="M33.93.9a5,5,0,0,0-6.68,1S28.77,12.56,32,12.66a13.8,13.8,0,0,0,2.76-.15l.53-1.37a6.39,6.39,0,0,1-.09,1.28,3.16,3.16,0,0,0,.42-.11A32,32,0,0,0,36,8.6a31.77,31.77,0,0,1-.14,3.61,1.53,1.53,0,0,0,.55-.32S37.86,3.38,33.93.9Z"/><path class="cls-2" d="M26,8.23c-.08.94.31,1.73.87,1.78S27.91,9.33,28,8.4s-.31-1.74-.87-1.78S26,7.29,26,8.23Z"/><path class="cls-2" d="M28.42,8.74l1,3.91-2.82,1.74a9.8,9.8,0,0,0,6.08.87c3.16-.7,2.07-2.17,2.07-2.17l-2.38-.64-.21-3.17Z"/><path class="cls-3" d="M32.32,12.28l.37-3.09-4.2-.49.88,3.57A24.27,24.27,0,0,1,32.32,12.28Z"/><path class="cls-2" d="M29,2.14S33.35.59,34.63,4.62c.72,2.29,1.14,4.92-.75,6.42s-4.79.61-6.17-1.3S23.92,3.24,29,2.14Z"/><path class="cls-4" d="M32.61,6.79a4.93,4.93,0,0,0,1,1.11L33,8.57"/><path class="cls-5" d="M32.55,4.73a.76.76,0,0,1,.3-.68,1.07,1.07,0,0,1,.69-.21,1,1,0,0,1,.9,1,3.49,3.49,0,0,1-.62.14,1.81,1.81,0,0,1-.37,0C33.25,5,33.1,4.85,32.55,4.73Z"/><path class="cls-5" d="M29.27,5.18a.76.76,0,0,1,.2-.73,1,1,0,0,1,.66-.34,1,1,0,0,1,1.1.77,3.59,3.59,0,0,1-.6.26,1.8,1.8,0,0,1-.38.1C30,5.26,29.84,5.19,29.27,5.18Z"/><path class="cls-6" d="M32.65,6.14a1.87,1.87,0,0,0,.79,0,1.5,1.5,0,0,0,.69-.34.71.71,0,0,1,0,.65.81.81,0,0,1-.58.46A.77.77,0,0,1,32.65,6.14Z"/><path class="cls-6" d="M29.79,6.56a1.55,1.55,0,0,0,.71.05,1.3,1.3,0,0,0,.6-.35.68.68,0,0,1,.08.6A.72.72,0,0,1,30,7.13.66.66,0,0,1,29.79,6.56Z"/><path class="cls-7" d="M21.9,62.9a12.65,12.65,0,0,1-1.12,3.79s-3,1-2.85-.71l1.92-3.67Z"/><path class="cls-7" d="M21,56.6l3.11,1c-1.32,2.67-2.72,6.62-2.72,6.62s-.56,1.24-1,1.21a1.25,1.25,0,0,1-1.61-.74l1-2.37S20.44,59.61,21,56.6Z"/><path class="cls-7" d="M32.91,57.78c0,2.58-.06,4.6-.06,4.6l1.86,3.69-1.81-.15-2.3-3.55s-.35-2.35-.8-4.84C30.83,57.6,31.87,57.68,32.91,57.78Z"/><path class="cls-7" d="M30.65,62.17A2,2,0,0,0,30,63.93c.17,1.11.46,2.82.46,2.82h.34l.11-2s.69,1.83,1.08,2,3.52,1,3.86.32-1.32-1.47-1.32-1.47a1.53,1.53,0,0,1-1.64-.28A18.42,18.42,0,0,1,30.65,62.17Z"/><path class="cls-8" d="M24.1,46.11H37.28c.13-.69.26-1.36.4-2,1-4.13,1.2-5.18,1.66-7.29C41.15,28.49,35,24.61,35,24.61l-2.23.32L30,24.11s-7.32,3.94-6.74,12.41C23.47,39.52,23.87,43.69,24.1,46.11Z"/><path class="cls-9" d="M38.66,28.86a9.39,9.39,0,0,1-4.76,2.78l-1.72-2.7-1.35,3.42s-4.77-.66-6.39-2.64c0,0,1.61-3.35,2.78-5.25,0,0-3.36-8.61-1.92-10,.65-.6,3.43-1.42,5.69-1.88l.87,1.25L32,12.43c2.43-.34,4.38.3,4.77,2,.81,3.42-1.37,9.6-1.37,9.6Z"/><path class="cls-10" d="M38.66,28.86a9.39,9.39,0,0,1-4.76,2.78l-1.72-2.7-1.35,3.42s-4.77-.66-6.39-2.64c0,0,1.61-3.35,2.78-5.25,0,0-3.36-8.61-1.92-10,.65-.6,3.43-1.42,5.69-1.88l.87,1.25.21-1.58c2.44-.34,4.34.43,4.73,2.08.81,3.42-1.37,9.6-1.37,9.6Z"/><path class="cls-8" d="M24.13,46.1s-4.87,7.63-6,14.6c0,0,2.92,2.52,5.51,1.46,0,0,3.09-10.54,4.38-13.46a7,7,0,0,0,.57-5.2C28.43,42.45,24.13,46.1,24.13,46.1Z"/><path class="cls-11" d="M35.79,16.27s2,2.16,1.08,3.61a2.61,2.61,0,0,1-4.51.09C30.83,18,35.79,16.27,35.79,16.27Z"/><path class="cls-6" d="M25.61,19.47a16,16,0,0,0,1.5,4.79c0,.07-.15-.94-.11-.87s-1.33,3.79-1.74,4.74-.06.29-.06.29,6.54,5.16,13.46-.09l-3-4.44.45-2.52,2-.87s-.59-6.86-1.89-7.45a6.1,6.1,0,0,0-2.3-.59s-1.86,2.82-5.34.59c0,0-2.76.8-3.33,1.46S25.61,19.47,25.61,19.47Z"/><polygon class="cls-9" points="34.14 12.55 32.98 13.92 32.07 12.3 33.52 11.6 34.14 12.55"/><path class="cls-2" d="M25.11,29.06s1.27-.71,1.76-.3c0,0,2.31,3,0,.65,0,0,.86,3.21-.48,0,0,0,.25,3.54-.52.15,0,0,.41,3.46-.44.48,0,0-.47,1-1.22.32s-2.63-4.71-2.63-4.71l2.16.29Z"/><path class="cls-12" d="M24.7,27.54l-2.31.53c.7,1.18,1.3,2,1.3,2s1.44-.45,1.61-1.22a8.1,8.1,0,0,1-.51-1.37Z"/><path class="cls-9" d="M25.3,14.51s-3.93,4-5.11,7.34c-.77,2.13,3.07,7.87,3.07,7.87s1.77-.53,1.94-1.3a28.64,28.64,0,0,1-1.35-5.29c0-.52,1.43-2.2,2.3-3.74C28.55,15.57,25.3,14.51,25.3,14.51Z"/><polygon class="cls-9" points="28.51 13.12 30.7 14.7 30.99 12.63 28.92 12.25 28.51 13.12"/><path class="cls-2" d="M45.55,17c-.35.13-.78.32-1.27.54s-1.62,1.24-2.13,1.51a3.65,3.65,0,0,1,1,2.35c1.17-1.35,3-2.77,3.37-3.61A2.7,2.7,0,0,1,45.55,17Z"/><path class="cls-2" d="M45.64,18.92s1.84-1.45,1.73-1.8-1.22.69-1.22.69,1.28-1.26,1-1.35-1,.62-1,.62.92-1,.75-1-1.27.79-1.27.79S47.29,15,45,17c0,0,.26-2.43-.55.34S45.64,18.92,45.64,18.92Z"/><path class="cls-13" d="M37.25,42.7a5.41,5.41,0,0,0-2-.22c-.77.15-2,1-1.62,1.94v0h3.49Z"/><path class="cls-9" d="M43.63,17.69,40,20.22s-2.44-6.58-3.74-7.17l0,0a5,5,0,0,1,.15,1.84c-.21,1,1.41,1.86,1.16,3.69a4.76,4.76,0,0,1-1.41,2.81s1.69,2.76,2.86,3,6.41-4.8,6.41-4.8Z"/><path class="cls-1" d="M29.2,11.15a3.78,3.78,0,0,1-1.64-2s-1,.3-1.17-.87c-.25-1.51,1-1.35,1-1.35l.23,1.34c2.07-1.66,1.49-5.63,1.49-5.63-.5-2.49-2.73-2.16-4,.33s-.33,9.94-.33,9.94a8.17,8.17,0,0,0,.9.2A9,9,0,0,1,25.58,12c.12.44.27.87.33,1.11l.79.06a22.92,22.92,0,0,1-.08-2.54,19.3,19.3,0,0,0,.22,2.54,4.13,4.13,0,0,0,.5,0c0-.23,0-.44.05-.64,0,.24.08.45.11.64a7.6,7.6,0,0,0,1.75-.31C29.46,12.82,29.2,11.15,29.2,11.15Z"/><path class="cls-14" d="M31,9.35,34.2,9S33.22,11,31,9.35Z"/><path class="cls-15" d="M65.14,70.15c0,1-14.58,1.76-32.57,1.76S0,71.12,0,70.15s14.58-1.76,32.56-1.76S65.14,69.18,65.14,70.15Z"/><rect class="cls-16" x="30.03" y="46.32" width="30.35" height="21.1"/><path class="cls-17" d="M26.36,40.61s-1.05,1.69,1.15,1.67,1.16,3.3,5.1,1.73"/><rect class="cls-18" x="17.31" y="40.34" width="8.68" height="3.18"/><rect class="cls-19" x="10.13" y="23.03" width="23.04" height="18.5" rx="0.87"/><rect class="cls-20" x="10.95" y="23.71" width="21.4" height="14.44" rx="0.84"/><rect class="cls-21" x="15.94" y="42.95" width="11.35" height="0.58"/><rect class="cls-19" x="11.9" y="43.53" width="19.66" height="0.97"/><rect class="cls-19" x="32.15" y="43.7" width="2.75" height="0.75"/><path class="cls-19" d="M34.9,43.73c0-.42-.62-.75-1.38-.75s-1.37.33-1.37.75.61.76,1.37.76S34.9,44.15,34.9,43.73Z"/><rect class="cls-23" x="30.03" y="46.32" width="30.35" height="21.1"/><polygon class="cls-16" points="2.53 45.96 2.53 70.3 30.03 70.3 30.03 46.32 60.39 46.32 60.39 70.3 62.68 70.3 62.68 45.96 2.53 45.96"/><rect class="cls-16" x="2.58" y="47.82" width="27.1" height="21.73"/><rect class="cls-24" x="4.31" y="49.21" width="23.96" height="18.81"/><rect class="cls-16" x="4.6" y="56.79" width="23.39" height="10.85"/><rect class="cls-16" x="4.6" y="49.49" width="23.39" height="6.92"/><rect class="cls-24" x="12.24" y="52.49" width="8.11" height="1.01"/><rect class="cls-25" x="12.24" y="53.21" width="8.11" height="0.75"/><rect class="cls-24" x="12.24" y="61.41" width="8.11" height="1.01"/><rect class="cls-25" x="12.24" y="62.13" width="8.11" height="0.75"/><polygon class="cls-26" points="62.68 45.88 62.68 47.13 60.39 47.13 60.39 46.32 30.03 46.32 30.03 47.13 2.53 47.13 2.53 45.88 62.68 45.88"/><rect class="cls-16" y="44.41" width="65.16" height="2.02"/><rect class="cls-27" x="12.78" y="23.27" width="3.31" height="2.87"/><rect class="cls-13" x="50.58" y="28.05" width="3.37" height="2.93" transform="translate(-3.48 7.27) rotate(-7.7)"/><rect class="cls-28" x="50.58" y="28.05" width="3.37" height="2.93" transform="translate(-3.48 7.27) rotate(-7.7)"/><polygon class="cls-13" points="48.73 24.86 49.15 21.61 47.26 24.21 48.73 24.86"/><polygon class="cls-28" points="48.73 24.86 49.15 21.61 47.26 24.21 48.73 24.86"/><polygon class="cls-29" points="44.16 67.33 44.73 71.64 43.07 72.21 42.23 67.6 44.16 67.33"/><path class="cls-8" d="M42.09,69.7a5.62,5.62,0,0,1-2.48,1.72c-1.5.46-2.86,1-2.73,1.9,0,0,2.28,1,5.91-.24v.37l2.4-.15-.06-3-2,.17.15-.3Z"/><path class="cls-6" d="M41.2,73.16c-3.26.86-4.11,0-4.31-.06a.55.55,0,0,0,0,.22s2.28,1,5.91-.24v.37l2.4-.15v-.6A12.36,12.36,0,0,0,41.2,73.16Z"/><path class="cls-30" d="M54.64,48.09s-12.4-1.45-15.14.33S41,69.19,41,69.19a17.37,17.37,0,0,0,4.51-.32L44.33,53.73s11.11,2.9,11.27-.81S54.64,48.09,54.64,48.09Z"/><path class="cls-31" d="M41.4,70.19c.4.33.73.66,1.13,1"/><path class="cls-31" d="M40.74,71.06c.27.33.47.6.73.93"/><path class="cls-32" d="M54.64,48.09s-12.4-1.45-15.14.33S41,69.19,41,69.19s.68,0,1.57,0l.13.7-.56-.21a4.47,4.47,0,0,1-.57.6,6.21,6.21,0,0,1-.58.45,4.87,4.87,0,0,1-1.33.67c-1.5.46-2.86,1-2.73,1.9,0,0,2.28,1,5.91-.24v.37l2.4-.15v-.6h0l0-2.43-.58,0-.17-1.24a7.8,7.8,0,0,0,1.07-.21L44.33,53.73s11.11,2.9,11.27-.81S54.64,48.09,54.64,48.09Z"/><polygon class="cls-29" points="40.93 68.49 41.5 72.8 39.84 73.38 39 68.77 40.93 68.49"/><path class="cls-8" d="M38.87,70.86a5.61,5.61,0,0,1-2.48,1.72c-1.51.46-2.87,1-2.74,1.9,0,0,2.28,1,5.91-.23v.36l2.4-.15-.06-3-2,.18.14-.3Z"/><path class="cls-6" d="M38,74.32c-3.26.87-4.11,0-4.3-.06a.55.55,0,0,0,0,.22s2.28,1,5.91-.23v.36l2.4-.15v-.6A12.36,12.36,0,0,0,38,74.32Z"/><path class="cls-30" d="M58.29,48.26s-19.36-.45-22.1,1.32,1.45,20.77,1.45,20.77A17.37,17.37,0,0,0,42.15,70L41,54.89S59,58.28,59,53.4C59,49.69,58.29,48.26,58.29,48.26Z"/><path class="cls-31" d="M38.08,71.56c.4.33.73.67,1.13,1"/><path class="cls-31" d="M37.47,71.94c.27.33.47.59.73.93"/><path class="cls-6" d="M46.36,48.34S50.58,51.81,59.12,51c0,0,2.66-16.4-1-19-1.65-1.17-8.83-2.74-11.27,1.74S46.63,43.06,46.36,48.34Z"/><path class="cls-15" d="M63.58,74.33c0,.83-4.75,1.49-10.6,1.49s-10.61-.66-10.61-1.49S47.12,72.85,53,72.85,63.58,73.51,63.58,74.33Z"/><rect class="cls-33" x="51.88" y="57.42" width="2.49" height="12.75"/><rect class="cls-34" x="51.49" y="65.75" width="3.28" height="6.25"/><path class="cls-34" d="M58,70.63H48.25a1,1,0,0,0,0,2.05H58a1,1,0,0,0,0-2.05Z"/><rect class="cls-34" x="51.88" y="57.42" width="2.49" height="3.51"/><rect class="cls-33" x="54.17" y="46.75" width="2.74" height="9.91"/><rect class="cls-35" x="42.28" y="55.13" width="19.51" height="3.66" rx="1.14"/><rect class="cls-35" x="48.98" y="39.89" width="12.8" height="9.91" rx="1.14"/><rect class="cls-36" x="44.52" y="55.13" width="17.27" height="3.66" rx="1.14"/><rect class="cls-36" x="51.15" y="39.89" width="10.63" height="9.91" rx="1.14"/><ellipse class="cls-37" cx="47.36" cy="73.29" rx="1.38" ry="1.6"/><rect class="cls-37" x="47.24" y="71.69" width="1" height="3.2"/><ellipse class="cls-38" cx="48.24" cy="73.29" rx="1.38" ry="1.6"/><path class="cls-34" d="M47.61,73.29a.64.64,0,1,0,1.26,0,.64.64,0,1,0-1.26,0Z"/><path class="cls-37" d="M51.25,73.29a1.4,1.4,0,1,0,1.38-1.6A1.5,1.5,0,0,0,51.25,73.29Z"/><rect class="cls-37" x="52.5" y="71.69" width="1" height="3.2"/><ellipse class="cls-38" cx="53.51" cy="73.29" rx="1.38" ry="1.6"/><path class="cls-34" d="M52.88,73.29a.63.63,0,1,0,.63-.72A.68.68,0,0,0,52.88,73.29Z"/><ellipse class="cls-37" cx="57.39" cy="73.29" rx="1.38" ry="1.6"/><rect class="cls-37" x="57.26" y="71.69" width="1" height="3.2"/><ellipse class="cls-38" cx="58.27" cy="73.29" rx="1.38" ry="1.6"/><path class="cls-34" d="M57.64,73.29a.63.63,0,1,0,.63-.72A.68.68,0,0,0,57.64,73.29Z"/><path class="cls-13" d="M54,19.08c2.43.87,2.17,2.42,2.17,2.42a12.94,12.94,0,0,1-.19,2.36c.27-.26-.88,3.74-1,3.91A4.83,4.83,0,0,1,51.46,29a3.49,3.49,0,0,1-3.35-3.16,33.27,33.27,0,0,1,1.14-6.46S49.93,17.65,54,19.08Z"/><path class="cls-39" d="M49.93,19.53c.64.09,1.67,0,2.31.07,0-.06-.05.47-.05.47a25.2,25.2,0,0,0-.46,2.77c-.65-.05-.7.46-.7.46l-.24,1.14-.63-.15.29-2.44a1.28,1.28,0,0,1-.5-.7S50,20,49.93,19.53Z"/><path class="cls-39" d="M55.21,20.67a.1.1,0,0,0-.1,0c-.26.18-1.15,1.1-3.77.23l-.25-1.06a3.62,3.62,0,0,1-3.25-1.52,5.14,5.14,0,0,1,4.53-1.28,7.31,7.31,0,0,0-1.86-.55s4-.89,5.92,1.79c0,0,2,.23,1.65,2.07C57.81,21.72,55.21,20.67,55.21,20.67Z"/><path class="cls-39" d="M51,23.05s1.08-.69,1.16.66a1.39,1.39,0,0,1-1.43,1.67s-.68,3.1,1.17,3.73,6.14,0,6.2-8.74l-5.6-1.19Z"/><path class="cls-6" d="M49.64,31.69l-.16-2.18a24.22,24.22,0,0,1,5.14-.11l.11,1.71Z"/><path class="cls-6" d="M49.7,30.89s-4.41.22-5.41,3.53a54,54,0,0,1-2.73,7.63l-4.81-.17s-1.16,1.33-.83,2.32,6,1.66,7.21,1.41,4.81-6.46,4.81-6.46Z"/></g></g></svg>