<svg xmlns="http://www.w3.org/2000/svg" viewBox="0 0 32.51 60.02"><defs><style>.cls-1{fill:#263d49;}.cls-2,.cls-4{fill:#172d3a;}.cls-3{fill:#e58383;}.cls-4{opacity:0.1;}.cls-5{fill:#fff;}.cls-6{fill:#254251;}.cls-7{fill:#a07d70;}.cls-8,.cls-9{fill:#755950;}.cls-8{opacity:0.4;}.cls-10{fill:#0c181e;}.cls-11{fill:#edc156;}.cls-12{fill:#cad6d8;}.cls-13{fill:#394e54;opacity:0.2;}.cls-14{fill:#d6e3e5;}.cls-15{fill:#495f68;opacity:0.3;}</style></defs><title>Ativo 88</title><g id="Camada_2" data-name="Camada 2"><g id="Personagens"><path class="cls-1" d="M21.78.54a4,4,0,0,0-4.8.62c-2.11,2.18-3.17,5.36-2.18,10.28,0,0,3.49,1.5,6.05,1S21.78.54,21.78.54Z"/><rect class="cls-2" x="28.73" y="41.09" width="1.3" height="17.6"/><rect class="cls-2" x="20.77" y="41.09" width="1.3" height="17.6"/><rect class="cls-3" x="11.52" y="38.49" width="20.6" height="3.39" rx="1.04"/><rect class="cls-4" x="11.52" y="38.49" width="20.6" height="3.39" rx="1.04"/><path class="cls-5" d="M13.14,47.47s.4-2.58-.19-.23-1.27,7.84-1.27,7.84L9.87,58l-1.48.17,1.44-3.07s.67-5.74.4-7.57S12.72,45,13.14,47.47Z"/><path class="cls-5" d="M11.63,54.91a1.62,1.62,0,0,1,.59,1.43c-.11.92-.31,2.33-.31,2.33h-.29L11.49,57s-.52,1.52-.84,1.67-2.87.89-3.17.35,1.06-1.23,1.06-1.23a1.24,1.24,0,0,0,1.34-.27A14.93,14.93,0,0,0,11.63,54.91Z"/><path class="cls-6" d="M7.64,35.24c-1.74.5.5,20.89.5,20.89a4.58,4.58,0,0,0,5-.28l.73-15.61.2,0s.82.21,2,.4a76.86,76.86,0,0,1,1.12-8.43C13.16,33.36,8.55,35,7.64,35.24Z"/><path class="cls-2" d="M7.15,35.19c-.88,1.59,1,20.94,1,20.94a4.58,4.58,0,0,0,5-.28l.73-15.61.2,0s.82.21,2,.4a76.86,76.86,0,0,1,1.12-8.43C13.16,33.36,7.79,34.06,7.15,35.19Z"/><rect class="cls-3" x="16.86" y="17.5" width="15.64" height="15.12" rx="1.04"/><rect class="cls-4" x="16.86" y="17.5" width="15.64" height="15.12" rx="1.04"/><path class="cls-7" d="M18.93,34.59c-.06-.33-.18-.75-.32-1.23a80.92,80.92,0,0,0-2.93-7.73c-.28-.66.79-5.33.79-5.33L12.4,19s-1.24,6.91,0,9.27c1.07,2,4.25,6.13,5.74,7.08A2.59,2.59,0,0,1,18.93,34.59Z"/><path class="cls-7" d="M17.29,34.45s1,1.88,1.35,1.82-.45-1.22-.45-1.22.93,1.34,1,1.12-.42-1-.42-1,.73,1,.79.82a5.57,5.57,0,0,0-.54-1.27s1.39,1.76,0-.64c0,0,2.06.55-.23-.54S17.29,34.45,17.29,34.45Z"/><path class="cls-5" d="M19.53,47.82a6.14,6.14,0,0,1,2.2,4c.16,2.42.68,3.07.68,3.07l-.8,3.38-1.35.62.41-3.37s-3.05-5-3.87-6.67S18.35,45.56,19.53,47.82Z"/><path class="cls-5" d="M22.32,54.73a1.61,1.61,0,0,1,1,1.18c.18.9.43,2.31.43,2.31l-.27.09-.65-1.53s0,1.6-.27,1.85-2.45,1.73-2.9,1.32.61-1.5.61-1.5a1.27,1.27,0,0,0,1.2-.68A15.26,15.26,0,0,0,22.32,54.73Z"/><path class="cls-6" d="M12.4,38.09l5.9,18.63c3.09.82,5.57-1.88,5.57-1.88s-1.45-7.58-3.63-17.27C17.55,38,15.09,37.7,12.4,38.09Z"/><path class="cls-7" d="M23.3,8.3a1.43,1.43,0,1,0,2.81.44A1.43,1.43,0,1,0,23.3,8.3Z"/><path class="cls-7" d="M22.72,8.07l-.18,4.68,2.17.62a7.32,7.32,0,0,1-5.53,2.34c-3.33-.2-3.64-2.1-3.64-2.1L19,12.8l.05-2.37Z"/><path class="cls-8" d="M19,12.43l.05-2.36,3.72-3-.27,4.86A32,32,0,0,0,19,12.43Z"/><path class="cls-7" d="M21.56,1.65s-3.44-.38-4.5,2-2,5.46-.17,7.3,5,1.31,6.73-.53S26.82,3.52,21.56,1.65Z"/><path class="cls-9" d="M19,6.56a4.84,4.84,0,0,1-1,1l.53.69"/><path class="cls-10" d="M19.2,4.31c-.52,0-.71.1-.92.1a3.08,3.08,0,0,1-.38,0,3.9,3.9,0,0,1-.59-.15.94.94,0,0,1,1-.81A.87.87,0,0,1,19.2,4.31Z"/><path class="cls-10" d="M17.54,5.52c0,.31.08.58.25.6s.34-.22.38-.53S18.09,5,17.92,5,17.57,5.21,17.54,5.52Z"/><path class="cls-10" d="M20.58,6.13c0,.31.08.58.25.6s.35-.22.38-.53-.08-.59-.25-.61S20.61,5.81,20.58,6.13Z"/><path class="cls-9" d="M18.13,9.14A4.48,4.48,0,0,1,19.4,9c.16,0,.31,0,.49.05s.39,0,.71.07a1.16,1.16,0,0,1-1.26.92A1.29,1.29,0,0,1,18.13,9.14Z"/><path class="cls-11" d="M25.68,20.67l4.64-1.19C30.22,19,29,13.9,26.09,13.3c-.65-.13-2-.35-2.53-.39-.39.95-.88,1.52-2.56,1.52s-2.6-.51-3-1.46a17.73,17.73,0,0,0-2,.34c-3.13.64-4,5.55-4,5.55L15,20.35a2.86,2.86,0,0,0,2.08,3.55,40.9,40.9,0,0,0,8.49-.51l.36-.15Z"/><path class="cls-6" d="M28.57,29.13s3.87,7.85.63,9.72S19,39,19,39l-6.11.62S11,34.87,12.5,34,28.57,29.13,28.57,29.13Z"/><path class="cls-5" d="M18,13a3.41,3.41,0,0,0,3,1.46s-1.15,2-2.64,1.19C16.51,14.58,18,13,18,13Z"/><path class="cls-5" d="M23.56,12.91s-.25,1.43-2.56,1.52c0,0,1,2.29,2.68.84C24.9,14.25,23.56,12.91,23.56,12.91Z"/><path class="cls-11" d="M16.92,21.53l-.43,9.79s9.34.56,12.83-1.94L26.77,22Z"/><path class="cls-7" d="M26.17,25.63c0,.08-.12.28-.24.56,1.41.06,1.29,1.68,3.66,2.15,1.46-2.56,0-8.74,0-8.74l-4.05,1.12S26.45,25,26.17,25.63Z"/><path class="cls-7" d="M28.84,24.14a62.46,62.46,0,0,0-7.35,2c-.44.16-.82.31-1.11.45a2.8,2.8,0,0,1-.13,1.15c1.6.73,6.56,1.05,8.72.77a2.7,2.7,0,0,0,.62-.16A9,9,0,0,1,28.84,24.14Z"/><path class="cls-7" d="M17.82,26.48c.49-.48,4.19-.16,4.19-.16s-1.2.7-.63.61A4.84,4.84,0,0,1,20.72,28c-.74.79-1.31-.26-1.31-.26-.71,3.2-.5-.47-.5-.47-.59,3.63-.56-.13-.56-.13-1.2,3.48-.5,0-.5,0C15.57,29.79,17.82,26.48,17.82,26.48Z"/><polygon class="cls-5" points="25.52 20.72 30.01 19.48 30.19 20.54 25.71 21.44 25.52 20.72"/><path class="cls-5" d="M14.91,20.24l-2.85-1.37-.33.66,2.73,1.57A2.37,2.37,0,0,1,14.91,20.24Z"/><path class="cls-12" d="M20.56,30.66a.64.64,0,0,1-.6.68L1,31.39a.63.63,0,0,1-.59-.68h0A.64.64,0,0,1,1,30L20,30a.65.65,0,0,1,.6.68Z"/><path class="cls-13" d="M20,30,1,30l13.21,0c.27,0,.49.42.49.92a1.5,1.5,0,0,1-.07.44l5.36,0A.69.69,0,0,0,20,30Z"/><path class="cls-14" d="M15.09,29.63a.52.52,0,0,1-.54.49l-13.9.11a.51.51,0,0,1-.55-.47L0,20.34a.52.52,0,0,1,.54-.49l13.9-.11a.52.52,0,0,1,.55.48Z"/><path class="cls-15" d="M14.44,19.74h-.17a.47.47,0,0,1,.28.41l.1,9.49a.51.51,0,0,1-.49.48h.39a.52.52,0,0,0,.54-.49L15,20.22A.52.52,0,0,0,14.44,19.74Z"/><path class="cls-1" d="M20,1.78s-.63,2.12,3.11,5.3c0,0-.75,5.61-.61,5.67C23.68,13.26,27,12,27,12s1.25-6-.5-9.09S21.41-.71,20,1.78Z"/><path class="cls-10" d="M22.51,5.23c-.52-.06-.73,0-1-.08A3.93,3.93,0,0,1,21.15,5a3.17,3.17,0,0,1-.57-.26,1,1,0,0,1,1.16-.61A.92.92,0,0,1,22.51,5.23Z"/></g></g></svg>