<svg xmlns="http://www.w3.org/2000/svg" viewBox="0 0 3.76 33.41"><defs><style>.cls-1{fill:#e8c560;}.cls-2{fill:#efdcb1;}.cls-3{fill:#201b18;}.cls-4{fill:#3a322d;}.cls-5{fill:#d6ba6b;}.cls-6{fill:#a3998e;}.cls-7{fill:#765c3b;}</style></defs><title>Ativo 130</title><g id="Camada_2" data-name="Camada 2"><g id="Camada_1-2" data-name="Camada 1"><path class="cls-1" d="M2,1V1.4H1.62a.87.87,0,0,0-.87.87V10.2a.75.75,0,0,1-.26.57.71.71,0,0,1-.47.17H0V2.25A1.3,1.3,0,0,1,1.3,1Z"/><path class="cls-2" d="M2,1V1.4H1.62a.87.87,0,0,0-.87.87V10.2a.75.75,0,0,1-.26.57V2.25A1.3,1.3,0,0,1,1.79,1Z"/><path class="cls-3" d="M1.92,32.58H2.7a.57.57,0,0,1,0,.14H2Z"/><path class="cls-3" d="M3.58,16.08c0,4.68-.13,8.93-.35,12H1.39C1.17,25,1,20.76,1,16.08V15a2.81,2.81,0,0,1,0-.29V13.56c.05-4.33.22-8.15.45-10.82,0-.1,0-.21,0-.3,0-.37.07-.72.11-1,0-.15,0-.3.05-.45h0c0-.3.09-.58.13-.82A1,1,0,0,1,2.31,0a1.06,1.06,0,0,1,.5.12c0,.25.08.53.12.83L3,1.4c0,.41.09.86.13,1.34.24,2.67.4,6.49.45,10.82v.6c0,.19,0,.38,0,.57v1.35Z"/><path class="cls-3" d="M3.43,1.49v.15h0a2.41,2.41,0,0,1-.31,1.09,1.33,1.33,0,0,1-.48.49.78.78,0,0,1-.33.07,1,1,0,0,1-.79-.52l0,0a2.45,2.45,0,0,1-.3-1.13h0V1.4A2.14,2.14,0,0,1,1.24,1,1.2,1.2,0,0,1,1.81.13,1,1,0,0,1,2.31,0a1.06,1.06,0,0,1,.5.12A1.21,1.21,0,0,1,3.37,1a3.06,3.06,0,0,1,.06.45Z"/><polygon class="cls-3" points="3.75 15.33 0.86 15.33 0.87 15.02 0.87 14.73 0.89 14.16 0.89 13.88 0.9 13.56 1.19 1.61 1.19 1.6 1.19 1.4 3.42 1.4 3.43 1.65 3.43 1.65 3.71 13.56 3.72 13.88 3.73 14.16 3.74 14.73 3.75 15.02 3.75 15.33"/><rect class="cls-4" x="1.52" y="1.4" width="1.12" height="26.72"/><path class="cls-1" d="M3.43,1.4H1.19A2.14,2.14,0,0,1,1.24,1H3.37A3.06,3.06,0,0,1,3.43,1.4Z"/><polygon class="cls-1" points="3.75 15.33 0.86 15.33 0.87 15.02 0.87 14.73 0.89 14.16 0.89 13.88 0.9 13.56 3.71 13.56 3.72 13.88 3.73 14.16 3.74 14.73 3.75 15.02 3.75 15.33"/><polygon class="cls-3" points="3.75 15.02 0.87 15.02 0.87 14.73 0.89 14.16 0.89 13.88 3.72 13.88 3.73 14.16 3.74 14.73 3.75 15.02"/><polygon class="cls-1" points="3.74 14.73 0.87 14.73 0.89 14.16 3.73 14.16 3.74 14.73"/><path class="cls-5" d="M3.23,28.12a35,35,0,0,1-.53,4.46H1.92a31.63,31.63,0,0,1-.53-4.46Z"/><path class="cls-1" d="M2.7,32.58a.57.57,0,0,1,0,.14H2l0-.14Z"/><path class="cls-6" d="M2.59,32.72c-.09.45-.19.69-.28.69s-.19-.24-.28-.69Z"/><path class="cls-7" d="M2.7,32.58a.57.57,0,0,1,0,.14H2l0-.14Z"/></g></g></svg>