<svg xmlns="http://www.w3.org/2000/svg" viewBox="0 0 28.97 71.18"><defs><style>.cls-1{fill:#0e2735;opacity:0.15;}.cls-2{fill:#639e8a;}.cls-3{fill:#c99775;}.cls-4{fill:#594847;}.cls-5{fill:#ffded4;}.cls-6{fill:#c19891;}.cls-6,.cls-9{opacity:0.4;}.cls-7{fill:#d88f4e;}.cls-8{fill:#bc7942;}.cls-9{fill:#b57f74;}.cls-10{fill:#c7dde2;}.cls-11{fill:#0c181e;}.cls-12,.cls-13{fill:#172d3a;}.cls-12{opacity:0.2;}.cls-13{opacity:0.1;}.cls-14{fill:#e2afa6;}.cls-15{fill:#825248;}</style></defs><title>Ativo 95</title><g id="Camada_2" data-name="Camada 2"><g id="Personagens"><path class="cls-1" d="M23.41,69.27c0,1.06-4.5,1.91-10.06,1.91S3.28,70.33,3.28,69.27s4.51-1.91,10.07-1.91S23.41,68.22,23.41,69.27Z"/><polygon class="cls-2" points="14.71 60.52 17.65 63.55 19.08 62.63 16.08 59.22 14.71 60.52"/><path class="cls-3" d="M16.24,63.67a5.5,5.5,0,0,1,.65,2.85c-.13,1.52-.1,3,.73,3.15a8.41,8.41,0,0,0,1.91-5.41l.34.13.73-2.22-2.75-1L17.29,63l-.22-.23Z"/><path class="cls-4" d="M19,65.72c-.4,3.25-1.49,3.7-1.61,3.86a.61.61,0,0,0,.2.09,8.41,8.41,0,0,0,1.91-5.41l.34.13.73-2.22-.55-.2A12.1,12.1,0,0,0,19,65.72Z"/><polygon class="cls-5" points="12.85 9.74 12.52 14.97 12.06 17.61 14 18.27 16.25 19.08 16.2 15.2 16.29 11.24 12.85 9.74"/><polygon class="cls-6" points="15.52 18.82 15.61 15.17 12.59 13.86 12.85 9.74 16.29 11.24 16.2 15.2 16.25 19.08 15.52 18.82"/><path class="cls-5" d="M14.84,2.34c-2.68.42-2.73,2.24-2.73,2.24a15.54,15.54,0,0,0-.29,2.72.89.89,0,0,0-1.07-.37c-.92.33-.44,3.2.94,3.05A7.39,7.39,0,0,0,12,12c.33.83,1.86,1.83,3.34,2.12a3.65,3.65,0,0,0,3.93-2.72,71,71,0,0,0,.31-7.68S19.27,1.63,14.84,2.34Z"/><path class="cls-7" d="M13.77,3.75c-.71,0-1.81-.37-2.52-.44,0-.07-.05.53-.05.53a28.93,28.93,0,0,1-.1,3.1c.71.08.66.66.66.66V8.88l.71,0,.22-2.72a1.42,1.42,0,0,0,.69-.64S13.63,4.22,13.77,3.75Z"/><path class="cls-8" d="M13.87,5.92a1.19,1.19,0,0,1,.23-1.07,1.24,1.24,0,0,1,1-.42,1.23,1.23,0,0,1,1,.46A1.09,1.09,0,0,1,16.17,6a4.94,4.94,0,0,0-.87.29c-.16.08-.21.15-.26.15a1.44,1.44,0,0,1-.31-.15C14.54,6.19,14.3,6.09,13.87,5.92Z"/><path class="cls-8" d="M17.59,6.27a1,1,0,0,1,.12-1,1.1,1.1,0,0,1,1-.39,1.12,1.12,0,0,1,.89.59,1,1,0,0,1-.11,1,3.46,3.46,0,0,0-.86.21c-.15.06-.15.17-.12.16s0-.08-.11-.18A3,3,0,0,0,17.59,6.27Z"/><polygon class="cls-9" points="16.5 9.81 17.1 6.82 17.84 9.35 16.5 9.81"/><polygon class="cls-2" points="11.82 63.88 11.27 68.06 12.88 68.61 13.7 64.14 11.82 63.88"/><path class="cls-3" d="M13.83,66.18a5.41,5.41,0,0,0,2.4,1.66c1.46.45,2.78,1,2.65,1.85a8.41,8.41,0,0,1-5.73-.23v.35l-2.33-.14.06-2.94,1.94.17-.14-.29Z"/><path class="cls-4" d="M14.69,69.53c3.17.84,4,0,4.18-.06a.55.55,0,0,1,0,.22,8.41,8.41,0,0,1-5.73-.23v.35l-2.33-.14v-.59A12.41,12.41,0,0,1,14.69,69.53Z"/><path class="cls-10" d="M19.46,30.67l-10.83.75S5.23,43.79,4.17,49.48a5,5,0,0,1,2.07-.16A5.22,5.22,0,0,1,9,50.62v-.08C9.39,48.22,13,39.12,13,39.12l1.16.35C13.41,49.43,11,65.08,11,65.08a3.71,3.71,0,0,0,3.57.45C20.37,48.25,19.46,30.67,19.46,30.67Z"/><path class="cls-10" d="M6,47.39c-.85.92-.38.75-1.6.71-1.09,2.77.7,3.77,1.26,4.35,2.87,3,9.57,10,9.57,10,1.48.39,2.71-1.94,2.71-1.94-.43-1.07-8.3-11.13-9.78-12.95a16.89,16.89,0,0,1-1.11-1.65A7.63,7.63,0,0,1,6,47.39Z"/><path class="cls-11" d="M18.26,7.62c-.05.29,0,.54.21.57s.33-.19.37-.48-.05-.55-.21-.57S18.3,7.33,18.26,7.62Z"/><path class="cls-11" d="M15,7.24c-.05.29,0,.55.21.57s.33-.19.37-.48-.05-.54-.21-.57S15,7,15,7.24Z"/><path class="cls-12" d="M19.51,28.55A22.7,22.7,0,0,1,7,22.7c.17.74.3,1.23.3,1.23l.5,9.86s3.5,2.53,12.3.57l.34-5.71Z"/><path class="cls-5" d="M24.75,32.06l1.67,5.73s1.54,0,1.77.29,1.67,5-.08,1.14c0,0,.72,3.8-.68.19,0,0,0,3.25-.68,0,0,0-.43,3.49-.75,0a5.34,5.34,0,0,1-1.08-.08c-.46-.11-2.44-7.68-2.44-7.68Z"/><path class="cls-2" d="M6.44,16.2s-3.95,5-5.87,7.85a9.07,9.07,0,0,0,3.29,2.57L7.48,21.8Z"/><path class="cls-2" d="M21.65,17.37a5.22,5.22,0,0,0-1.36-.91l-.05,0a4.37,4.37,0,0,0-.56-.22l-.13,0-.1,0-.1,0c-1.16-.35-2.57-.62-2.57-.62V14.36l-5-.61v1.67l-.79.06a17.38,17.38,0,0,0-4.34.61c-1.27.53.7,7.84.7,7.84l.5,9.86s3.5,2.53,12.3.57l.4-9.22s.87,7.35,2.94,11.65c1.45.73,2.93-.84,2.93-.84S23.11,18.73,21.65,17.37Z"/><path class="cls-13" d="M15.31,28c-3-1.52-6.56-3.54-8.54-6.39.28,1.3.55,2.31.55,2.31l.5,9.86s3.5,2.53,12.3.57l.27-4.55A22.75,22.75,0,0,1,15.31,28Z"/><path class="cls-5" d="M5.22,28.42l2.7,3.79s1.54-.46,1.86-.25S13,36.41,10,33.12c0,0,1.88,3.57-.62.4,0,0,1,3.25-.69.17,0,0,.64,3.6-.73.24,0,0,.1.35-.39.38S3,29.58,3,29.58Z"/><path class="cls-2" d="M7.25,30.7a3.3,3.3,0,0,1-1.89,1.9S1.48,28.19,0,26.09c0,0-.32-1.43,1.55-3.32C2.29,22,5.86,28.86,7.25,30.7Z"/><path class="cls-7" d="M13.53,3.61a7.28,7.28,0,0,0,4.06,1l-.92-.83s1.76.58,3.56,1.34a3.11,3.11,0,0,0-2-3.69,6.45,6.45,0,0,1,2.39,1.34A5.09,5.09,0,0,0,15.08.13C12,.8,12.65,2.6,12.65,2.6l.71-1s-1-.76-2.14.75c-.45.6-.06,4,0,4.44s2.43-2.72,2.43-2.72l.54-1.43L13,2.68"/><path class="cls-7" d="M16.58,9.81s-1.87-.51-2.2.07-.54,1.47-1.35,1-.19-5-.19-5l-.79,1.54s-1.88,6.35,2.86,7.06c4.19.62,4.71-1.26,4.48-3.4,0,0-.54.44-.72-.14S18.71,9.64,16.58,9.81Z"/><path class="cls-14" d="M14.92,10.49l3.2.46s-.61,1.16-1.64,1.12A1.69,1.69,0,0,1,14.92,10.49Z"/><path class="cls-15" d="M16.23,11.08a1.7,1.7,0,0,1,1,.78,2.56,2.56,0,0,0,.86-.91l-3.2-.46a2.1,2.1,0,0,0,.14.55A2.14,2.14,0,0,1,16.23,11.08Z"/></g></g></svg>