<svg xmlns="http://www.w3.org/2000/svg" viewBox="0 0 65.16 52.79"><defs><style>.cls-1,.cls-3,.cls-6{fill:#0e2735;}.cls-1{opacity:0.15;}.cls-2{fill:#c99775;}.cls-3,.cls-5{opacity:0.5;}.cls-4{fill:#525557;}.cls-5{fill:#1c1e1f;}.cls-12,.cls-6{opacity:0.1;}.cls-21,.cls-7{fill:none;}.cls-7{stroke:#d2d8db;stroke-miterlimit:10;stroke-width:0.52px;}.cls-8{fill:#ccd6db;}.cls-9{fill:#e7eef3;}.cls-10{fill:#3f3e3d;}.cls-11{fill:#adb8bc;}.cls-13{fill:#ffdb8a;}.cls-14{fill:#e5beb5;}.cls-15{fill:#b57f74;opacity:0.4;}.cls-16{fill:#353030;}.cls-17{fill:#33594b;}.cls-18{fill:#4b616b;}.cls-19,.cls-22,.cls-26{fill:#172d3a;}.cls-20{fill:#c7dde2;}.cls-21{stroke:#172d3a;stroke-linecap:round;stroke-linejoin:round;stroke-width:0.73px;}.cls-22{opacity:0.3;}.cls-23{fill:#393a3a;}.cls-24{fill:#222323;}.cls-25{fill:#e58383;}.cls-26{opacity:0.2;}.cls-27{fill:#4f5051;}.cls-28{fill:#686868;}</style></defs><title>Ativo 106</title><g id="Camada_2" data-name="Camada 2"><g id="Camada_1-2" data-name="Camada 1"><path class="cls-1" d="M65.14,47.12c0,1-14.58,1.76-32.57,1.76S0,48.09,0,47.12s14.58-1.76,32.56-1.76S65.14,46.14,65.14,47.12Z"/><rect class="cls-2" x="30.03" y="23.29" width="30.35" height="21.1"/><rect class="cls-3" x="30.03" y="23.29" width="30.35" height="21.1"/><polygon class="cls-2" points="2.53 22.92 2.53 47.27 30.03 47.27 30.03 23.29 60.39 23.29 60.39 47.27 62.68 47.27 62.68 22.92 2.53 22.92"/><rect class="cls-2" x="2.58" y="24.79" width="27.1" height="21.73"/><rect class="cls-4" x="4.31" y="26.17" width="23.96" height="18.81"/><rect class="cls-2" x="4.6" y="33.75" width="23.39" height="10.85"/><rect class="cls-2" x="4.6" y="26.45" width="23.39" height="6.92"/><rect class="cls-4" x="12.24" y="29.45" width="8.11" height="1.01"/><rect class="cls-5" x="12.24" y="30.17" width="8.11" height="0.75"/><rect class="cls-4" x="12.24" y="38.37" width="8.11" height="1.01"/><rect class="cls-5" x="12.24" y="39.09" width="8.11" height="0.75"/><polygon class="cls-6" points="62.68 22.85 62.68 24.1 60.39 24.1 60.39 23.29 30.03 23.29 30.03 24.1 2.53 24.1 2.53 22.85 62.68 22.85"/><rect class="cls-2" y="21.37" width="65.16" height="2.02"/><path class="cls-7" d="M33.88,17.58S32.83,19.27,35,19.25s1.16,3.3,5.1,1.73"/><rect class="cls-8" x="24.83" y="17.31" width="8.68" height="3.18"/><rect class="cls-9" x="17.65" width="23.04" height="18.5" rx="0.87"/><rect class="cls-10" x="18.47" y="0.67" width="21.4" height="14.44" rx="0.84"/><rect class="cls-11" x="23.46" y="19.91" width="11.35" height="0.58"/><rect class="cls-9" x="19.42" y="20.49" width="19.66" height="0.97"/><rect class="cls-9" x="39.67" y="20.67" width="2.75" height="0.75"/><path class="cls-9" d="M42.42,20.7c0-.42-.62-.76-1.38-.76s-1.37.34-1.37.76.61.75,1.37.75S42.42,21.11,42.42,20.7Z"/><rect class="cls-13" x="20.3" y="0.23" width="3.31" height="2.87"/><path class="cls-14" d="M37.25,19.67a5.41,5.41,0,0,0-2-.22c-.77.14-2,1-1.62,1.94v0h3.49Z"/><rect class="cls-14" x="50.32" y="13.16" width="3.37" height="2.93" transform="translate(-1.49 7.1) rotate(-7.7)"/><rect class="cls-15" x="50.32" y="13.16" width="3.37" height="2.93" transform="translate(-1.49 7.1) rotate(-7.7)"/><polygon class="cls-14" points="47.04 15.08 44.56 12.94 45.69 15.95 47.04 15.08"/><polygon class="cls-15" points="47.04 15.08 44.56 12.94 45.69 15.95 47.04 15.08"/><path class="cls-14" d="M45.1,7.53c2.07-1.55,3.22-.47,3.22-.47a13,13,0,0,1,1.86,1.45c-.07-.36,2.64,2.81,2.71,3A4.78,4.78,0,0,1,52,15.06a3.47,3.47,0,0,1-4.48,1,34.05,34.05,0,0,1-4.76-4.52S41.69,10.1,45.1,7.53Z"/><path class="cls-16" d="M43.26,11.14c.42-.49.92-1.39,1.33-1.89l.36.31A27.42,27.42,0,0,0,47,11.47a.56.56,0,0,0,0,.84l.82.82-.48.45L45.47,12a1.27,1.27,0,0,1-.85,0S43.65,11.36,43.26,11.14Z"/><path class="cls-16" d="M47.12,7.37a.09.09,0,0,0,0,.09c0,.32.29,1.57-1.88,3.27l-1-.37a3.62,3.62,0,0,1-3.06,1.87,5.15,5.15,0,0,1,1.44-4.49A7,7,0,0,0,41.06,9S42.52,5.17,45.82,5c0,0,1.31-1.56,2.63-.24C49.43,5.78,47.12,7.37,47.12,7.37Z"/><path class="cls-16" d="M46.77,12.2s0-1.27,1.19-.6a1.39,1.39,0,0,1,.6,2.12S50.77,16,52.33,14.8s3.38-5.12-3.88-10l-4.08,4Z"/><polygon class="cls-17" points="44.16 44.3 44.73 48.6 43.07 49.18 42.23 44.57 44.16 44.3"/><path class="cls-18" d="M42.09,46.67a5.55,5.55,0,0,1-2.48,1.71c-1.5.47-2.86,1-2.73,1.91,0,0,2.28,1,5.91-.24v.37l2.4-.15-.06-3-2,.17.15-.3Z"/><path class="cls-19" d="M41.2,50.12c-3.26.87-4.11,0-4.31-.06a.6.6,0,0,0,0,.23s2.28,1,5.91-.24v.37l2.4-.15v-.61A12.68,12.68,0,0,0,41.2,50.12Z"/><path class="cls-20" d="M54.64,25.06s-12.4-1.45-15.14.32S41,46.16,41,46.16a17.08,17.08,0,0,0,4.51-.33L44.33,30.7s11.11,2.9,11.27-.81S54.64,25.06,54.64,25.06Z"/><path class="cls-21" d="M41.4,47.15c.4.34.73.67,1.13,1"/><path class="cls-21" d="M40.74,48c.27.33.47.6.73.93"/><path class="cls-22" d="M54.64,25.06s-12.4-1.45-15.14.32S41,46.16,41,46.16s.68,0,1.57,0l.13.69-.56-.2a5.91,5.91,0,0,1-1.15,1,4.59,4.59,0,0,1-1.33.66c-1.5.47-2.86,1-2.73,1.91,0,0,2.28,1,5.91-.24v.37l2.4-.15v-.61h0l0-2.42-.58,0-.17-1.24a6.52,6.52,0,0,0,1.07-.22L44.33,30.7s11.11,2.9,11.27-.81S54.64,25.06,54.64,25.06Z"/><polygon class="cls-17" points="40.93 45.46 41.5 49.77 39.84 50.34 39 45.73 40.93 45.46"/><path class="cls-18" d="M38.87,47.83a5.69,5.69,0,0,1-2.48,1.72c-1.51.46-2.87,1-2.74,1.9,0,0,2.28,1,5.91-.24v.37l2.4-.15-.06-3-2,.18.14-.31Z"/><path class="cls-19" d="M38,51.29c-3.26.86-4.11,0-4.3-.06a.55.55,0,0,0,0,.22s2.28,1,5.91-.24v.37l2.4-.15v-.6A12.36,12.36,0,0,0,38,51.29Z"/><path class="cls-20" d="M58.29,25.23s-19.36-.46-22.1,1.32,1.45,20.77,1.45,20.77A17.37,17.37,0,0,0,42.15,47L41,31.86S59,35.25,59,30.36C59,26.66,58.29,25.23,58.29,25.23Z"/><path class="cls-21" d="M38.08,48.53c.4.33.73.66,1.13,1"/><path class="cls-21" d="M37.47,48.9l.73.94"/><path class="cls-19" d="M46.36,25.31S50.58,28.77,59.12,28a77.21,77.21,0,0,0,.94-10.86c0-2-14.46-2.24-14.31,0C45.93,19.72,46.51,22.46,46.36,25.31Z"/><path class="cls-1" d="M63.58,51.3c0,.82-4.75,1.49-10.6,1.49s-10.61-.67-10.61-1.49S47.12,49.81,53,49.81,63.58,50.48,63.58,51.3Z"/><rect class="cls-23" x="51.88" y="34.38" width="2.49" height="12.75"/><rect class="cls-24" x="51.49" y="42.72" width="3.28" height="6.25"/><path class="cls-24" d="M58,47.59H48.25a1,1,0,0,0,0,2.06H58a1,1,0,0,0,0-2.06Z"/><rect class="cls-24" x="51.88" y="34.38" width="2.49" height="3.51"/><rect class="cls-23" x="54.17" y="23.72" width="2.74" height="9.91"/><rect class="cls-25" x="42.28" y="32.1" width="19.51" height="3.66" rx="1.14"/><rect class="cls-25" x="48.98" y="16.86" width="12.8" height="9.91" rx="1.14"/><rect class="cls-26" x="44.52" y="32.1" width="17.27" height="3.66" rx="1.14"/><rect class="cls-26" x="51.15" y="16.86" width="10.63" height="9.91" rx="1.14"/><ellipse class="cls-27" cx="47.36" cy="50.26" rx="1.38" ry="1.6"/><rect class="cls-27" x="47.24" y="48.66" width="1" height="3.2"/><ellipse class="cls-28" cx="48.24" cy="50.26" rx="1.38" ry="1.6"/><path class="cls-24" d="M47.61,50.26a.64.64,0,1,0,.63-.73A.69.69,0,0,0,47.61,50.26Z"/><path class="cls-27" d="M51.25,50.26a1.4,1.4,0,1,0,1.38-1.6A1.51,1.51,0,0,0,51.25,50.26Z"/><rect class="cls-27" x="52.5" y="48.66" width="1" height="3.2"/><ellipse class="cls-28" cx="53.51" cy="50.26" rx="1.38" ry="1.6"/><path class="cls-24" d="M52.88,50.26a.63.63,0,1,0,.63-.73A.69.69,0,0,0,52.88,50.26Z"/><ellipse class="cls-27" cx="57.39" cy="50.26" rx="1.38" ry="1.6"/><rect class="cls-27" x="57.26" y="48.66" width="1" height="3.2"/><ellipse class="cls-28" cx="58.27" cy="50.26" rx="1.38" ry="1.6"/><path class="cls-24" d="M57.64,50.26a.63.63,0,1,0,.63-.73A.69.69,0,0,0,57.64,50.26Z"/><path class="cls-19" d="M49.64,16.78l-.16-2.18a25,25,0,0,1,5.14-.11l.11,1.71Z"/><path class="cls-19" d="M49.93,14.57s2.71,0-3.3,1.79c-.07,0-2,1.17-2.05,1.22a8.18,8.18,0,0,1-3,1.43l-4.81-.16s-1.16,1.32-.83,2.32,6,1.65,7.21,1.41,4-1.21,4-1.21l3.08-5.3Z"/></g></g></svg>