<svg xmlns="http://www.w3.org/2000/svg" viewBox="0 0 34.65 56.46"><defs><style>.cls-1{fill:#7f3954;}.cls-17,.cls-2{fill:#081344;}.cls-3{fill:none;stroke:#081344;stroke-linecap:round;stroke-miterlimit:10;stroke-width:1.49px;}.cls-4{fill:#1c1c2d;}.cls-5{fill:#a0523a;}.cls-6{fill:#fcbba4;}.cls-7{fill:#fff;}.cls-8{fill:#25253a;}.cls-9{fill:#b1aec1;}.cls-10{fill:#716f82;}.cls-11{fill:#2d2d3a;}.cls-12{fill:#072050;}.cls-13{fill:#9f293b;}.cls-14{fill:#f14747;}.cls-15{fill:#7c4b39;}.cls-16{fill:#ffc7b0;}.cls-17{opacity:0.2;}</style></defs><title>Ativo 79</title><g id="Camada_2" data-name="Camada 2"><g id="Personagens"><path class="cls-1" d="M19.73,55.85l6.38.07a.68.68,0,0,0,.7-.68h0a.71.71,0,0,0-.45-.66l-3.15-1.13-3.45,0Z"/><path class="cls-2" d="M26.24,56.1l-6.46,0v-.46l6.93,0h0A.47.47,0,0,1,26.24,56.1Z"/><line class="cls-3" x1="23.13" y1="54.38" x2="23.88" y2="53.58"/><line class="cls-3" x1="23.68" y1="54.62" x2="24.43" y2="53.82"/><line class="cls-3" x1="24.2" y1="54.93" x2="25.05" y2="54.02"/><path class="cls-4" d="M19.52,53.76c.37-6.23.27-12-.22-13.15-.5-.72-4.37-2.29-8.25-2.46l1.82-4c5.08.26,8.71,2.16,10,4.34.54.92,1,2.78.75,9.13-.13,3.32-.29,5.92-.29,5.92Z"/><path class="cls-5" d="M25.42,56l6.38.05a.69.69,0,0,0,.69-.69h0a.69.69,0,0,0-.46-.65l-3.15-1.13-3.45.07Z"/><path class="cls-2" d="M31.92,56.23H25.36v-.47h7A.46.46,0,0,1,31.92,56.23Z"/><line class="cls-3" x1="28.81" y1="54.53" x2="29.55" y2="53.73"/><line class="cls-3" x1="29.36" y1="54.76" x2="30.1" y2="53.96"/><line class="cls-3" x1="29.88" y1="55.07" x2="30.72" y2="54.16"/><path class="cls-4" d="M25.19,53.76c.37-6.23.27-12-.22-13.15-.5-.72-4.37-2.29-8.25-2.46l1.82-4c5.08.26,8.71,2.16,10,4.34.54.92,1,2.78.75,9.13C29.14,51,29,53.58,29,53.58Z"/><path class="cls-4" d="M19.72,35.33a2.84,2.84,0,0,1-.66,1.84,2.87,2.87,0,0,1-2.22,1H12a2.86,2.86,0,0,1-.42,0,2.77,2.77,0,0,1-1-.34l-.16-.09a2.89,2.89,0,0,1-1.31-2.42l.09-1.54,10.43-.09Z"/><path class="cls-6" d="M23.05,27.12l2.5-.4a.34.34,0,0,0,.28-.38h0a.35.35,0,0,0-.39-.28l-2.49.4a.33.33,0,0,0-.28.38h0A.33.33,0,0,0,23.05,27.12Z"/><path class="cls-6" d="M23.85,27.8l2-.32a.34.34,0,0,0,.28-.39h0a.34.34,0,0,0-.38-.28l-2,.33a.33.33,0,0,0-.28.38h0A.34.34,0,0,0,23.85,27.8Z"/><path class="cls-6" d="M23.38,28.67l2.38-.38a.33.33,0,0,0,.27-.38h0a.33.33,0,0,0-.38-.28L23.28,28a.34.34,0,0,0-.28.38h0A.33.33,0,0,0,23.38,28.67Z"/><path class="cls-6" d="M24.13,26.48h-.67a3.62,3.62,0,0,0-1.65.37l-1,.49A15.14,15.14,0,0,0,21.47,29c1.9.35,2.55-.52,2.55-.52Z"/><rect class="cls-7" x="21.82" y="26.47" width="0.84" height="2.74"/><path class="cls-4" d="M16.29,29.51a5.11,5.11,0,0,1-4.63-3l0-.09L9,18.51l3.21-1.05,2.53,7.74a1.76,1.76,0,0,0,1.56.94l5.53-.06,0,3.37-5.52.06Z"/><path class="cls-6" d="M34.32,26.23a2.05,2.05,0,0,0-.9-.85h0A3.68,3.68,0,0,0,31.76,25l-1.1,0-.26,2.3a24.4,24.4,0,0,1,3.9-.09.34.34,0,0,0,.3-.51Z"/><rect class="cls-7" x="30" y="24.85" width="1.05" height="2.81"/><path class="cls-8" d="M24.88,28a5.1,5.1,0,0,1-4.64-3l-3.75-8.1,3.06-1.42,3.75,8.1a1.71,1.71,0,0,0,1.59,1l5.53-.05,0,3.37-5.52,0Z"/><path class="cls-8" d="M20.62,18.49l-.06,7.08-.08,9a3.35,3.35,0,0,1-.78.52,12.31,12.31,0,0,1-2.49.91,20.08,20.08,0,0,1-5.07.37c-1.86,0-3.37-.21-3.37-.21l0-17.68a5,5,0,0,1,4.17-5,5.14,5.14,0,0,1,.88-.08h1.71A5,5,0,0,1,20.62,18.49Z"/><rect class="cls-9" x="12.74" y="41.71" width="1.7" height="9.79"/><path class="cls-10" d="M12.74,42.26V44.4l1.71-.62V42.33Z"/><path class="cls-11" d="M18.84,42.55H8.63a1,1,0,0,1-1-.95h0a1,1,0,0,1,1-1H18.84a1,1,0,0,1,.95,1h0A1,1,0,0,1,18.84,42.55Z"/><path class="cls-11" d="M20.82,54.65H19.75a2.25,2.25,0,0,0-2.31-2.17H9.67a2.25,2.25,0,0,0-2.31,2.17H6.29a3.29,3.29,0,0,1,3.38-3.18h7.77A3.29,3.29,0,0,1,20.82,54.65Z"/><rect class="cls-11" x="12.34" y="49.96" width="2.49" height="1.53"/><ellipse class="cls-2" cx="6.79" cy="55.63" rx="0.89" ry="0.83"/><path class="cls-12" d="M6.85,54.2h0a1.21,1.21,0,0,1,1.21,1.21v.14a0,0,0,0,1,0,0H5.64a0,0,0,0,1,0,0v-.14A1.21,1.21,0,0,1,6.85,54.2Z"/><ellipse class="cls-2" cx="20.33" cy="55.63" rx="0.89" ry="0.83"/><path class="cls-12" d="M20.4,54.2h0a1.21,1.21,0,0,1,1.21,1.21v.14a0,0,0,0,1,0,0H19.19a0,0,0,0,1,0,0v-.14A1.21,1.21,0,0,1,20.4,54.2Z"/><rect class="cls-11" x="12.93" y="51.78" width="1.41" height="3.02"/><ellipse class="cls-2" cx="13.66" cy="55.63" rx="0.89" ry="0.83"/><path class="cls-12" d="M13.73,54.2h0a1.21,1.21,0,0,1,1.21,1.21v.14a0,0,0,0,1,0,0H12.51a0,0,0,0,1,0,0v-.14A1.21,1.21,0,0,1,13.73,54.2Z"/><path class="cls-13" d="M0,23.3,2.3,39.78a2.09,2.09,0,0,0,2,1.79l8.33.09L8,20.94H2.08A2.07,2.07,0,0,0,0,23.3Z"/><rect class="cls-14" x="9.09" y="38.07" width="15.17" height="3.59" rx="1.8"/><path class="cls-4" d="M11.54,18c-.23,3.25.41,15,.6,18.42-1.86,0-3.37-.21-3.37-.21l0-17.68a5,5,0,0,1,4.17-5S11.8,14.13,11.54,18Z"/><polygon class="cls-7" points="17.35 13.75 12.14 13.75 12.14 12.29 17.35 12.91 17.35 13.75"/><path class="cls-14" d="M8.94,39.39,6.52,22.49a1.39,1.39,0,0,1,1.25-1.55h0a1.46,1.46,0,0,1,1.65,1.18L11.84,39a1.4,1.4,0,0,1-1.26,1.56h0C9.79,40.68,9.37,41.24,8.94,39.39Z"/><path class="cls-4" d="M20.56,25.57l-.08,9a3.35,3.35,0,0,1-.78.52L18.5,21.52A24.11,24.11,0,0,0,20.56,25.57Z"/><path class="cls-15" d="M18.44.77l1.39.87a2.28,2.28,0,0,1,.84,3l-.17.33c.06-.06-2.13-4.15-2.13-4.15"/><rect class="cls-6" x="12.89" y="8.3" width="3.12" height="5.79" rx="1.56"/><path class="cls-15" d="M20.48,4.94c0,.28-1.25.74-1.26,1l.21.58c-1.57-.57-.19.3-.19.3-.46,1.39-.3,2.15-1.63,2.68a5,5,0,0,1-2.15.33c-1-.08-1.93.24-2.66-.11a1.42,1.42,0,0,1-.44-.31,5.13,5.13,0,0,1-.69-.85l-.21-.38a11.87,11.87,0,0,1-1.16-4C10.49,1.58,13-.18,15.92,0h.23a4.9,4.9,0,0,1,3.73,2.15l.13.2h0a8.68,8.68,0,0,1,.36,2A3.12,3.12,0,0,1,20.48,4.94Z"/><path class="cls-16" d="M20.36,5.79l0,.72-.07,1.2-.09.43c0,.19-.11,1.18-.14,1.36-.33,1.7-1.45,2.06-3.18,2.27l-.16,0a3.47,3.47,0,0,1-.56,0l-.54-.06a4.59,4.59,0,0,1-1-.32h0a4.07,4.07,0,0,1-1.8-1.68,3.85,3.85,0,0,1-.52-1.83V7.45l0-.34,0-1.18h0V5.33a3.06,3.06,0,0,1,.15-.79A4.45,4.45,0,0,1,12.74,4l0-.08c.06-.13.14-.27.21-.39h0a4.21,4.21,0,0,1,1.15-1.23,2.82,2.82,0,0,1,.29-.18,4.09,4.09,0,0,1,2.3-.57,3.68,3.68,0,0,1,1.77.58,4.14,4.14,0,0,1,.91.75,3.84,3.84,0,0,1,.8,1.42l0,.09a3.12,3.12,0,0,1,.11.53A4.81,4.81,0,0,1,20.36,5.79Z"/><path class="cls-15" d="M18.9,2.2c.85,2.34-1.39,2.15-1.49,3.22,0,.12-.05.3-.09,1.18l-.17.55a.4.4,0,0,1-.38.29.4.4,0,0,1-.41-.4h0l0-.88L16,7.3a6.63,6.63,0,0,1-1.4,2.23,6.75,6.75,0,0,1-1.73,1.31,6.29,6.29,0,0,1-2.73-5.32c0-.3,0-.61.05-.93a6.31,6.31,0,0,1,.15-.8c1.13-4.6,6.78-3,7.33-2.83A4.24,4.24,0,0,1,18.9,2.2Z"/><path class="cls-16" d="M20.84,8.27v.06c0,.25-.22.45-.77.43l.08-2A3.4,3.4,0,0,1,20.84,8.27Z"/><path class="cls-15" d="M20.55,5.87H19.34a.25.25,0,0,1-.25-.25h0a.26.26,0,0,1,.25-.26h1.21a.26.26,0,0,1,.25.26h0A.25.25,0,0,1,20.55,5.87Z"/><path class="cls-2" d="M19.87,6.78h0a.18.18,0,0,1-.18-.18V6.33a.18.18,0,0,1,.18-.18h0a.18.18,0,0,1,.18.18V6.6A.18.18,0,0,1,19.87,6.78Z"/><path class="cls-17" d="M14.55,9.53a6.75,6.75,0,0,1-1.73,1.31,6.29,6.29,0,0,1-2.73-5.32c0-.3,0-.61.05-.93a6.31,6.31,0,0,1,.15-.8,8.86,8.86,0,0,0,1.25,3.09A5.53,5.53,0,0,0,14.55,9.53Z"/><path class="cls-15" d="M20.06,9.38l0,1.38c0,1.18-1.4,1.65-2.43,1.54l-1.66-.18.17-1.43L16.56,8l-.73-2,1.5.62h0A2.56,2.56,0,0,0,20,9.39Z"/><path class="cls-6" d="M16.26,5.86a.29.29,0,0,1,.3.3V8.09h-.43a1.15,1.15,0,0,1-1.05-1.15,1.09,1.09,0,0,1,1.05-1.07h0a.14.14,0,0,1,.09,0Z"/></g></g></svg>