<svg xmlns="http://www.w3.org/2000/svg" viewBox="0 0 30.28 52.24"><defs><style>.cls-1{fill:#a07d70;}.cls-2,.cls-25,.cls-8{fill:#172d3a;}.cls-3{fill:#0e2735;opacity:0.15;}.cls-4{fill:#393a3a;}.cls-5{fill:#222323;}.cls-6{fill:#686868;}.cls-7{fill:#e58383;}.cls-13,.cls-8{opacity:0.2;}.cls-9{fill:#4f5051;}.cls-10{fill:#edc156;}.cls-11{fill:#ffded4;}.cls-12,.cls-13,.cls-21{fill:#755950;}.cls-12{opacity:0.4;}.cls-14{fill:#25383f;}.cls-15{fill:#0c181e;}.cls-16{fill:#263d49;}.cls-16,.cls-25{opacity:0.1;}.cls-17{fill:#fff;}.cls-18{fill:#e2afa6;}.cls-19{fill:#825248;}.cls-20{fill:#4b616b;}.cls-21{opacity:0.8;}.cls-22{fill:#172428;}.cls-23{fill:#3d3d3d;}.cls-24{fill:#f4d7a3;}</style></defs><title>Ativo 94</title><g id="Camada_2" data-name="Camada 2"><g id="Personagens"><path class="cls-1" d="M5,19.15l-2.33-.53-1,.4-.11.35a7,7,0,0,0-1.35.48c-.23.18.11.64.11.64l5,.09Z"/><path class="cls-2" d="M17.25,2.1a5.18,5.18,0,0,0-1.48,4.44l2.91-3.91Z"/><path class="cls-3" d="M28.68,50.36c0,1-6.42,1.88-14.34,1.88S0,51.4,0,50.36s6.42-1.87,14.34-1.87S28.68,49.33,28.68,50.36Z"/><rect class="cls-4" x="19.1" y="34.31" width="2.23" height="11.38"/><rect class="cls-5" x="18.74" y="41.75" width="2.93" height="5.58"/><path class="cls-5" d="M24.53,46.11H15.85a.92.92,0,0,0,0,1.83h8.68a.92.92,0,0,0,0-1.83Z"/><rect class="cls-5" x="19.1" y="34.31" width="2.23" height="3.13"/><rect class="cls-4" x="23.48" y="24.79" width="2.45" height="8.84"/><rect class="cls-6" x="12.87" y="32.27" width="17.42" height="3.27" rx="1.02"/><rect class="cls-7" x="12.87" y="32.27" width="17.42" height="3.27" rx="1.02"/><rect class="cls-7" x="18.85" y="18.67" width="11.43" height="8.84" rx="1.02"/><path class="cls-7" d="M29.26,18.67H27.09a1,1,0,0,1,1,1v6.8a1,1,0,0,1-1,1h2.17a1,1,0,0,0,1-1v-6.8A1,1,0,0,0,29.26,18.67Z"/><rect class="cls-8" x="12.87" y="32.27" width="17.42" height="3.27" rx="1.02"/><path class="cls-8" d="M29.26,18.67H27.09a1,1,0,0,1,1,1v6.8a1,1,0,0,1-1,1h2.17a1,1,0,0,0,1-1v-6.8A1,1,0,0,0,29.26,18.67Z"/><ellipse class="cls-9" cx="15.06" cy="48.49" rx="1.23" ry="1.43"/><rect class="cls-9" x="14.95" y="47.06" width="0.9" height="2.86"/><ellipse class="cls-6" cx="15.85" cy="48.49" rx="1.23" ry="1.43"/><ellipse class="cls-5" cx="15.85" cy="48.49" rx="0.56" ry="0.65"/><path class="cls-9" d="M18.53,48.49a1.34,1.34,0,0,0,1.23,1.43,1.45,1.45,0,0,0,0-2.86A1.34,1.34,0,0,0,18.53,48.49Z"/><rect class="cls-9" x="19.65" y="47.06" width="0.9" height="2.86"/><ellipse class="cls-6" cx="20.54" cy="48.49" rx="1.23" ry="1.43"/><ellipse class="cls-5" cx="20.54" cy="48.49" rx="0.56" ry="0.65"/><ellipse class="cls-9" cx="24.01" cy="48.49" rx="1.23" ry="1.43"/><rect class="cls-9" x="23.9" y="47.06" width="0.9" height="2.86"/><path class="cls-6" d="M23.57,48.49a1.24,1.24,0,1,0,1.23-1.43A1.34,1.34,0,0,0,23.57,48.49Z"/><path class="cls-5" d="M24.24,48.49a.57.57,0,1,0,.56-.65A.61.61,0,0,0,24.24,48.49Z"/><rect class="cls-7" x="10.66" y="32.27" width="14.02" height="3.27" rx="1.02"/><path class="cls-2" d="M9.11,45.25a4,4,0,0,1-.5,0C8.4,46.68,8.17,48,8.17,48L6.8,50.5l1.26-.06L9.73,48s.25-1.33.57-2.87A7.85,7.85,0,0,1,9.11,45.25Z"/><path class="cls-2" d="M9.71,47.88a1.37,1.37,0,0,1,.42,1.24c-.14.77-.38,2-.38,2H9.51l0-1.41S9,50.91,8.69,51s-2.47.61-2.7.14,1-1,1-1A1.07,1.07,0,0,0,8.09,50,13,13,0,0,0,9.71,47.88Z"/><path class="cls-2" d="M15.91,41.73a5.1,5.1,0,0,1,1.79,3.4,5.23,5.23,0,0,0,.53,2.6l-.73,2.85-1.16.5.41-2.84s-2.49-4.3-3.16-5.71S15,39.79,15.91,41.73Z"/><path class="cls-2" d="M18.15,47.61a1.37,1.37,0,0,1,.83,1c.14.77.32,2,.32,2l-.23.08-.52-1.31s0,1.36-.26,1.56-2.1,1.43-2.47,1.07.54-1.26.54-1.26a1.08,1.08,0,0,0,1-.55A13.25,13.25,0,0,0,18.15,47.61Z"/><path class="cls-10" d="M16.2,8a.88.88,0,0,1-1.07.62.87.87,0,1,1,.45-1.69A.88.88,0,0,1,16.2,8Z"/><path class="cls-11" d="M22.22,8.73a1.07,1.07,0,1,0,2.06.55,1.07,1.07,0,1,0-2.06-.55Z"/><path class="cls-1" d="M21.82,9l-.39,3.94,2.77,1.17a11.62,11.62,0,0,1-5.75,1.16c-2.8-.34-3.18-1.84-3.18-1.84l3.21-.63.15-2Z"/><path class="cls-12" d="M18.5,12.47l.15-2L22,8.14l-.48,4.09C21.12,12.2,19,12.39,18.5,12.47Z"/><path class="cls-1" d="M21,2.36s-3.14-.67-4.34,1.4-2.33,4.86-.84,6.74,4.5,1.67,6.27.13S25.67,4.58,21,2.36Z"/><path class="cls-13" d="M18.44,6.66a4.12,4.12,0,0,1-1,.81l.43.69"/><path class="cls-14" d="M18.57,4.58c-.51,0-.68.08-.86.06a1.51,1.51,0,0,1-.33-.09,2.57,2.57,0,0,1-.54-.23.87.87,0,0,1,1-.71A.81.81,0,0,1,18.57,4.58Z"/><path class="cls-15" d="M17.05,5.64c-.06.28,0,.54.18.58s.34-.17.4-.46,0-.55-.18-.58S17.11,5.35,17.05,5.64Z"/><path class="cls-15" d="M20,6.58c-.06.28,0,.54.18.58s.34-.17.4-.46,0-.55-.18-.58S20,6.29,20,6.58Z"/><path class="cls-16" d="M14.61,49.82h0Z"/><path class="cls-17" d="M20.88,26.17a32.89,32.89,0,0,1-4.25,1.22l.2-1.34L15.9,27a4.83,4.83,0,0,1-1.3-2.8C14.68,22.87,20.88,26.17,20.88,26.17Z"/><path class="cls-2" d="M15.85,20.7a14,14,0,0,0-1.25,3.47c2.69,2.41,5.63,1.47,9.37.79l.12-4.54Z"/><path class="cls-14" d="M21.86,5.76c-.51-.09-.7-.06-.9-.12a1.32,1.32,0,0,1-.33-.15,3,3,0,0,1-.51-.33.92.92,0,0,1,1.14-.51A.85.85,0,0,1,21.86,5.76Z"/><path class="cls-11" d="M16.15,27.39c.27-.17,2.06-.54,2.38-.73.14.65-.14,1.14.23,1.62a11.74,11.74,0,0,1-2.32.21,1.6,1.6,0,0,0-.19-.8C16.46,27.53,15.81,27.61,16.15,27.39Z"/><path class="cls-11" d="M17.22,28.45s-2,.65-2.15.44.84-.45.84-.45-1.37.35-1.34.14.85-.43.85-.43-1.12.11-1.07,0,1.11-.3,1.11-.3-2.44.1.38-.52c0,0-1.55-.9.44-.23C18.44,27.79,17.22,28.45,17.22,28.45Z"/><path class="cls-17" d="M18.37,26.22l-.77.27a3.83,3.83,0,0,0,.34,1.91l1.11-.1Z"/><path class="cls-18" d="M19.92,9.18l-3.21-.4S17,10.06,18,10.29A1.69,1.69,0,0,0,19.92,9.18Z"/><path class="cls-19" d="M18.5,9.41a1.7,1.7,0,0,0-1.2.48,2.55,2.55,0,0,1-.59-1.11l3.21.4a2.16,2.16,0,0,1-.28.49A2.09,2.09,0,0,0,18.5,9.41Z"/><path class="cls-2" d="M8.53,45.71C8.35,47,8.17,48,8.17,48L6.8,50.5l1.26-.06L9.73,48s.13-.71.33-1.7A3.91,3.91,0,0,1,8.53,45.71Z"/><path class="cls-2" d="M9.71,47.88a1.37,1.37,0,0,1,.42,1.24c-.14.77-.38,2-.38,2H9.51l0-1.41S9,50.91,8.69,51s-2.47.61-2.7.14,1-1,1-1A1.07,1.07,0,0,0,8.09,50,13,13,0,0,0,9.71,47.88Z"/><path class="cls-2" d="M15.91,41.73a5.1,5.1,0,0,1,1.79,3.4,5.23,5.23,0,0,0,.53,2.6l-.73,2.85-1.16.5.41-2.84s-2.49-4.3-3.16-5.71S15,39.79,15.91,41.73Z"/><path class="cls-2" d="M18.15,47.61a1.37,1.37,0,0,1,.83,1c.14.77.32,2,.32,2l-.23.08-.52-1.31s0,1.36-.26,1.56-2.1,1.43-2.47,1.07.54-1.26.54-1.26a1.08,1.08,0,0,0,1-.55A13.25,13.25,0,0,0,18.15,47.61Z"/><path class="cls-20" d="M20.46,24.84c-2.21-.13-4.49-.17-6,.54-4.26.68-10.22,2.59-9.45,8A73,73,0,0,0,6.64,48.55a4.35,4.35,0,0,0,4.06.5l.06-10.56,4.68,10.82c3.33.67,4.41-1.76,4.41-1.76s-2-7.29-4.71-14.84c2.7,0,5.24-.12,5.91-.08,3.69.22,4.79-.6,5-3.88S24.15,25.06,20.46,24.84Z"/><path class="cls-1" d="M22.55,8.73a1.08,1.08,0,1,0,2.07.55,1.08,1.08,0,1,0-2.07-.55Z"/><path class="cls-21" d="M18.44,6.66a4.12,4.12,0,0,1-1,.81l.43.69"/><path class="cls-10" d="M24,10.43a.87.87,0,1,1-.62-1.07A.88.88,0,0,1,24,10.43Z"/><path class="cls-15" d="M17.05,5.64c-.06.28,0,.54.18.58s.34-.17.4-.46,0-.55-.18-.58S17.11,5.35,17.05,5.64Z"/><path class="cls-15" d="M20,6.58c-.06.28,0,.54.18.58s.34-.17.4-.46,0-.55-.18-.58S20,6.29,20,6.58Z"/><path class="cls-16" d="M14.61,49.82h0Z"/><path class="cls-17" d="M26.6,20.15s.13-5.71-2.68-6.41l-.5-.16A6.36,6.36,0,0,1,19.22,15a4.3,4.3,0,0,1-3.45-1.95c-1.88.61-3,3-3,3l1.94,1.58c-1.37,3,.7,4,.7,4h.06a29.27,29.27,0,0,0-1.16,3.8c2.69,2.41,6,1.6,9.72.93l.11-5.93h-.18l.11-.64Z"/><path class="cls-1" d="M16.93,27.17c.33-.15,2.37-.31,2.75-.47.06.74-.32,1.24,0,1.83a12.34,12.34,0,0,1-2.6-.1,1.89,1.89,0,0,0-.11-.91C17.26,27.37,16.53,27.37,16.93,27.17Z"/><path class="cls-1" d="M18,28.5s-2.27.45-2.45.18,1-.38,1-.38-1.56.2-1.5,0,1-.37,1-.37-1.25,0-1.18-.18,1.28-.18,1.28-.18-2.73-.23.49-.52c0,0-1.59-1.22.53-.2C19.42,27.94,18,28.5,18,28.5Z"/><path class="cls-17" d="M26.73,17.07a5,5,0,0,0-3.15-3.55,4.76,4.76,0,0,1-.74.53l1,5.53-.53,4.58-5.34,2a6.83,6.83,0,0,0,.36,2.66s5.7-.42,7.37-1.26S27.71,20.56,26.73,17.07Z"/><path class="cls-18" d="M19.92,9.18l-3.21-.4S17,10.06,18,10.29A1.69,1.69,0,0,0,19.92,9.18Z"/><path class="cls-19" d="M18.5,9.41a1.7,1.7,0,0,0-1.2.48,2.55,2.55,0,0,1-.59-1.11l3.21.4a2.16,2.16,0,0,1-.28.49A2.09,2.09,0,0,0,18.5,9.41Z"/><path class="cls-2" d="M18,2.72a3.82,3.82,0,0,0,1.45,2.82,7,7,0,0,1-.11-2.91C19.57.79,18,2.72,18,2.72Z"/><path class="cls-2" d="M18.09,2.8a3.06,3.06,0,0,0,.53,2.35s-2.21-1.12-2-3S19.85-.61,21.78.43a5.73,5.73,0,0,1,2.71,2.65C24.65,3.78,18.09,2.8,18.09,2.8Z"/><path class="cls-2" d="M25.55,5C25.35,1.58,21.32.36,20,.81a1.54,1.54,0,0,0-1.13,1.62A3.55,3.55,0,0,0,21,6a3.23,3.23,0,0,1-.3-1.81A3.76,3.76,0,0,0,22,6.35a13.22,13.22,0,0,1,0-1.87,5.47,5.47,0,0,0,.7,2.79L23.23,6A12.52,12.52,0,0,0,23,8.86S25.69,7.38,25.55,5Z"/><path class="cls-2" d="M23.54,8a.71.71,0,0,1,.86.2,5.34,5.34,0,0,0,1.09-3c-.08-1.43-1.17,0-1.17,0Z"/><path class="cls-22" d="M18.57,4.58c-.51,0-.68.08-.86.06a1.51,1.51,0,0,1-.33-.09,2.57,2.57,0,0,1-.54-.23.87.87,0,0,1,1-.71A.81.81,0,0,1,18.57,4.58Z"/><path class="cls-22" d="M21.65,5.76c-.51-.09-.7-.06-.9-.12a1.32,1.32,0,0,1-.33-.15,3.42,3.42,0,0,1-.51-.33.92.92,0,0,1,1.14-.51A.84.84,0,0,1,21.65,5.76Z"/><path class="cls-17" d="M15.66,12.91s-2.79,1-5.47,5.2l-6.37.28a6.59,6.59,0,0,0-.28,2.06l9.1.06a26.14,26.14,0,0,0,3.58-3.74C17.76,14.68,15.66,12.91,15.66,12.91Z"/><path class="cls-23" d="M.84,20.29a.65.65,0,0,0,.14,0l-.19.25Z"/><path class="cls-24" d="M1,19.53c0,.09.07.11.15,0,0,.19.07.24.21.09-.07.17,0,.16.08.13L1,20.29a.65.65,0,0,1-.14,0Z"/><path class="cls-2" d="M1.12,19.55l0,0c0,.19.07.24.21.09-.07.17,0,.16.08.13L4,14.26l-.12,0-.2-.09-.12-.06L1,19.53C1,19.61,1.05,19.63,1.12,19.55Z"/><polygon class="cls-2" points="3.62 13.93 3.56 14.06 4 14.26 4.06 14.13 3.62 13.93"/><polygon class="cls-2" points="3.62 13.93 3.56 14.06 3.79 14.16 3.85 14.03 3.62 13.93"/><path class="cls-2" d="M1.2,19.68s.09,0,.16-.08c-.07.17,0,.16.08.13L4,14.26l-.12,0-.1-.05Z"/><polygon class="cls-2" points="4.07 14.14 4.37 13.49 4.25 13.43 4.05 13.34 3.93 13.29 3.62 13.94 4.07 14.14"/><polygon class="cls-2" points="4.07 14.14 4.37 13.49 4.25 13.43 4.16 13.39 3.85 14.04 4.07 14.14"/><path class="cls-1" d="M2.65,18.62c-.65-.11-2,.52-1.64.66a2,2,0,0,0,1.3.07C3.08,19.24,3.3,18.73,2.65,18.62Z"/><path class="cls-25" d="M8.4,30.12c.24-1.78,4.46-3.24,6.72-3.9a5.47,5.47,0,0,1-.86-.81c-4.25.7-10,2.64-9.26,8A73,73,0,0,0,6.64,48.55a4.35,4.35,0,0,0,4.06.5l.06-10.56S8.14,32,8.4,30.12Z"/></g></g></svg>