<svg xmlns="http://www.w3.org/2000/svg" viewBox="0 0 35.7 71.1"><defs><style>.cls-1{fill:#e5beb5;}.cls-2{fill:#ffebde;}.cls-3{fill:#c19891;opacity:0.6;}.cls-4{fill:#353030;}.cls-5{fill:#fff;}.cls-6{fill:#b57f74;opacity:0.4;}.cls-7{fill:#fba569;}.cls-8{fill:#8e7775;}.cls-9{fill:#594847;}.cls-10,.cls-15{fill:#172d3a;}.cls-11{fill:#141d1f;opacity:0.1;}.cls-12{fill:#ffeab6;}.cls-13{fill:#0c181e;}.cls-14{fill:#4b616b;}.cls-15{opacity:0.2;}.cls-16{fill:none;stroke:#fff;stroke-miterlimit:10;stroke-width:0.78px;}.cls-17{fill:#d8d8d8;}.cls-18{fill:#7a6a62;}</style></defs><title>Ativo 90</title><g id="Camada_2" data-name="Camada 2"><g id="Personagens"><polygon class="cls-1" points="20.83 9.74 21.17 15.06 21.64 17.75 19.67 18.42 17.38 19.25 17.43 15.3 17.33 11.27 20.83 9.74"/><polygon class="cls-2" points="3.9 32.12 3.01 33.39 5.3 34.91 5.97 33.42 3.9 32.12"/><polygon class="cls-3" points="18.12 18.98 18.03 15.27 21.1 13.93 20.83 9.74 17.33 11.27 17.43 15.3 17.38 19.25 18.12 18.98"/><path class="cls-1" d="M18.81,2.21c2.73.44,2.78,2.28,2.78,2.28a16.63,16.63,0,0,1,.3,2.77A.86.86,0,0,1,23,6.89c.94.33.46,3.25-.95,3.09a7.2,7.2,0,0,1-.36,2c-.33.84-1.88,1.86-3.39,2.16a3.72,3.72,0,0,1-4-2.77,74.27,74.27,0,0,1-.32-7.81S14.3,1.49,18.81,2.21Z"/><path class="cls-4" d="M19.9,3.65c.72,0,1.84-.38,2.56-.45,0-.07.05.54.05.54a29.92,29.92,0,0,0,.1,3.15c-.72.09-.67.67-.67.67V8.87l-.72,0L21,6.08a1.41,1.41,0,0,1-.7-.65S20,4.13,19.9,3.65Z"/><path class="cls-4" d="M19.92,5.74A6.2,6.2,0,0,1,18.59,6c-.16,0-.31,0-.51,0s-.43,0-.8-.1A1.08,1.08,0,0,1,17.7,5a1.42,1.42,0,0,1,.88-.32,1.47,1.47,0,0,1,.87.29A1.17,1.17,0,0,1,19.92,5.74Z"/><path class="cls-4" d="M16.22,6.09c-.63.11-.89.18-1,.21l-.32,0h-.72a.91.91,0,0,1,.14-.84A1.06,1.06,0,0,1,15.08,5a1.09,1.09,0,0,1,.84.28A1,1,0,0,1,16.22,6.09Z"/><path class="cls-5" d="M19.23,10.89l-3.44.4A5.39,5.39,0,0,0,19.23,10.89Z"/><path class="cls-4" d="M22.51,3.74s.23-2.35-1.74-2A5.42,5.42,0,0,0,16.31,0l1.24.57s-1.7-.94-4.4.28a1.57,1.57,0,0,0,1.4,1,8,8,0,0,1-2.13-.21s.21,1.81,1.2,2.16,5-1.69,6.45,0,2.19-.37,2.19-.37"/><polygon class="cls-6" points="17.27 9.97 16.67 6.93 15.97 9.88 17.27 9.97"/><polygon class="cls-7" points="20.12 64.81 20.68 69.07 19.05 69.64 18.21 65.08 20.12 64.81"/><path class="cls-8" d="M18.08,67.16a5.55,5.55,0,0,1-2.44,1.69c-1.49.46-2.83,1-2.7,1.88a8.52,8.52,0,0,0,5.83-.24v.36l2.37-.14-.06-3-2,.17.14-.3Z"/><path class="cls-9" d="M17.2,70.57c-3.22.85-4.06,0-4.25-.06a.54.54,0,0,0,0,.22,8.52,8.52,0,0,0,5.83-.24v.36l2.37-.14v-.6A12.69,12.69,0,0,0,17.2,70.57Z"/><path class="cls-8" d="M30.6,67.07A5.51,5.51,0,0,0,33,68.8c1.48.48,2.81,1.07,2.67,1.92a8.58,8.58,0,0,1-5.83-.33l0,.37-2.36-.19.11-3,2,.21-.13-.3Z"/><path class="cls-9" d="M31.43,70.49c3.2.91,4,.06,4.25,0a.81.81,0,0,1,0,.22,8.58,8.58,0,0,1-5.83-.33l0,.37-2.36-.19,0-.59A12,12,0,0,1,31.43,70.49Z"/><path class="cls-10" d="M14.11,31s-2.52,17.82,3.36,35.4a2.92,2.92,0,0,0,3.38-.09s-2.07-16.91-1.42-26.91l1.26.2s3.15,8.66,3.49,11,2.43,15.19,2.93,16.25c0,0,2.59.69,3.32-.69,0,0-.65-9.89-.89-14.07C29.36,49,25.12,31.8,25.12,31.8Z"/><path class="cls-2" d="M23.91,16.57a2,2,0,0,1,0-.84c-2.11-.2-4.24-.3-4.24-.3l-.3,1.43-.48-1.38a27.2,27.2,0,0,0-4.9.94c1.1,1.92,2.38,4.57,4.21,5.75C21,21.72,24.35,19.5,23.91,16.57Z"/><polygon class="cls-2" points="22.58 15.58 20.8 17.42 19.7 15.43 21.65 14.32 22.58 15.58"/><polygon class="cls-2" points="16.06 15.89 17.59 17.47 18.92 15.47 16.82 14.65 16.06 15.89"/><polygon class="cls-11" points="22.58 15.58 20.8 17.42 19.7 15.43 21.65 14.32 22.58 15.58"/><polygon class="cls-11" points="16.06 15.89 17.59 17.47 18.92 15.47 16.82 14.65 16.06 15.89"/><path class="cls-12" d="M27.17,16.2s4.13,8.08,5.15,11.42A5.12,5.12,0,0,1,29.19,29L25.5,21.59Z"/><path class="cls-13" d="M15.33,7.58c.05.3-.1.18-.26.2s-.29.19-.33-.11.07-.37.23-.4S15.29,7.29,15.33,7.58Z"/><path class="cls-13" d="M18.67,7.2c0,.3-.13.22-.3.25s-.25.14-.3-.16.08-.33.25-.36S18.62,6.91,18.67,7.2Z"/><path class="cls-14" d="M15.4,16s1,2.67,3.62,2.57,3.56-3,3.56-3a18.8,18.8,0,0,1,4.59.62c1.29.54,5.48,10.17,5.29,12.07s-8.1.59-8.1.59l-1-2.07L28,26.65l-1.52-2.48-.51,10s-3.56,2.58-12.52.57l-.6-10.22-7.24,10L3.14,32.81S10.4,18.88,11.88,17.5A6.37,6.37,0,0,1,15.4,16Z"/><path class="cls-15" d="M26.2,29.28s-2.82-.42-4-.75a70.84,70.84,0,0,1-9.3-3.19l.55,9.44c9,2,12.52-.57,12.52-.57l.15-3Z"/><path class="cls-1" d="M3.16,33.51l-.64.89s-1.57.06-1.8.35-1.56,5.1.12,1.16c0,0-.64,3.88.69.17,0,0,.12,3.31.7-.06,0,0,.52,3.54.75,0a5.76,5.76,0,0,0,1.1-.11c.47-.12.89-1.23.89-1.23Z"/><path class="cls-14" d="M30.29,21.6c-1.22,1-2.45,1.9-3.63,2.9L28,26.65l-5.06.06,1,2.07s8.39,1.4,8.58-.51c.1-1-.94-3.93-2.15-6.69Z"/><path class="cls-16" d="M17.6,27.62A.72.72,0,1,0,19,27.48a.72.72,0,1,0-1.44.14Z"/><path class="cls-17" d="M18.27,26.21c0,.44-1.08.9-2.51,1s-2.63-.11-2.67-.55,1.08-.91,2.51-1.05S18.23,25.77,18.27,26.21Z"/><path class="cls-18" d="M17.68,27.25c0,.44-.8.88-1.87,1s-2-.17-2-.61.8-.88,1.87-1S17.64,26.81,17.68,27.25Z"/><path class="cls-5" d="M15.76,27.25c-1.35.13-2.49-.09-2.65-.48l0,0A2.88,2.88,0,0,0,16,29.57a2.87,2.87,0,0,0,2.31-3.26C18.14,26.72,17.08,27.12,15.76,27.25Z"/><path class="cls-1" d="M21,26.67a2.36,2.36,0,0,0-1.16-.41s-1.76.24-1.64.5,1.21,0,1.21,0-1.32.32-1,.66a1,1,0,0,0,.27.61s0,.55.42.65c0,0,.32.77,1,.54A12.77,12.77,0,0,1,22.77,29l-.71-2.27Z"/><path class="cls-2" d="M24.16,26.78l-2.1-.17L22.3,29a1.58,1.58,0,0,1,.64-.05c1,.1,2.67-1.05,3.13-1.15C25.64,27,24.5,27.67,24.16,26.78Z"/><path class="cls-14" d="M30.29,21.6c-1.22,1-2.45,1.9-3.63,2.9L28,26.65l-5.33-.1V29s9.62,1.19,9.81-.72c.1-1-.94-3.93-2.15-6.69Z"/></g></g></svg>