<svg xmlns="http://www.w3.org/2000/svg" xmlns:xlink="http://www.w3.org/1999/xlink" viewBox="0 0 44.13 47.64"><defs><style>.cls-1{fill:#2b3336;}.cls-2{fill:#1e2022;}.cls-3{fill:#040f2d;}.cls-4{fill:#022540;}.cls-5{isolation:isolate;}.cls-6{clip-path:url(#clip-path);}.cls-7{clip-path:url(#clip-path-2);}.cls-8{fill:#353f43;}.cls-9{clip-path:url(#clip-path-3);}.cls-10{clip-path:url(#clip-path-4);}.cls-11{clip-path:url(#clip-path-5);}.cls-12{clip-path:url(#clip-path-6);}.cls-13{clip-path:url(#clip-path-7);}.cls-14{clip-path:url(#clip-path-8);}.cls-15{fill:#2b2e31;}.cls-16{fill:#303437;}.cls-17{fill:#455257;}.cls-18{fill:#242629;}.cls-19{fill:#224e5d;}.cls-20{fill:#638a28;}.cls-21{fill:#a1b400;}.cls-22{fill:#293033;}.cls-23{fill:#1c2326;}.cls-24{fill:#e5bd99;}.cls-25{fill:#e9c2b0;}.cls-26{fill:#f4aa35;}.cls-27{fill:#358683;}.cls-28{fill:#b3d246;}.cls-29{fill:#f9cfb3;}.cls-30{fill:#430202;}.cls-31{fill:#ffd32b;}</style><clipPath id="clip-path"><path id="SVGID" class="cls-1" d="M23.25,44.62l.75.19a.55.55,0,0,0-.42.1l-.75-.2A.59.59,0,0,1,23.25,44.62Z"/></clipPath><clipPath id="clip-path-2"><path id="SVGID-2" data-name="SVGID" class="cls-1" d="M23.23,46l-.75-.2a.24.24,0,0,1-.19-.24,1.05,1.05,0,0,1,.54-.84l.75.2a1,1,0,0,0-.54.83A.25.25,0,0,0,23.23,46Z"/></clipPath><clipPath id="clip-path-3"><path id="SVGID-3" data-name="SVGID" class="cls-1" d="M12.23,42l.75.2a.55.55,0,0,0-.42.1l-.75-.2A.55.55,0,0,1,12.23,42Z"/></clipPath><clipPath id="clip-path-4"><path id="SVGID-4" data-name="SVGID" class="cls-1" d="M12.21,43.35l-.75-.2a.25.25,0,0,1-.19-.25,1,1,0,0,1,.54-.83l.75.2a1,1,0,0,0-.54.83A.26.26,0,0,0,12.21,43.35Z"/></clipPath><clipPath id="clip-path-5"><path id="SVGID-5" data-name="SVGID" class="cls-1" d="M12.41,46.24l-.7.42a.53.53,0,0,1,.42,0l.71-.42A.61.61,0,0,0,12.41,46.24Z"/></clipPath><clipPath id="clip-path-6"><path id="SVGID-6" data-name="SVGID" class="cls-1" d="M12.62,47.58l.71-.42a.31.31,0,0,0,.15-.3.83.83,0,0,0-.64-.66l-.71.42a.86.86,0,0,1,.65.66A.3.3,0,0,1,12.62,47.58Z"/></clipPath><clipPath id="clip-path-7"><path id="SVGID-7" data-name="SVGID" class="cls-1" d="M22.9,40.31l-.71.42a.61.61,0,0,1,.43,0l.71-.42A.61.61,0,0,0,22.9,40.31Z"/></clipPath><clipPath id="clip-path-8"><path id="SVGID-8" data-name="SVGID" class="cls-1" d="M23.11,41.65l.71-.42a.31.31,0,0,0,.15-.3.83.83,0,0,0-.64-.66l-.71.42a.83.83,0,0,1,.64.66A.31.31,0,0,1,23.11,41.65Z"/></clipPath></defs><title>Ativo 83</title><g id="Camada_2" data-name="Camada 2"><g id="Personagens"><path class="cls-2" d="M22.79,36.35l0-.34-1.95.29v0l-.36.52.26.69a5,5,0,0,0,1.37.32l.1,0,1.65-1-.08-.13c.34-.13.68-.28,1-.44h0l.47-.21.08,0Z"/><path class="cls-2" d="M20.57,34.76s-.62,2,.24,2.48A4.48,4.48,0,0,0,23.16,37c.73-.23,1.51-.68,2.24-.87a7.6,7.6,0,0,0,4.21-2.6c1.78-2.14-1.65-1.06-3.88-.13A26.09,26.09,0,0,1,20.57,34.76Z"/><path class="cls-3" d="M20.45,35.41a3.82,3.82,0,0,0,2.3.42,10.34,10.34,0,0,0,2.73-1.29,6.41,6.41,0,0,0,.78-.61L20.39,22.69c-.07-3-5.21-1.9-7-1.76s-1.54.55-1.44,1.91Z"/><path class="cls-2" d="M28.05,37.77s-.6,1.87.22,2.37a4.32,4.32,0,0,0,2.23-.28c.7-.22,1.44-.65,2.13-.83A5.13,5.13,0,0,0,36,36.82c1.69-2-1.57-1-3.68-.12A15.28,15.28,0,0,1,28.05,37.77Z"/><path class="cls-4" d="M27.83,38.4a3.7,3.7,0,0,0,2.28.39A4.51,4.51,0,0,0,33.45,37l-1-12.69c-.07-2.81-2.65-2.41-4.3-2.28s-1.47.53-1.37,1.82Z"/><path class="cls-2" d="M30.26,39.27l0-.34-1.94.29v0l-.35.52.25.69a5.12,5.12,0,0,0,1.37.32l.11,0,1.65-1-.09-.13,1-.44h0l.47-.21.07,0Z"/><g class="cls-5"><path id="SVGID-9" data-name="SVGID" class="cls-1" d="M23.25,44.62l.75.19a.55.55,0,0,0-.42.1l-.75-.2A.59.59,0,0,1,23.25,44.62Z"/><g class="cls-6"><g class="cls-5"><path class="cls-1" d="M23.58,44.91l-.75-.2.17-.08.76.2a.71.71,0,0,0-.18.08Z"/><path class="cls-1" d="M23.76,44.83l-.76-.2a.69.69,0,0,1,.24,0l.75.2a.46.46,0,0,0-.23,0Z"/><path class="cls-1" d="M24,44.81l-.75-.2h0l.75.19Z"/></g></g><path id="SVGID-10" data-name="SVGID" class="cls-1" d="M23.23,46l-.75-.2a.24.24,0,0,1-.19-.24,1.05,1.05,0,0,1,.54-.84l.75.2a1,1,0,0,0-.54.83A.25.25,0,0,0,23.23,46Z"/><g class="cls-7"><g class="cls-5"><path class="cls-1" d="M23.23,46l-.75-.2a.24.24,0,0,1-.19-.24.66.66,0,0,1,.08-.35l.75.2a.65.65,0,0,0-.08.34.25.25,0,0,0,.19.25Z"/><path class="cls-1" d="M23.12,45.4l-.75-.2a1.1,1.1,0,0,1,.18-.26l.75.2a1.51,1.51,0,0,0-.18.26Z"/><path class="cls-1" d="M23.3,45.14l-.75-.2a1,1,0,0,1,.28-.23l.75.2a1.23,1.23,0,0,0-.28.23Z"/></g></g><path class="cls-8" d="M23.58,44.91c.32-.19.59-.12.61.15a1.05,1.05,0,0,1-.54.84c-.32.19-.59.11-.61-.16A1,1,0,0,1,23.58,44.91Z"/></g><g class="cls-5"><path id="SVGID-11" data-name="SVGID" class="cls-1" d="M12.23,42l.75.2a.55.55,0,0,0-.42.1l-.75-.2A.55.55,0,0,1,12.23,42Z"/><g class="cls-9"><g class="cls-5"><path class="cls-1" d="M12.56,42.27l-.75-.2A.71.71,0,0,1,12,42l.75.19a.76.76,0,0,0-.18.09Z"/><path class="cls-1" d="M12.74,42.18,12,42a.46.46,0,0,1,.23,0l.75.2a.45.45,0,0,0-.23,0Z"/><path class="cls-1" d="M13,42.17l-.75-.2h0l.75.2Z"/></g></g><path id="SVGID-12" data-name="SVGID" class="cls-1" d="M12.21,43.35l-.75-.2a.25.25,0,0,1-.19-.25,1,1,0,0,1,.54-.83l.75.2a1,1,0,0,0-.54.83A.26.26,0,0,0,12.21,43.35Z"/><g class="cls-10"><g class="cls-5"><path class="cls-1" d="M12.21,43.35l-.75-.2a.25.25,0,0,1-.19-.25.65.65,0,0,1,.08-.34l.75.2a.61.61,0,0,0-.08.34.26.26,0,0,0,.19.25Z"/><path class="cls-1" d="M12.1,42.76l-.75-.2a1.1,1.1,0,0,1,.18-.26l.75.19a1.27,1.27,0,0,0-.18.27Z"/><path class="cls-1" d="M12.28,42.49l-.75-.19a1.23,1.23,0,0,1,.28-.23l.75.2a1,1,0,0,0-.28.22Z"/></g></g><path class="cls-8" d="M12.56,42.27c.32-.19.59-.12.61.15a1,1,0,0,1-.54.83c-.32.19-.59.12-.61-.15A1,1,0,0,1,12.56,42.27Z"/></g><g class="cls-5"><path id="SVGID-13" data-name="SVGID" class="cls-1" d="M12.41,46.24l-.7.42a.53.53,0,0,1,.42,0l.71-.42A.61.61,0,0,0,12.41,46.24Z"/><g class="cls-11"><g class="cls-5"><path class="cls-1" d="M12.13,46.62l.71-.42-.19,0-.7.42.18,0Z"/><path class="cls-1" d="M12,46.6l.7-.42a.59.59,0,0,0-.23,0l-.7.42a.52.52,0,0,1,.23,0Z"/><polygon class="cls-1" points="11.72 46.65 12.42 46.23 12.41 46.24 11.71 46.66 11.72 46.65 11.72 46.65"/></g></g><path id="SVGID-14" data-name="SVGID" class="cls-1" d="M12.62,47.58l.71-.42a.31.31,0,0,0,.15-.3.83.83,0,0,0-.64-.66l-.71.42a.86.86,0,0,1,.65.66A.3.3,0,0,1,12.62,47.58Z"/><g class="cls-12"><g class="cls-5"><path class="cls-1" d="M12.62,47.58l.71-.42a.31.31,0,0,0,.15-.3.52.52,0,0,0-.12-.31l-.71.42a.61.61,0,0,1,.13.31.3.3,0,0,1-.16.3Z"/><path class="cls-1" d="M12.65,47l.71-.42a.88.88,0,0,0-.22-.21l-.71.42a.88.88,0,0,1,.22.21Z"/><path class="cls-1" d="M12.43,46.76l.71-.42a1,1,0,0,0-.3-.14l-.71.42a1,1,0,0,1,.3.14Z"/></g></g><path class="cls-8" d="M12.13,46.62c-.34-.09-.6.06-.58.34a.86.86,0,0,0,.65.65c.33.09.59-.06.58-.33A.86.86,0,0,0,12.13,46.62Z"/></g><g class="cls-5"><path id="SVGID-15" data-name="SVGID" class="cls-1" d="M22.9,40.31l-.71.42a.61.61,0,0,1,.43,0l.71-.42A.61.61,0,0,0,22.9,40.31Z"/><g class="cls-13"><g class="cls-5"><path class="cls-1" d="M22.62,40.69l.71-.42-.19,0-.71.42.19,0Z"/><path class="cls-1" d="M22.43,40.67l.71-.42a.56.56,0,0,0-.23,0l-.71.42a.59.59,0,0,1,.23,0Z"/><path class="cls-1" d="M22.2,40.72l.71-.42h0l-.71.42Z"/></g></g><path id="SVGID-16" data-name="SVGID" class="cls-1" d="M23.11,41.65l.71-.42a.31.31,0,0,0,.15-.3.83.83,0,0,0-.64-.66l-.71.42a.83.83,0,0,1,.64.66A.31.31,0,0,1,23.11,41.65Z"/><g class="cls-14"><g class="cls-5"><path class="cls-1" d="M23.11,41.65l.71-.42a.31.31,0,0,0,.15-.3.5.5,0,0,0-.13-.31l-.7.42a.52.52,0,0,1,.12.31.31.31,0,0,1-.15.3Z"/><path class="cls-1" d="M23.14,41l.7-.42a.84.84,0,0,0-.21-.21l-.71.42a.88.88,0,0,1,.22.21Z"/><path class="cls-1" d="M22.92,40.83l.71-.42a1,1,0,0,0-.3-.14l-.71.42a1,1,0,0,1,.3.14Z"/></g></g><path class="cls-8" d="M22.62,40.69c-.34-.08-.6.07-.58.34a.84.84,0,0,0,.65.65c.33.09.59-.06.57-.33A.83.83,0,0,0,22.62,40.69Z"/></g><g class="cls-5"><polygon class="cls-15" points="11.2 41.43 11.28 42.61 16.06 43.86 15.97 42.68 11.2 41.43"/><polygon class="cls-2" points="15.97 42.68 16.06 43.86 17.7 42.9 17.61 41.72 15.97 42.68"/><polygon class="cls-16" points="12.83 40.47 11.2 41.43 15.97 42.68 17.61 41.72 12.83 40.47"/></g><g class="cls-5"><polygon class="cls-2" points="19.33 42.17 19.42 43.35 23.95 40.68 23.87 39.5 19.33 42.17"/><polygon class="cls-2" points="17.7 43.13 17.79 44.3 19.42 43.35 19.33 42.17 17.7 43.13"/><polygon class="cls-2" points="13.16 45.79 13.25 46.97 17.79 44.3 17.7 43.13 13.16 45.79"/><polygon class="cls-15" points="17.7 43.13 17.79 44.3 22.57 45.56 22.48 44.37 17.7 43.13"/><polygon class="cls-16" points="11.44 45.34 13.16 45.79 17.7 43.13 19.33 42.17 23.87 39.5 22.15 39.05 17.61 41.72 15.97 42.68 11.44 45.34"/><polygon class="cls-15" points="11.44 45.34 11.53 46.52 13.25 46.97 13.16 45.79 11.44 45.34"/><polygon class="cls-2" points="22.48 44.37 22.57 45.56 24.2 44.59 24.11 43.41 22.48 44.37"/><polygon class="cls-16" points="24.11 43.41 19.33 42.17 17.7 43.13 22.48 44.37 24.11 43.41"/></g><g class="cls-5"><polygon class="cls-17" points="16.75 29.49 17.73 43.12 15.79 42.62 14.86 29.77 16.75 29.49"/><polygon class="cls-18" points="18.36 29.24 19.3 42.2 17.73 43.12 16.75 29.49 18.36 29.24"/></g><g class="cls-5"><path class="cls-19" d="M6.38,28.8c-2.84,1.67-2.71,3.65.28,4.43l4.79,1.26A16,16,0,0,0,22,32.88l4.55-2.67c2.84-1.67,2.72-3.66-.27-4.44l-4.8-1.25a16,16,0,0,0-10.56,1.61Z"/></g><g class="cls-5"><path class="cls-20" d="M4.52,31a3.66,3.66,0,0,0,2.06,1.16l4.8,1.25a13.82,13.82,0,0,0,5.47.09,14.7,14.7,0,0,0,5.08-1.7l4.55-2.67c1.43-.84,2.11-1.76,2.05-2.57l.1,1.36c.06.81-.62,1.73-2.05,2.57L22,33.12A14.92,14.92,0,0,1,17,34.82a14,14,0,0,1-5.47-.09l-4.8-1.25a3.6,3.6,0,0,1-2.06-1.17,1.37,1.37,0,0,1-.26-.7l-.1-1.36A1.29,1.29,0,0,0,4.52,31Z"/><path class="cls-21" d="M6.3,27.68c-2.84,1.67-2.71,3.66.28,4.44l4.8,1.25a16,16,0,0,0,10.55-1.61l4.55-2.67c2.84-1.67,2.72-3.65-.27-4.43l-4.8-1.26A16,16,0,0,0,10.85,25Z"/></g><path class="cls-22" d="M4.6,32.07a3.55,3.55,0,0,0,2.06,1.16l4.79,1.26a14,14,0,0,0,5.47.09A15.12,15.12,0,0,0,22,32.88l4.55-2.67c1.43-.84,2.11-1.76,2.05-2.57l.1,1.36c.06.8-.62,1.72-2.05,2.56l-4.55,2.68A15.12,15.12,0,0,1,17,35.94a14,14,0,0,1-5.47-.1L6.76,34.59A3.6,3.6,0,0,1,4.7,33.43a1.29,1.29,0,0,1-.26-.71l-.1-1.36A1.29,1.29,0,0,0,4.6,32.07Z"/><path class="cls-23" d="M25.57,21.06a8.42,8.42,0,0,0-5.56.86L8.43,27.78a49,49,0,0,1,6.79,1.9L25.75,23.4C27.23,22.51,27.15,21.47,25.57,21.06Z"/><path class="cls-4" d="M8.88,28.85a5.22,5.22,0,0,1,3.52-1.21.73.73,0,0,1,.39-.06l.63.07.44,0h0l1.7.18,9.78-4.94a8.39,8.39,0,0,1,5.55-.86c1.59.4,1.67,1.45.18,2.34,0,0-10.57,6.27-10.59,6.26A13.22,13.22,0,0,1,16.65,32a15,15,0,0,1-6.27-.17C8.86,31.4,7.73,30.17,8.88,28.85Z"/><path class="cls-24" d="M13.23,14.2c-.3-1,.63-2.17,2.07-2.55l8.43-1.36a11,11,0,0,1,1.74-1,7.49,7.49,0,0,1,3.61-.55C31.27,9,31.3,10,30.7,10.68c-.89,1.05-6.39,1.63-6.39,1.63l-7.92,3.06C15,15.75,13.54,15.23,13.23,14.2Z"/><path class="cls-25" d="M23.15,13.46a.67.67,0,0,0-.75.08h0c-.21.18-.21.42,0,.55l2.05,1.28a.67.67,0,0,0,.75-.09h0c.21-.18.21-.42,0-.55Z"/><path class="cls-25" d="M11.39,12.84c.06,1,4.82-.54,4.82-.54L16,8.75l-4.8.42Z"/><path class="cls-26" d="M9.83,30.57c3.65.8,8.39.61,11.67-1.57a9.61,9.61,0,0,0,1.92-1.7L23,16.9c-.3-1.71-.41-3.3-1.3-4.21-1.74-1.76-4.7-1.92-5.64-2,0,0,.14,1.13-3.05,1.39-1.87.15-1.77-1.22-1.77-1.22C7.2,10.89,6.53,15,6.5,16.29c-.07,2.48.08,7.73.44,11.8A4.3,4.3,0,0,0,9.83,30.57Z"/><g class="cls-5"><polygon class="cls-22" points="9.24 35.83 10.02 35.37 9.1 21.45 8.31 21.91 9.24 35.83"/><polygon class="cls-16" points="8.31 21.91 9.1 21.45 6.96 20.89 6.18 21.36 8.31 21.91"/><polygon class="cls-17" points="6.18 21.36 7.1 35.28 9.24 35.83 8.31 21.91 6.18 21.36"/></g><g class="cls-5"><path class="cls-27" d="M1.85,12.86l1.36-.81-.1.06-1.37.81.11-.06Z"/><path class="cls-20" d="M3.21,12.05a5.53,5.53,0,0,1,2.63-.59,8.87,8.87,0,0,1,2.21.3,11.64,11.64,0,0,1,3.61,1.66,9.91,9.91,0,0,1,2.25,2.1,5,5,0,0,1,1,2.06l1.33,7.28a2.2,2.2,0,0,1-1.07,2.43l-1.37.81a2.19,2.19,0,0,0,1.07-2.43l-1.33-7.29a4.94,4.94,0,0,0-1-2.05,9.84,9.84,0,0,0-2.24-2.1,11.62,11.62,0,0,0-3.61-1.66,9,9,0,0,0-2.22-.3,5.48,5.48,0,0,0-2.62.59Z"/><path class="cls-28" d="M6.69,12.57C3.35,11.7.52,12.79.39,15L0,21.83C-.12,24,2.54,26.54,5.92,27.41l3.56.92c3.38.87,5.8-.33,5.37-2.66l-1.33-7.29C13.1,16,10,13.43,6.69,12.57Z"/></g><path class="cls-29" d="M9.57,9.21a7.45,7.45,0,0,0,4.9.34h0a6.74,6.74,0,0,0,1.07-.15l1.63-.53a1.82,1.82,0,0,0,.43-.19,2,2,0,0,0,.63-.8.43.43,0,0,0,0-.07.52.52,0,0,0,.06-.16c0-.21-.25-.22-.19-.44s.15-.22.2-.33a.36.36,0,0,0-.05-.37.52.52,0,0,0,.24-.36.94.94,0,0,1,0-.37,1.88,1.88,0,0,1,.5-.57c.08-.08.11-.17.07-.23a1.15,1.15,0,0,0-.47-.43c-.17-.09-.38-.17-.37-.42a3.36,3.36,0,0,1,.13-.5.78.78,0,0,0-.08-.49L18.25,3l-.06-.12a4.54,4.54,0,0,1-.11-.66v0s0-.08,0-.13a3.79,3.79,0,0,0-.18-.42,2.49,2.49,0,0,0-.29-.43A1.53,1.53,0,0,0,17.39,1,1.91,1.91,0,0,0,17,.65a1.49,1.49,0,0,0-.24-.14A4.34,4.34,0,0,0,15.12,0a6,6,0,0,0-1,0h0a10.24,10.24,0,0,0-4,1C8.49,1.87,7,3.42,6.81,4.68,6.48,6.66,8.26,8.39,9.57,9.21Z"/><path class="cls-30" d="M9.57,9.21a7.45,7.45,0,0,0,4.9.34h0l0,0s0,0,0,0,0,0,0,0l0,0c0-.08-.16-.22-.28-.37l-.19-.26L14,8.62l0-.06v0s-.73-.08-.84-.71a1.27,1.27,0,0,1,.12-1,1.31,1.31,0,0,1,.86-.57.56.56,0,0,1,.56.32v0a2.06,2.06,0,0,1,.15.73s.28,0,.44-.11,0-.3.06-.45a3,3,0,0,0-.41-1.36.93.93,0,0,1-.08-.22c-.49-.6-.61-1.32.39-2a3.85,3.85,0,0,1,3.1,0l.06,0L18.25,3l-.06-.12a4.54,4.54,0,0,1-.11-.66v0s0-.08,0-.13a3.79,3.79,0,0,0-.18-.42,2.49,2.49,0,0,0-.29-.43h0A1.45,1.45,0,0,0,17.39,1,1.91,1.91,0,0,0,17,.65a1.49,1.49,0,0,0-.24-.14A4.34,4.34,0,0,0,15.12,0a6,6,0,0,0-1,0h0a10.24,10.24,0,0,0-4,1C8.49,1.87,7,3.42,6.81,4.68,6.48,6.66,8.26,8.39,9.57,9.21Z"/><path class="cls-24" d="M26.33,20.75c-.3-1,.62-2.17,2.06-2.56l8.43-1.36a10.2,10.2,0,0,1,1.75-1,7.46,7.46,0,0,1,3.61-.55c2.19.26,2.21,1.26,1.62,2-.89,1.05-6.39,1.63-6.39,1.63l-7.93,3.06C28.05,22.3,26.63,21.78,26.33,20.75Z"/><path class="cls-24" d="M24.24,15.58l.62.29,5.57,2.62a1.52,1.52,0,0,1,.46,2.57l0,0a3.39,3.39,0,0,1-3.61.71L21.71,19.2,21,18.89a7.15,7.15,0,0,1,1.31-1.76A8.48,8.48,0,0,1,24.24,15.58Z"/><path class="cls-31" d="M21.71,19.93l-5-4.26c-1.18-.8-1.09-2.27.18-3.28A4,4,0,0,1,21.31,12l5.33,4Z"/></g></g></svg>