<svg xmlns="http://www.w3.org/2000/svg" xmlns:xlink="http://www.w3.org/1999/xlink" viewBox="0 0 37.36 40.27"><defs><style>.cls-1{isolation:isolate;}.cls-2{fill:url(#linear-gradient);}.cls-3{fill:url(#linear-gradient-2);}.cls-4{fill:url(#linear-gradient-3);}.cls-5{fill:#fff;}.cls-6{fill:url(#linear-gradient-4);}.cls-7{fill:url(#linear-gradient-5);}.cls-8{fill:#0cc9f0;}.cls-9{fill:#ffccbc;}.cls-10{fill:#8cf1f4;mix-blend-mode:multiply;}.cls-11{fill:#253137;}.cls-12{fill:#f2b09e;}.cls-13{fill:#38201c;}</style><linearGradient id="linear-gradient" x1="-359.69" y1="189.94" x2="-359.46" y2="189.94" gradientTransform="matrix(-1.11, 0.27, 0, 0.9, -384.91, -68.19)" gradientUnits="userSpaceOnUse"><stop offset="0" stop-color="#393a3a"/><stop offset="0.28" stop-color="#242527"/><stop offset="0.35" stop-color="#27282a"/><stop offset="1" stop-color="#3e3e3f"/></linearGradient><linearGradient id="linear-gradient-2" x1="-359.69" y1="188.04" x2="-359.46" y2="188.04" xlink:href="#linear-gradient"/><linearGradient id="linear-gradient-3" x1="-359.69" y1="186.16" x2="-359.46" y2="186.16" gradientTransform="matrix(-1.11, 0.27, 0, 0.9, -384.91, -68.19)" gradientUnits="userSpaceOnUse"><stop offset="0" stop-color="#313233"/><stop offset="0.02" stop-color="#2f3031"/><stop offset="0.3" stop-color="#202123"/><stop offset="1" stop-color="#333435"/></linearGradient><linearGradient id="linear-gradient-4" x1="-359.68" y1="186.14" x2="-359.46" y2="186.14" gradientTransform="matrix(-1.11, 0.27, 0, 0.9, -384.91, -68.19)" gradientUnits="userSpaceOnUse"><stop offset="0" stop-color="#262627"/><stop offset="1" stop-color="#3e3e3f"/></linearGradient><linearGradient id="linear-gradient-5" x1="-359.68" y1="186.13" x2="-359.47" y2="186.13" gradientTransform="matrix(-1.11, 0.27, 0, 0.9, -384.91, -68.19)" gradientUnits="userSpaceOnUse"><stop offset="0" stop-color="#3e3e3f"/><stop offset="1" stop-color="#262627"/></linearGradient></defs><title>Ativo 115</title><g class="cls-1"><g id="Camada_2" data-name="Camada 2"><g id="Camada_1-2" data-name="Camada 1"><path class="cls-2" d="M13.08,5l.09,0h.08s0,0,0,0,0,0,0,0a.2.2,0,0,1-.08,0h-.09s0,0,0,0S13.06,5.06,13.08,5Z"/><polygon class="cls-3" points="13.29 5.04 13.04 5.1 13.05 1.66 13.3 1.6 13.29 5.04"/><path class="cls-4" d="M13.09,1.63a.19.19,0,0,1,.09,0,.11.11,0,0,1,.08,0h0v0a.07.07,0,0,1,0,.06.19.19,0,0,1-.08,0h-.09s0,0,0,0v0h0Z"/><path class="cls-5" d="M13.09,1.61a.19.19,0,0,1,.09,0,.11.11,0,0,1,.08,0s0,0,0,0a.07.07,0,0,1,0,.06.19.19,0,0,1-.08,0h-.09s0,0,0,0S13.07,1.63,13.09,1.61Z"/><path class="cls-6" d="M13.09,1.61a.25.25,0,0,1,.09,0,.11.11,0,0,1,.08,0s0,0,0,0a.07.07,0,0,1,0,0,.2.2,0,0,1-.08,0h-.09s0,0,0,0S13.07,1.63,13.09,1.61Z"/><path class="cls-7" d="M13.1,1.61a.23.23,0,0,1,.16,0s0,.05,0,.08a.25.25,0,0,1-.16,0S13.05,1.65,13.1,1.61Z"/><path class="cls-8" d="M1.21,20.52,3.1,16c1.45-1.26,2-.07,2.1-.06,1.84.45,1.6,2.39,1.24,4.51a16.59,16.59,0,0,0-.37,3.29c.09-.08.79-.61,1.76-1.31,2.39-1.72,6.39-4.42,7-3.72a2.23,2.23,0,0,1,.41.38,1,1,0,0,1,.3.86c-.12.38-.2.71-.27,1A6.89,6.89,0,0,0,15.08,22c-1.66,1.17-4.21,3.15-6.91,4.87a23.93,23.93,0,0,1-6.24,3l-.69.15C-.64,29.16-.16,27.25,1.21,20.52Z"/><path class="cls-9" d="M12.6,15.59l.09-.19c.14-.25.38-.31.6-.52a7.53,7.53,0,0,1,2.29-1.82,7.12,7.12,0,0,1,1-.79,16.77,16.77,0,0,1,3.21-1.13.2.2,0,0,0,.06.12c-.3.83-1.56.9-2.06,1.27-.23.17-.43.31-.62.43l0,0a2.12,2.12,0,0,1,.68-.16c.33,0,.65,0,1,0a2.93,2.93,0,0,1,.06,1c0,.35.06.67.07,1a2,2,0,0,1-.42.24l0,0c-.64.53-1.06.62-1.36.09L17,14.67a1.6,1.6,0,0,1-.1-.23c-.12.18-.24.36-.37.53a1.19,1.19,0,0,0-.06.5c.08.25.38.39.57.58s.34.13.37.24-.23.3-.48.34a1.46,1.46,0,0,1-1.32-.54,9.87,9.87,0,0,1-1.1.67,4.34,4.34,0,0,1-1.85.69,2.21,2.21,0,0,1-.52,0A12.74,12.74,0,0,1,12.6,15.59Z"/><path class="cls-10" d="M1.54,22.59C4,15,3.82,19.19,4.2,18.86a6.52,6.52,0,0,0,.55-.5,1.78,1.78,0,0,0,.31.08l1.38,2,1.39,2,.15.2a3.42,3.42,0,0,1,.46,3.55,7.44,7.44,0,0,1-.27.73,23.93,23.93,0,0,1-6.24,3,1.51,1.51,0,0,1-.26-.23c-.79-.81-.11-2.38.14-3.5A5.54,5.54,0,0,0,1.54,22.59Z"/><path class="cls-11" d="M12,40.27l6.57-6.71-.59-2.09L4.73,38.41Z"/><path class="cls-12" d="M9.17,12.48l.06-4.7a2.17,2.17,0,0,1,1.54-1.73c1-.34,1.88,0,2,.69l1,5.2a.45.45,0,0,1,0,.12A33.91,33.91,0,0,0,9.17,12.48Z"/><path class="cls-12" d="M7.76,3.94a29.33,29.33,0,0,1,2.37-2.36c.53-.4.44-.45,1-.83,4.32-.48,8,1.77,6,6.59-.25.58-.86,3.15-2.23,3.5-4,1-1.59-1.35-2.14-.95-1,.68-2.94.61-3.37-.34A5.06,5.06,0,0,1,8,9,33,33,0,0,0,7.76,3.94Z"/><path class="cls-13" d="M17.56,3.51a5.65,5.65,0,0,1-1.1,3.05c-.78.52-3.15,1.6-3.15,1.6-1.3-.43-1.74-2-2.15-3.19a2.62,2.62,0,0,1,.55-2.67Z"/><path class="cls-13" d="M14.1.11c-4.94.21-10,4.7-6.52,8.71,1.28,1.48.9,2.12,2.08,2.18,1.37-.12,4-1.09,4.59-2.15C16,5.7,11,4.13,14.31,1.74Z"/><path class="cls-12" d="M16,6.37c.08-1.43-1.26-.85-1.58-.31a1.35,1.35,0,0,0,.93,2A8,8,0,0,0,16,6.37Z"/><path class="cls-8" d="M15.4,12.46A5.18,5.18,0,0,0,10.59,11c-2.64.55-2.71,1.77-2.71,1.77a4.2,4.2,0,0,0,2.7.28A40.22,40.22,0,0,1,15.4,12.46Z"/><path class="cls-10" d="M13.92,11.39a5.47,5.47,0,0,1,1.6,1.22,33.25,33.25,0,0,0-4.94.42,12.21,12.21,0,0,1-3.1.27,8,8,0,0,1,.73-1.2A7.32,7.32,0,0,0,13.92,11.39Z"/><path class="cls-8" d="M3.17,22.86C3,20,1.91,18.36,3.85,15.61c.57-.8,4.27-3.67,8-3.54.31,0,.59,0,.87,0s.7,0,1,.08c1.42.15,1.58.09,5.55,1.22l.19,3.45A10.51,10.51,0,0,0,18.89,19c-.33,1.76-1.09,3.2-1.47,6A33.59,33.59,0,0,0,17.24,29c-4.43,2.94-9.76,4.88-14.08,4.26A87.69,87.69,0,0,0,3.17,22.86Z"/><path class="cls-8" d="M16.83,28.43c1,1.22,1.07,1.58-.19,2.66a30.34,30.34,0,0,1-4.34,3.37C10.07,35.86,3.5,38.77,3,35.8,2.81,35,2.7,29.89,3.31,29c2.25-3.45,5.39-2.14,7.92-5.5Z"/><path class="cls-10" d="M14.64,21.36c-.43-.5-.78-1-1.17-1.55-.19-.26-.48-.47-.56-.78a4.64,4.64,0,0,1,3.19,1.51,14,14,0,0,0-.53-2.42c.65-.07.9.34,1.45,1,.07,1.53,1,3,.45,5.5A20.18,20.18,0,0,0,17.24,29c-.41.3-.67-.42-1.13-.27.08-.63.14-1.31.19-2l0,0a4.58,4.58,0,0,1-.76-1.21,6,6,0,0,0-1.11-1.25c-.25-.23-.69-.5-.68-.88.44-.11,1.21.42,1.58.59a3.06,3.06,0,0,1,1.07.7c-.07-.19-.09-.41-.16-.59A9.18,9.18,0,0,0,14.64,21.36Z"/><path class="cls-9" d="M35.92,14.14a2.07,2.07,0,0,1-1.6,0,10,10,0,0,1-.87.9,3.76,3.76,0,0,1-2.18,1.28A6.84,6.84,0,0,1,31,14.43c0-.25.26-.38.4-.62A6.14,6.14,0,0,1,33,11.58a6.32,6.32,0,0,1,.7-1,18,18,0,0,1,2.87-1.93.24.24,0,0,0,.11.08c0,.78-1.24,1.23-1.61,1.7l-.46.55h.06a2.58,2.58,0,0,1,.64-.34c.33-.11.68-.19,1-.34a2.83,2.83,0,0,1,.51.85c.15.28.35.53.5.81a2,2,0,0,1-.33.33l0,0c-.43.64-.83.84-1.37.5l-.53-.34-.2-.16a5,5,0,0,1-.16.55.8.8,0,0,0,.16.44c.19.18.56.2.84.3.12,0,.41,0,.49.08S36.17,14,35.92,14.14Z"/><path class="cls-8" d="M19.28,13.41c3.22-.31,2.74,5.45,4.12,7.91.23-.32,4.41-6,5.82-5.71l.08,0s1.9.09,2,.65v0c.08.61.12,1,.16,1.19,0,0,0,.05,0,.07a1.23,1.23,0,0,0,0,.16l0,.08c-1.06,1.28-2.14,2.9-3.41,4.46A16.44,16.44,0,0,1,22.5,27c-2.33-.15-4.06-.83-5.52-6.84l-.31-2.77C17.65,15.94,19.21,13.42,19.28,13.41Z"/><path class="cls-8" d="M29.06,15.76,30.32,17l1,.95.17-.2.06-.07.06-.06.59-.67a4.51,4.51,0,0,0,0-1.63s0-.05,0-.07c-.21-1-1.39-1-1.39-1l-1.55,1.41Z"/><path class="cls-10" d="M23.82,24.81c.09.18,1.23-.31,1.54-.42a4.39,4.39,0,0,0,1.38-.78c.33-.29.59-.61.9-.91l.46-.43c1.27-1.56,2.35-3.18,3.41-4.46l0-.08.06-.07-.1-.09a2.18,2.18,0,0,0-.28-.25,2.11,2.11,0,0,1,.27.18.59.59,0,0,0,.17.1l.59-.67a4.51,4.51,0,0,0,0-1.63s0-.05,0-.07a1.49,1.49,0,0,1-.38.69,2.76,2.76,0,0,1-.51.39c-.17.11-.34.21-.5.33a1.71,1.71,0,0,0-1-.47c.15.21.48.49.53.81a.42.42,0,0,1,0,.27c-.18.42-1,.74-1.44.91s-1.11.39-1.64.63a8.13,8.13,0,0,0,1.68.59,23.33,23.33,0,0,0-2.34.73c-.51.24-1,.5-1.55.77-.14.07-.3.12-.36.24a3.63,3.63,0,0,0,.71-.07A20,20,0,0,1,28.23,21c-.71.23-3.28.92-3.73,1.57a2.93,2.93,0,0,0-.28,1.05C24.16,23.84,23.72,24.63,23.82,24.81Z"/><path class="cls-10" d="M19,13.6c-.71.33-1.14,1.45-1.41,2-.16.35-.32.72-.19,1s.65.64.9,1,.57.77.83,1.17c-.49-.12-.95-.65-1.33-.92s-.47-.39-.75-.55c0,.44,0,.88,0,1.31A3.4,3.4,0,0,1,17.25,16a9.91,9.91,0,0,1,1-1.84,1.94,1.94,0,0,1,.65-.52Z"/><path class="cls-13" d="M17.24,3.88c-3.77,1.47-7.86,1.54-9.73-.61,1-2.43,5.17-4.08,8.6-2.85C18.4,1.24,18.89,3,17.24,3.88Z"/></g></g></g></svg>