<svg xmlns="http://www.w3.org/2000/svg" viewBox="0 0 20.69 71.48"><defs><style>.cls-1{fill:#d88f4e;}.cls-2{fill:#ffded4;}.cls-3{fill:#0c181e;}.cls-4,.cls-6{fill:#755950;}.cls-4{opacity:0.2;}.cls-5{fill:#05111b;}.cls-6{opacity:0.4;}.cls-7{fill:#bc7942;}.cls-8{fill:#263d49;}.cls-9{fill:#e58383;}.cls-10{fill:#ffdb8a;}.cls-11{fill:#172d3a;}.cls-12{fill:#825248;}.cls-13{fill:#e29c9c;}</style></defs><title>Ativo 81</title><g id="Camada_2" data-name="Camada 2"><g id="Personagens"><path class="cls-1" d="M15.86,11.32s1.28.3,1.22,1-1,1.15-1,1.15a1.29,1.29,0,0,1,.31,1.88c-.85,1-4.37-1.46-4.37-1.46l1.81-3.06Z"/><path class="cls-1" d="M17.37,8.75a5,5,0,0,1,1-.94,3.54,3.54,0,0,0,1.05-3.48C18.84,2.69,17.48.19,14.49.9c0,0-1.81-.72-1.54,1.56.24,2,2.53,1.49,2.77,4a9.52,9.52,0,0,1-.15,2.85A7.23,7.23,0,0,1,17.37,8.75Z"/><path class="cls-2" d="M10.66,8A1.5,1.5,0,0,1,9,9.31,1.49,1.49,0,0,1,7.85,7.57,1.49,1.49,0,0,1,9.47,6.23,1.48,1.48,0,0,1,10.66,8Z"/><polygon class="cls-3" points="8.84 13.38 11.28 14.01 11.66 9.44 9.27 9.15 8.84 13.38"/><path class="cls-2" d="M11.06,9l-.47,4.64-4.24.28S10.18,16.77,13.5,17s3.88-1.57,3.88-1.57L14,14.18l.28-2.34Z"/><path class="cls-4" d="M14.09,13.82l.28-2.33L11.11,8l-.4,4.84A33.36,33.36,0,0,1,14.09,13.82Z"/><path class="cls-2" d="M14.25,2.14s3.39.64,3.71,3.18.3,5.77-1.95,7-5.15-.21-6.26-2.47S8.7,2.38,14.25,2.14Z"/><path class="cls-5" d="M15.64,7.43c.4.16.69.38.81.41s0,0,.15,0l.48-.25a.84.84,0,0,1-.07.64.67.67,0,0,1-.79.3A.88.88,0,0,1,15.71,8,1,1,0,0,1,15.64,7.43Z"/><path class="cls-5" d="M12.24,7.18c.4.17.68.39.8.41s0,0,.16,0l.47-.25A.76.76,0,0,1,13.6,8a.65.65,0,0,1-.78.3.87.87,0,0,1-.51-.48A.88.88,0,0,1,12.24,7.18Z"/><path class="cls-6" d="M15.4,7.67A4.39,4.39,0,0,0,16,9l-.76.44"/><path class="cls-7" d="M15.73,5.36a.86.86,0,0,1,1.13-.6,1,1,0,0,1,.69,1.06,3.28,3.28,0,0,1-.6,0,2.23,2.23,0,0,1-.37-.07C16.37,5.66,16.22,5.54,15.73,5.36Z"/><path class="cls-8" d="M5.77,46.77a9.09,9.09,0,0,0-1.42,6.64C5.17,56.93,6,65.15,6,65.15l2.6,4.49,2.2.29L8.75,65.3S9.64,49.73,10.11,47,6.48,43,5.77,46.77Z"/><path class="cls-8" d="M6.06,64.91A2.41,2.41,0,0,0,5.14,67c.14,1.37.39,3.48.39,3.48l.43,0,.25-2.47s.73,2.28,1.2,2.52,4.26,1.42,4.72.63-1.53-1.88-1.53-1.88a1.89,1.89,0,0,1-2-.44A23.37,23.37,0,0,1,6.06,64.91Z"/><path class="cls-8" d="M11,46.77a9.09,9.09,0,0,0-1.42,6.64c.81,3.52,1.64,11.74,1.64,11.74l2.61,4.49,2.2.29L14,65.3S14.86,49.73,15.33,47,11.7,43,11,46.77Z"/><path class="cls-8" d="M11.28,64.91A2.41,2.41,0,0,0,10.36,67c.14,1.37.39,3.48.39,3.48l.43,0,.25-2.47s.73,2.28,1.2,2.52,4.25,1.42,4.71.63-1.52-1.88-1.52-1.88a1.89,1.89,0,0,1-2-.44A23.37,23.37,0,0,1,11.28,64.91Z"/><path class="cls-9" d="M19.44,49.67c.46-5.44,1.59-10.62,1.15-13.39-1.18-7.42-5.25-9.87-5.25-9.87l-.1-2L11,24.85l-5.9-2.07.22,3.63S1.26,28.86.09,36.28c-.46,2.86,1,8.11,1.69,13.75C8.47,51.65,16,51.28,19.44,49.67Z"/><path class="cls-8" d="M15.29,25.19s-6.94.23-10,0l-.08,1.18s3.53.91,10.15,0Z"/><rect class="cls-9" x="13.39" y="25.05" width="0.81" height="1.72"/><rect class="cls-9" x="6.55" y="25.05" width="0.81" height="1.72"/><path class="cls-10" d="M9.45,25.28v1.58a.19.19,0,0,0,.18.19h1.95a.19.19,0,0,0,.18-.19V25.28a.18.18,0,0,0-.18-.18H9.63A.18.18,0,0,0,9.45,25.28Zm.54.37a.1.1,0,0,1,.1-.09h1a.1.1,0,0,1,.1.09v.84a.11.11,0,0,1-.1.1h-1a.11.11,0,0,1-.1-.1Z"/><path class="cls-2" d="M13,32.74c-.06.12-.12.24-.17.36-.21.46-1.42,2.34-1.54,2.67a2.65,2.65,0,0,1,.73.89,16.48,16.48,0,0,0,3.44-2.48A4.63,4.63,0,0,1,13,32.74Z"/><path class="cls-2" d="M13.05,35.87s-1.36,1.69-1.68,1.59.64-1.13.64-1.13-1.17,1.18-1.26,1,.59-1,.59-1-.91.84-.95.69.75-1.18.75-1.18-1.71,1.53.11-.62c0,0-2.25.23.32-.51S13.05,35.87,13.05,35.87Z"/><path class="cls-2" d="M5.56,29.7l-.08.09a6.17,6.17,0,0,1-2.55,1.82,19.63,19.63,0,0,0,3.2,4.22,2.71,2.71,0,0,1,1-.66,6.66,6.66,0,0,0-.17-1.26C6.47,32.33,6,30.92,5.56,29.7Z"/><path class="cls-2" d="M5.17,34.76s.85,2,1.19,2-.31-1.26-.31-1.26.8,1.46,1,1.26-.31-1.08-.31-1.08.64,1.07.72.93A5.6,5.6,0,0,0,7,35.26s1.22,1.94.06-.63c0,0,2.11.85-.16-.57S5.17,34.76,5.17,34.76Z"/><path class="cls-11" d="M20.53,21.87,15.88,22s.49,4.76.1,5.38c-.23.36-2.48,3.48-3.82,6a6.16,6.16,0,0,0,2.24,1.67,32,32,0,0,0,4.68-4.55C20.72,28.38,20.53,21.87,20.53,21.87Z"/><path class="cls-11" d="M7,32.92a48.49,48.49,0,0,0-1.76-6.25c-.2-.7,1.2-6,1.2-6L2.32,18.85S0,25.48,1,28A32.69,32.69,0,0,0,4.5,34C5.19,33.59,6.34,33.53,7,32.92Z"/><path class="cls-11" d="M1.84,20.42s1.41-6.56,4.82-6.73a18.31,18.31,0,0,1,2,0c.28,1,1.67,1.9,3.45,2.15s3.36-.23,3.9-1.11a15.52,15.52,0,0,1,1.87.51c3.23,1.09,2.67,6.85,2.67,6.85l-3.07.18c.31,2.92-2.11,2.61-2.11,2.61s-8.12.48-11.2-.68c-1.79-.68.15-2.59.79-3.76Z"/><path class="cls-7" d="M12.3,5.27a.91.91,0,0,1,1-.79,1,1,0,0,1,.92.92,3.51,3.51,0,0,1-.61.08,2.63,2.63,0,0,1-.41,0C13,5.45,12.82,5.36,12.3,5.27Z"/><path class="cls-1" d="M13.38,0s2.81.48,1.92,2.6c-.78,1.85-3.57.64-4.49,3s-.62,2.79-.62,2.79-.58.2-.57-1.13c0,0-.64-1.22-1.26-.17s0,2,1.33,2a5.34,5.34,0,0,0,1.36,2.48l-.46,2.12a32.38,32.38,0,0,1-4.39,0,1.8,1.8,0,0,1-.73-2.26s-1.22-.12-1.27-1S4.21,9,5.65,8.8c0,0-.71-.79-.21-1.45a1,1,0,0,1,1.31-.22,1.24,1.24,0,0,1,0-1.64,1.46,1.46,0,0,1,1.77-.21,3,3,0,0,1,0-2.74C9.31,1,10.92-.11,13.38,0Z"/><path class="cls-12" d="M13.85,10.75a.93.93,0,0,0,.76,1.09.94.94,0,0,0,1-.93.87.87,0,1,0-1.72-.16Z"/><path class="cls-13" d="M13.85,10.86a.92.92,0,0,0,.76,1,.81.81,0,0,0,.56-.17.93.93,0,0,0-.77-1A.79.79,0,0,0,13.85,10.86Z"/></g></g></svg>