<svg xmlns="http://www.w3.org/2000/svg" viewBox="0 0 46.89 72.1"><defs><style>.cls-1{fill:#ffc5b4;}.cls-2{fill:#353030;}.cls-3{fill:#add3f3;}.cls-4,.cls-5{fill:#0e2735;}.cls-4{opacity:0.15;}.cls-6{fill:#4b616b;}.cls-7,.cls-8{fill:#98665e;}.cls-7{opacity:0.3;}.cls-8{opacity:0.4;}.cls-9{fill:#0c181e;}.cls-10{fill:#9dc0d7;}.cls-11{fill:#172d3a;}.cls-12{fill:#ffd8c9;}.cls-13{fill:#14384f;}.cls-14{fill:#815248;}.cls-15{fill:#e1aea5;}.cls-16{fill:#fff;}</style></defs><title>Ativo 85</title><g id="Camada_2" data-name="Camada 2"><g id="Personagens"><ellipse class="cls-1" cx="11.4" cy="8.45" rx="1.08" ry="1.81"/><path class="cls-2" d="M12.58,2.33A3.15,3.15,0,0,1,15.2.12C18.3-.58,21,1.81,21,5.24s2.15,6.1.46,8.44-4.45.71-4.45.71Z"/><path class="cls-3" d="M21.78,13.5s3.45,6,4.39,9.42a3.73,3.73,0,0,1-2.91,1.63L19.92,19Z"/><path class="cls-4" d="M23.91,70.46c0,.9-5.35,1.64-11.95,1.64S0,71.36,0,70.46s5.35-1.64,12-1.64S23.91,69.56,23.91,70.46Z"/><path class="cls-5" d="M6.37,66a13.55,13.55,0,0,1-1.2,4s-3.14,1.07-3-.75l2-3.91Z"/><path class="cls-5" d="M5.42,59.35l3.3,1c-1.4,2.84-2.89,7-2.89,7s-.59,1.31-1,1.28a1.35,1.35,0,0,1-1.72-.79l1.12-2.52S4.81,62.55,5.42,59.35Z"/><path class="cls-5" d="M18.06,60.6c0,2.74-.06,4.89-.06,4.89l2,3.92-1.92-.16-2.44-3.78s-.38-2.48-.86-5.14C15.86,60.41,17,60.5,18.06,60.6Z"/><path class="cls-5" d="M15.66,65.26A2.1,2.1,0,0,0,15,67.14c.18,1.18.48,3,.48,3h.37L15.92,68s.73,2,1.14,2.14,3.74,1,4.11.34-1.4-1.56-1.4-1.56A1.64,1.64,0,0,1,18,68.6,19.86,19.86,0,0,1,15.66,65.26Z"/><path class="cls-6" d="M20.3,25.35l-2.38.34-3-.87S7.19,29,7.81,38c.26,3.76.8,9.27,1,11.39l4.48.17c.86-2.24,1.62-5.24,2.2-7h0a33.26,33.26,0,0,0,1.16-3.43c.06.39.15,1.07.25,1.92,0,.6.12,1.24.19,1.89.2,2.54.26,5.65-.41,7.49,0,.05,0,.1,0,.14s-1.08,2.57-2.09,5.64c-.15.53-2,7-1.74,8.75a7.09,7.09,0,0,0,4,1.08,8.15,8.15,0,0,0,1.73-.35l.13,0C21.41,55.2,22.18,50.78,23.13,46c1-4.4,1.28-5.51,1.77-7.75C26.81,29.47,20.3,25.35,20.3,25.35Z"/><path class="cls-1" d="M13.53,8.5l.85,4.22-3.1,1.67a10.4,10.4,0,0,0,6.39,1.29c3.39-.55,2.34-2.17,2.34-2.17l-2.49-.82-.56-2Z"/><path class="cls-7" d="M17.45,12.49l-.54-2L13.6,8.46l.71,3.84A28.12,28.12,0,0,1,17.45,12.49Z"/><path class="cls-1" d="M14.26,1.72s4-.93,4.93,2.16C19.91,6.33,20.82,9,19,10.74s-5,1.06-6.65-.84S9,3.33,14.26,1.72Z"/><path class="cls-8" d="M17.24,6.35a5.13,5.13,0,0,0,1.14,1.09l-.6.76"/><path class="cls-9" d="M17,4.18a.93.93,0,0,1,1-1,1,1,0,0,1,1,.87,4.47,4.47,0,0,1-.63.15,2.15,2.15,0,0,1-.4,0C17.75,4.28,17.55,4.21,17,4.18Z"/><path class="cls-9" d="M13.56,4.93a1,1,0,0,1,.83-1.13,1.08,1.08,0,0,1,1.23.65,3.48,3.48,0,0,1-.61.27,3.44,3.44,0,0,1-.41.12C14.35,4.89,14.12,4.86,13.56,4.93Z"/><path class="cls-10" d="M24.17,29.87a10,10,0,0,1-5.06,3L17.29,30l-1.44,3.64s-5.07-.7-6.79-2.81c0,0,1.71-3.56,3-5.57,0,0-3.58-9.15-2-10.59.68-.64,3-1.45,5.4-1.94l.75,1.24.41-1.44c2.59-.35,5.24.25,5.66,2,.86,3.64-1.46,10.2-1.46,10.2Z"/><path class="cls-1" d="M10,14.62s-4.18,4.29-5.44,7.8c-.82,2.26,4.14,8.8,4.14,8.8s1,.06,1.19-.75a50.29,50.29,0,0,1-1.43-6.69c0-.55,3.53-3.9,3.53-3.9Z"/><path class="cls-6" d="M8.73,48.19s-5.17,8.1-6.38,15.52c0,0,3.11,2.67,5.86,1.55,0,0,3.28-11.21,4.66-14.31a7.34,7.34,0,0,0,.6-5.52C13.3,44.31,8.73,48.19,8.73,48.19Z"/><path class="cls-11" d="M17.23,5.66a1.89,1.89,0,0,0,.85,0,1.62,1.62,0,0,0,.69-.46.71.71,0,0,1,.07.65.86.86,0,0,1-.56.52A.81.81,0,0,1,17.23,5.66Z"/><path class="cls-11" d="M14.23,6.35a1.47,1.47,0,0,0,.77,0,1.41,1.41,0,0,0,.6-.46.71.71,0,0,1,.11.6.81.81,0,0,1-.51.53.79.79,0,0,1-.7-.15A.74.74,0,0,1,14.23,6.35Z"/><path class="cls-12" d="M34.13,17.29s-.4-.9-1.14-.12a1.87,1.87,0,0,0-.54,1.6Z"/><path class="cls-1" d="M31.39,18.74s2.31-1.83,2.88-2.13c1.13-.57,1.2.25,1.2.25s0,1.82-.58,2.15S32,20.92,32,20.92Z"/><polygon class="cls-13" points="32.37 18.86 46.71 6.97 46.89 7.11 32.53 19.04 32.37 18.86"/><path class="cls-1" d="M34,16.37a.8.8,0,0,1,.88.78c.1.87-.91-.18-.91-.18s.47.12-.4.91-.78-.2-.78-.2l.13-.25"/><path class="cls-3" d="M32,21.35l1.08-.78a2.56,2.56,0,0,0-1.5-2.12,9.63,9.63,0,0,1-1.39.95A10.43,10.43,0,0,1,32,21.35Z"/><path class="cls-10" d="M21.12,16.49s2.11,2.3,1.15,3.83a2.77,2.77,0,0,1-4.79.1C15.85,18.31,21.12,16.49,21.12,16.49Z"/><path class="cls-11" d="M10.31,19.89A16.76,16.76,0,0,0,11.9,25c0,.08-.16-1-.12-.93s-1.41,4-1.85,5-.06.31-.06.31,7,5.48,14.3-.09L21,24.59l.56-2.19s1.77,3.06,3,3.34S32.64,21,32.64,21L30.83,19l-5.16,2.35s-2.66-7.61-4-8.24a6.53,6.53,0,0,0-2.44-.62,4.54,4.54,0,0,1-6.19.81s-2.42.66-3,1.36S10.31,19.89,10.31,19.89Z"/><polygon class="cls-3" points="18.9 12.32 17.69 14.35 16.54 12.48 18.06 11.51 18.9 12.32"/><path class="cls-1" d="M9.77,30.09s1.35-.76,1.87-.32c0,0,2.46,3.18,0,.69,0,0,.91,3.41-.5,0,0,0,.26,3.77-.56.17,0,0,.44,3.67-.47.51,0,0-.5,1.08-1.3.34s-2.78-5-2.78-5l2.29.31Z"/><path class="cls-3" d="M9.34,28.47,6.88,29c.75,1.25,1.38,2.16,1.38,2.16S9.79,30.71,10,29.9a8.07,8.07,0,0,1-.53-1.46Z"/><path class="cls-11" d="M10,14.62s-4.18,4.29-5.44,7.8c-.82,2.26,3.27,8.36,3.27,8.36s1.88-.56,2.06-1.38a30.39,30.39,0,0,1-1.43-5.62c0-.55,3.53-3.9,3.53-3.9Z"/><path class="cls-14" d="M16.25,9.45a.78.78,0,1,0,1.54-.07A.84.84,0,0,0,17,8.51.85.85,0,0,0,16.25,9.45Z"/><path class="cls-15" d="M16.27,9.55a.82.82,0,0,0,.79.77.72.72,0,0,0,.47-.22.82.82,0,0,0-.79-.77A.67.67,0,0,0,16.27,9.55Z"/><path class="cls-2" d="M14.64,1.44S15,5.66,12.29,7.63c0,0-1.12-.8-1.31.47s1.36,1.22,1.36,1.22a3.36,3.36,0,0,0,1.74,1.88s.37,1.64-.24,1.92-3.14,1-3.14,1-2.3-.79-1.64-2.62a10.68,10.68,0,0,0,.56-5.26C9.34,1.91,12.43-.11,14.64,1.44Z"/><polygon class="cls-3" points="13.39 13.14 14.75 15.03 15.43 12.69 13.82 12.22 13.39 13.14"/><path class="cls-16" d="M12.53,9.44A.45.45,0,1,1,12.08,9,.45.45,0,0,1,12.53,9.44Z"/></g></g></svg>