<svg xmlns="http://www.w3.org/2000/svg" viewBox="0 0 29.98 48.52"><defs><style>.cls-1{fill:#e5beb5;}.cls-2{fill:#b57f74;opacity:0.4;}.cls-3{fill:#353030;}.cls-4{fill:#33594b;}.cls-5{fill:#4b616b;}.cls-16,.cls-6{fill:#172d3a;}.cls-7{fill:#c7dde2;}.cls-8{fill:none;stroke:#172d3a;stroke-linecap:round;stroke-linejoin:round;stroke-width:0.73px;}.cls-9{opacity:0.72;}.cls-10{fill:#2d2d2d;}.cls-11{fill:#2e99ce;}.cls-12{fill:#0e2735;opacity:0.15;}.cls-13{fill:#393a3a;}.cls-14{fill:#222323;}.cls-15{fill:#e58383;}.cls-16{opacity:0.2;}.cls-17{fill:#4f5051;}.cls-18{fill:#686868;}.cls-19{fill:#1887b2;}</style></defs><title>Ativo 107</title><g id="Camada_2" data-name="Camada 2"><g id="Camada_1-2" data-name="Camada 1"><path class="cls-1" d="M3.65,15.4a5.41,5.41,0,0,0-2-.22c-.77.14-2,1-1.62,1.94v0H3.56Z"/><rect class="cls-1" x="16.72" y="8.89" width="3.37" height="2.93" transform="translate(-1.22 2.56) rotate(-7.7)"/><rect class="cls-2" x="16.72" y="8.89" width="3.37" height="2.93" transform="translate(-1.22 2.56) rotate(-7.7)"/><polygon class="cls-1" points="13.44 10.81 10.96 8.67 12.09 11.68 13.44 10.81"/><polygon class="cls-2" points="13.44 10.81 10.96 8.67 12.09 11.68 13.44 10.81"/><path class="cls-1" d="M11.5,3.26c2.07-1.55,3.22-.47,3.22-.47a13,13,0,0,1,1.86,1.45c-.07-.36,2.64,2.81,2.71,3a4.78,4.78,0,0,1-.94,3.55,3.47,3.47,0,0,1-4.48,1.05A33.47,33.47,0,0,1,9.11,7.32S8.09,5.83,11.5,3.26Z"/><path class="cls-3" d="M9.66,6.87c.42-.48.92-1.39,1.33-1.89l.36.31A27.42,27.42,0,0,0,13.41,7.2a.56.56,0,0,0,0,.84l.82.82-.48.45L11.87,7.72a1.27,1.27,0,0,1-.85,0S10.05,7.09,9.66,6.87Z"/><path class="cls-3" d="M13.52,3.1a.09.09,0,0,0,0,.09c0,.32.29,1.57-1.88,3.27l-1-.37A3.62,3.62,0,0,1,7.51,8,5.15,5.15,0,0,1,9,3.47,6.81,6.81,0,0,0,7.46,4.73S8.92.9,12.22.77c0,0,1.31-1.56,2.63-.24C15.83,1.51,13.52,3.1,13.52,3.1Z"/><path class="cls-3" d="M13.17,7.93s0-1.27,1.19-.6A1.39,1.39,0,0,1,15,9.45s2.21,2.27,3.76,1.08,3.39-5.12-3.87-10l-4.08,4Z"/><polygon class="cls-4" points="10.56 40.03 11.13 44.34 9.47 44.91 8.63 40.3 10.56 40.03"/><path class="cls-5" d="M8.49,42.4A5.55,5.55,0,0,1,6,44.11c-1.5.47-2.86,1-2.73,1.91,0,0,2.28,1,5.91-.24v.37L11.6,46l-.06-3-2,.17.15-.3Z"/><path class="cls-6" d="M7.6,45.86c-3.26.86-4.11,0-4.31-.07a.6.6,0,0,0,0,.23s2.28,1,5.91-.24v.37L11.6,46v-.61A12.81,12.81,0,0,0,7.6,45.86Z"/><path class="cls-7" d="M21,20.79s-12.4-1.45-15.14.32S7.35,41.89,7.35,41.89a17.37,17.37,0,0,0,4.51-.32L10.73,26.43s11.11,2.9,11.27-.81S21,20.79,21,20.79Z"/><path class="cls-8" d="M7.8,42.88c.4.34.73.67,1.13,1"/><path class="cls-8" d="M7.14,43.76c.27.33.47.6.73.93"/><path class="cls-9" d="M21,20.79s-12.4-1.45-15.14.32S7.35,41.89,7.35,41.89s.68,0,1.57,0l.13.69-.56-.2a4.86,4.86,0,0,1-.57.59,4.9,4.9,0,0,1-.58.46A4.59,4.59,0,0,1,6,44.11c-1.5.47-2.86,1-2.73,1.91,0,0,2.28,1,5.91-.24v.37L11.6,46v-.61h0L11.54,43,11,43l-.17-1.24a7.8,7.8,0,0,0,1.07-.21L10.73,26.43s11.11,2.9,11.27-.81S21,20.79,21,20.79Z"/><polygon class="cls-4" points="7.33 41.19 7.9 45.5 6.24 46.08 5.4 41.46 7.33 41.19"/><path class="cls-5" d="M5.27,43.56a5.69,5.69,0,0,1-2.48,1.72c-1.51.46-2.87,1-2.74,1.9,0,0,2.28,1,5.91-.24v.37l2.4-.15-.06-3-2,.18L6.46,44Z"/><path class="cls-6" d="M4.37,47C1.11,47.89.26,47,.07,47a.55.55,0,0,0,0,.22s2.28,1,5.91-.24v.37l2.4-.15v-.6A12.36,12.36,0,0,0,4.37,47Z"/><path class="cls-10" d="M24.69,21S5.33,20.5,2.59,22.28,4,43.05,4,43.05a17.37,17.37,0,0,0,4.51-.32L7.42,27.59S25.36,31,25.36,26.09C25.36,22.39,24.69,21,24.69,21Z"/><path class="cls-8" d="M4.48,44.26c.4.33.73.66,1.13,1"/><path class="cls-8" d="M3.87,44.63l.73.94"/><path class="cls-11" d="M12.76,21S17,24.51,25.52,23.69a77,77,0,0,0,.94-10.86c0-2-14.46-2.24-14.31,0C12.33,15.45,12.91,18.19,12.76,21Z"/><path class="cls-12" d="M30,47c0,.82-4.75,1.49-10.6,1.49S8.77,47.85,8.77,47s4.75-1.49,10.61-1.49S30,46.21,30,47Z"/><rect class="cls-13" x="18.28" y="30.12" width="2.49" height="12.75"/><rect class="cls-14" x="17.89" y="38.45" width="3.28" height="6.25"/><path class="cls-14" d="M24.37,43.32H14.65a1,1,0,0,0,0,2.06h9.72a1,1,0,0,0,0-2.06Z"/><rect class="cls-14" x="18.28" y="30.12" width="2.49" height="3.51"/><rect class="cls-13" x="20.57" y="19.45" width="2.74" height="9.91"/><rect class="cls-15" x="8.68" y="27.83" width="19.51" height="3.66" rx="1.14"/><rect class="cls-15" x="15.38" y="12.59" width="12.8" height="9.91" rx="1.14"/><rect class="cls-16" x="10.92" y="27.83" width="17.27" height="3.66" rx="1.14"/><rect class="cls-16" x="17.55" y="12.59" width="10.63" height="9.91" rx="1.14"/><ellipse class="cls-17" cx="13.76" cy="45.99" rx="1.38" ry="1.6"/><rect class="cls-17" x="13.64" y="44.39" width="1" height="3.2"/><ellipse class="cls-18" cx="14.64" cy="45.99" rx="1.38" ry="1.6"/><path class="cls-14" d="M14,46a.64.64,0,1,0,.63-.73A.69.69,0,0,0,14,46Z"/><path class="cls-17" d="M17.65,46A1.5,1.5,0,0,0,19,47.59a1.62,1.62,0,0,0,0-3.2A1.51,1.51,0,0,0,17.65,46Z"/><rect class="cls-17" x="18.9" y="44.39" width="1" height="3.2"/><ellipse class="cls-18" cx="19.9" cy="45.99" rx="1.38" ry="1.6"/><path class="cls-14" d="M19.28,46a.63.63,0,1,0,.62-.73A.69.69,0,0,0,19.28,46Z"/><ellipse class="cls-17" cx="23.79" cy="45.99" rx="1.38" ry="1.6"/><rect class="cls-17" x="23.66" y="44.39" width="1" height="3.2"/><ellipse class="cls-18" cx="24.67" cy="45.99" rx="1.38" ry="1.6"/><path class="cls-14" d="M24,46a.63.63,0,1,0,.63-.73A.69.69,0,0,0,24,46Z"/><path class="cls-19" d="M16,12.51l-.16-2.18A25,25,0,0,1,21,10.22l.11,1.71Z"/><path class="cls-11" d="M16.33,10.3s2.7,0-3.3,1.8c-.07,0-2,1.16-2,1.21a8.18,8.18,0,0,1-3,1.43l-4.81-.16S2,15.9,2.32,16.9s6,1.65,7.21,1.41,4-1.2,4-1.2l3.08-5.31Z"/></g></g></svg>