<svg xmlns="http://www.w3.org/2000/svg" viewBox="0 0 29.49 60.9"><defs><style>.cls-1{fill:#627782;}.cls-2{fill:#172d3a;}.cls-3{fill:#edc156;}.cls-4{fill:#fff;}.cls-5{fill:#ffded4;}.cls-6{fill:#755950;}.cls-11,.cls-6{opacity:0.2;}.cls-7{fill:#25383f;}.cls-8{fill:#0c181e;}.cls-9{fill:#263d49;opacity:0.1;}.cls-10{fill:#abc5c9;}.cls-11{fill:#394e54;}.cls-12{fill:#bad6dd;}.cls-13{fill:#495f68;opacity:0.4;}.cls-14{fill:#e2afa6;}.cls-15{fill:#825248;}</style></defs><title>Ativo 89</title><g id="Camada_2" data-name="Camada 2"><g id="Personagens"><path class="cls-1" d="M11.16,1.38a2.82,2.82,0,0,1,3.05.16C16.14,3,18,8.85,15.87,14.38c0,0-7,1.44-12.06.11,0,0-2.33-8.91,2-12.95Z"/><path class="cls-2" d="M17.42,49s-.4-2.57.2-.22,1.27,7.83,1.27,7.83l1.81,3,1.47.17-1.44-3.07s-.67-5.74-.4-7.57S17.84,46.47,17.42,49Z"/><path class="cls-2" d="M18.93,56.43a1.62,1.62,0,0,0-.59,1.43c.11.92.31,2.33.31,2.33h.29l.13-1.66s.53,1.52.84,1.67,2.87.89,3.17.35-1-1.23-1-1.23a1.26,1.26,0,0,1-1.35-.27A14.93,14.93,0,0,1,18.93,56.43Z"/><path class="cls-2" d="M12,48.73a6.09,6.09,0,0,0-2.35,3.89c-.26,2.41-.8,3-.8,3l.66,3.41,1.33.67-.29-3.38s3.25-4.9,4.14-6.52S13.3,46.51,12,48.73Z"/><path class="cls-2" d="M9,55.52a1.62,1.62,0,0,0-1.05,1.14c-.21.89-.51,2.29-.51,2.29l.26.1.71-1.5a5.5,5.5,0,0,0,.2,1.86c.24.25,2.38,1.83,2.85,1.43s-.56-1.53-.56-1.53a1.25,1.25,0,0,1-1.17-.72A15.3,15.3,0,0,1,9,55.52Z"/><path class="cls-3" d="M25.5,39.65c-.63,10-1.43,18-1.43,18s-4,1.63-7.54-.28L15.29,39.5Q20.41,39.61,25.5,39.65Z"/><path class="cls-3" d="M22,41l-8,17.46c-4,.56-7.17-2.36-7.17-2.36s2.8-11.26,5.65-20.82C16,35.91,18.57,40.33,22,41Z"/><path class="cls-3" d="M12.07,27.38S27.49,29.9,25.5,39.65,11.35,41.4,11.35,41.4Z"/><path class="cls-3" d="M16.8,32.7c0,3.88-4,6.29-8.35,6.29S1,36.58,1,32.7s2.32-5.21,6.69-5.21S16.8,28.81,16.8,32.7Z"/><path class="cls-4" d="M14.33,9.93a1,1,0,1,0,.81-1.22A1,1,0,0,0,14.33,9.93Z"/><path class="cls-5" d="M6.91,9.33a1.34,1.34,0,0,1-1,1.61A1.32,1.32,0,0,1,4.43,9.83a1.33,1.33,0,0,1,1-1.61A1.33,1.33,0,0,1,6.91,9.33Z"/><path class="cls-5" d="M7.75,9.67l.18,4.68L4.58,15.54a13.84,13.84,0,0,0,6.71,1.77c3.33-.2,2.7-2.21,2.7-2.21l-2.56-.7,0-2.36Z"/><path class="cls-6" d="M11.43,14l0-2.36-3.73-3,.27,4.87A34,34,0,0,1,11.43,14Z"/><path class="cls-5" d="M8.81,1.9s3.76-.58,5,2,2.41,5.9.52,8S8.92,13.52,7,11.58,3.12,4.18,8.81,1.9Z"/><path class="cls-6" d="M11.9,7.17a5.14,5.14,0,0,0,1.18,1L12.52,9"/><path class="cls-7" d="M11.89,4.71a1,1,0,0,1,1-1,1.07,1.07,0,0,1,1.1.77,4.11,4.11,0,0,1-.62.12l-.43,0C12.65,4.7,12.42,4.67,11.89,4.71Z"/><path class="cls-3" d="M17.62,39.3,8.9,38l1.44-.47L10,27.35l0-1.73,3.39-1.16,1.42,3.64s4.07.94,5.74,8.3A23.52,23.52,0,0,1,21,39.56,11.4,11.4,0,0,0,17.62,39.3Z"/><path class="cls-3" d="M1.27,36a10,10,0,0,1,3.17-9.16L4,24.51l6.42.8L10.48,27,9.9,34.85A18.93,18.93,0,0,0,1.27,36Z"/><path class="cls-4" d="M5,11.69a1,1,0,1,0,.81-1.22A1,1,0,0,0,5,11.69Z"/><path class="cls-8" d="M13.62,6.06c.05.34-.06.65-.26.67s-.38-.22-.43-.56.06-.65.25-.68S13.56,5.72,13.62,6.06Z"/><path class="cls-8" d="M10.13,7c0,.34-.06.64-.25.67s-.39-.22-.44-.57.06-.64.25-.67S10.08,6.62,10.13,7Z"/><path class="cls-2" d="M17.6,18.64s-1.57-3.77-4.35-4c-.42.95-1.72,1.7-3.52,1.7s-2.85-.77-3.26-1.73a19.74,19.74,0,0,0-1.93.5C1.18,15.76.93,22.51.93,22.51L4,22.25s.31,2.7.31,2.7l.3.08c3.23.73,9.49,0,9.49,0s2.5-1,1.1-4.65Z"/><path class="cls-2" d="M13.69,19.63,20.48,30.4l4.13.07s-6.72-11.72-8.19-13.86S13.69,19.63,13.69,19.63Z"/><path class="cls-9" d="M13,58.37h0Z"/><path class="cls-9" d="M12.66,27.52l1.68-2.46-2.65.22L7.4,27.76a13,13,0,0,1,3.82.83c3,1.09,12.59,4.59,11.62,7.93-.86,3-4.29,11.27-6.59,16.76l.28,4.09c3.54,1.91,7.54.28,7.54.28s.8-8,1.43-18C27.49,29.9,12.66,27.52,12.66,27.52Z"/><polygon class="cls-4" points="6 14.7 6.68 13.66 9.73 16.35 8.68 17.86 6 14.7"/><polygon class="cls-4" points="12.8 13.95 9.73 16.35 11.11 17.64 13.45 14.7 12.8 13.95"/><path class="cls-4" d="M7.26,30a39.32,39.32,0,0,0,4.94,1.74l-.15-1.59,1,1.14s1.73-1.66,1.74-3.2S7.26,30,7.26,30Z"/><path class="cls-2" d="M13.58,23.91a16.49,16.49,0,0,1,1.24,4.19c-3.35,2.64-6.76,1.33-11.12.27L3.87,23Z"/><path class="cls-10" d="M10.88,32.34a.58.58,0,0,0,.54.62L28.6,33a.58.58,0,0,0,.55-.61h0a.59.59,0,0,0-.54-.62l-17.19,0a.57.57,0,0,0-.54.61Z"/><path class="cls-11" d="M11.42,31.73l17.19,0-12,0c-.24,0-.44.38-.44.83a1.6,1.6,0,0,0,.06.4H11.42a.58.58,0,0,1-.54-.62A.57.57,0,0,1,11.42,31.73Z"/><path class="cls-12" d="M15.83,31.41a.48.48,0,0,0,.49.44L28.9,32a.48.48,0,0,0,.5-.43L29.49,23a.47.47,0,0,0-.49-.44l-12.58-.11a.47.47,0,0,0-.5.44Z"/><path class="cls-13" d="M16.42,22.45h.15a.43.43,0,0,0-.25.38l-.09,8.58a.46.46,0,0,0,.44.44h-.35a.48.48,0,0,1-.49-.44l.09-8.52A.47.47,0,0,1,16.42,22.45Z"/><path class="cls-1" d="M11.72,2.15S11.5,5.53,7.35,6.91L7.18,5.19s-.11,3.43-.77,4.26c0,0-2.88-.77-2.27-4.75S8.94-.47,10.5.16A1.82,1.82,0,0,1,11.72,2.15Z"/><path class="cls-7" d="M7.93,5.87a1,1,0,0,1,.82-1.12A1.11,1.11,0,0,1,10,5.28a2.71,2.71,0,0,1-.61.24c-.16.06-.31.09-.44.13C8.69,5.72,8.44,5.74,7.93,5.87Z"/><path class="cls-5" d="M12.76,31.79c-.31-.23-2.4-.79-2.76-1-.21.75.09,1.35-.39,1.89a13.56,13.56,0,0,0,2.72.41,1.85,1.85,0,0,1,.29-.93C12.38,31.92,13.14,32.07,12.76,31.79Z"/><path class="cls-5" d="M11.42,33s2.27.91,2.51.67S13,33,13,33s1.59.51,1.57.27-1-.58-1-.58,1.31.21,1.26.05-1.29-.44-1.29-.44,2.88.29-.41-.64c0,0,1.89-.95-.51-.3C10,32.09,11.42,33,11.42,33Z"/><path class="cls-4" d="M10.22,30.25l.89.37a4.49,4.49,0,0,1-.54,2.23l-1.31-.2Z"/><path class="cls-2" d="M10.74,30.25A6.47,6.47,0,0,1,10.15,33s-6.71-1.77-8.63-2.87S-.42,22.91,1,18.86A5.79,5.79,0,0,1,6,14.7L4.28,22l.3,5.44Z"/><path class="cls-14" d="M10,10.05,13.8,9.8s-.42,1.49-1.62,1.69A2,2,0,0,1,10,10.05Z"/><path class="cls-15" d="M11.64,10.41a2.08,2.08,0,0,1,1.39.65A3,3,0,0,0,13.8,9.8L10,10.05a2.59,2.59,0,0,0,.3.59A2.51,2.51,0,0,1,11.64,10.41Z"/></g></g></svg>