<svg xmlns="http://www.w3.org/2000/svg" viewBox="0 0 30.79 18.32"><defs><style>.cls-1{fill:#5b6996;}.cls-2{fill:#899bd4;}.cls-3{fill:#8593ca;}.cls-4{fill:#7280af;}.cls-5{fill:#8c8073;}.cls-6{fill:#c9bfbb;}.cls-7{fill:#bf933d;}</style></defs><title>Ativo 131</title><g id="Camada_2" data-name="Camada 2"><g id="Camada_1-2" data-name="Camada 1"><path class="cls-1" d="M30.79,15.31v1.94a1.08,1.08,0,0,1-.9,1.06H.9A1.08,1.08,0,0,1,0,17.25V15.31a1.07,1.07,0,0,1,1.07-1.08H29.71A1.08,1.08,0,0,1,30.79,15.31Z"/><path class="cls-2" d="M29.89,15.63v2.68H.9V15.63Z"/><path class="cls-3" d="M29.33,13.9H1.45A1.45,1.45,0,0,0,0,15.35H0A1.45,1.45,0,0,0,1.45,16.8H29.33a1.45,1.45,0,0,0,1.46-1.45h0A1.45,1.45,0,0,0,29.33,13.9Z"/><rect class="cls-1" x="2.68" y="12.92" width="8.18" height="2.82"/><rect class="cls-4" x="1.83" y="12.92" width="8.18" height="2.82"/><path class="cls-5" d="M27,8H3.1v4.3H27a.8.8,0,0,0,.68-.89V8.92A.8.8,0,0,0,27,8Z"/><path class="cls-6" d="M25.73,8H1.83v4.3h23.9a.81.81,0,0,0,.69-.89V8.92A.81.81,0,0,0,25.73,8Z"/><path class="cls-7" d="M25.12,11.88H20.38a.39.39,0,0,1-.39-.4h0a.39.39,0,0,1,.39-.39h4.74a.39.39,0,0,1,.39.39h0A.39.39,0,0,1,25.12,11.88Z"/><rect class="cls-6" x="22.75" y="14.33" width="4.93" height="1.95"/><path class="cls-4" d="M2.34,12.92,1.83,13v-.2A3,3,0,0,0,2.34,12.92Z"/><path class="cls-2" d="M30.79,1.28V5A1.37,1.37,0,0,1,29.6,6.31h-.93a1.35,1.35,0,0,1-1.2-.73A1.32,1.32,0,0,1,27.32,5V1.28a1.36,1.36,0,0,1,.19-.7l2-.5L29.88,0h0a1.39,1.39,0,0,1,.85.92A1.49,1.49,0,0,1,30.79,1.28Z"/><path class="cls-3" d="M29.89,0V5l-.38.09-.46.11h0l-1.55.38-16.57,4c0,.07,0,.14,0,.21A2.56,2.56,0,0,1,10.2,11l-.08.07h0a2.54,2.54,0,0,1-1.41.63H2.36a2.72,2.72,0,0,1-.51-.08A2.5,2.5,0,0,1,.34,10.44H0V9.2A2.47,2.47,0,0,1,.73,7.45a2.51,2.51,0,0,1,1.12-.64h0L27.51.58l2-.5L29.88,0h0Z"/><path class="cls-2" d="M10.93,10.44a2.83,2.83,0,0,1,0,.41,2.39,2.39,0,0,1-.7,1.35,2.51,2.51,0,0,1-1.76.72H2.36a2.72,2.72,0,0,1-.51-.08A2.48,2.48,0,0,1,.73,8.69a2.51,2.51,0,0,1,1.12-.64A2.27,2.27,0,0,1,2.5,8H8.44A2.48,2.48,0,0,1,10.93,10.44Z"/><path class="cls-2" d="M29.89,1.24v5l-19,4.61L2.36,12.92a2.72,2.72,0,0,1-.51-.08V8Z"/><polygon class="cls-2" points="10.85 12.92 30.28 6.02 28.5 3.9 11.14 7.96 6.4 10.44 5.98 12.92 10.85 12.92"/><polygon class="cls-2" points="30.79 0.91 30.79 6.32 29.05 8.03 29.02 8.04 10.85 12.92 8.71 11.67 8.36 11.46 8.36 11.46 6.52 10.38 2.52 8.03 19 3.88 19.02 3.88 27.32 1.79 29.02 1.36 29.11 1.33 29.89 1.14 30.74 0.92 30.79 0.91"/><path class="cls-1" d="M30.79.91V6.32L29.05,8V1.44l.06-.11L29.88,0h0a1.39,1.39,0,0,1,.85.92Z"/><path class="cls-1" d="M30.79.91V6.32L29.05,8h0V.9a.91.91,0,0,1,.53-.82A1.14,1.14,0,0,1,29.88,0h0a1.39,1.39,0,0,1,.85.92Z"/></g></g></svg>