<svg xmlns="http://www.w3.org/2000/svg" viewBox="0 0 29.69 70.9"><defs><style>.cls-1{fill:#fff;}.cls-2{fill:#172d3a;}.cls-3{fill:#2d4856;}.cls-4{fill:#e5beb1;}.cls-5{fill:#dde4e8;}.cls-6{fill:#ffd9ca;}.cls-7{fill:#263d49;}.cls-8{fill:#c9a095;}</style></defs><title>Ativo 87</title><g id="Camada_2" data-name="Camada 2"><g id="Personagens"><polygon class="cls-1" points="15.62 64.66 15.06 68.88 16.68 69.44 17.51 64.92 15.62 64.66"/><path class="cls-2" d="M17.64,67a5.51,5.51,0,0,0,2.43,1.68c1.47.45,2.8,1,2.67,1.86A8.48,8.48,0,0,1,17,70.29v.36L14.6,70.5l.06-3,1.95.17-.14-.3Z"/><path class="cls-3" d="M18.51,70.36c3.2.85,4,0,4.22-.06a.55.55,0,0,1,0,.22A8.48,8.48,0,0,1,17,70.29v.36L14.6,70.5v-.59A12.62,12.62,0,0,1,18.51,70.36Z"/><polygon class="cls-1" points="8.18 65.01 7.33 69.18 5.61 69.18 6.31 64.65 8.18 65.01"/><path class="cls-2" d="M5.47,66.85a5.55,5.55,0,0,1-2.6,1.4C1.35,68.54,0,69,0,69.81a8.51,8.51,0,0,0,5.78.41l0,.35,2.35.12.27-3-2,0,.17-.28Z"/><path class="cls-3" d="M4.22,70.12C1,70.6.22,69.66,0,69.59a.54.54,0,0,0,0,.22,8.51,8.51,0,0,0,5.78.41l0,.35,2.35.12.05-.59A12.35,12.35,0,0,0,4.22,70.12Z"/><path class="cls-2" d="M21.58,31.14s2.5,17.68-3.33,35.12a2.89,2.89,0,0,1-3.35-.1s2-16.76,1.41-26.68l-1.25.19s-3.13,8.59-3.47,10.94S9.18,65.68,8.68,66.73c0,0-2.56.68-3.29-.69,0,0,.65-9.81.89-14,.17-3.08,3.84-18.24,3.84-18.24Z"/><polygon class="cls-4" points="14.32 10.33 14.68 15.62 18.86 15.35 18.41 11.37 14.32 10.33"/><path class="cls-1" d="M10.11,33.6s6.41,2.86,12.39,1c0,0,1.14-10.89,1.75-17.5a28.71,28.71,0,0,0-7.6-1.72,36.19,36.19,0,0,0-8,.69S9.57,28.52,10.11,33.6Z"/><polygon class="cls-2" points="15.83 14.93 15.37 15.89 16.11 16.91 13.98 30.08 15.54 32.22 17.75 30.5 17.52 17.1 18.33 15.93 17.28 15 15.83 14.93"/><polygon class="cls-5" points="13.4 15.52 14.92 17.76 16.26 14.91 14.44 13.84 13.4 15.52"/><polygon class="cls-5" points="20.1 15.87 18.75 17.71 17.13 15.01 19.11 14.15 20.1 15.87"/><path class="cls-1" d="M24.25,17.11s3.76,5.81,4.87,9.22a5.21,5.21,0,0,1-3.18,1.46l-3.29-5.11Z"/><path class="cls-1" d="M8.68,16.13S5,22,4,25.43a5.19,5.19,0,0,0,3.2,1.41l3.21-5.16Z"/><path class="cls-6" d="M23,34.16s-1.18-1.1-1.81-.78c0,0-3.27,2.62-.18.7,0,0-1.76,3.23.51.11,0,0-1.19,3.75.52.3,0,0-1.34,3.61.36.64,0,0,.24,1.21,1.22.66s4.05-4.4,4.05-4.4l-2.4-.24Z"/><path class="cls-1" d="M26,27.5a29.63,29.63,0,0,1-3,6s.61,1.41,1.6,1.69c0,0,4.3-4.26,5-6.83a18.24,18.24,0,0,0-1.15-3.52C28,24,26,27.5,26,27.5Z"/><path class="cls-1" d="M7.24,26A23.36,23.36,0,0,0,9.89,32s-.3,1.52-1.29,1.79c0,0-4.29-4.27-5-6.84a18.48,18.48,0,0,1,1.16-3.52C5.3,22.48,7.24,26,7.24,26Z"/><path class="cls-6" d="M10.93,31.58c-1-.28-2.16,1.48-2.4,2.11.38.45.66.72.8.75,1,.26.95-.93.95-.93,2.31,2.32.16-.68.16-.68,2.44,2.76.4-.41.4-.41,2.87,2.3.44-.24.44-.24C14.59,33.16,10.93,31.58,10.93,31.58Z"/><path class="cls-4" d="M15.71.08C13,.43,12.66,3.35,12.66,3.35A17.79,17.79,0,0,1,13,6.24.89.89,0,0,0,11.94,6c-.9.41-.18,3.26,1.2,3a7.25,7.25,0,0,0,.52,2A5.55,5.55,0,0,0,17.3,13.1c1.52.17,3.43-.7,3.54-2.48.15-2.47-.08-7.69-.08-7.69S20.5-.55,15.71.08Z"/><path class="cls-7" d="M14.43,2.64c-.3-.61-2-.6-2.3.18A12.63,12.63,0,0,0,11.94,6c1-.27,1.06.59,1.06.59l.12,1.29.72-.09V5a1.42,1.42,0,0,0,.64-.71A3.13,3.13,0,0,0,14.43,2.64Z"/><path class="cls-2" d="M18.55,4a1.08,1.08,0,0,1,.1-1,1.18,1.18,0,0,1,.94-.46,1.12,1.12,0,0,1,1,.48,1,1,0,0,1,.06,1.06,3.44,3.44,0,0,0-.84.3.31.31,0,0,0-.17.16.92.92,0,0,0-.21-.16A6,6,0,0,0,18.55,4Z"/><path class="cls-2" d="M15.15,4.23a1.08,1.08,0,0,1,.1-1.05,1.15,1.15,0,0,1,.93-.46,1.12,1.12,0,0,1,1,.48,1,1,0,0,1,.06,1.06,3.76,3.76,0,0,0-.85.3.37.37,0,0,0-.17.16.44.44,0,0,0-.2-.16A5.34,5.34,0,0,0,15.15,4.23Z"/><path class="cls-7" d="M18,8.8s-2.14-.42-2.47.25-.43,1.41-1,1.15-.6-5.63-.6-5.63l-.77,1.79s-1.3,7.12,3,7.25c4.54.15,5.19-1.16,4.76-3.54,0,0-.49.24-.75-.4S20.34,8.45,18,8.8Z"/><path class="cls-1" d="M16.21,9.56l2.52.24S17.87,10.81,16.21,9.56Z"/><polygon class="cls-8" points="18.14 8.29 18.48 5.23 19.59 7.92 18.14 8.29"/><path class="cls-2" d="M19,5.49a5.08,5.08,0,0,0,.75.44s.07,0,.21,0a4.59,4.59,0,0,1,.48-.27.89.89,0,0,1-.11.62.69.69,0,0,1-.72.33A.83.83,0,0,1,19,6.1.91.91,0,0,1,19,5.49Z"/><path class="cls-2" d="M15.28,5.44c.36.2.64.45.75.44s.07,0,.21,0l.48-.26a.88.88,0,0,1-.11.61.68.68,0,0,1-.72.33.81.81,0,0,1-.55-.47A.91.91,0,0,1,15.28,5.44Z"/></g></g></svg>