<svg xmlns="http://www.w3.org/2000/svg" viewBox="0 0 29.98 59.45"><defs><style>.cls-1{fill:#e5beb5;}.cls-2{fill:#b57f74;opacity:0.4;}.cls-3{fill:#33594b;}.cls-4{fill:#4b616b;}.cls-13,.cls-5,.cls-8{fill:#172d3a;}.cls-6{fill:#c7dde2;}.cls-7{fill:none;stroke:#172d3a;stroke-linecap:round;stroke-linejoin:round;stroke-width:0.73px;}.cls-8{opacity:0.3;}.cls-9{fill:#0e2735;opacity:0.15;}.cls-10{fill:#393a3a;}.cls-11{fill:#222323;}.cls-12{fill:#e58383;}.cls-13{opacity:0.2;}.cls-14{fill:#4f5051;}.cls-15{fill:#686868;}.cls-16{fill:#353030;}</style></defs><title>Ativo 111</title><g id="Camada_2" data-name="Camada 2"><g id="Camada_1-2" data-name="Camada 1"><path class="cls-1" d="M3.65,26.33a5.41,5.41,0,0,0-2-.22c-.77.14-2,1-1.62,1.94v0H3.56Z"/><rect class="cls-1" x="16.98" y="11.68" width="3.37" height="2.93" transform="matrix(0.99, -0.13, 0.13, 0.99, -1.59, 2.62)"/><rect class="cls-2" x="16.98" y="11.68" width="3.37" height="2.93" transform="matrix(0.99, -0.13, 0.13, 0.99, -1.59, 2.62)"/><polygon class="cls-1" points="15.13 8.49 15.55 5.24 13.66 7.84 15.13 8.49"/><polygon class="cls-2" points="15.13 8.49 15.55 5.24 13.66 7.84 15.13 8.49"/><polygon class="cls-3" points="10.56 50.96 11.13 55.27 9.47 55.84 8.63 51.23 10.56 50.96"/><path class="cls-4" d="M8.49,53.33A5.55,5.55,0,0,1,6,55c-1.5.47-2.86,1.05-2.73,1.91,0,0,2.28,1,5.91-.24v.37l2.4-.15-.06-3-2,.17.15-.3Z"/><path class="cls-5" d="M7.6,56.79c-3.26.86-4.11,0-4.31-.07a.6.6,0,0,0,0,.23s2.28,1,5.91-.24v.37l2.4-.15v-.61A12.81,12.81,0,0,0,7.6,56.79Z"/><path class="cls-6" d="M21,31.72S8.64,30.27,5.9,32,7.35,52.82,7.35,52.82a17.37,17.37,0,0,0,4.51-.32L10.73,37.36s11.11,2.9,11.27-.81S21,31.72,21,31.72Z"/><path class="cls-7" d="M7.8,53.81c.4.34.73.67,1.13,1"/><path class="cls-7" d="M7.14,54.69c.27.33.47.6.73.93"/><path class="cls-8" d="M21,31.72S8.64,30.27,5.9,32,7.35,52.82,7.35,52.82s.68,0,1.57,0l.13.69-.56-.2a4.86,4.86,0,0,1-.57.59,4.9,4.9,0,0,1-.58.46A4.59,4.59,0,0,1,6,55c-1.5.47-2.86,1.05-2.73,1.91,0,0,2.28,1,5.91-.24v.37l2.4-.15v-.61h0l-.05-2.42L11,54l-.17-1.24a7.8,7.8,0,0,0,1.07-.21L10.73,37.36s11.11,2.9,11.27-.81S21,31.72,21,31.72Z"/><polygon class="cls-3" points="7.33 52.12 7.9 56.43 6.24 57 5.4 52.39 7.33 52.12"/><path class="cls-4" d="M5.27,54.49a5.69,5.69,0,0,1-2.48,1.72c-1.51.46-2.87,1-2.74,1.9,0,0,2.28,1,5.91-.24v.37l2.4-.15-.06-3-2,.18.14-.31Z"/><path class="cls-5" d="M4.37,58c-3.26.87-4.11,0-4.3-.06a.55.55,0,0,0,0,.22s2.28,1,5.91-.24v.37l2.4-.15v-.6A12.36,12.36,0,0,0,4.37,58Z"/><path class="cls-6" d="M24.69,31.89s-19.36-.46-22.1,1.32S4,54,4,54a17.37,17.37,0,0,0,4.51-.32L7.42,38.52S25.36,41.91,25.36,37C25.36,33.32,24.69,31.89,24.69,31.89Z"/><path class="cls-7" d="M4.48,55.19c.4.33.73.66,1.13,1"/><path class="cls-7" d="M3.87,55.56l.73.94"/><path class="cls-5" d="M12.76,32S17,35.44,25.52,34.62c0,0,2.66-16.41-1-19-1.65-1.17-8.83-2.74-11.27,1.74S13,26.68,12.76,32Z"/><path class="cls-9" d="M30,58c0,.82-4.75,1.49-10.6,1.49S8.77,58.78,8.77,58s4.75-1.49,10.61-1.49S30,57.14,30,58Z"/><rect class="cls-10" x="18.28" y="41.05" width="2.49" height="12.75"/><rect class="cls-11" x="17.89" y="49.38" width="3.28" height="6.25"/><path class="cls-11" d="M24.37,54.25H14.65a1,1,0,0,0,0,2.06h9.72a1,1,0,0,0,0-2.06Z"/><rect class="cls-11" x="18.28" y="41.05" width="2.49" height="3.51"/><rect class="cls-10" x="20.57" y="30.38" width="2.74" height="9.91"/><rect class="cls-12" x="8.68" y="38.76" width="19.51" height="3.66" rx="1.14"/><rect class="cls-12" x="15.38" y="23.52" width="12.8" height="9.91" rx="1.14"/><rect class="cls-13" x="10.92" y="38.76" width="17.27" height="3.66" rx="1.14"/><rect class="cls-13" x="17.55" y="23.52" width="10.63" height="9.91" rx="1.14"/><ellipse class="cls-14" cx="13.76" cy="56.92" rx="1.38" ry="1.6"/><rect class="cls-14" x="13.64" y="55.32" width="1" height="3.2"/><ellipse class="cls-15" cx="14.64" cy="56.92" rx="1.38" ry="1.6"/><path class="cls-11" d="M14,56.92a.64.64,0,1,0,.63-.73A.69.69,0,0,0,14,56.92Z"/><path class="cls-14" d="M17.65,56.92A1.5,1.5,0,0,0,19,58.52a1.62,1.62,0,0,0,0-3.2A1.51,1.51,0,0,0,17.65,56.92Z"/><rect class="cls-14" x="18.9" y="55.32" width="1" height="3.2"/><ellipse class="cls-15" cx="19.9" cy="56.92" rx="1.38" ry="1.6"/><path class="cls-11" d="M19.28,56.92a.63.63,0,1,0,.62-.73A.69.69,0,0,0,19.28,56.92Z"/><ellipse class="cls-14" cx="23.79" cy="56.92" rx="1.38" ry="1.6"/><rect class="cls-14" x="23.66" y="55.32" width="1" height="3.2"/><ellipse class="cls-15" cx="24.67" cy="56.92" rx="1.38" ry="1.6"/><path class="cls-11" d="M24,56.92a.63.63,0,1,0,.63-.73A.69.69,0,0,0,24,56.92Z"/><path class="cls-1" d="M20.36,2.71c2.43.87,2.17,2.42,2.17,2.42a12.94,12.94,0,0,1-.19,2.36c.27-.26-.88,3.74-1,3.91a4.78,4.78,0,0,1-3.48,1.17,3.48,3.48,0,0,1-3.35-3.15A33.42,33.42,0,0,1,15.65,3S16.33,1.27,20.36,2.71Z"/><path class="cls-16" d="M16.33,3.16c.64.09,1.67,0,2.31.07,0-.07-.05.47-.05.47a25.2,25.2,0,0,0-.46,2.77c-.65-.06-.7.46-.7.46l-.24,1.14-.63-.15.29-2.44a1.28,1.28,0,0,1-.5-.7S16.37,3.61,16.33,3.16Z"/><path class="cls-16" d="M21.61,4.3a.12.12,0,0,0-.1,0c-.26.19-1.15,1.11-3.77.24l-.26-1.06A3.63,3.63,0,0,1,14.24,2,5.14,5.14,0,0,1,18.77.69,7.31,7.31,0,0,0,16.91.14s4-.89,5.92,1.79c0,0,2,.23,1.65,2.06C24.21,5.35,21.61,4.3,21.61,4.3Z"/><path class="cls-16" d="M17.38,6.67s1.08-.68,1.16.67A1.39,1.39,0,0,1,17.11,9s-.68,3.09,1.17,3.73,6.14,0,6.2-8.75l-5.6-1.18Z"/><path class="cls-5" d="M16,15.32l-.16-2.18A24.65,24.65,0,0,1,21,13l.11,1.72Z"/><path class="cls-5" d="M16.1,14.52s-4.41.22-5.41,3.53A53.41,53.41,0,0,1,8,25.67l-4.81-.16S2,26.83,2.32,27.83s6,1.65,7.21,1.41,4.81-6.47,4.81-6.47Z"/></g></g></svg>