<svg xmlns="http://www.w3.org/2000/svg" viewBox="0 0 28.12 59.14"><defs><style>.cls-1{fill:#639e8a;}.cls-2{fill:#8e7775;}.cls-3{fill:#594847;}.cls-4,.cls-6,.cls-7{fill:#172d3a;}.cls-5{fill:#e58383;}.cls-6,.cls-9{opacity:0.1;}.cls-13,.cls-7{opacity:0.2;}.cls-8{fill:#c7dddb;}.cls-10{fill:#3b4f56;}.cls-11{fill:#ffded4;}.cls-12{fill:#d88f4e;}.cls-13,.cls-16{fill:#755950;}.cls-14{fill:#0c181e;}.cls-15{opacity:0.5;}.cls-17{fill:#bc7942;}</style></defs><title>Ativo 86</title><g id="Camada_2" data-name="Camada 2"><g id="Personagens"><polygon class="cls-1" points="9.32 52.73 8.26 56.74 9.76 57.49 11.12 53.22 9.32 52.73"/><path class="cls-2" d="M11,55.23a1.39,1.39,0,0,0,.52,1.24c1.28.79,2.58,1.33,2.36,2.13,0,0-.66,1.36-3.95-.25l-.06.34-2.25-.43L8,55.4l1.86.4-.09-.3Z"/><path class="cls-3" d="M10.91,58.29c3,1,2.9.19,3,.1a.5.5,0,0,1,0,.21s-.66,1.36-3.95-.25l-.06.34-2.25-.43.08-.57A10.37,10.37,0,0,1,10.91,58.29Z"/><polygon class="cls-1" points="21.23 53.01 20.98 57.15 22.61 57.58 23.09 53.13 21.23 53.01"/><path class="cls-2" d="M23.36,55.12a1.38,1.38,0,0,0,.76,1.11c1.41.52,2.8.79,2.73,1.62,0,0-.37,1.47-3.92.54l0,.35-2.3,0-.15-2.89,1.91,0-.16-.27Z"/><path class="cls-3" d="M23.89,58.14c3.17.39,2.88-.39,2.94-.5a.5.5,0,0,1,0,.21s-.37,1.47-3.92.54l0,.35-2.3,0,0-.58A10,10,0,0,1,23.89,58.14Z"/><rect class="cls-4" x="2.45" y="37.34" width="1.36" height="20.3"/><rect class="cls-4" x="5.89" y="36.85" width="1.36" height="20.3"/><rect class="cls-4" x="19.42" y="36.85" width="1.36" height="20.3"/><rect class="cls-4" x="16.84" y="37.34" width="1.36" height="20.3"/><rect class="cls-5" y="20.32" width="15.45" height="20.84" rx="1.03"/><rect class="cls-6" y="20.32" width="15.45" height="20.84" rx="1.03"/><rect class="cls-7" x="2.58" y="20.32" width="15.45" height="20.84" rx="1.03"/><rect class="cls-5" x="0.39" y="37.84" width="20.34" height="3.35" rx="1.03"/><rect class="cls-6" x="0.39" y="37.84" width="20.34" height="3.35" rx="1.03"/><path class="cls-8" d="M24.22,35.37l-.09,3.45V54.56c-3.42,2-4.1.46-4.1.46A85.43,85.43,0,0,1,16.7,38.46C20.11,37.76,20.82,36.12,24.22,35.37Z"/><path class="cls-8" d="M18.15,32.82s6.81-4.52,6,4-6.73,2.21-6.73,2.21Z"/><g class="cls-9"><path class="cls-10" d="M24.22,35.37l-.09,3.45V54.56c-3.42,2-4.1.46-4.1.46A85.43,85.43,0,0,1,16.7,38.46C20.11,37.76,20.82,36.12,24.22,35.37Z"/><path class="cls-10" d="M18.15,32.82s6.81-4.52,6,4-6.73,2.21-6.73,2.21Z"/></g><path class="cls-11" d="M18.46,25.69c0,.08.12.27.25.54-1.5.07-1.37,1.66-3.88,2.13-1.55-2.53.16-9.19.16-9.19l3.5,0S18.81,24.5,18.46,25.69Z"/><path class="cls-11" d="M17.08,24.49A76.44,76.44,0,0,1,24,28.61c.4.3.75.55,1,.77a2.54,2.54,0,0,0-.21,1.12c-1.82.21-6.95-1-9.06-1.91a4.14,4.14,0,0,1-.59-.35A8.34,8.34,0,0,0,17.08,24.49Z"/><path class="cls-12" d="M11.45.69s3.18-1.08,4.87.74-.06,5.23,1.26,7,3.32,5.55-1,7.87-5.28-2-5.28-2Z"/><path class="cls-8" d="M21.78,38l-1.62,3L12.31,55.92a4.24,4.24,0,0,1-3.94-2.46s1.87-6.79,5.29-16C17,38.33,18.4,37.18,21.78,38Z"/><ellipse class="cls-8" cx="11.69" cy="34.65" rx="7.81" ry="5.43"/><path class="cls-11" d="M9,7.88A1.48,1.48,0,0,1,7.5,9.36,1.48,1.48,0,0,1,6.16,7.77,1.48,1.48,0,0,1,7.62,6.28,1.49,1.49,0,0,1,9,7.88Z"/><path class="cls-11" d="M9.57,8.63l.18,4.62-4.13.86s4.16,2.26,7.45,2.07,3.59-2.07,3.59-2.07l-3.45-.81L13.16,11Z"/><path class="cls-13" d="M13.21,12.94l-.05-2.33-3.68-3,.27,4.8A30.85,30.85,0,0,1,13.21,12.94Z"/><path class="cls-11" d="M11.93,1.78s3.41.3,4,2.78.86,5.66-1.24,7.1-5.1.3-6.41-1.82S6.48,2.57,11.93,1.78Z"/><path class="cls-13" d="M13.52,7a4.53,4.53,0,0,0,.81,1.15l-.66.57"/><path class="cls-14" d="M15.33,6.93c0,.31-.19.55-.37.54s-.29-.28-.26-.59.19-.55.36-.54S15.35,6.62,15.33,6.93Z"/><path class="cls-14" d="M12.38,6.63c0,.31-.19.55-.36.54s-.29-.28-.26-.59S12,6,12.12,6,12.41,6.32,12.38,6.63Z"/><g class="cls-15"><path class="cls-16" d="M11.41,9.44a1.28,1.28,0,0,1,1.36-.66,1.13,1.13,0,0,1,1,1.14l-.69-.06-.49,0A4.85,4.85,0,0,1,11.41,9.44Z"/></g><path class="cls-1" d="M6.33,21.11,1.69,19.26c.1-.51,1.08-4.83,4.2-5.42a16.44,16.44,0,0,1,2-.25c.41.94,1.9,1.64,3.67,1.64s3.27-.7,3.68-1.63a6.55,6.55,0,0,1,1.81.52c3.23,1.25,2.77,5.77,2.77,5.77l-2.1.9a2.92,2.92,0,0,1-1.87,4,76.14,76.14,0,0,1-9.33-1l-.39-.16Z"/><path class="cls-12" d="M12.18,1.85s-.61,4.43-4.12,5.23c0,0-.24-1.17-1.23-.56A1.38,1.38,0,0,0,8.12,8.86a5.27,5.27,0,0,0,1.65,2.59l0,1.93a31.71,31.71,0,0,0-5,.83,3.57,3.57,0,0,1-1.6-4.55c1.06-3,1.88-2,2.62-5.35S8.63-.32,11,.07A1.4,1.4,0,0,1,12.18,1.85Z"/><path class="cls-17" d="M10,4.84a1.23,1.23,0,0,1,1.3-1.2,1.33,1.33,0,0,1,1.35,1.1,4.3,4.3,0,0,1-.82.2,2.75,2.75,0,0,1-.53,0C11,5,10.74,4.9,10,4.84Z"/><path class="cls-17" d="M13.79,4.94a.81.81,0,0,1,.33-.79A1.17,1.17,0,0,1,15,3.91a1.13,1.13,0,0,1,1,1.14,3.3,3.3,0,0,1-.73.08,3.18,3.18,0,0,1-.44,0A2.35,2.35,0,0,1,14.46,5,2.71,2.71,0,0,0,13.79,4.94Z"/><path class="cls-1" d="M16,22.39l1.23,8.12a33.35,33.35,0,0,1-13,.56L6.28,20.43Z"/><path class="cls-11" d="M6.42,26l.28.54c-1.49.14-1.28,1.73-3.76,2.32-1.68-2.44-.33-9.19-.33-9.19l4.25,1.5S6.09,25.32,6.42,26Z"/><path class="cls-11" d="M4.64,25a71.85,71.85,0,0,1,7.2,3.54c.43.26.79.48,1.07.69a2.54,2.54,0,0,0-.11,1.13c-1.8.35-7-.43-9.19-1.17A3.81,3.81,0,0,1,3,28.9,8.38,8.38,0,0,0,4.64,25Z"/><path class="cls-8" d="M17.47,33s8.12-1,3.6,6.27-7-1-7-1Z"/><path class="cls-11" d="M15.06,28.58c-.49-.46-4.14-.16-4.14-.16s1.18.7.62.61a5.84,5.84,0,0,0,.65,1c.74.77,1.29-.26,1.29-.26.7,3.16.5-.47.5-.47.58,3.58.55-.13.55-.13,1.18,3.44.5,0,.5,0C17.28,31.85,15.06,28.58,15.06,28.58Z"/><path class="cls-11" d="M27.14,28.77c-.48-.47-4.13-.16-4.13-.16s1.18.7.62.6a4.63,4.63,0,0,0,.65,1.05C25,31,25.57,30,25.57,30c.7,3.15.5-.48.5-.48.58,3.59.55-.12.55-.12,1.18,3.44.49,0,.49,0C29.36,32,27.14,28.77,27.14,28.77Z"/></g></g></svg>