<svg xmlns="http://www.w3.org/2000/svg" viewBox="0 0 35.95 35.93"><defs><style>.cls-1{fill:#a07d70;}.cls-2,.cls-3{fill:#172d3a;}.cls-2{opacity:0.2;}.cls-4{fill:#0c1416;}.cls-5{fill:#845851;opacity:0.4;}.cls-6{fill:#edc156;}.cls-7{fill:#141d1f;}.cls-7,.cls-9{opacity:0.1;}.cls-8{fill:#fff;}.cls-10{fill:#263d49;}.cls-11{fill:#0c181e;}</style></defs><title>Ativo 82</title><g id="Camada_2" data-name="Camada 2"><g id="Personagens"><polygon class="cls-1" points="8.01 12.79 8.64 18.27 8.67 21.09 10.8 21.4 13.28 21.82 12.49 17.81 11.85 13.7 8.01 12.79"/><polygon class="cls-2" points="12.47 21.69 11.88 17.9 8.51 17.1 8.01 12.79 11.85 13.7 12.49 17.81 13.28 21.82 12.47 21.69"/><path class="cls-1" d="M8.66,4.76C6,5.71,6.26,7.6,6.26,7.6a17.74,17.74,0,0,0,.21,2.86.74.74,0,0,0-1.07-.1c-1,.73,0,3.32,1.45,2.9a7.47,7.47,0,0,0,.74,2c.5.8,2.26,1.55,3.85,1.57A3.85,3.85,0,0,0,15,13.27a75.91,75.91,0,0,0-1.13-8S13.12,3.19,8.66,4.76Z"/><path class="cls-3" d="M7.55,5.57c-.74.08-1.67.81-2.42.88,0-.08.06.55.06.55a31.38,31.38,0,0,1,.48,3.23c.75-.05.8.55.8.55l.25,1.33L7.46,12,7.18,9.1a1.46,1.46,0,0,0,.58-.8A8.47,8.47,0,0,0,7.55,5.57Z"/><path class="cls-4" d="M11.71,7.92a1,1,0,0,1,.09-1,1.13,1.13,0,0,1,.85-.51,1.12,1.12,0,0,1,1,.35,1,1,0,0,1,.23,1,7.38,7.38,0,0,0-.78.25c-.16.06-.2.13-.25.13A2,2,0,0,1,12.53,8Z"/><path class="cls-4" d="M8.45,8.31a1,1,0,0,1,.09-1,1.14,1.14,0,0,1,.86-.51,1.11,1.11,0,0,1,1,.35,1,1,0,0,1,.24,1c-.4.12-.63.18-.79.25s-.19.13-.24.13a1.93,1.93,0,0,1-.3-.08Z"/><polygon class="cls-5" points="12.07 12.38 11.83 9.19 13.34 11.93 12.07 12.38"/><path class="cls-6" d="M6.47,34.17a124.36,124.36,0,0,1,12.58,1.76c.22-4.47.55-13,.15-15.66-.27-1.79-5.06-2.51-7.69-2.38L11,19.31l-.89-1.16c-2.45.28-6.63,1.54-7.37,2.13s.25,2,1,4.52C4.61,27.94,5.82,32,6.47,34.17Z"/><path class="cls-7" d="M8.62,34.57a40.14,40.14,0,0,1,5.37.24c1.7.21,3.39.48,5.08.76.05-1,.1-2.11.14-3.32-8.55-2.3-13-4.37-14.86-5.54.44,1.82,1.51,6,2,7.93C7.08,34.61,7.86,34.58,8.62,34.57Z"/><path class="cls-1" d="M13.31,30.94c-.52-.6-2.58-.06-2.58-.06L5.67,32.07c-.58.29,1.28.94.66,1.1.19.44,3.28-.93,3.43-.74.79,1,1.56-.17,1.56-.17.51,3.82.63-.51.63-.51.34,4.32.67-.09.67-.09,1.06,4.2.59.09.59.09C15.62,35.06,13.31,30.94,13.31,30.94Z"/><path class="cls-6" d="M13.94,18s17,1.47,20.94,2.23c2.51.5,0,4.38-1.32,3.59-.5-.3-16-.31-16-.31Z"/><path class="cls-8" d="M11.26,21.44c-2.14.36-3.18-1.31-3.54-2.93a15.16,15.16,0,0,1,2.37-.36L11,19.31l.53-1.42a17.25,17.25,0,0,1,2.43.08C13.92,19.32,13.6,21.05,11.26,21.44Z"/><g class="cls-9"><path class="cls-10" d="M11.26,21.44c-2.14.36-3.18-1.31-3.54-2.93a15.16,15.16,0,0,1,2.37-.36L11,19.31l.53-1.42a17.25,17.25,0,0,1,2.43.08C13.92,19.32,13.6,21.05,11.26,21.44Z"/></g><polygon class="cls-8" points="13.89 17.93 12.5 19.87 11.51 17.89 13.12 17.05 13.89 17.93"/><polygon class="cls-8" points="7.65 18.46 9.02 20.45 10.09 18.15 8.26 17.57 7.65 18.46"/><path class="cls-8" d="M8.45,30.82l.9-.23s.47,1.45-.1,1.9L8,32.46,8.45,31"/><path class="cls-6" d="M2.62,20.53s-4.22,8-1.95,11.7c1.26,2.08,8.32.44,8.32.44a3,3,0,0,0-.22-2s-3.14.12-4.26-.81c-.42-.35,1.17-4.89,1.17-4.89Z"/><path class="cls-8" d="M12.86,13.72s-2.28,1.42-3.42-.52"/><path class="cls-11" d="M10.71,9.56c.06.35-.06.66-.25.69s-.4-.23-.45-.58.06-.66.25-.69S10.66,9.21,10.71,9.56Z"/><path class="cls-11" d="M13.76,9.28c.05.35-.06.66-.26.69s-.39-.23-.45-.58.07-.66.26-.69S13.71,8.93,13.76,9.28Z"/><path class="cls-3" d="M7,6.43s2.37,1.32,3.17-.1c0,0,1.89,1.42,2.32-.81,0,0,3.55,1.47,3.44-1.43s-3-1.83-3-1.83S14.28.73,12.18.07C10.81-.36,9.33,1.34,9.17,2,9.17,2,9.39.37,7.45.88S6,2.56,6,2.56A1.23,1.23,0,0,0,4.11,3C3.52,4.09,5,4.5,5,4.5s-1.35,0-1.24,1S5,6.23,5,6.23,4.11,7.6,5.3,7.91,7,6.43,7,6.43Z"/></g></g></svg>