<svg xmlns="http://www.w3.org/2000/svg" viewBox="0 0 65.16 59.45"><defs><style>.cls-1,.cls-3,.cls-6{fill:#0e2735;}.cls-1{opacity:0.15;}.cls-2{fill:#c99775;}.cls-3,.cls-5{opacity:0.5;}.cls-4{fill:#525557;}.cls-5{fill:#1c1e1f;}.cls-12,.cls-6{opacity:0.1;}.cls-20,.cls-7{fill:none;}.cls-7{stroke:#d2d8db;stroke-miterlimit:10;stroke-width:0.52px;}.cls-8{fill:#ccd6db;}.cls-9{fill:#e7eef3;}.cls-10{fill:#3f3e3d;}.cls-11{fill:#adb8bc;}.cls-13{fill:#ffdb8a;}.cls-14{fill:#e5beb5;}.cls-15{fill:#b57f74;opacity:0.4;}.cls-16{fill:#33594b;}.cls-17{fill:#4b616b;}.cls-18,.cls-21,.cls-25{fill:#172d3a;}.cls-19{fill:#c7dde2;}.cls-20{stroke:#172d3a;stroke-linecap:round;stroke-linejoin:round;stroke-width:0.73px;}.cls-21{opacity:0.3;}.cls-22{fill:#393a3a;}.cls-23{fill:#222323;}.cls-24{fill:#e58383;}.cls-25{opacity:0.2;}.cls-26{fill:#4f5051;}.cls-27{fill:#686868;}.cls-28{fill:#353030;}</style></defs><title>Ativo 105</title><g id="Camada_2" data-name="Camada 2"><g id="Camada_1-2" data-name="Camada 1"><path class="cls-1" d="M65.14,53.78c0,1-14.58,1.76-32.57,1.76S0,54.75,0,53.78,14.59,52,32.57,52,65.14,52.81,65.14,53.78Z"/><rect class="cls-2" x="30.03" y="29.95" width="30.35" height="21.1"/><rect class="cls-3" x="30.03" y="29.95" width="30.35" height="21.1"/><polygon class="cls-2" points="2.53 29.58 2.53 53.93 30.03 53.93 30.03 29.95 60.39 29.95 60.39 53.93 62.68 53.93 62.68 29.58 2.53 29.58"/><rect class="cls-2" x="2.58" y="31.45" width="27.1" height="21.73"/><rect class="cls-4" x="4.31" y="32.83" width="23.96" height="18.81"/><rect class="cls-2" x="4.6" y="40.41" width="23.39" height="10.85"/><rect class="cls-2" x="4.6" y="33.12" width="23.39" height="6.92"/><rect class="cls-4" x="12.24" y="36.11" width="8.11" height="1.01"/><rect class="cls-5" x="12.24" y="36.83" width="8.11" height="0.75"/><rect class="cls-4" x="12.24" y="45.04" width="8.11" height="1.01"/><rect class="cls-5" x="12.24" y="45.75" width="8.11" height="0.75"/><polygon class="cls-6" points="62.68 29.51 62.68 30.76 60.39 30.76 60.39 29.95 30.03 29.95 30.03 30.76 2.53 30.76 2.53 29.51 62.68 29.51"/><rect class="cls-2" y="28.04" width="65.16" height="2.02"/><path class="cls-7" d="M33.88,24.24S32.83,25.93,35,25.91s1.16,3.3,5.1,1.73"/><rect class="cls-8" x="24.83" y="23.97" width="8.68" height="3.18"/><rect class="cls-9" x="17.65" y="6.66" width="23.04" height="18.5" rx="0.87"/><rect class="cls-10" x="18.47" y="7.34" width="21.4" height="14.44" rx="0.84"/><rect class="cls-11" x="23.46" y="26.57" width="11.35" height="0.58"/><rect class="cls-9" x="19.42" y="27.15" width="19.66" height="0.97"/><rect class="cls-9" x="39.67" y="27.33" width="2.75" height="0.75"/><path class="cls-9" d="M42.42,27.36c0-.42-.62-.75-1.38-.75s-1.37.33-1.37.75.61.75,1.37.75S42.42,27.78,42.42,27.36Z"/><rect class="cls-13" x="20.3" y="6.89" width="3.31" height="2.87"/><path class="cls-14" d="M37.25,26.33a5.41,5.41,0,0,0-2-.22c-.77.14-2,1-1.62,1.94v0h3.49Z"/><rect class="cls-14" x="50.58" y="11.68" width="3.37" height="2.93" transform="translate(-1.29 7.13) rotate(-7.7)"/><rect class="cls-15" x="50.58" y="11.68" width="3.37" height="2.93" transform="translate(-1.29 7.13) rotate(-7.7)"/><polygon class="cls-14" points="48.73 8.49 49.15 5.24 47.26 7.84 48.73 8.49"/><polygon class="cls-15" points="48.73 8.49 49.15 5.24 47.26 7.84 48.73 8.49"/><polygon class="cls-16" points="44.16 50.96 44.73 55.27 43.07 55.84 42.23 51.23 44.16 50.96"/><path class="cls-17" d="M42.09,53.33A5.55,5.55,0,0,1,39.61,55c-1.5.47-2.86,1.05-2.73,1.91,0,0,2.28,1,5.91-.24v.37l2.4-.15-.06-3-2,.17.15-.3Z"/><path class="cls-18" d="M41.2,56.79c-3.26.86-4.11,0-4.31-.07a.6.6,0,0,0,0,.23s2.28,1,5.91-.24v.37l2.4-.15v-.61A12.81,12.81,0,0,0,41.2,56.79Z"/><path class="cls-19" d="M54.64,31.72S42.24,30.27,39.5,32,41,52.82,41,52.82a17.37,17.37,0,0,0,4.51-.32L44.33,37.36s11.11,2.9,11.27-.81S54.64,31.72,54.64,31.72Z"/><path class="cls-20" d="M41.4,53.81c.4.34.73.67,1.13,1"/><path class="cls-20" d="M40.74,54.69c.27.33.47.6.73.93"/><path class="cls-21" d="M54.64,31.72S42.24,30.27,39.5,32,41,52.82,41,52.82s.68,0,1.57,0l.13.69-.56-.2a5.91,5.91,0,0,1-1.15,1.05,4.59,4.59,0,0,1-1.33.66c-1.5.47-2.86,1.05-2.73,1.91,0,0,2.28,1,5.91-.24v.37l2.4-.15v-.61h0l0-2.42-.58.05-.17-1.24a7.8,7.8,0,0,0,1.07-.21L44.33,37.36s11.11,2.9,11.27-.81S54.64,31.72,54.64,31.72Z"/><polygon class="cls-16" points="40.93 52.12 41.5 56.43 39.84 57 39 52.39 40.93 52.12"/><path class="cls-17" d="M38.87,54.49a5.69,5.69,0,0,1-2.48,1.72c-1.51.46-2.87,1-2.74,1.9,0,0,2.28,1,5.91-.24v.37l2.4-.15-.06-3-2,.18.14-.31Z"/><path class="cls-18" d="M38,58c-3.26.87-4.11,0-4.3-.06a.55.55,0,0,0,0,.22s2.28,1,5.91-.24v.37l2.4-.15v-.6A12.36,12.36,0,0,0,38,58Z"/><path class="cls-19" d="M58.29,31.89s-19.36-.46-22.1,1.32S37.64,54,37.64,54a17.37,17.37,0,0,0,4.51-.32L41,38.52S59,41.91,59,37C59,33.32,58.29,31.89,58.29,31.89Z"/><path class="cls-20" d="M38.08,55.19c.4.33.73.66,1.13,1"/><path class="cls-20" d="M37.47,55.56l.73.94"/><path class="cls-18" d="M46.36,32s4.22,3.47,12.76,2.65c0,0,2.66-16.41-1-19-1.65-1.17-8.83-2.74-11.27,1.74S46.63,26.68,46.36,32Z"/><path class="cls-1" d="M63.58,58c0,.82-4.75,1.49-10.6,1.49S42.37,58.78,42.37,58,47.12,56.47,53,56.47,63.58,57.14,63.58,58Z"/><rect class="cls-22" x="51.88" y="41.05" width="2.49" height="12.75"/><rect class="cls-23" x="51.49" y="49.38" width="3.28" height="6.25"/><path class="cls-23" d="M58,54.25H48.25a1,1,0,0,0,0,2.06H58a1,1,0,0,0,0-2.06Z"/><rect class="cls-23" x="51.88" y="41.05" width="2.49" height="3.51"/><rect class="cls-22" x="54.17" y="30.38" width="2.74" height="9.91"/><rect class="cls-24" x="42.28" y="38.76" width="19.51" height="3.66" rx="1.14"/><rect class="cls-24" x="48.98" y="23.52" width="12.8" height="9.91" rx="1.14"/><rect class="cls-25" x="44.52" y="38.76" width="17.27" height="3.66" rx="1.14"/><rect class="cls-25" x="51.15" y="23.52" width="10.63" height="9.91" rx="1.14"/><ellipse class="cls-26" cx="47.36" cy="56.92" rx="1.38" ry="1.6"/><rect class="cls-26" x="47.24" y="55.32" width="1" height="3.2"/><ellipse class="cls-27" cx="48.24" cy="56.92" rx="1.38" ry="1.6"/><path class="cls-23" d="M47.61,56.92a.64.64,0,1,0,.63-.73A.69.69,0,0,0,47.61,56.92Z"/><path class="cls-26" d="M51.25,56.92a1.4,1.4,0,1,0,1.38-1.6A1.5,1.5,0,0,0,51.25,56.92Z"/><rect class="cls-26" x="52.5" y="55.32" width="1" height="3.2"/><ellipse class="cls-27" cx="53.51" cy="56.92" rx="1.38" ry="1.6"/><path class="cls-23" d="M52.88,56.92a.63.63,0,1,0,.63-.73A.69.69,0,0,0,52.88,56.92Z"/><ellipse class="cls-26" cx="57.39" cy="56.92" rx="1.38" ry="1.6"/><rect class="cls-26" x="57.26" y="55.32" width="1" height="3.2"/><ellipse class="cls-27" cx="58.27" cy="56.92" rx="1.38" ry="1.6"/><path class="cls-23" d="M57.64,56.92a.63.63,0,1,0,.63-.73A.69.69,0,0,0,57.64,56.92Z"/><path class="cls-14" d="M54,2.71c2.43.87,2.17,2.42,2.17,2.42a12.94,12.94,0,0,1-.19,2.36c.27-.26-.88,3.74-1,3.91a4.78,4.78,0,0,1-3.48,1.17,3.48,3.48,0,0,1-3.35-3.15A33.42,33.42,0,0,1,49.25,3S49.93,1.27,54,2.71Z"/><path class="cls-28" d="M49.93,3.16c.64.09,1.67,0,2.31.07,0-.07-.05.47-.05.47a25.2,25.2,0,0,0-.46,2.77c-.65-.06-.7.46-.7.46l-.24,1.14-.63-.15.29-2.44a1.28,1.28,0,0,1-.5-.7S50,3.61,49.93,3.16Z"/><path class="cls-28" d="M55.21,4.3a.12.12,0,0,0-.1,0c-.26.19-1.15,1.11-3.77.24l-.25-1.06A3.64,3.64,0,0,1,47.84,2,5.14,5.14,0,0,1,52.37.69,7.31,7.31,0,0,0,50.51.14s4-.89,5.92,1.79c0,0,2,.23,1.65,2.06C57.81,5.35,55.21,4.3,55.21,4.3Z"/><path class="cls-28" d="M51,6.67s1.08-.68,1.16.67A1.39,1.39,0,0,1,50.71,9S50,12.1,51.88,12.74s6.14,0,6.2-8.75l-5.6-1.18Z"/><path class="cls-18" d="M49.64,15.32l-.16-2.18A24.65,24.65,0,0,1,54.62,13l.11,1.72Z"/><path class="cls-18" d="M49.7,14.52s-4.41.22-5.41,3.53a53.41,53.41,0,0,1-2.73,7.62l-4.81-.16s-1.16,1.32-.83,2.32,6,1.65,7.21,1.41,4.81-6.47,4.81-6.47Z"/></g></g></svg>