<svg xmlns="http://www.w3.org/2000/svg" viewBox="0 0 36.04 40.27"><defs><style>.cls-1{isolation:isolate;}.cls-2{fill:#0cc9f0;}.cls-3{fill:#8cf1f4;mix-blend-mode:multiply;}.cls-4{fill:#253137;}.cls-5{fill:#f2b09e;}.cls-6{fill:#38201c;}.cls-7{fill:#ffccbc;}</style></defs><title>Ativo 116</title><g class="cls-1"><g id="Camada_2" data-name="Camada 2"><g id="Camada_1-2" data-name="Camada 1"><path class="cls-2" d="M1.21,20.52,3.1,16c1.45-1.26,2-.07,2.1-.06,1.84.45,1.6,2.39,1.24,4.51a16.59,16.59,0,0,0-.37,3.29c.09-.08.79-.61,1.76-1.31,2.39-1.72,6.39-4.42,7-3.72a2.23,2.23,0,0,1,.41.38,1,1,0,0,1,.3.86c-.12.38-.2.71-.27,1A6.89,6.89,0,0,0,15.08,22c-1.66,1.17-4.21,3.15-6.91,4.87a23.93,23.93,0,0,1-6.24,3l-.69.15C-.64,29.16-.16,27.25,1.21,20.52Z"/><path class="cls-3" d="M1.54,22.59C4,15,3.82,19.19,4.2,18.86a6.52,6.52,0,0,0,.55-.5,1.78,1.78,0,0,0,.31.08l1.38,2,1.39,2,.15.2a3.42,3.42,0,0,1,.46,3.55,7.44,7.44,0,0,1-.27.73,23.93,23.93,0,0,1-6.24,3,1.51,1.51,0,0,1-.26-.23c-.79-.81-.11-2.38.14-3.5A5.54,5.54,0,0,0,1.54,22.59Z"/><path class="cls-4" d="M12,40.27l6.57-6.71-.59-2.09L4.73,38.41Z"/><path class="cls-5" d="M9.17,12.48l.06-4.7a2.17,2.17,0,0,1,1.54-1.73c1-.34,1.88,0,2,.69l1,5.2a.45.45,0,0,1,0,.12A33.91,33.91,0,0,0,9.17,12.48Z"/><path class="cls-5" d="M7.76,3.94a29.33,29.33,0,0,1,2.37-2.36c.53-.4.44-.45,1-.83,4.32-.48,8,1.77,6,6.59-.25.58-.86,3.15-2.23,3.5-4,1-1.59-1.35-2.14-.95-1,.68-2.94.61-3.37-.34A5.06,5.06,0,0,1,8,9,33,33,0,0,0,7.76,3.94Z"/><path class="cls-6" d="M17.56,3.51a5.65,5.65,0,0,1-1.1,3.05c-.78.52-3.15,1.6-3.15,1.6-1.3-.43-1.74-2-2.15-3.19a2.62,2.62,0,0,1,.55-2.67Z"/><path class="cls-6" d="M14.1.11c-4.94.21-10,4.7-6.52,8.71,1.28,1.48.9,2.12,2.08,2.18,1.37-.12,4-1.09,4.59-2.15C16,5.7,11,4.13,14.31,1.74Z"/><path class="cls-6" d="M17.24,3.88c-3.77,1.47-7.86,1.54-9.73-.61,1-2.43,5.17-4.08,8.6-2.85C18.4,1.24,18.89,3,17.24,3.88Z"/><path class="cls-5" d="M16,6.37c.08-1.43-1.26-.85-1.58-.31a1.35,1.35,0,0,0,.93,2A8,8,0,0,0,16,6.37Z"/><path class="cls-2" d="M15.4,12.46A5.18,5.18,0,0,0,10.59,11c-2.64.55-2.71,1.77-2.71,1.77a4.2,4.2,0,0,0,2.7.28A40.22,40.22,0,0,1,15.4,12.46Z"/><path class="cls-3" d="M13.92,11.39a5.47,5.47,0,0,1,1.6,1.22,33.25,33.25,0,0,0-4.94.42,12.21,12.21,0,0,1-3.1.27,8,8,0,0,1,.73-1.2A7.32,7.32,0,0,0,13.92,11.39Z"/><path class="cls-2" d="M3.17,22.86C3,20,1.91,18.36,3.85,15.61c.57-.8,4.27-3.67,8-3.54.31,0,.59,0,.87,0s.7,0,1,.08c1.42.15,1.58.09,5.55,1.22l.19,3.45A10.51,10.51,0,0,0,18.89,19c-.33,1.76-1.09,3.2-1.47,6A33.59,33.59,0,0,0,17.24,29c-4.43,2.94-9.76,4.88-14.08,4.26A87.69,87.69,0,0,0,3.17,22.86Z"/><path class="cls-2" d="M16.83,28.43c1,1.22,1.07,1.58-.19,2.66a30.34,30.34,0,0,1-4.34,3.37C10.07,35.86,3.5,38.77,3,35.8,2.81,35,2.7,29.89,3.31,29c2.25-3.45,5.39-2.14,7.92-5.5Z"/><path class="cls-3" d="M14.64,21.36c-.43-.5-.78-1-1.17-1.55-.19-.26-.48-.47-.56-.78a4.64,4.64,0,0,1,3.19,1.51,14,14,0,0,0-.53-2.42c.65-.07.9.34,1.45,1,.07,1.53,1,3,.45,5.5A20.18,20.18,0,0,0,17.24,29c-.41.3-.67-.42-1.13-.27.08-.63.14-1.31.19-2l0,0a4.58,4.58,0,0,1-.76-1.21,6,6,0,0,0-1.11-1.25c-.25-.23-.69-.5-.68-.88.44-.11,1.21.42,1.58.59a3.06,3.06,0,0,1,1.07.7c-.07-.19-.09-.41-.16-.59A9.18,9.18,0,0,0,14.64,21.36Z"/><path class="cls-7" d="M34.6,18.92a2,2,0,0,1-1.6,0,11.52,11.52,0,0,1-.87.91A3.81,3.81,0,0,1,30,21.07a6.54,6.54,0,0,1-.27-1.86c0-.24.26-.37.4-.62a6.22,6.22,0,0,1,1.62-2.23,6.32,6.32,0,0,1,.7-1,17.56,17.56,0,0,1,2.87-1.93.19.19,0,0,0,.11.08c0,.79-1.24,1.23-1.61,1.7-.16.21-.31.38-.46.55h.06a2.28,2.28,0,0,1,.64-.34c.33-.12.68-.2,1-.34a2.67,2.67,0,0,1,.51.84c.14.29.35.53.5.81a2.39,2.39,0,0,1-.33.34h0c-.43.64-.83.85-1.37.5-.18-.11-.36-.22-.53-.34l-.2-.15a5.52,5.52,0,0,1-.16.54.77.77,0,0,0,.16.44,2.32,2.32,0,0,0,.84.3c.12,0,.41,0,.49.08S34.85,18.81,34.6,18.92Z"/><path class="cls-2" d="M19.28,13.41c3.22-.31,2.74,5.45,4.12,7.91a15.16,15.16,0,0,1,2.19-1.5s1.55-.5,2.59-.74c.8.43.48,0,.48.05.08.61.39.57.39.59s.41.18.43.22,1.14,1.49,1.15,1.51a7.56,7.56,0,0,1-2.24,2.13A30.92,30.92,0,0,1,22.5,27c-2.33-.15-4.06-.83-5.52-6.84l-.31-2.77C17.65,15.94,19.21,13.42,19.28,13.41Z"/><path class="cls-2" d="M28.38,19.28l1.27,1.22,1,.95.18-.19.06-.07.05-.07.59-.66a4.56,4.56,0,0,0,0-1.64.19.19,0,0,0,0-.07c-.2-1-1.39-1-1.39-1l-1.54,1.41Z"/><path class="cls-3" d="M22.92,26.45c.1.18,1.24-.31,1.54-.42a12.51,12.51,0,0,0,1.38-.78,16.24,16.24,0,0,0,1.77-1.1,11.22,11.22,0,0,0,3-2.7s.65-.73.88-1a6.52,6.52,0,0,0-.12-2c-.14-.16-.83-.65-1-.54s-.34.21-.5.33c-.17-.23-.51,0-.45.34a.5.5,0,0,1,0,.27c-.18.42-1,.74-1.44.91s-1.12.39-1.65.63A8,8,0,0,0,28,21a23.33,23.33,0,0,0-2.34.73c-.52.24-1.05.5-1.55.76-.14.08-.3.13-.37.25a3.73,3.73,0,0,0,.72-.07,19.89,19.89,0,0,1,2.87-.07c-.7.23-3.28.92-3.73,1.57a3.07,3.07,0,0,0-.27,1C23.26,25.48,22.83,26.27,22.92,26.45Z"/><path class="cls-3" d="M19,13.6c-.71.33-1.14,1.45-1.41,2-.16.35-.32.72-.19,1s.65.64.9,1,.57.77.83,1.17c-.49-.12-.95-.65-1.33-.92s-.47-.39-.75-.55c0,.44,0,.88,0,1.31A3.4,3.4,0,0,1,17.25,16a9.91,9.91,0,0,1,1-1.84,1.94,1.94,0,0,1,.65-.52Z"/></g></g></g></svg>