<svg xmlns="http://www.w3.org/2000/svg" viewBox="0 0 84.79 63.7"><defs><style>.cls-1,.cls-39{fill:#172d3a;}.cls-2{fill:#18181b;opacity:0.5;}.cls-3{fill:#e58383;}.cls-4{fill:#b25d5d;}.cls-5{fill:#c16767;}.cls-6{fill:#0e2735;opacity:0.15;}.cls-7{fill:#e8bcaf;}.cls-8{fill:#0e1e26;}.cls-9{fill:#a07d70;}.cls-10,.cls-14,.cls-19{fill:#353030;}.cls-10,.cls-45{opacity:0.3;}.cls-11,.cls-46{fill:#fff;}.cls-12{fill:#0c181e;}.cls-13{fill:#263d49;}.cls-13,.cls-24{opacity:0.1;}.cls-14,.cls-20,.cls-35{opacity:0.4;}.cls-15{fill:#e5beb5;}.cls-16{fill:#ffebde;}.cls-17{fill:#627782;}.cls-18{fill:#c19891;opacity:0.6;}.cls-20{fill:#b57f74;}.cls-21{fill:#fba569;}.cls-22{fill:#8e7775;}.cls-23{fill:#594847;}.cls-24{fill:#141d1f;}.cls-25{fill:#ffeab6;}.cls-26{fill:#ffe8b0;}.cls-27{fill:#edc156;}.cls-28{fill:#ffded4;}.cls-29{fill:#755950;}.cls-29,.cls-33,.cls-39,.cls-46{opacity:0.2;}.cls-30{fill:#25383f;}.cls-31{fill:#00b8a6;}.cls-32{fill:#abc5c9;}.cls-33{fill:#394e54;}.cls-34{fill:#bad6dd;}.cls-35,.cls-45{fill:#495f68;}.cls-36{fill:#e2afa6;}.cls-37{fill:#825248;}.cls-38{fill:#4b616b;}.cls-40{fill:none;stroke:#fff;stroke-miterlimit:10;stroke-width:0.78px;}.cls-41{fill:#d8d8d8;}.cls-42{fill:#7a6a62;}.cls-43{fill:#cad6d8;}.cls-44{fill:#d6e3e5;}</style></defs><title>Ativo 99</title><g id="Camada_2" data-name="Camada 2"><g id="Camada_1-2" data-name="Camada 1"><path class="cls-1" d="M71.11,18.34a1.57,1.57,0,0,0-2.28.06c-.85.72-2.2,3.09-.39,4.43S71.11,18.34,71.11,18.34Z"/><path class="cls-1" d="M77.77,57.79a.7.7,0,0,0,.74.64h0a.69.69,0,0,0,.73-.64V55.1a.69.69,0,0,0-.73-.65h0a.7.7,0,0,0-.74.65Z"/><path class="cls-2" d="M77.77,55.58V55.1a.74.74,0,0,1,1.47,0v.53C78.75,55.59,78.26,55.58,77.77,55.58Z"/><path class="cls-1" d="M81.28,57.79a.7.7,0,0,0,.74.64h0a.69.69,0,0,0,.73-.64V55.1a.69.69,0,0,0-.73-.65h0a.7.7,0,0,0-.74.65Z"/><path class="cls-2" d="M81.28,55.58V55.1a.7.7,0,0,1,.74-.65.69.69,0,0,1,.73.65v.53C82.27,55.59,81.78,55.58,81.28,55.58Z"/><path class="cls-1" d="M59.05,57.79a.69.69,0,0,0,.73.64h0a.7.7,0,0,0,.74-.64V55.1a.7.7,0,0,0-.74-.65h0a.69.69,0,0,0-.73.65Z"/><path class="cls-1" d="M62.94,57.61a.68.68,0,0,0,.72.63h0a.68.68,0,0,0,.72-.63V55.08a.68.68,0,0,0-.72-.63h0a.68.68,0,0,0-.72.63Z"/><path class="cls-2" d="M62.94,55.55v-.47a.73.73,0,0,1,1.44,0v.52C63.9,55.56,63.42,55.55,62.94,55.55Z"/><rect class="cls-3" x="56.74" y="34.97" width="7.08" height="20.3" rx="1.81"/><path class="cls-4" d="M59,53.46a2,2,0,0,0,2.13,1.81h2.11a2,2,0,0,0,2.13-1.81V36.77A2,2,0,0,0,63.27,35H61.16A2,2,0,0,0,59,36.77Z"/><rect class="cls-3" x="66.39" y="29.11" width="17.16" height="15.73" rx="2.55"/><rect class="cls-5" x="64.26" y="29.11" width="17.16" height="15.73" rx="2.55"/><rect class="cls-3" x="57.47" y="43.71" width="24.59" height="11.56" rx="1.81"/><path class="cls-6" d="M84.79,58.14c0-.84-6.39-1.53-14.27-1.53s-14.27.69-14.27,1.53S60.81,59.46,67,59.63c-.14.1-.22.19-.22.29,0,.64,3.11,1.15,6.93,1.15s6.93-.51,6.93-1.15c0-.22-.36-.42-1-.59C82.78,59.05,84.79,58.62,84.79,58.14Z"/><path class="cls-7" d="M66.27,39.51a26.38,26.38,0,0,1,.89,5.68l-1-.27-2.67-4Z"/><path class="cls-1" d="M74.25,34.07l-.35,3.1a5.85,5.85,0,0,1,2.75,6.09c-.8,3.8-10.5,1.66-10.5,1.66L66,40.83s-3.74.86-2.72-.13c1.43-1.39,4.76-2.12,4.76-2.12s-1.61-3.59,0-6.27S74.25,34.07,74.25,34.07Z"/><path class="cls-8" d="M67.5,36.71a6.21,6.21,0,0,1,.55-4.4c1.62-2.68,6.2,1.76,6.2,1.76l-.24,2A8.69,8.69,0,0,1,67.5,36.71Z"/><path class="cls-9" d="M68.06,30a2.12,2.12,0,0,1-1.29.33A23.15,23.15,0,0,1,65,34.66l-.49-.11a40.74,40.74,0,0,0-4.31-.75c.26.52-.48.47-.93,1.05,1.82,1.13,6.29,3,6.86,2.67.73-.43,3-5,3.63-6.66A4.1,4.1,0,0,0,70,29.33,10.64,10.64,0,0,0,68.06,30Z"/><path class="cls-9" d="M73.29,27.07l.25-4.62-2.55,2-.21,2.61-1.58.36s-1.46,3.19,2.31,3.35S76.05,28,76.05,28Z"/><path class="cls-10" d="M71,26.8c.76-.08,1.53-.13,2.29-.18l.23-4.17-2.55,2L70.8,26.8Z"/><path class="cls-9" d="M73.86,19.34s-3.65-2.82-5.38,1.13c-2,4.61,1.89,7.77,5.52,4.36C75.17,23.72,76.32,19.72,73.86,19.34Z"/><path class="cls-11" d="M69,24l2.12.27S69.25,25.39,69,24Z"/><path class="cls-12" d="M70.49,21.05a.77.77,0,0,1,1-.66.82.82,0,0,1,.54,1.08,3.58,3.58,0,0,1-.54-.13l-.28-.06A2.58,2.58,0,0,0,70.49,21.05Z"/><path class="cls-12" d="M68.54,20.66a.7.7,0,0,1,.24-.54.78.78,0,0,1,.58-.19.77.77,0,0,1,.59.39.6.6,0,0,1-.06.62,1.6,1.6,0,0,0-.47-.11l-.14,0A4.39,4.39,0,0,1,68.54,20.66Z"/><path class="cls-1" d="M70.44,17.87a2.18,2.18,0,0,0,0,.75c.13.74.68,1.85,2.67,2.51C75.5,21.93,72.74,18.19,70.44,17.87Z"/><path class="cls-11" d="M69.41,27.26a1.76,1.76,0,0,0,1.77,2.13,3.46,3.46,0,0,0,3-2.14l1.71.7a2.32,2.32,0,0,0-.4,1.22,5.33,5.33,0,0,0,.25,2.13,20.67,20.67,0,0,1-.91,4.79c-.21.43-4.21,1.23-8-1.13,0,0-1.45-2.76,2-7.4Z"/><path class="cls-13" d="M66.79,33.52h0C69.57,34.5,73,33.27,75,31a2.93,2.93,0,0,0,.39-.21l.14-.09a6.33,6.33,0,0,0,.16.62,20.67,20.67,0,0,1-.91,4.79c-.21.43-4.21,1.23-8-1.13a4.12,4.12,0,0,1-.35-1.51A1.27,1.27,0,0,0,66.79,33.52Z"/><path class="cls-9" d="M69.25,34.1c.41.29,4.09,3.61,5.38,3,.71-.33,2.16-4.43,2.56-6.05a2.64,2.64,0,0,0-1.53-3.18,8.74,8.74,0,0,0-.84,1.54,23.55,23.55,0,0,0-1.24,5,22,22,0,0,0-3.25-1.14A2.16,2.16,0,0,1,69.25,34.1Zm4.44.39,0,0C73.75,34.49,73.88,34.53,73.69,34.49Z"/><path class="cls-11" d="M75.66,27.86s2.27.67,1.73,3.8A6.92,6.92,0,0,1,74,31.34C72.78,30.7,75.66,27.86,75.66,27.86Z"/><path class="cls-9" d="M75.44,59.39s.82-1.08-.56-3.09c-.7-1-1.94-4.8-3.35-8.91-1.12-3.29-2.82-5.65-4.36-6.25-3.93-1.55-2.6,3.24-1,6.13S75.05,59.11,75.44,59.39Z"/><path class="cls-9" d="M74.63,56.34s2.1,1.25,1.89,2.52-1,1.13-2.87-1.69S74.63,56.34,74.63,56.34Z"/><path class="cls-11" d="M75.53,57.35c-.24-.53-.66-1-.65-1.05a3.46,3.46,0,0,1,1.64,2.56c-.19,1.12-.86,1.14-2.25-.77C74.81,58.47,75.76,57.87,75.53,57.35Z"/><path class="cls-11" d="M76.24,58.71A1.86,1.86,0,0,0,76,57.39a2.07,2.07,0,0,1,.52,1.47c-.12.72-.44,1-1,.57C75.84,59.48,76.09,59.21,76.24,58.71Z"/><path class="cls-9" d="M70.27,55.53c-.66.28-1.33.52-2,.74,1.54,2.36,2.86,4.27,3,4.41,0,0,.92-1-.28-3.12A12,12,0,0,1,70.27,55.53Z"/><path class="cls-9" d="M70.75,57.57s2,1.43,1.65,2.68-1.15,1-2.71-1.94S70.75,57.57,70.75,57.57Z"/><path class="cls-11" d="M71.54,58.65c-.18-.54-.56-1-.55-1.09a3.46,3.46,0,0,1,1.41,2.69c-.29,1.1-1,1.06-2.17-1C70.73,59.7,71.73,59.2,71.54,58.65Z"/><path class="cls-11" d="M72.14,60.07A1.84,1.84,0,0,0,72,58.74a2.08,2.08,0,0,1,.39,1.51c-.19.71-.53.94-1.07.48C71.67,60.81,71.94,60.57,72.14,60.07Z"/><path class="cls-11" d="M69.41,27.26a4.68,4.68,0,0,0-3.22,3.31l1.39.47L69,28.56"/><rect class="cls-3" x="75.3" y="34.97" width="7.08" height="18.69" rx="1.81"/><rect class="cls-5" x="77.66" y="34.97" width="7.08" height="20.32" rx="1.81"/><path class="cls-12" d="M69.23,21.83c0,.24-.17.42-.31.4s-.21-.23-.17-.47.18-.42.31-.4S69.27,21.6,69.23,21.83Z"/><path class="cls-12" d="M71.25,22.23c0,.24-.18.41-.31.39s-.21-.23-.18-.47.18-.41.31-.39S71.28,22,71.25,22.23Z"/><path class="cls-9" d="M70.29,34.9s-.32-.19-1-.61l-.93-.58s-2.48-.74,0-.39a.08.08,0,0,0,0-.14c-.09-.08-1.47-1-1.39-1.06s1.43.67,1.51.62-1.36-1.15-1.21-1.27,1.44,1,1.53.89-.8-1.28-.69-1.4,1.15,1.18,1.43,1.34.39.06.39.06.19-.09,0-.45-.2-.53,0-.61c0,0,.23.32.31.47s.59,1.09.35,1.65l.55.69Z"/><path class="cls-1" d="M70.25,18.44c.38,2.83,4.13,3.82,4.13,3.82A13,13,0,0,1,74,24.83a5,5,0,0,0,2-4.1c0-2.75-3-3.62-4.44-3.48S70.19,18,70.25,18.44Z"/><polygon class="cls-14" points="69.7 22.02 68.94 22.89 69.59 23.21 69.7 22.02"/><path class="cls-1" d="M75.12,23.4s.79-1.25,1.65-.31c1.47,1.62-1.1,3.85-2.1,2A1.15,1.15,0,0,1,75.12,23.4Z"/><path class="cls-9" d="M74.07,22.32s.66-.32.77.11,0,1.27-.67,1.44S74.07,22.32,74.07,22.32Z"/><polygon class="cls-1" points="73.59 21.5 73.6 23.51 74.39 21.99 73.59 21.5"/><path class="cls-9" d="M60.16,33.8s-1.44-.27-2,.17-1,2.11-.59,1.65a6.44,6.44,0,0,0,.49-.69s-.39,1.33,0,1.1.49-1.08.49-1.08-.23,1.52.13,1.16a1.35,1.35,0,0,0,.28-1s.26,1.28.46,1,0-1.21,0-1.21l1.88.36Z"/><path class="cls-1" d="M70.67,55.88c-1.83-5.56-1.88-13.54-4.73-15.16-3.5-2-4.24,2.62-2.48,6.27.88,1.83,2.86,6.7,4.81,9.93A2.46,2.46,0,0,0,70.67,55.88Z"/><path class="cls-8" d="M70.67,55.88C68.84,50.32,68.46,42.67,65.61,41c-3.5-2-3.91,2.3-2.15,6,.88,1.83,2.86,6.7,4.81,9.93A2.46,2.46,0,0,0,70.67,55.88Z"/><path class="cls-1" d="M74.07,54.37c-.89-2.1-1.86-5.54-2.55-7.57-1.13-3.28-3-5.52-4.59-6.13-3.93-1.55-2.36,3.71-.75,6.6a81.77,81.77,0,0,0,5.72,8.46A1.89,1.89,0,0,0,74.07,54.37Z"/><path class="cls-8" d="M68.05,38.58s-3.33.73-4.76,2.12c-.58.56.38.53,1.32.39C64.89,40.46,65.72,39.54,68.05,38.58Z"/><polygon class="cls-15" points="40.68 7.9 40.96 12.21 41.34 14.39 39.74 14.93 37.88 15.61 37.93 12.4 37.84 9.14 40.68 7.9"/><path class="cls-6" d="M54.16,57.27c0-.52-4.83-.94-10.79-.94a84.59,84.59,0,0,0-8.58.37c-2.78-.06-5.79-.09-8.93-.09C11.58,56.61,0,57.3,0,58.14s11.58,1.54,25.86,1.54S51.72,59,51.72,58.14c0-.08-.11-.16-.34-.24C53.11,57.73,54.16,57.51,54.16,57.27Z"/><polygon class="cls-16" points="26.96 26.04 26.24 27.07 28.09 28.31 28.63 27.1 26.96 26.04"/><path class="cls-17" d="M13.14,16.74a1.94,1.94,0,0,1,2.12.12c1.36,1,2.63,5.1,1.16,9,0,0-4.87,1-8.42.08,0,0-1.62-6.22,1.43-9Z"/><polygon class="cls-18" points="38.49 15.39 38.41 12.38 40.9 11.29 40.68 7.9 37.84 9.14 37.93 12.4 37.88 15.61 38.49 15.39"/><path class="cls-15" d="M39.05,1.79c2.21.36,2.25,1.85,2.25,1.85a14,14,0,0,1,.24,2.25.72.72,0,0,1,.87-.31c.76.27.37,2.64-.77,2.51a5.83,5.83,0,0,1-.29,1.64,4.09,4.09,0,0,1-2.75,1.76,3,3,0,0,1-3.25-2.24,60.06,60.06,0,0,1-.25-6.34S35.39,1.21,39.05,1.79Z"/><path class="cls-19" d="M39.93,3c.58,0,1.49-.31,2.08-.36C42,2.54,42,3,42,3a24.43,24.43,0,0,0,.09,2.56c-.59.07-.54.54-.54.54V7.19l-.59,0L40.8,4.93a1.13,1.13,0,0,1-.56-.53S40,3.35,39.93,3Z"/><path class="cls-19" d="M40,4.65a4.09,4.09,0,0,1-1.09.3,1.48,1.48,0,0,1-.37-.07l-.68-.17a.88.88,0,0,1,.3-.77,1.1,1.1,0,0,1,.75-.29,1.18,1.18,0,0,1,.73.26A1,1,0,0,1,40,4.65Z"/><path class="cls-19" d="M37,4.93a6.41,6.41,0,0,0-.83.3,2,2,0,0,1-.22-.06,6.07,6.07,0,0,0-.63-.07.78.78,0,0,1,0-.76.9.9,0,0,1,.69-.4.92.92,0,0,1,.73.27A.77.77,0,0,1,37,4.93Z"/><path class="cls-11" d="M39.38,8.83l-2.78.32S37.57,10.6,39.38,8.83Z"/><path class="cls-19" d="M42,3s.19-1.9-1.41-1.64A4.38,4.38,0,0,0,37,0l1,.46a4.14,4.14,0,0,0-3.56.23,1.27,1.27,0,0,0,1.13.82,6.39,6.39,0,0,1-1.72-.17s.16,1.47,1,1.76,4.08-1.37,5.22,0,1.78-.3,1.78-.3"/><polygon class="cls-20" points="37.8 8.08 37.31 5.62 36.74 8.01 37.8 8.08"/><polygon class="cls-21" points="40.11 52.55 40.56 56 39.24 56.46 38.56 52.77 40.11 52.55"/><path class="cls-22" d="M38.46,54.45a4.48,4.48,0,0,1-2,1.37c-1.2.38-2.29.84-2.19,1.53A7,7,0,0,0,39,57.16v.29l1.92-.12,0-2.42-1.59.14.11-.24Z"/><path class="cls-23" d="M37.74,57.22c-2.61.69-3.29,0-3.45,0a.55.55,0,0,0,0,.18A7,7,0,0,0,39,57.16v.29l1.92-.12v-.48A10,10,0,0,0,37.74,57.22Z"/><path class="cls-22" d="M48.6,54.38a4.45,4.45,0,0,0,2,1.41c1.2.39,2.28.86,2.17,1.55A6.91,6.91,0,0,1,48,57.08v.29l-1.92-.15.09-2.42,1.59.16-.11-.24Z"/><path class="cls-23" d="M49.27,57.16c2.6.73,3.29.05,3.45,0a.55.55,0,0,1,0,.18A6.91,6.91,0,0,1,48,57.08v.29l-1.92-.15,0-.48A10,10,0,0,1,49.27,57.16Z"/><path class="cls-1" d="M35.23,25.16s-2,14.45,2.72,28.7a2.37,2.37,0,0,0,2.75-.07S39,40.08,39.54,32l1,.16a91.66,91.66,0,0,1,2.83,8.94c.27,1.92,2,12.32,2.37,13.18,0,0,2.1.56,2.7-.57,0,0-.53-8-.73-11.4-.14-2.52-3.58-16.5-3.58-16.5Z"/><path class="cls-16" d="M43.18,13.44a1.75,1.75,0,0,1,0-.69c-1.7-.15-3.44-.24-3.44-.24l-.24,1.16-.38-1.12a22.4,22.4,0,0,0-4,.76c.89,1.56,1.93,3.71,3.41,4.67C40.83,17.61,43.54,15.81,43.18,13.44Z"/><polygon class="cls-16" points="42.1 12.63 40.66 14.13 39.76 12.51 41.35 11.61 42.1 12.63"/><polygon class="cls-16" points="36.81 12.88 38.05 14.16 39.13 12.54 37.43 11.88 36.81 12.88"/><polygon class="cls-24" points="42.1 12.63 40.66 14.13 39.76 12.51 41.35 11.61 42.1 12.63"/><polygon class="cls-24" points="36.81 12.88 38.05 14.16 39.13 12.54 37.43 11.88 36.81 12.88"/><path class="cls-25" d="M45.83,13.14A90.29,90.29,0,0,1,50,22.39a4.08,4.08,0,0,1-2.53,1.1l-3-6Z"/><path class="cls-25" d="M46.76,21.63a14.9,14.9,0,0,1-4,2.24,3.1,3.1,0,0,0,.54,1.62s4.76-.7,6.42-2c0,0,.86-.43-.15-2.37C49.18,20.37,46.76,21.63,46.76,21.63Z"/><path class="cls-1" d="M7.87,57.79a.69.69,0,0,1-.73.64h0a.7.7,0,0,1-.74-.64V55.1a.7.7,0,0,1,.74-.65h0a.69.69,0,0,1,.73.65Z"/><path class="cls-2" d="M7.87,55.58V55.1a.69.69,0,0,0-.73-.65.7.7,0,0,0-.74.65v.53C6.89,55.59,7.38,55.58,7.87,55.58Z"/><path class="cls-1" d="M4.36,57.79a.7.7,0,0,1-.74.64h0a.69.69,0,0,1-.73-.64V55.1a.69.69,0,0,1,.73-.65h0a.7.7,0,0,1,.74.65Z"/><path class="cls-2" d="M4.36,55.58V55.1a.7.7,0,0,0-.74-.65.69.69,0,0,0-.73.65v.53C3.38,55.59,3.87,55.58,4.36,55.58Z"/><path class="cls-1" d="M50.26,57.79a.69.69,0,0,1-.73.64h0a.7.7,0,0,1-.74-.64V55.1a.7.7,0,0,1,.74-.65h0a.69.69,0,0,1,.73.65Z"/><path class="cls-2" d="M50.26,55.58V55.1a.74.74,0,0,0-1.47,0v.53C49.28,55.59,49.77,55.58,50.26,55.58Z"/><path class="cls-1" d="M46.36,57.61a.67.67,0,0,1-.71.63h0a.68.68,0,0,1-.72-.63V55.08a.68.68,0,0,1,.72-.63h0a.67.67,0,0,1,.71.63Z"/><path class="cls-2" d="M46.36,55.55v-.47a.72.72,0,0,0-1.43,0v.52C45.41,55.56,45.88,55.55,46.36,55.55Z"/><path class="cls-26" d="M51.81,54a1.13,1.13,0,0,1-1.13,1.13h0A1.14,1.14,0,0,1,49.55,54V37.2a1.14,1.14,0,0,1,1.13-1.13h0a1.13,1.13,0,0,1,1.13,1.13Z"/><rect class="cls-3" x="45.49" y="34.97" width="7.08" height="20.3" rx="1.81"/><path class="cls-4" d="M50.27,53.46a2,2,0,0,1-2.12,1.81H46a2,2,0,0,1-2.13-1.81V36.77A2,2,0,0,1,46,35h2.11a2,2,0,0,1,2.12,1.8Z"/><rect class="cls-3" x="2.71" y="29.11" width="40.82" height="15.73" rx="2.55"/><rect class="cls-5" x="4.84" y="29.11" width="40.82" height="15.73" rx="2.55"/><rect class="cls-3" x="3.58" y="43.71" width="48.26" height="11.56" rx="1.81"/><polygon class="cls-4" points="45.16 42.63 21.49 42.63 22.67 43.72 50.03 43.72 45.16 42.63"/><path class="cls-1" d="M17.51,50s-.28-1.79.13-.16.89,5.48.89,5.48l1.27,2.07,1,.12-1-2.15a35.16,35.16,0,0,1-.28-5.28C19.73,48.8,17.8,48.23,17.51,50Z"/><path class="cls-1" d="M18.56,55.19a1.14,1.14,0,0,0-.41,1c.08.64.22,1.63.22,1.63h.2l.09-1.16s.37,1.06.59,1.16,2,.62,2.21.25-.73-.86-.73-.86a.89.89,0,0,1-.95-.19A10.53,10.53,0,0,1,18.56,55.19Z"/><path class="cls-1" d="M13.74,49.81a4.27,4.27,0,0,0-1.64,2.72,4.33,4.33,0,0,1-.56,2.12L12,57l.93.46-.2-2.36s2.27-3.42,2.89-4.55S14.63,48.27,13.74,49.81Z"/><path class="cls-1" d="M11.61,54.56a1.11,1.11,0,0,0-.73.79c-.15.63-.37,1.6-.37,1.6l.19.08L11.19,56s0,1.12.14,1.3,1.67,1.28,2,1-.39-1.06-.39-1.06a.89.89,0,0,1-.82-.51A11.06,11.06,0,0,1,11.61,54.56Z"/><path class="cls-27" d="M23.15,43.47c-.44,7-1,12.57-1,12.57a6.79,6.79,0,0,1-5.26-.19L16,43.37Q19.59,43.45,23.15,43.47Z"/><path class="cls-27" d="M20.74,44.38l-5.57,12.2a6.78,6.78,0,0,1-5-1.66s2-7.86,3.94-14.53C16.52,40.86,18.31,44,20.74,44.38Z"/><path class="cls-27" d="M13.77,34.9s10.77,1.77,9.38,8.57-9.88,1.22-9.88,1.22Z"/><path class="cls-27" d="M17.08,38.62c0,2.71-2.78,4.39-5.83,4.39S6,41.33,6,38.62,7.65,35,10.7,35,17.08,35.9,17.08,38.62Z"/><path class="cls-11" d="M15.35,22.72a.72.72,0,1,0,.57-.85A.72.72,0,0,0,15.35,22.72Z"/><path class="cls-28" d="M10.16,22.3a.89.89,0,1,1-1.73.34.93.93,0,0,1,.68-1.12A.92.92,0,0,1,10.16,22.3Z"/><path class="cls-28" d="M10.75,22.54l.13,3.27-2.34.82a9.64,9.64,0,0,0,4.69,1.24c2.32-.14,1.88-1.55,1.88-1.55l-1.79-.48,0-1.65Z"/><path class="cls-29" d="M13.32,25.58l0-1.65-2.6-2.09.19,3.39C11.17,25.22,12.9,25.49,13.32,25.58Z"/><path class="cls-28" d="M11.49,17.1s2.63-.4,3.51,1.37,1.69,4.12.37,5.6-3.8,1.16-5.18-.2S7.52,18.7,11.49,17.1Z"/><path class="cls-29" d="M13.65,20.79a3.68,3.68,0,0,0,.83.72l-.4.55"/><path class="cls-30" d="M13.65,19.07a.67.67,0,0,1,.67-.8.72.72,0,0,1,.77.67,3,3,0,0,1-.46.19.89.89,0,0,1-.27.06C14.22,19.2,14.1,19.12,13.65,19.07Z"/><path class="cls-27" d="M17.65,43.23l-6.1-.91,1-.33-.21-7.11,0-1.21,2.37-.8,1,2.53s2.85.66,4,5.8a17,17,0,0,1,.3,2.21A7.93,7.93,0,0,0,17.65,43.23Z"/><path class="cls-27" d="M6.23,40.93a7,7,0,0,1,2.21-6.4L8.11,32.9l4.48.55.07,1.21-.4,5.46A13.23,13.23,0,0,0,6.23,40.93Z"/><path class="cls-11" d="M8.81,24a.72.72,0,0,0,.85.56.72.72,0,1,0-.29-1.42A.72.72,0,0,0,8.81,24Z"/><path class="cls-12" d="M14.85,20c0,.24,0,.45-.17.47s-.28-.15-.31-.39,0-.45.17-.47S14.82,19.77,14.85,20Z"/><path class="cls-12" d="M36.23,6.15c0,.24,0,.45-.18.47s-.27-.16-.31-.4,0-.45.18-.47S36.19,5.91,36.23,6.15Z"/><path class="cls-12" d="M38.93,5.84c0,.24,0,.45-.18.47s-.27-.16-.3-.4,0-.45.17-.47S38.89,5.6,38.93,5.84Z"/><path class="cls-12" d="M12.41,20.65c0,.24,0,.45-.17.47s-.27-.16-.31-.4,0-.45.18-.47S12.38,20.41,12.41,20.65Z"/><path class="cls-1" d="M17.63,28.8s-1.09-2.64-3-2.78a2.58,2.58,0,0,1-2.46,1.18A2.27,2.27,0,0,1,9.86,26c-.43,0-.86.26-1.35.35C6.16,26.79,6,31.5,6,31.5l2.15-.18s.21,1.89.21,1.89l.21,0a26.78,26.78,0,0,0,6.63,0s1.75-.67.77-3.24Z"/><path class="cls-1" d="M14.9,29.49,19.64,37l2.89.05s-4.69-8.19-5.72-9.68S14.9,29.49,14.9,29.49Z"/><path class="cls-11" d="M41.3,35.07a9.9,9.9,0,0,0-4,7.18s6,1.67,8.38,1.11a13.19,13.19,0,0,0,3.12-6.18A72.23,72.23,0,0,0,41.3,35.07Z"/><path class="cls-13" d="M47.69,36.81A14.74,14.74,0,0,1,44,43.39l-.32,0a7.23,7.23,0,0,0,2-.08,13.19,13.19,0,0,0,3.12-6.18Z"/><path class="cls-31" d="M35.71,35.86a9.18,9.18,0,0,0-3,7s5.69,1,7.84.22a12.14,12.14,0,0,0,2.29-6A65.38,65.38,0,0,0,35.71,35.86Z"/><path class="cls-13" d="M41.78,36.86A13.8,13.8,0,0,1,39,43.29l-.29.08a6.77,6.77,0,0,0,1.87-.28,12.14,12.14,0,0,0,2.29-6Z"/><path class="cls-13" d="M14.42,56.55h0Z"/><path class="cls-13" d="M14.18,35l1.18-1.71-1.86.15-3,1.73a9.07,9.07,0,0,1,2.67.58c2.11.76,8.79,3.2,8.11,5.54-.6,2.07-3,7.87-4.6,11.7l.2,2.86a6.79,6.79,0,0,0,5.26.19s.56-5.58,1-12.57C24.54,36.67,14.18,35,14.18,35Z"/><polygon class="cls-11" points="9.53 26.05 10.01 25.32 12.13 27.2 11.4 28.25 9.53 26.05"/><polygon class="cls-11" points="14.29 25.52 12.13 27.2 13.1 28.1 14.73 26.05 14.29 25.52"/><path class="cls-11" d="M10.41,36.74A27.49,27.49,0,0,0,13.86,38l-.1-1.1.72.79a4,4,0,0,0,1.21-2.24C15.69,34.32,10.41,36.74,10.41,36.74Z"/><path class="cls-1" d="M14.83,32.48a11.57,11.57,0,0,1,.86,2.92c-2.34,1.85-4.72.94-7.77.2L8,31.84Z"/><path class="cls-32" d="M12.94,38.37a.41.41,0,0,0,.38.43l12,0a.41.41,0,0,0,.38-.43h0a.41.41,0,0,0-.38-.43l-12,0a.41.41,0,0,0-.38.43Z"/><path class="cls-33" d="M13.32,37.94l12,0L17,38c-.17,0-.31.26-.31.58a.87.87,0,0,0,.05.28H13.32a.41.41,0,0,1-.38-.43A.41.41,0,0,1,13.32,37.94Z"/><path class="cls-34" d="M16.4,37.71a.33.33,0,0,0,.34.31l8.79.08a.33.33,0,0,0,.34-.31l.07-5.95a.33.33,0,0,0-.35-.3l-8.78-.08a.33.33,0,0,0-.35.3Z"/><path class="cls-35" d="M16.81,31.46h.11a.3.3,0,0,0-.18.26l-.07,6A.32.32,0,0,0,17,38h-.24a.33.33,0,0,1-.34-.31l.06-5.95A.33.33,0,0,1,16.81,31.46Z"/><path class="cls-17" d="M13.52,17.28a4.08,4.08,0,0,1-3,3.33l-.11-1.2s-.08,2.39-.54,3c0,0-2-.54-1.59-3.32a3.79,3.79,0,0,1,4.44-3.17A1.26,1.26,0,0,1,13.52,17.28Z"/><path class="cls-30" d="M10.88,19.88a.7.7,0,0,1,.54-.92.75.75,0,0,1,.92.51,3.66,3.66,0,0,1-.43.28,1.09,1.09,0,0,1-.27.11C11.48,19.9,11.33,19.85,10.88,19.88Z"/><path class="cls-28" d="M14.25,38c-.21-.16-1.67-.55-1.92-.72-.15.53.06,1-.27,1.33a10.1,10.1,0,0,0,1.89.28,1.28,1.28,0,0,1,.21-.65C14,38.08,14.52,38.18,14.25,38Z"/><path class="cls-28" d="M13.32,38.8s1.59.64,1.75.47-.67-.41-.67-.41,1.11.35,1.09.18-.67-.4-.67-.4.91.14.88,0-.9-.3-.9-.3,2,.2-.29-.45c0,0,1.32-.66-.35-.21S13.32,38.8,13.32,38.8Z"/><path class="cls-11" d="M12.48,36.91l.62.26a3.22,3.22,0,0,1-.37,1.56l-.92-.15Z"/><path class="cls-1" d="M12.84,36.91a4.55,4.55,0,0,1-.41,1.91,42.56,42.56,0,0,1-6-2C5.06,36,5.05,31.78,6,29A4.07,4.07,0,0,1,9.53,26l-1.2,5.12L8.54,35Z"/><rect class="cls-3" x="3.26" y="34.97" width="7.08" height="18.69" rx="1.81"/><rect class="cls-5" x="0.9" y="34.97" width="7.08" height="20.32" rx="1.81"/><path class="cls-36" d="M12.31,22.8,15,22.62s-.29,1.05-1.14,1.19A1.41,1.41,0,0,1,12.31,22.8Z"/><path class="cls-37" d="M13.47,23.05a1.38,1.38,0,0,1,1,.46,2.17,2.17,0,0,0,.54-.89l-2.67.18a1.74,1.74,0,0,0,.21.41A1.82,1.82,0,0,1,13.47,23.05Z"/><path class="cls-38" d="M36.28,13A3.29,3.29,0,0,0,39.22,15c2.08-.08,2.88-2.41,2.88-2.41a15.37,15.37,0,0,1,3.73.51c1,.43,4.44,8.24,4.28,9.78s-6.57,2.63-6.57,2.63l-.78-1.68,3.72-2.26-1.24-2-.41,8.14S42,29.83,34.68,28.2l-.49-8.29L28.32,28l-2-1.41s5.88-11.3,7.08-12.42A5.15,5.15,0,0,1,36.28,13Z"/><path class="cls-39" d="M45.77,24.18c0-.1,0-.2.07-.3a22.59,22.59,0,0,1-4.06-.75,56,56,0,0,1-7.55-2.59l.45,7.66c7.27,1.63,10.15-.46,10.15-.46L45,25.27l.94-.22A1.83,1.83,0,0,1,45.77,24.18Z"/><path class="cls-15" d="M26.35,27.17l-.52.72s-1.26.05-1.45.28-1.27,4.14.09.94c0,0-.52,3.15.57.15,0,0,.09,2.68.56-.05,0,0,.42,2.87.61,0a4.15,4.15,0,0,0,.89-.1c.38-.09.72-1,.72-1Z"/><path class="cls-38" d="M48.35,17.51c-1,.78-2,1.54-2.94,2.35l1.07,1.75-3.72,2.26.78,1.68s6.42-1.08,6.57-2.63c.08-.78-.76-3.19-1.74-5.42Z"/><path class="cls-40" d="M39.1,24.48a.59.59,0,1,0,1.17-.11.59.59,0,0,0-.64-.56A.6.6,0,0,0,39.1,24.48Z"/><path class="cls-41" d="M39.64,23.33c0,.36-.87.74-2,.85s-2.13-.09-2.17-.45.88-.74,2-.85S39.61,23,39.64,23.33Z"/><path class="cls-42" d="M39.17,24.18c0,.36-.65.72-1.52.8S36,24.84,36,24.48s.65-.72,1.52-.8S39.13,23.82,39.17,24.18Z"/><path class="cls-11" d="M37.61,24.18c-1.1.1-2-.07-2.15-.39l0,0a2.34,2.34,0,0,0,2.34,2.29,2.32,2.32,0,0,0,1.86-2.64C39.54,23.75,38.68,24.08,37.61,24.18Z"/><path class="cls-15" d="M41.93,24.23s-.42-.8-1-.85c0,0-1.42.2-1.33.4s1,0,1,0-1.06.26-.82.54a.83.83,0,0,0,.22.49s0,.44.34.53a.7.7,0,0,0,.84.43c.57-.18,3.08-.76,3.08-.76l-1.36-1Z"/><path class="cls-16" d="M43.32,23.4l-1,.63.78,1.68A28.25,28.25,0,0,1,46,24.65C45.62,24,43.6,24.12,43.32,23.4Z"/><path class="cls-38" d="M48.35,17.51c-1,.78-2,1.54-2.94,2.35l1.07,1.75-3.86,2,.92,2s6.42-1.08,6.57-2.63c.08-.78-.76-3.19-1.74-5.42Z"/><ellipse class="cls-6" cx="46.47" cy="62.16" rx="22.46" ry="1.54"/><rect class="cls-11" x="29.91" y="47.26" width="1" height="15.15"/><rect class="cls-11" x="37.12" y="47.26" width="1" height="15.15"/><rect class="cls-11" x="56.49" y="47.26" width="1" height="15.15"/><rect class="cls-11" x="63.7" y="47.26" width="1" height="15.15"/><path class="cls-43" d="M61.48,46.3a.41.41,0,0,1-.38.43l-12,0a.41.41,0,0,1-.38-.43h0a.41.41,0,0,1,.38-.43l12,0a.41.41,0,0,1,.38.43Z"/><path class="cls-33" d="M61.1,45.87l-12,0,8.35,0c.17,0,.31.27.31.58a.82.82,0,0,1,0,.28H61.1a.43.43,0,0,0,0-.86Z"/><path class="cls-44" d="M58,45.65a.33.33,0,0,1-.34.31L48.89,46a.32.32,0,0,1-.34-.3l-.07-5.95a.33.33,0,0,1,.35-.31l8.78-.07a.32.32,0,0,1,.35.3Z"/><path class="cls-45" d="M57.61,39.4H57.5a.28.28,0,0,1,.18.26l.06,6a.32.32,0,0,1-.31.31h.25a.33.33,0,0,0,.34-.31L58,39.7A.32.32,0,0,0,57.61,39.4Z"/><rect class="cls-1" x="28.54" y="46.59" width="37.17" height="1.91"/><rect class="cls-46" x="37.97" y="46.59" width="27.74" height="1.91"/></g></g></svg>