<svg xmlns="http://www.w3.org/2000/svg" viewBox="0 0 31.47 71.95"><defs><style>.cls-1{fill:#fff5bb;}.cls-2{fill:#ffc6b5;}.cls-3,.cls-4{fill:#99665e;}.cls-3{opacity:0.3;}.cls-4{opacity:0.4;}.cls-5{fill:#0c181e;}.cls-6{fill:#172d3a;}.cls-7{fill:#0e2735;}.cls-8{fill:#4b616b;}.cls-9{fill:#ffebde;}.cls-10{fill:#141d1f;opacity:0.1;}.cls-11{fill:#9ec1d8;}.cls-12{fill:#aed4f4;}.cls-13{fill:#e5beb5;}.cls-14{fill:#fff;}</style></defs><title>Ativo 92</title><g id="Camada_2" data-name="Camada 2"><g id="Personagens"><path class="cls-1" d="M17.1,1A5.33,5.33,0,0,0,10,2S11.58,13.43,15,13.53A14.83,14.83,0,0,0,18,13.37l.56-1.46a6.43,6.43,0,0,1-.09,1.37,3.35,3.35,0,0,0,.44-.13,31.64,31.64,0,0,0,.42-4,32.2,32.2,0,0,1-.15,3.86,1.55,1.55,0,0,0,.59-.35S21.3,3.61,17.1,1Z"/><path class="cls-2" d="M8.58,8.8c-.08,1,.34,1.85.93,1.9S10.66,10,10.74,9s-.33-1.85-.93-1.9S8.66,7.8,8.58,8.8Z"/><path class="cls-2" d="M11.21,9.34l1.1,4.18-3,1.86a10.46,10.46,0,0,0,6.5.93C19.17,15.56,18,14,18,14l-2.54-.68-.23-3.39Z"/><path class="cls-3" d="M15.38,13.12l.4-3.29-4.5-.53.94,3.81A27.85,27.85,0,0,1,15.38,13.12Z"/><path class="cls-2" d="M11.85,2.28s4.63-1.65,6,2.66c.78,2.45,1.22,5.26-.79,6.86s-5.12.65-6.6-1.39S6.41,3.46,11.85,2.28Z"/><path class="cls-4" d="M15.69,7.26a5.28,5.28,0,0,0,1,1.18l-.66.71"/><path class="cls-5" d="M15.62,5.06a.81.81,0,0,1,.33-.7,1.14,1.14,0,0,1,.73-.21,1,1,0,0,1,1,1,3.15,3.15,0,0,1-.65.12,1.43,1.43,0,0,1-.4,0C16.37,5.26,16.19,5.15,15.62,5.06Z"/><path class="cls-5" d="M12.12,5.53a.81.81,0,0,1,.23-.75A1.18,1.18,0,0,1,13,4.43a1.08,1.08,0,0,1,1.17.79,3.81,3.81,0,0,1-.63.24,2.26,2.26,0,0,1-.42.1C12.92,5.59,12.7,5.53,12.12,5.53Z"/><path class="cls-6" d="M15.73,6.57a2,2,0,0,0,.85,0,1.53,1.53,0,0,0,.73-.39.74.74,0,0,1,0,.68.85.85,0,0,1-.61.48A.82.82,0,0,1,15.73,6.57Z"/><path class="cls-6" d="M12.67,7a1.53,1.53,0,0,0,.76.08c.1,0,.3-.1.65-.39a.71.71,0,0,1,.07.62.81.81,0,0,1-.56.5.79.79,0,0,1-.71-.22A.71.71,0,0,1,12.67,7Z"/><path class="cls-7" d="M4.25,67.22a13.61,13.61,0,0,1-1.2,4s-3.16,1.08-3-.75l2.05-3.93Z"/><path class="cls-7" d="M3.29,60.49l3.32,1.06C5.2,64.4,3.7,68.63,3.7,68.63s-.59,1.32-1,1.29a1.34,1.34,0,0,1-1.72-.79l1.11-2.54S2.68,63.71,3.29,60.49Z"/><path class="cls-7" d="M16,61.76C16,64.51,16,66.67,16,66.67l2,4L16,70.45l-2.46-3.8s-.37-2.5-.86-5.17C13.79,61.56,14.9,61.65,16,61.76Z"/><path class="cls-7" d="M13.59,66.44a2.11,2.11,0,0,0-.71,1.89c.18,1.18.49,3,.49,3h.37l.12-2.16s.73,2,1.14,2.15,3.77,1,4.13.34-1.41-1.56-1.41-1.56A1.65,1.65,0,0,1,16,69.8,20,20,0,0,1,13.59,66.44Z"/><path class="cls-8" d="M6.6,49.28h6.26L11.71,64.77a3.2,3.2,0,0,0,.26.37c4.54,2,5.26-1.16,5.26-1.16L19,53.25l1.73-4c.14-.74.28-1.45.42-2.18,1-4.42,1.29-5.54,1.78-7.79,1.93-8.86-4.62-13-4.62-13l-2.39.34-3-.87S5.08,30,5.7,39C5.92,42.23,6.34,46.69,6.6,49.28Z"/><path class="cls-9" d="M22.15,30.85a10,10,0,0,1-5.09,3l-1.83-2.89-1.44,3.66S8.69,33.88,7,31.76c0,0,1.73-3.58,3-5.6,0,0-3.59-9.2-2-10.65.69-.65,3.67-1.52,6.08-2l.93,1.33.18-1.55c2.6-.36,4.68.32,5.1,2.09C21,19,18.7,25.63,18.7,25.63Z"/><path class="cls-10" d="M22.15,30.85a10,10,0,0,1-5.09,3l-1.83-2.89-1.44,3.66S8.69,33.88,7,31.76c0,0,1.73-3.58,3-5.6,0,0-3.59-9.2-2-10.65.69-.65,3.67-1.52,6.08-2l.93,1.33.22-1.68c2.6-.36,4.64.45,5.06,2.22C21,19,18.7,25.63,18.7,25.63Z"/><path class="cls-8" d="M6.63,49.27S1.42,57.42.21,64.88c0,0,3.12,2.68,5.9,1.56,0,0,3.29-11.27,4.68-14.39a7.42,7.42,0,0,0,.6-5.55C11.22,45.37,6.63,49.27,6.63,49.27Z"/><path class="cls-11" d="M19.09,17.39s2.12,2.31,1.15,3.85a2.79,2.79,0,0,1-4.82.1C13.79,19.22,19.09,17.39,19.09,17.39Z"/><path class="cls-6" d="M8.21,20.81a17.09,17.09,0,0,0,1.6,5.12c0,.08-.16-1-.12-.93s-1.42,4.05-1.86,5.06-.06.32-.06.32,7,5.5,14.38-.1L19,25.53l.48-2.69,2.17-.93s-.63-7.33-2-8a6.51,6.51,0,0,0-2.45-.63s-2,3-5.71.62c0,0-2.95.86-3.56,1.57S8.21,20.81,8.21,20.81Z"/><polygon class="cls-9" points="17.33 13.41 16.09 14.87 15.11 13.15 16.66 12.39 17.33 13.41"/><path class="cls-2" d="M7.67,31.06S9,30.3,9.55,30.74c0,0,2.47,3.2,0,.7,0,0,.92,3.43-.5,0,0,0,.26,3.79-.56.17,0,0,.44,3.69-.48.51,0,0-.5,1.09-1.3.34s-2.81-5-2.81-5l2.31.32Z"/><path class="cls-12" d="M7.23,29.43c-.82.2-1.64.39-2.47.57.76,1.26,1.39,2.17,1.39,2.17s1.54-.48,1.72-1.3a8,8,0,0,1-.53-1.47A.45.45,0,0,1,7.23,29.43Z"/><path class="cls-9" d="M7.88,15.51s-4.2,4.31-5.47,7.84c-.82,2.28,3.28,8.41,3.28,8.41s1.9-.56,2.08-1.38a30.84,30.84,0,0,1-1.44-5.66c0-.55,1.53-2.35,2.45-4C11.35,16.65,7.88,15.51,7.88,15.51Z"/><polygon class="cls-9" points="11.31 14.02 13.65 15.71 13.96 13.5 11.74 13.1 11.31 14.02"/><path class="cls-2" d="M29.52,18.19c-.38.14-.83.34-1.36.58s-1.73,1.32-2.27,1.61a4,4,0,0,1,1,2.51c1.25-1.44,3.23-3,3.6-3.85A3,3,0,0,1,29.52,18.19Z"/><path class="cls-2" d="M29.62,20.23s2-1.56,1.84-1.93-1.3.73-1.3.73,1.36-1.34,1.1-1.44-1.1.67-1.1.67,1-1,.8-1.09A6.63,6.63,0,0,0,29.6,18s1.78-2-.72.13c0,0,.29-2.6-.58.36S29.62,20.23,29.62,20.23Z"/><path class="cls-13" d="M20.65,45.63a5.79,5.79,0,0,0-2.1-.23c-.83.16-2.1,1.08-1.74,2.08v0h3.74Z"/><path class="cls-9" d="M27.47,18.9,23.6,21.61s-2.61-7-4-7.66l-.05,0a5.22,5.22,0,0,1,.17,2c-.22,1.07,1.5,2,1.24,3.94a5.11,5.11,0,0,1-1.51,3s1.81,2.95,3.06,3.24S29.36,21,29.36,21Z"/><path class="cls-1" d="M12,11.92a4,4,0,0,1-1.75-2.17s-1,.32-1.24-.93c-.28-1.62,1.08-1.45,1.08-1.45l.24,1.44c2.22-1.77,1.6-6,1.6-6C11.44.13,9.05.48,7.72,3.14s-.36,10.63-.36,10.63a8.88,8.88,0,0,0,1,.21,8.52,8.52,0,0,1-.15-1.17c.13.47.28.93.35,1.19a8.39,8.39,0,0,0,.84.07c-.12-1.29-.09-2.72-.09-2.72a19.92,19.92,0,0,0,.24,2.72h.53c0-.25,0-.47.06-.69,0,.26.08.49.12.68a8.78,8.78,0,0,0,1.86-.32C12.32,13.7,12,11.92,12,11.92Z"/><path class="cls-14" d="M13.92,10l3.47-.42S16.34,11.75,13.92,10Z"/></g></g></svg>