<svg xmlns="http://www.w3.org/2000/svg" xmlns:xlink="http://www.w3.org/1999/xlink" viewBox="0 0 30.62 31.33"><defs><style>.cls-1{isolation:isolate;}.cls-2{fill:url(#linear-gradient);}.cls-3{fill:url(#linear-gradient-2);}.cls-4{fill:url(#linear-gradient-3);}.cls-5{fill:#fff;}.cls-6{fill:url(#linear-gradient-4);}.cls-7{fill:url(#linear-gradient-5);}.cls-8{fill:#e2e7e8;mix-blend-mode:multiply;}.cls-9{fill:url(#linear-gradient-6);}.cls-10{fill:url(#linear-gradient-7);}.cls-11{fill:#c4ced6;}.cls-12{fill:#afbbc4;}.cls-13,.cls-20{fill:#fcfcfc;}.cls-14{fill:#d6dee5;}.cls-15{fill:#bec7d0;}.cls-16{fill:#03a9f4;}.cls-17{fill:#dde3e8;}.cls-18{fill:#f4f3f2;}.cls-19{fill:#969696;}.cls-20{opacity:0.1;mix-blend-mode:screen;}</style><linearGradient id="linear-gradient" x1="-563.5" y1="310.94" x2="-563.22" y2="310.94" gradientTransform="matrix(1.11, 0.27, 0, 0.9, 650.95, -110.68)" gradientUnits="userSpaceOnUse"><stop offset="0" stop-color="#393a3a"/><stop offset="0.28" stop-color="#242527"/><stop offset="0.35" stop-color="#27282a"/><stop offset="1" stop-color="#3e3e3f"/></linearGradient><linearGradient id="linear-gradient-2" x1="-563.5" y1="308.54" x2="-563.22" y2="308.54" xlink:href="#linear-gradient"/><linearGradient id="linear-gradient-3" x1="-563.5" y1="306.18" x2="-563.22" y2="306.18" gradientTransform="matrix(1.11, 0.27, 0, 0.9, 650.95, -110.68)" gradientUnits="userSpaceOnUse"><stop offset="0" stop-color="#313233"/><stop offset="0.02" stop-color="#2f3031"/><stop offset="0.3" stop-color="#202123"/><stop offset="1" stop-color="#333435"/></linearGradient><linearGradient id="linear-gradient-4" x1="-563.5" y1="306.15" x2="-563.22" y2="306.15" gradientTransform="matrix(1.11, 0.27, 0, 0.9, 650.95, -110.68)" gradientUnits="userSpaceOnUse"><stop offset="0" stop-color="#262627"/><stop offset="1" stop-color="#3e3e3f"/></linearGradient><linearGradient id="linear-gradient-5" x1="-563.49" y1="306.15" x2="-563.23" y2="306.15" gradientTransform="matrix(1.11, 0.27, 0, 0.9, 650.95, -110.68)" gradientUnits="userSpaceOnUse"><stop offset="0" stop-color="#3e3e3f"/><stop offset="1" stop-color="#262627"/></linearGradient><linearGradient id="linear-gradient-6" x1="690.57" y1="327.21" x2="701.6" y2="327.21" gradientTransform="matrix(1.11, 0.27, 0, 0.9, -755.88, -457.48)" gradientUnits="userSpaceOnUse"><stop offset="0" stop-color="#c2ccd3"/><stop offset="0.32" stop-color="#b2bbc1"/><stop offset="1" stop-color="#c4ced6"/></linearGradient><linearGradient id="linear-gradient-7" x1="-1585.87" y1="326.75" x2="-1574.83" y2="326.75" gradientTransform="matrix(-1.11, -0.27, 0, 0.9, -1735.87, -699.06)" gradientUnits="userSpaceOnUse"><stop offset="0" stop-color="#f5f5f6"/><stop offset="1" stop-color="#d1d5de"/></linearGradient></defs><title>Ativo 132</title><g class="cls-1"><g id="Camada_2" data-name="Camada 2"><g id="Camada_1-2" data-name="Camada 1"><path class="cls-2" d="M27.41,16.12l-.11-.05a.2.2,0,0,0-.11,0,0,0,0,0,0-.05,0s0,0,.05.07l.11,0a.22.22,0,0,0,.11,0s.05,0,.05,0S27.44,16.14,27.41,16.12Z"/><polygon class="cls-3" points="27.14 16.11 27.46 16.18 27.45 11.86 27.13 11.79 27.14 16.11"/><path class="cls-4" d="M27.4,11.82l-.11-.05h-.16v0a.1.1,0,0,0,.05.07l.11,0h.11a0,0,0,0,0,.05,0v0h0S27.42,11.83,27.4,11.82Z"/><path class="cls-5" d="M27.4,11.8a.22.22,0,0,0-.11-.05h-.11s-.05,0-.05,0,0,0,.05.06l.11.05h.11s.05,0,.05-.05S27.43,11.82,27.4,11.8Z"/><path class="cls-6" d="M27.4,11.79l-.11,0h-.11s0,0,0,0a.07.07,0,0,0,0,.06l.11.05h.11a.05.05,0,0,0,0-.05S27.43,11.82,27.4,11.79Z"/><path class="cls-7" d="M27.39,11.8a.29.29,0,0,0-.2-.05c-.06,0-.06.06,0,.1a.31.31,0,0,0,.2.05C27.45,11.88,27.45,11.84,27.39,11.8Z"/><path class="cls-8" d="M20.44,27.3c2.08,1.49,2.09,3.07,0,3.54l-1.6.36a10.88,10.88,0,0,1-7.51-1.86h0c-2.08-1.48-2.08-3.07,0-3.53l1.6-.36a10.8,10.8,0,0,1,7.51,1.85Z"/><path class="cls-9" d="M22.39,28.86l-.07,0a3.69,3.69,0,0,0-1.49-1.75,10.91,10.91,0,0,0-7.51-1.85l-1.6.36a1.88,1.88,0,0,0-1.47,1l-.08,0V27h0c0,.64.53,1.4,1.56,2.14A10.88,10.88,0,0,0,19.25,31l1.59-.36c1.07-.24,1.59-.78,1.55-1.45h0Z"/><path class="cls-10" d="M20.83,26.68c2.08,1.49,2.09,3.07,0,3.53l-1.59.36a10.83,10.83,0,0,1-7.52-1.85h0c-2.08-1.49-2.08-3.07,0-3.54l1.6-.36a10.86,10.86,0,0,1,7.51,1.86Z"/><polygon class="cls-11" points="14.21 27.8 18.29 26.88 18.27 19.2 14.19 20.12 13.74 23.16 14.21 27.8"/><polygon class="cls-12" points="14.2 27.79 13.37 27.19 13.35 19.51 14.18 20.11 14.2 27.79"/><polygon class="cls-13" points="30.62 18.62 0.38 8.81 0 6.64 29.99 0 30.57 0.42 30.62 18.62"/><polygon class="cls-14" points="0.8 25.29 30.62 18.61 30.57 0.41 0.76 7.09 0.8 25.29"/><polygon class="cls-15" points="2.65 23.35 29.31 17.37 29.26 2.63 2.7 8.63 2.65 23.35"/><polygon class="cls-16" points="2.65 22.94 28.57 17.13 28.53 2.84 2.62 8.64 2.65 22.94"/><polygon class="cls-17" points="3.45 11.6 4.22 11.43 4.22 10.52 3.45 10.69 3.45 11.6"/><polygon class="cls-17" points="3.45 13.11 4.22 12.94 4.22 12.04 3.45 12.21 3.45 13.11"/><polygon class="cls-17" points="3.39 10.21 4.16 10.04 4.15 9.13 3.38 9.31 3.39 10.21"/><polygon class="cls-17" points="3.5 20.86 4.27 20.68 4.27 19.78 3.5 19.95 3.5 20.86"/><polygon class="cls-15" points="0 6.64 0.76 7.09 0.8 25.29 0.12 24.85 0 6.64"/><polygon class="cls-12" points="9.53 19.2 22.42 16.31 22.4 6.63 9.5 9.5 9.53 19.2"/><polygon class="cls-18" points="9.52 19.68 22.43 16.8 22.4 7.12 9.5 9.98 9.52 19.68"/><polygon class="cls-19" points="15.35 17.05 15.35 16.92 21.53 15.54 21.53 15.67 15.35 17.05"/><polygon class="cls-19" points="21.53 14.94 14.22 16.58 14.21 16.71 21.53 15.08 21.53 14.94"/><polygon class="cls-19" points="21.53 14.35 14.21 15.99 14.21 16.12 21.53 14.48 21.53 14.35"/><polygon class="cls-19" points="21.52 13.76 14.21 15.4 14.21 15.53 21.52 13.89 21.52 13.76"/><polygon class="cls-19" points="16.97 14.19 14.21 14.8 14.21 14.94 16.97 14.32 16.97 14.19"/><polygon class="cls-19" points="15.34 14.09 15.34 13.96 21.52 12.57 21.52 12.71 15.34 14.09"/><polygon class="cls-19" points="21.52 11.98 14.21 13.62 14.21 13.75 21.52 12.11 21.52 11.98"/><polygon class="cls-19" points="21.52 11.39 14.21 13.03 14.21 13.16 21.52 11.52 21.52 11.39"/><polygon class="cls-19" points="21.52 10.79 14.21 12.43 14.21 12.57 21.52 10.93 21.52 10.79"/><polygon class="cls-19" points="16.96 11.22 14.2 11.84 14.21 11.97 16.96 11.36 16.96 11.22"/><polygon class="cls-19" points="16.22 10.02 14.05 10.51 14.05 10.37 16.22 9.89 16.22 10.02"/><polygon class="cls-17" points="10.83 13.26 12.79 12.82 12.79 10.52 10.83 10.95 10.83 13.26"/><path class="cls-5" d="M12.23,11.48a.6.6,0,0,1-.4.59c-.22,0-.4-.13-.41-.4a.6.6,0,0,1,.41-.59C12.05,11,12.23,11.21,12.23,11.48Z"/><path class="cls-5" d="M12.54,12.58c0-.32-.33-.5-.73-.41a.9.9,0,0,0-.73.73Z"/><path class="cls-5" d="M11.33,12.08a.2.2,0,0,1,.16-.19.12.12,0,0,1,.17.12.21.21,0,0,1-.16.19C11.4,12.22,11.33,12.17,11.33,12.08Z"/><polygon class="cls-5" points="11.93 12.43 11.7 12.48 11.7 11.83 11.93 11.78 11.93 12.43"/><polygon class="cls-20" points="22.2 4.23 5.99 22.19 28.57 17.13 28.53 2.84 22.2 4.23"/></g></g></g></svg>