<svg xmlns="http://www.w3.org/2000/svg" viewBox="0 0 95.12 85.3"><defs><style>.cls-1,.cls-6,.cls-7,.cls-8{fill:#0e2735;}.cls-1{opacity:0.15;}.cls-2{fill:#254251;}.cls-3{fill:#141d1f;}.cls-13,.cls-3{opacity:0.3;}.cls-4{fill:#34525e;}.cls-5{fill:#fff;}.cls-7{opacity:0.2;}.cls-8{opacity:0.1;}.cls-9{fill:#ffc5b4;}.cls-10{fill:#353030;}.cls-11{fill:#add3f3;}.cls-12{fill:#4b616b;}.cls-13,.cls-14{fill:#98665e;}.cls-14{opacity:0.4;}.cls-15{fill:#0c181e;}.cls-16{fill:#9dc0d7;}.cls-17{fill:#172d3a;}.cls-18{fill:#ffd8c9;}.cls-19{fill:#14384f;}.cls-20{fill:#815248;}.cls-21{fill:#e1aea5;}</style></defs><title>Ativo 102</title><g id="Camada_2" data-name="Camada 2"><g id="Camada_1-2" data-name="Camada 1"><path class="cls-1" d="M85,81.59C85,82.91,75.25,84,63.23,84s-21.77-1.06-21.77-2.38,9.74-2.38,21.77-2.38S85,80.28,85,81.59Z"/><rect class="cls-2" x="48.31" y="61.13" width="31.14" height="2.33"/><rect class="cls-3" x="48.31" y="61.13" width="31.14" height="2.33"/><rect class="cls-2" x="62.96" y="52.64" width="2.62" height="28.06"/><rect class="cls-3" x="62.96" y="53.53" width="2.62" height="3.91"/><rect class="cls-2" x="77.7" y="52.64" width="2.62" height="28.88"/><rect class="cls-3" x="77.7" y="53.53" width="2.62" height="3.91"/><rect class="cls-2" x="46.88" y="52.64" width="2.62" height="28.88"/><rect class="cls-3" x="46.88" y="53.53" width="2.62" height="3.91"/><rect class="cls-4" x="30.32" y="2.51" width="64.8" height="53"/><rect class="cls-5" x="32.32" y="4.43" width="61.42" height="48.85"/><rect class="cls-6" x="43.34" y="2" width="39.84" height="2.91"/><rect class="cls-6" x="56.14" y="0.96" width="14.25" height="2.28"/><rect class="cls-7" x="35.52" y="8.51" width="5.92" height="5.92" rx="0.89"/><path class="cls-8" d="M90,10.42a.73.73,0,0,1-.73.73H44.55a.73.73,0,0,1-.73-.73h0a.73.73,0,0,1,.73-.72H89.27a.73.73,0,0,1,.73.72Z"/><path class="cls-8" d="M90,12.67a.73.73,0,0,1-.73.73H44.55a.73.73,0,0,1-.73-.73h0a.73.73,0,0,1,.73-.73H89.27a.73.73,0,0,1,.73.73Z"/><rect class="cls-7" x="35.52" y="20.36" width="5.92" height="5.92" rx="0.89"/><path class="cls-8" d="M90,22.27a.73.73,0,0,1-.73.72H44.55a.73.73,0,0,1-.73-.72h0a.73.73,0,0,1,.73-.73H89.27a.73.73,0,0,1,.73.73Z"/><path class="cls-8" d="M90,24.51a.73.73,0,0,1-.73.73H44.55a.73.73,0,0,1-.73-.73h0a.73.73,0,0,1,.73-.72H89.27a.73.73,0,0,1,.73.72Z"/><rect class="cls-7" x="35.52" y="32.2" width="5.92" height="5.92" rx="0.89"/><path class="cls-8" d="M90,34.11a.73.73,0,0,1-.73.73H44.55a.73.73,0,0,1-.73-.73h0a.73.73,0,0,1,.73-.73H89.27a.73.73,0,0,1,.73.73Z"/><path class="cls-8" d="M90,36.36a.73.73,0,0,1-.73.73H44.55a.73.73,0,0,1-.73-.73h0a.73.73,0,0,1,.73-.73H89.27a.73.73,0,0,1,.73.73Z"/><rect class="cls-7" x="35.52" y="44.04" width="5.92" height="5.92" rx="0.89"/><path class="cls-8" d="M90,46a.73.73,0,0,1-.73.72H44.55a.73.73,0,0,1-.73-.72h0a.73.73,0,0,1,.73-.73H89.27A.73.73,0,0,1,90,46Z"/><path class="cls-8" d="M90,48.2a.73.73,0,0,1-.73.73H44.55a.73.73,0,0,1-.73-.73h0a.73.73,0,0,1,.73-.72H89.27a.73.73,0,0,1,.73.72Z"/><ellipse class="cls-9" cx="13.49" cy="10" rx="1.28" ry="2.14"/><path class="cls-10" d="M14.88,2.76S15.25.77,18,.15c3.66-.84,6.83,2,6.83,6.05s2.55,7.22.55,10S20.1,17,20.1,17Z"/><path class="cls-11" d="M25.78,16S29.86,23,31,27.12a4.41,4.41,0,0,1-3.44,1.93l-4-6.61Z"/><path class="cls-1" d="M28.29,83.37c0,1.07-6.33,1.93-14.14,1.93S0,84.44,0,83.37s6.33-1.94,14.15-1.94S28.29,82.3,28.29,83.37Z"/><path class="cls-6" d="M7.53,78.14A15.92,15.92,0,0,1,6.12,82.9S2.41,84.18,2.54,82L5,77.4Z"/><path class="cls-6" d="M6.41,70.22l3.91,1.24c-1.66,3.36-3.43,8.33-3.43,8.33s-.69,1.56-1.22,1.53a1.59,1.59,0,0,1-2-.94L5,77.4S5.69,74,6.41,70.22Z"/><path class="cls-6" d="M21.37,71.71c-.05,3.23-.07,5.78-.07,5.78l2.33,4.64-2.27-.19-2.89-4.47s-.44-2.94-1-6.08C18.76,71.48,20.06,71.58,21.37,71.71Z"/><path class="cls-6" d="M18.53,77.22a2.47,2.47,0,0,0-.84,2.22c.21,1.39.57,3.55.57,3.55h.44l.14-2.55s.86,2.3,1.34,2.53,4.43,1.24,4.87.4-1.66-1.84-1.66-1.84a1.94,1.94,0,0,1-2.08-.36A23.42,23.42,0,0,1,18.53,77.22Z"/><path class="cls-12" d="M24,30l-2.82.4-3.49-1s-9.2,5-8.47,15.6c.31,4.45.95,11,1.19,13.48l5.31.2c1-2.65,1.91-6.2,2.6-8.23h0a38.11,38.11,0,0,0,1.37-4.06c.07.46.19,1.26.3,2.27.06.71.14,1.46.22,2.23.24,3,.31,6.68-.48,8.87l-.05.17s-1.27,3-2.48,6.66c-.17.63-2.32,8.31-2.05,10.36a8.49,8.49,0,0,0,4.71,1.28,11.54,11.54,0,0,0,2.05-.41l.15,0c3.25-12.41,4.15-17.65,5.27-23.26,1.23-5.2,1.52-6.52,2.1-9.17C31.72,34.87,24,30,24,30Z"/><path class="cls-9" d="M16,10.06l1,5-3.67,2a12.35,12.35,0,0,0,7.57,1.53c4-.64,2.76-2.57,2.76-2.57l-2.94-1-.66-2.42Z"/><path class="cls-13" d="M20.64,14.78,20,12.45,16.09,10l.84,4.55A33.91,33.91,0,0,1,20.64,14.78Z"/><path class="cls-9" d="M16.88,2s4.75-1.1,5.83,2.56c.85,2.9,1.93,6.05-.28,8.12s-5.94,1.26-7.86-1S10.61,3.94,16.88,2Z"/><path class="cls-14" d="M20.4,7.51a6.19,6.19,0,0,0,1.35,1.3L21,9.7"/><path class="cls-15" d="M20.11,4.94a1.1,1.1,0,0,1,1.16-1,1.22,1.22,0,0,1,1.22.93,4,4,0,0,1-.72.1l-.5,0C21,5,20.71,4.92,20.11,4.94Z"/><path class="cls-15" d="M16.05,5.84a1.17,1.17,0,0,1,1-1.25,1.3,1.3,0,0,1,1.43.68,4,4,0,0,1-.71.24,4.68,4.68,0,0,1-.52.12C16.93,5.7,16.65,5.71,16.05,5.84Z"/><path class="cls-16" d="M28.59,35.35a11.82,11.82,0,0,1-6,3.49l-2.15-3.4-1.7,4.31s-6-.84-8-3.33c0,0,2-4.21,3.5-6.59,0,0-4.23-10.83-2.42-12.53.81-.76,3.56-1.72,6.4-2.3l.89,1.48.48-1.71c3.06-.42,6.2.29,6.69,2.37,1,4.3-1.72,12.07-1.72,12.07Z"/><path class="cls-9" d="M11.8,17.3s-4.94,5.08-6.43,9.23c-1,2.68,4.9,10.41,4.9,10.41s1.19.07,1.41-.89c0,0-1.7-6.2-1.7-7.92,0-.64,4.18-4.61,4.18-4.61Z"/><path class="cls-12" d="M10.33,57S4.21,66.61,2.78,75.38c0,0,3.68,3.16,6.94,1.83,0,0,3.88-13.26,5.51-16.93s.92-5.2.71-6.52S10.33,57,10.33,57Z"/><path class="cls-17" d="M20.38,6.7a2,2,0,0,0,1,.06,1.71,1.71,0,0,0,.8-.61.89.89,0,0,1,0,.75,1,1,0,0,1-.63.57A1,1,0,0,1,20.38,6.7Z"/><path class="cls-17" d="M16.84,7.51a1.61,1.61,0,0,0,.93.11c.17,0,.38-.23.69-.61a.89.89,0,0,1,.08.7.86.86,0,0,1-1.37.42A.86.86,0,0,1,16.84,7.51Z"/><path class="cls-18" d="M40.38,20.46s-.48-1.07-1.34-.14a2.21,2.21,0,0,0-.65,1.89Z"/><path class="cls-9" d="M37.14,22.18s2.73-2.18,3.41-2.52C41.89,19,42,20,42,20s0,2.15-.69,2.54-3.48,2.27-3.48,2.27Z"/><polygon class="cls-19" points="38.3 22.31 55.27 8.25 55.48 8.41 38.49 22.53 38.3 22.31"/><path class="cls-9" d="M40.18,19.36a1,1,0,0,1,1,.93c.12,1-1.07-.22-1.07-.22s.55.16-.48,1.08-.92-.23-.92-.23l.16-.29"/><path class="cls-11" d="M37.85,25.27c.78-.56,1.27-.93,1.27-.93a3,3,0,0,0-1.77-2.51A10.2,10.2,0,0,1,35.71,23,12.39,12.39,0,0,1,37.85,25.27Z"/><path class="cls-16" d="M25,19.51s2.49,2.72,1.36,4.54-3.74,2.6-5.67.11S25,19.51,25,19.51Z"/><path class="cls-17" d="M12.2,23.54a19.85,19.85,0,0,0,1.88,6c0,.09-.19-1.19-.14-1.1s-1.67,4.78-2.19,6-.07.37-.07.37,8.22,6.48,16.91-.11l-3.73-5.59.66-2.59s2.1,3.62,3.57,4,9.53-5.59,9.53-5.59l-2.14-2.44-6.11,2.78s-3.15-9-4.77-9.74a7.71,7.71,0,0,0-2.89-.74,5.39,5.39,0,0,1-7.33,1s-2.86.78-3.58,1.61S12.2,23.54,12.2,23.54Z"/><polygon class="cls-11" points="22.36 14.57 20.93 16.98 19.57 14.77 21.37 13.62 22.36 14.57"/><path class="cls-9" d="M11.56,35.6s1.6-.9,2.21-.38c0,0,2.91,3.77,0,.82,0,0,1.07,4-.6,0,0,0,.31,4.46-.66.2,0,0,.52,4.34-.56.6,0,0-.59,1.28-1.53.41s-3.3-5.94-3.3-5.94l2.72.38Z"/><path class="cls-11" d="M11.05,33.68c-1,.23-1.94.46-2.91.67C9,35.83,9.77,36.9,9.77,36.9s1.81-.56,2-1.53a9.47,9.47,0,0,1-.63-1.72Z"/><path class="cls-17" d="M11.8,17.3s-4.94,5.08-6.43,9.23c-1,2.68,3.87,9.89,3.87,9.89s2.22-.66,2.44-1.63c0,0-1.7-4.94-1.7-6.66,0-.64,4.18-4.61,4.18-4.61Z"/><path class="cls-20" d="M19.23,11.18a.92.92,0,1,0,1.82-.08.92.92,0,1,0-1.82.08Z"/><path class="cls-21" d="M19.25,11.3a1,1,0,0,0,.94.91.84.84,0,0,0,.55-.26A1,1,0,0,0,19.8,11,.84.84,0,0,0,19.25,11.3Z"/><path class="cls-10" d="M17.32,1.7s.45,5-2.77,7.33c0,0-1.34-.94-1.56.55S14.6,11,14.6,11a3.92,3.92,0,0,0,2.06,2.22s.44,1.94-.28,2.28-3.72,1.22-3.72,1.22-2.72-.95-1.94-3.11.86-3.22.66-6.22C11.05,2.26,14.71-.13,17.32,1.7Z"/><polygon class="cls-11" points="15.84 15.55 17.45 17.78 18.25 15.02 16.35 14.46 15.84 15.55"/><path class="cls-5" d="M14.82,11.17a.52.52,0,0,1-.52.52.52.52,0,0,1-.53-.52.53.53,0,0,1,.53-.53A.52.52,0,0,1,14.82,11.17Z"/></g></g></svg>