<svg xmlns="http://www.w3.org/2000/svg" viewBox="0 0 65.16 27.5"><defs><style>.cls-1,.cls-3,.cls-6{fill:#0e2735;}.cls-1{opacity:0.15;}.cls-2{fill:#c99775;}.cls-3,.cls-5{opacity:0.5;}.cls-4{fill:#525557;}.cls-5{fill:#1c1e1f;}.cls-6{opacity:0.1;}</style></defs><title>Ativo 97</title><g id="Camada_2" data-name="Camada 2"><g id="Objetos"><path class="cls-1" d="M0,25.74c0,1,14.58,1.76,32.57,1.76s32.57-.78,32.57-1.76S50.58,24,32.59,24,0,24.77,0,25.74Z"/><rect class="cls-2" x="4.77" y="1.91" width="30.35" height="21.1"/><rect class="cls-3" x="4.77" y="1.91" width="30.35" height="21.1"/><polygon class="cls-2" points="62.63 1.55 62.63 25.89 35.13 25.89 35.13 1.91 4.77 1.91 4.77 25.89 2.48 25.89 2.48 1.55 62.63 1.55"/><rect class="cls-2" x="35.49" y="3.41" width="27.1" height="21.73"/><rect class="cls-4" x="36.89" y="4.8" width="23.96" height="18.81"/><rect class="cls-2" x="37.17" y="12.38" width="23.39" height="10.85"/><rect class="cls-2" x="37.17" y="5.08" width="23.39" height="6.92"/><rect class="cls-4" x="44.81" y="8.08" width="8.11" height="1.01"/><rect class="cls-5" x="44.81" y="8.8" width="8.11" height="0.75"/><rect class="cls-4" x="44.81" y="17" width="8.11" height="1.01"/><rect class="cls-5" x="44.81" y="17.72" width="8.11" height="0.75"/><polygon class="cls-6" points="2.48 1.48 2.48 2.73 4.77 2.73 4.77 1.91 35.13 1.91 35.13 2.73 62.63 2.73 62.63 1.48 2.48 1.48"/><rect class="cls-2" width="65.16" height="2.02"/></g></g></svg>